<svg width="480" height="235" viewBox="0 0 480 235" fill="none" xmlns="http://www.w3.org/2000/svg">
<g clip-path="url(#clip0_106_669)">
<path fill-rule="evenodd" clip-rule="evenodd" d="M97.564 202.382C100.655 180.884 107.358 133.995 87.249 111.903C67.1404 89.8117 63.9379 95.0381 60.4376 76.8756C56.9372 58.7132 38.3926 51.337 29.0458 61.9009C19.699 72.4647 30.9449 92.6658 34.557 97.0767C38.1691 101.488 34.9294 128.657 46.7339 147.45C58.5384 166.242 77.4926 152.787 76.6734 169.134C77.7533 201.233 97.564 202.382 97.564 202.382Z" fill="#DBF6FF"/>
<path fill-rule="evenodd" clip-rule="evenodd" d="M28.2073 61.1657C23.7228 66.2342 23.289 73.5803 25.8721 82.1166C27.6726 88.0669 31.0406 94.4753 33.5795 97.6415L33.691 97.7791C34.4527 98.7092 34.9305 101.197 35.4529 106.624L35.979 112.337L36.0963 113.549C36.2649 115.255 36.4315 116.781 36.6176 118.291C37.2039 123.052 37.9462 127.297 38.9628 131.339C40.5571 137.676 42.7708 143.238 45.7866 148.039C48.77 152.789 52.3727 155.872 56.6943 157.777L57.0885 157.949C59.5467 159.001 61.3313 159.444 65.5486 160.182L67.3557 160.493C70.7393 161.083 72.3032 161.565 73.5223 162.526C75.033 163.715 75.7272 165.692 75.5575 169.078C75.556 169.109 75.5557 169.14 75.5568 169.17C76.0276 183.164 79.9918 192.598 86.3514 198.253C88.7592 200.394 91.345 201.834 93.9362 202.702C94.8491 203.008 95.7002 203.221 96.469 203.356L96.6788 203.392C97.0471 203.452 97.3246 203.482 97.4989 203.492C98.0786 203.525 98.5875 203.111 98.6698 202.539L99.1535 199.145C100.108 192.372 100.663 187.911 101.196 182.388C102.053 173.504 102.43 165.204 102.223 157.336C101.692 137.141 97.3597 121.355 88.0768 111.156L87.3761 110.39C83.0876 105.72 79.3831 102.07 75.4154 98.4737L74.7708 97.8926C73.5388 96.7886 71.0322 94.5706 70.7668 94.3328L70.2776 93.8921C69.1809 92.8983 68.3875 92.1364 67.6958 91.4033L67.5977 91.2987C64.6296 88.1201 63.215 84.9459 61.7657 77.8324L61.7145 77.5797C61.6548 77.283 61.5949 76.9786 61.5346 76.6659C59.8143 67.7397 54.4185 60.7463 47.3921 57.6014C40.4378 54.4887 33.0403 55.7033 28.2073 61.1657ZM59.3404 77.0849L59.4628 77.7113L59.5238 78.0166C61.0479 85.5899 62.6032 89.1727 65.8473 92.6902L65.9612 92.8128C66.7587 93.6669 67.6562 94.5285 68.9307 95.6789L73.5343 99.7775L74.2282 100.406C78.2398 104.058 81.9983 107.791 86.4211 112.65C95.2695 122.371 99.4711 137.681 99.9895 157.394C100.188 164.935 99.8421 172.893 99.0455 181.4L98.944 182.463L98.8558 183.359C98.3139 188.784 97.7206 193.382 96.6829 200.654L96.6159 201.121L96.4904 201.096C95.9248 200.979 95.3073 200.815 94.649 200.594C92.3332 199.818 90.0121 198.526 87.84 196.595L87.6643 196.437C81.9468 191.244 78.3107 182.556 77.8044 169.497L77.7912 169.138L77.7891 169.189C77.9918 165.144 77.0531 162.47 74.9086 160.781L74.7293 160.644C73.197 159.498 71.4362 158.956 67.9704 158.342L65.9747 157.998C61.6965 157.251 60.0602 156.829 57.5991 155.744C53.6828 154.018 50.426 151.23 47.6811 146.86C44.8006 142.274 42.6714 136.925 41.1302 130.798C40.175 127.001 39.4655 123.005 38.8999 118.538L38.8353 118.021C38.6374 116.414 38.4615 114.787 38.2811 112.936L38.0625 110.607C37.9293 109.153 37.7605 107.294 37.7183 106.845L37.6151 105.775C37.0683 100.263 36.57 97.8201 35.4646 96.4258L35.4229 96.374C33.0585 93.4867 29.755 87.2372 28.0114 81.4753C25.6279 73.5986 26.0173 67.0059 29.8841 62.6356C38.8334 52.521 56.0953 60.2472 59.3404 77.0849Z" fill="white"/>
<path fill-rule="evenodd" clip-rule="evenodd" d="M108.4 34.7314C88.7383 32.8781 84.6794 52.6714 84.0463 69.4624C83.4133 86.2535 86.5413 92.2952 76.9338 101.228C67.3264 110.161 82.9664 122.245 81.6258 131.104C80.2853 139.962 71.0874 163.685 106.911 216.171C108.214 218.061 110.076 233.406 110.076 233.406L117.821 231.331C117.821 231.331 112.831 218.876 118.492 203.791C124.152 188.705 133.685 181.588 134.616 162.721C135.547 143.854 121.955 147.487 124.45 135.07C126.945 122.653 139.68 114.053 138.675 101.599C137.707 89.1446 114.172 80.0634 119.385 65.6817C124.599 51.3 125.418 36.3252 108.4 34.7314Z" fill="#DBF6FF"/>
<path fill-rule="evenodd" clip-rule="evenodd" d="M88.096 44.5931C84.9002 50.7258 83.3594 58.8891 82.9459 69.0197L82.9137 69.8755C82.8223 72.5037 82.8147 74.715 82.8634 77.9826L82.9234 81.7188C82.9679 85.1492 82.9237 86.611 82.7208 88.3933C82.4191 91.0428 81.7528 93.173 80.5225 95.241C79.5537 96.8696 78.2109 98.491 76.3844 100.216L76.1714 100.415C73.7011 102.712 72.5963 105.359 72.6829 108.363C72.7509 110.721 73.5119 113.169 74.9644 116.239L75.0837 116.49C75.4482 117.25 75.8048 117.954 76.3438 118.986L77.6033 121.389C78.687 123.475 79.1591 124.477 79.6414 125.73L79.6743 125.816C80.4491 127.844 80.7384 129.503 80.5214 130.938L80.4799 131.19C80.2835 132.327 79.6567 135.481 79.5827 135.882L79.4684 136.515C77.9629 145.053 77.9813 153.224 80.4693 163.956C83.9569 178.999 92.0747 196.412 105.987 216.795C106.053 216.892 106.175 217.193 106.311 217.64C106.458 218.122 106.615 218.751 106.781 219.511L106.861 219.888C107.132 221.174 107.416 222.764 107.709 224.591L107.753 224.867C108.024 226.573 108.287 228.391 108.536 230.22L108.721 231.609L108.931 233.248L108.967 233.54C109.048 234.212 109.71 234.656 110.366 234.48L118.112 232.404C118.736 232.237 119.083 231.582 118.882 230.981L118.785 230.721L118.718 230.53C118.671 230.396 118.621 230.246 118.568 230.082C118.34 229.368 118.11 228.537 117.895 227.599C116.277 220.541 116.424 212.48 119.538 204.179L119.729 203.678C121.134 200.023 122.73 196.847 125.304 192.314L127.4 188.651L127.891 187.784C130.227 183.632 131.655 180.707 132.874 177.355C134.51 172.854 135.466 168.154 135.732 162.776C136.118 154.944 134.357 150.542 130.343 146.314L130.065 146.026C129.561 145.511 128.476 144.429 128.292 144.24C125.516 141.395 124.727 139.363 125.545 135.288L125.612 134.966C126.468 130.961 128.137 127.719 132.004 121.742L133.428 119.551L133.768 119.023C138.411 111.786 140.246 107.181 139.788 101.51C139.443 97.0694 136.971 93.392 131.322 87.5173L128.543 84.6577C124.81 80.7923 123.051 78.69 121.616 76.163C119.652 72.7034 119.199 69.4725 120.436 66.0589C123.419 57.831 124.544 50.6966 123.321 45.1717C121.836 38.4651 116.951 34.4151 108.505 33.6241C98.9331 32.7219 92.2242 36.6711 88.096 44.5931ZM108.295 35.8383C115.8 36.5413 119.869 39.9142 121.139 45.6503C122.252 50.6798 121.187 57.4358 118.335 65.3042C116.859 69.3736 117.406 73.2669 119.671 77.2573L119.82 77.5162C121.417 80.262 123.363 82.5282 127.476 86.7593L129.519 88.8596L129.885 89.2397C135.055 94.639 137.273 97.9737 137.561 101.685C137.96 106.624 136.362 110.771 132.187 117.352L131.458 118.487L130.118 120.551C126.004 126.909 124.261 130.341 123.354 134.852C122.389 139.655 123.411 142.384 126.558 145.655L126.83 145.933C127.226 146.332 128.191 147.296 128.555 147.671L128.596 147.713C132.295 151.559 133.859 155.384 133.5 162.666C133.246 167.823 132.333 172.304 130.773 176.598C129.576 179.89 128.157 182.777 125.779 186.986L124.801 188.701C124.309 189.559 123.721 190.584 123.538 190.906L123.18 191.536C120.541 196.199 118.913 199.488 117.445 203.401C114.163 212.149 114.009 220.642 115.716 228.094L115.779 228.364C115.948 229.078 116.126 229.732 116.305 230.325L116.379 230.566L111.024 232L110.937 231.321C110.903 231.068 110.869 230.806 110.833 230.537C110.558 228.486 110.264 226.436 109.96 224.52L109.826 223.688C109.529 221.876 109.241 220.306 108.964 219.039L108.889 218.701C108.53 217.109 108.205 216.083 107.832 215.541C94.0697 195.378 86.0674 178.212 82.6462 163.456C80.2319 153.042 80.2123 145.169 81.6668 136.912L81.7916 136.223C81.9099 135.603 82.6047 132.101 82.7306 131.269C83.0138 129.398 82.6619 127.38 81.7627 125.026L81.657 124.752C81.1058 123.343 80.5502 122.201 79.2 119.624L78.1829 117.685C77.7335 116.821 77.4184 116.196 77.0997 115.531C74.153 109.391 74.0144 105.544 77.5871 102.144L77.6965 102.041C79.7791 100.104 81.323 98.2601 82.4449 96.3743C83.8014 94.0941 84.5571 91.7424 84.9081 88.9186L84.9408 88.6438C85.172 86.6133 85.2089 85.0221 85.1469 80.9456L85.1017 78.2367C85.0474 74.7502 85.0544 72.4897 85.1545 69.729L85.1628 69.5041C85.5404 59.4875 87.0265 51.4755 90.0792 45.6172C93.8016 38.474 99.6615 35.0246 108.295 35.8383Z" fill="white"/>
<path fill-rule="evenodd" clip-rule="evenodd" d="M107.246 200.64C100.506 183.664 85.7968 146.671 62.0016 138.702C38.2064 130.77 38.0947 135.885 27.9659 124.024C17.8371 112.163 1.34064 114.35 -1.00537 125.877C-3.38861 137.405 13.2196 147.598 17.651 149.34C22.1195 151.082 31.0939 172.284 47.4787 181.18C63.8635 190.113 71.9814 172.544 78.2002 184.813C92.4252 207.905 107.246 200.64 107.246 200.64Z" fill="#DBF6FF"/>
<path fill-rule="evenodd" clip-rule="evenodd" d="M10.4623 115.072C4.11329 115.636 -0.771049 119.529 -2.06239 125.476L-2.09973 125.653C-3.25812 131.256 -0.482345 136.854 4.99402 142.081C8.78801 145.702 13.9079 149.02 17.0808 150.311L17.2404 150.374C18.1153 150.716 19.4728 152.291 21.9534 155.802L25.1245 160.339C25.4471 160.799 25.7352 161.207 25.9481 161.507L26.0346 161.628C27.6851 163.94 29.1872 165.938 30.7345 167.846C35.8981 174.214 41.1199 178.994 46.9436 182.156C50.6787 184.193 54.2366 185.045 57.7869 184.929C60.4212 184.844 62.7 184.307 65.8592 183.207L67.9744 182.465C70.9121 181.446 71.4609 181.344 72.6285 181.404L72.6812 181.407C74.4017 181.501 75.7709 182.55 77.126 185.164L77.2027 185.313C77.2166 185.341 77.2316 185.368 77.2477 185.394C77.8015 186.293 78.3617 187.156 78.9281 187.982C83.9833 195.363 89.4268 199.775 95.0291 201.716C99.091 203.123 102.826 203.117 105.994 202.254C106.811 202.031 107.402 201.803 107.739 201.637C108.261 201.382 108.499 200.77 108.285 200.231L107.391 197.99C101.815 184.072 97.7833 175.302 91.9759 165.719C83.1432 151.144 73.3894 141.343 62.3577 137.648C58.0309 136.206 54.2475 135.109 50.5786 134.192L49.4757 133.922C47.197 133.377 42.2392 132.29 41.8897 132.207C39.0841 131.544 37.4473 130.953 35.8172 129.945C33.9022 128.761 31.9381 126.924 29.1432 123.684L28.817 123.304C23.8044 117.434 16.9219 114.498 10.4623 115.072ZM27.1147 124.744L27.4562 125.142C30.384 128.535 32.4959 130.509 34.6383 131.834C36.4574 132.959 38.2518 133.62 41.1248 134.311L41.5794 134.418C42.6646 134.661 47.3291 135.687 49.2336 136.152C53.0997 137.094 57.0608 138.228 61.6468 139.757C72.0691 143.247 81.4779 152.702 90.0628 166.868L90.608 167.774C96.1067 176.979 100.045 185.633 105.491 199.252L105.788 199.997L105.732 200.015L105.516 200.078C105.479 200.088 105.442 200.099 105.404 200.109C102.649 200.86 99.3699 200.865 95.7637 199.616C90.6373 197.84 85.5716 193.734 80.7742 186.73L80.5017 186.328C80.1389 185.789 79.7785 185.234 79.4205 184.663L79.1736 184.265L79.1975 184.312C77.4847 180.933 75.4396 179.33 72.8031 179.186C71.718 179.127 70.572 179.311 69.1778 179.718L68.9021 179.8C68.4832 179.928 68.0359 180.076 67.5054 180.261L65.4025 181.01C62.2899 182.108 60.1488 182.628 57.7142 182.707C54.5649 182.809 51.4027 182.052 48.0153 180.205C42.4856 177.203 37.4683 172.609 32.4732 166.449C31.047 164.69 29.6557 162.848 28.1414 160.739L27.2527 159.487L24.0244 154.868C21.087 150.685 19.6168 148.946 18.1233 148.331L18.0583 148.305C15.1754 147.171 10.1916 143.96 6.54042 140.476C1.61692 135.777 -0.82669 130.907 0.058017 126.256L0.0894682 126.098C2.30085 115.232 17.8146 113.853 27.1147 124.744Z" fill="white"/>
<path fill-rule="evenodd" clip-rule="evenodd" d="M98.532 204.939C98.9416 185.331 99.8353 142.594 120.838 125.729C141.803 108.864 143.851 113.979 149.586 98.2626C155.32 82.5465 172.748 78.6175 179.488 89.3296C186.228 100.042 173.343 116.462 169.508 119.909C165.672 123.356 164.592 148.005 151.447 163.091C138.302 178.177 123.556 163.536 121.88 178.177C116.183 206.718 98.532 204.939 98.532 204.939Z" fill="#DBF6FF"/>
<path fill-rule="evenodd" clip-rule="evenodd" d="M126.349 234.889L135.733 191.892C136.515 188.63 133.983 185.517 130.557 185.517H72.1675C68.7416 185.517 66.2094 188.593 66.9542 191.818L76.5616 234.555" fill="#3471E9"/>
<rect x="117.524" y="0.147949" width="284.239" height="234.036" fill="white"/>
<path fill-rule="evenodd" clip-rule="evenodd" d="M401.763 -0.963867H117.524C116.907 -0.963867 116.406 -0.466013 116.406 0.14812V234.184C116.406 234.799 116.907 235.296 117.524 235.296H401.763C402.38 235.296 402.88 234.799 402.88 234.184V0.14812C402.88 -0.466013 402.38 -0.963867 401.763 -0.963867ZM400.646 1.25976V233.072H118.641V1.25976H400.646Z" fill="#2E186A"/>
<rect x="279.175" y="175.027" width="15.9379" height="24.7603" fill="#DBF6FF"/>
<rect x="304.162" y="164.611" width="15.9379" height="35.1759" fill="#DBF6FF"/>
<rect x="329.186" y="148.154" width="15.9379" height="51.6333" fill="#DBF6FF"/>
<rect x="354.172" y="133.92" width="15.9379" height="65.8667" fill="#3471E9"/>
<path fill-rule="evenodd" clip-rule="evenodd" d="M375.51 100.116C375.249 99.8933 374.914 99.8192 374.616 99.8563L364.19 101.524C363.594 101.635 363.147 102.191 363.259 102.785C363.37 103.378 363.929 103.785 364.525 103.711L371.339 102.636L351.007 126.136L342.703 118.204C342.48 117.982 342.182 117.87 341.884 117.908C341.586 117.908 341.288 118.056 341.102 118.278L313.844 149.785L305.949 143.891C305.502 143.557 304.906 143.594 304.497 143.965L280.031 167.317C279.584 167.725 279.584 168.429 279.994 168.874C280.218 169.096 280.515 169.207 280.813 169.207C281.074 169.207 281.372 169.096 281.595 168.911L305.391 146.189L313.397 152.157C313.881 152.49 314.514 152.453 314.924 152.008L342.07 120.613L350.374 128.546C350.598 128.768 350.896 128.879 351.193 128.842C351.491 128.842 351.789 128.694 351.976 128.471L373.685 103.378L373.536 112.162C373.536 112.792 374.02 113.274 374.654 113.274C375.249 113.274 375.771 112.792 375.771 112.162L375.957 100.931C375.882 100.672 375.733 100.338 375.51 100.116Z" fill="#3471E9"/>
<path fill-rule="evenodd" clip-rule="evenodd" d="M214.752 173.062C215.369 173.062 215.869 173.56 215.869 174.174C215.869 174.766 215.404 175.25 214.818 175.284L214.752 175.286H146.234C145.617 175.286 145.117 174.788 145.117 174.174C145.117 173.582 145.582 173.098 146.168 173.064L146.234 173.062H214.752Z" fill="#2E186A"/>
<path fill-rule="evenodd" clip-rule="evenodd" d="M196.655 183.44C197.272 183.44 197.772 183.938 197.772 184.552C197.772 185.145 197.307 185.629 196.72 185.663L196.655 185.664H146.234C145.617 185.664 145.117 185.167 145.117 184.552C145.117 183.96 145.582 183.476 146.168 183.442L146.234 183.44H196.655Z" fill="#2E186A"/>
<path fill-rule="evenodd" clip-rule="evenodd" d="M180.493 195.08C181.11 195.08 181.61 195.577 181.61 196.192C181.61 196.784 181.145 197.268 180.559 197.302L180.493 197.304H144.745C144.128 197.304 143.627 196.806 143.627 196.192C143.627 195.599 144.093 195.115 144.679 195.081L144.745 195.08H180.493Z" fill="#2E186A"/>
<path fill-rule="evenodd" clip-rule="evenodd" d="M252.214 173.062C252.831 173.062 253.331 173.56 253.331 174.174C253.331 174.766 252.866 175.25 252.28 175.284L252.214 175.286H222.647C222.03 175.286 221.53 174.788 221.53 174.174C221.53 173.582 221.995 173.098 222.581 173.064L222.647 173.062H252.214Z" fill="#2E186A"/>
<rect x="144.745" y="141.333" width="107.469" height="20.5347" fill="#02ADE3"/>
<path fill-rule="evenodd" clip-rule="evenodd" d="M166.231 140.221C166.826 140.221 167.312 140.684 167.346 141.268L167.348 141.333V161.905C167.348 162.519 166.848 163.017 166.231 163.017C165.636 163.017 165.15 162.554 165.116 161.97L165.114 161.905V141.333C165.114 140.719 165.614 140.221 166.231 140.221Z" fill="white"/>
<path fill-rule="evenodd" clip-rule="evenodd" d="M187.718 140.221C188.313 140.221 188.799 140.684 188.833 141.268L188.835 141.333V161.905C188.835 162.519 188.335 163.017 187.718 163.017C187.123 163.017 186.636 162.554 186.602 161.97L186.601 161.905V141.333C186.601 140.719 187.101 140.221 187.718 140.221Z" fill="white"/>
<path fill-rule="evenodd" clip-rule="evenodd" d="M209.204 140.221C209.799 140.221 210.285 140.684 210.319 141.268L210.321 141.333V161.905C210.321 162.519 209.821 163.017 209.204 163.017C208.609 163.017 208.123 162.554 208.089 161.97L208.087 161.905V141.333C208.087 140.719 208.587 140.221 209.204 140.221Z" fill="white"/>
<path fill-rule="evenodd" clip-rule="evenodd" d="M230.728 140.221C231.323 140.221 231.809 140.684 231.843 141.268L231.845 141.333V161.905C231.845 162.519 231.345 163.017 230.728 163.017C230.133 163.017 229.646 162.554 229.612 161.97L229.611 161.905V141.333C229.611 140.719 230.111 140.221 230.728 140.221Z" fill="white"/>
<path fill-rule="evenodd" clip-rule="evenodd" d="M165.457 140.532C165.901 140.106 166.609 140.12 167.036 140.562C167.447 140.987 167.451 141.653 167.057 142.082L167.006 142.135L145.519 162.706C145.075 163.132 144.367 163.118 143.94 162.676C143.529 162.251 143.525 161.585 143.919 161.156L143.97 161.104L165.457 140.532Z" fill="white"/>
<path fill-rule="evenodd" clip-rule="evenodd" d="M143.932 140.571C144.338 140.141 145.008 140.105 145.458 140.477L145.511 140.524L166.588 160.28C167.037 160.701 167.058 161.405 166.635 161.852C166.228 162.282 165.559 162.318 165.109 161.946L165.056 161.899L143.979 142.143C143.53 141.722 143.509 141.018 143.932 140.571Z" fill="white"/>
<path fill-rule="evenodd" clip-rule="evenodd" d="M186.943 140.532C187.388 140.106 188.095 140.12 188.523 140.562C188.933 140.987 188.937 141.653 188.543 142.082L188.492 142.135L167.006 162.706C166.561 163.132 165.854 163.118 165.426 162.676C165.015 162.251 165.012 161.585 165.405 161.156L165.457 161.104L186.943 140.532Z" fill="white"/>
<path fill-rule="evenodd" clip-rule="evenodd" d="M165.418 140.571C165.825 140.141 166.494 140.105 166.944 140.477L166.997 140.524L188.074 160.28C188.523 160.701 188.544 161.405 188.121 161.852C187.715 162.282 187.045 162.318 186.595 161.946L186.542 161.899L165.465 142.143C165.016 141.722 164.995 141.018 165.418 140.571Z" fill="white"/>
<path fill-rule="evenodd" clip-rule="evenodd" d="M208.429 140.532C208.874 140.106 209.581 140.12 210.009 140.562C210.42 140.987 210.423 141.653 210.03 142.082L209.978 142.135L188.492 162.706C188.047 163.132 187.34 163.118 186.912 162.676C186.502 162.251 186.498 161.585 186.892 161.156L186.943 161.104L208.429 140.532Z" fill="white"/>
<path fill-rule="evenodd" clip-rule="evenodd" d="M186.904 140.571C187.311 140.141 187.98 140.105 188.43 140.477L188.483 140.524L209.56 160.28C210.009 160.701 210.031 161.405 209.608 161.852C209.201 162.282 208.532 162.318 208.081 161.946L208.028 161.899L186.952 142.143C186.502 141.722 186.481 141.018 186.904 140.571Z" fill="white"/>
<rect x="348.214" y="65.9404" width="11.5438" height="11.4905" fill="#3471E9"/>
<rect x="317.94" y="45.1094" width="44.1272" height="13.2326" fill="#3471E9"/>
<path fill-rule="evenodd" clip-rule="evenodd" d="M340.394 76.3193C341.011 76.3193 341.511 76.8172 341.511 77.4313C341.511 78.0235 341.046 78.5076 340.46 78.5414L340.394 78.5433H317.94C317.323 78.5433 316.823 78.0455 316.823 77.4313C316.823 76.8391 317.288 76.355 317.874 76.3212L317.94 76.3193H340.394Z" fill="#2E186A"/>
<path fill-rule="evenodd" clip-rule="evenodd" d="M340.394 70.8706C341.011 70.8706 341.511 71.3685 341.511 71.9826C341.511 72.5748 341.046 73.0589 340.46 73.0927L340.394 73.0946H317.94C317.323 73.0946 316.823 72.5967 316.823 71.9826C316.823 71.3904 317.288 70.9063 317.874 70.8725L317.94 70.8706H340.394Z" fill="#2E186A"/>
<path fill-rule="evenodd" clip-rule="evenodd" d="M340.394 65.459C341.011 65.459 341.511 65.9568 341.511 66.571C341.511 67.1632 341.046 67.6472 340.46 67.6811L340.394 67.683H317.94C317.323 67.683 316.823 67.1851 316.823 66.571C316.823 65.9788 317.288 65.4947 317.874 65.4609L317.94 65.459H340.394Z" fill="#2E186A"/>
<path fill-rule="evenodd" clip-rule="evenodd" d="M343.075 107.381C343.692 107.381 344.193 107.879 344.193 108.493C344.193 109.085 343.727 109.569 343.141 109.603L343.075 109.605H281.744C281.127 109.605 280.627 109.107 280.627 108.493C280.627 107.901 281.092 107.417 281.678 107.383L281.744 107.381H343.075Z" fill="#2E186A"/>
<path fill-rule="evenodd" clip-rule="evenodd" d="M317.94 112.607C318.557 112.607 319.057 113.105 319.057 113.719C319.057 114.311 318.592 114.795 318.005 114.829L317.94 114.831H281.744C281.127 114.831 280.627 114.333 280.627 113.719C280.627 113.127 281.092 112.643 281.678 112.609L281.744 112.607H317.94Z" fill="#2E186A"/>
<path fill-rule="evenodd" clip-rule="evenodd" d="M218.811 76.8381L260.891 55.5991C264.242 62.1969 265.992 69.4619 265.992 76.8381C265.992 102.599 244.692 123.801 218.811 123.801C204.438 123.801 190.846 117.277 181.908 106.083L218.811 76.8381Z" fill="#3471E9"/>
<path fill-rule="evenodd" clip-rule="evenodd" d="M293.921 39.8828C294.538 39.8828 295.038 40.3807 295.038 40.9948C295.038 41.587 294.573 42.0711 293.986 42.1049L293.921 42.1068H243.612C242.995 42.1068 242.495 41.6089 242.495 40.9948C242.495 40.4026 242.96 39.9185 243.546 39.8847L243.612 39.8828H293.921Z" fill="#2E186A"/>
<path fill-rule="evenodd" clip-rule="evenodd" d="M293.921 45.1094C294.538 45.1094 295.038 45.6072 295.038 46.2214C295.038 46.8136 294.573 47.2976 293.987 47.3315L293.921 47.3333H273.142C272.525 47.3333 272.025 46.8355 272.025 46.2214C272.025 45.6292 272.49 45.1451 273.076 45.1113L273.142 45.1094H293.921Z" fill="#2E186A"/>
<path fill-rule="evenodd" clip-rule="evenodd" d="M293.921 50.3726C294.538 50.3726 295.038 50.8704 295.038 51.4845C295.038 52.0767 294.573 52.5608 293.987 52.5946L293.921 52.5965H280.143C279.526 52.5965 279.026 52.0987 279.026 51.4845C279.026 50.8923 279.491 50.4083 280.077 50.3744L280.143 50.3726H293.921Z" fill="#2E186A"/>
<path fill-rule="evenodd" clip-rule="evenodd" d="M295.113 81.5083C295.73 81.5083 296.23 82.0062 296.23 82.6203C296.23 83.2125 295.765 83.6966 295.178 83.7304L295.113 83.7323H244.767C244.15 83.7323 243.649 83.2344 243.649 82.6203C243.649 82.0281 244.114 81.544 244.701 81.5102L244.767 81.5083H295.113Z" fill="#2E186A"/>
<path fill-rule="evenodd" clip-rule="evenodd" d="M295.112 85.6226C295.729 85.6226 296.23 86.1204 296.23 86.7345C296.23 87.3267 295.764 87.8108 295.178 87.8446L295.112 87.8465H285.691C285.074 87.8465 284.574 87.3487 284.574 86.7345C284.574 86.1423 285.039 85.6583 285.625 85.6244L285.691 85.6226H295.112Z" fill="#2E186A"/>
<path fill-rule="evenodd" clip-rule="evenodd" d="M190.213 35.5459C190.83 35.5459 191.33 36.0438 191.33 36.6579C191.33 37.2501 190.865 37.7342 190.278 37.768L190.213 37.7699H160.199C159.582 37.7699 159.082 37.272 159.082 36.6579C159.082 36.0657 159.547 35.5816 160.133 35.5478L160.199 35.5459H190.213Z" fill="#2E186A"/>
<path fill-rule="evenodd" clip-rule="evenodd" d="M166.231 39.7715C166.848 39.7715 167.348 40.2693 167.348 40.8835C167.348 41.4757 166.883 41.9597 166.297 41.9936L166.231 41.9955H160.199C159.582 41.9955 159.082 41.4976 159.082 40.8835C159.082 40.2913 159.547 39.8072 160.133 39.7734L160.199 39.7715H166.231Z" fill="#2E186A"/>
<path fill-rule="evenodd" clip-rule="evenodd" d="M174.424 106.973L209.986 78.9136L164.593 79.3954C164.742 89.8111 168.391 99.3741 174.424 106.973Z" fill="#DBF6FF"/>
<path fill-rule="evenodd" clip-rule="evenodd" d="M169.583 58.5645C167.609 63.6425 166.529 69.1283 166.529 74.9107C166.529 75.096 166.529 75.3184 166.529 75.5037L211.885 74.9107L169.583 58.5645Z" fill="#DBF6FF"/>
<path fill-rule="evenodd" clip-rule="evenodd" d="M242.905 31.4316L220.524 70.6107L261.077 50.5578C257.092 42.5144 250.725 35.8425 242.905 31.4316Z" fill="#DBF6FF"/>
<path fill-rule="evenodd" clip-rule="evenodd" d="M237.654 32.4696C231.1 28.7259 223.503 26.5761 215.423 26.502H214.678C195.649 26.6873 179.451 38.5114 172.897 55.1542L215.125 71.6486L237.654 32.4696Z" fill="#02ADE3"/>
<path fill-rule="evenodd" clip-rule="evenodd" d="M173.083 85.771C173.7 85.771 174.2 86.2688 174.2 86.883C174.2 87.4752 173.735 87.9593 173.149 87.9931L173.083 87.995H143.069C142.452 87.995 141.952 87.4971 141.952 86.883C141.952 86.2908 142.417 85.8067 143.003 85.7729L143.069 85.771H173.083Z" fill="#2E186A"/>
<path fill-rule="evenodd" clip-rule="evenodd" d="M153.905 89.9966C154.522 89.9966 155.023 90.4944 155.023 91.1086C155.023 91.7008 154.557 92.1848 153.971 92.2187L153.905 92.2206H143.069C142.452 92.2206 141.952 91.7227 141.952 91.1086C141.952 90.5164 142.417 90.0323 143.003 89.9985L143.069 89.9966H153.905Z" fill="#2E186A"/>
<path fill-rule="evenodd" clip-rule="evenodd" d="M379.047 215.021C379.047 215.021 371.041 214.576 362.551 216.059C357.487 216.948 348.885 218.394 348.028 219.691C345.98 222.768 353.763 224.288 357.412 221.767" fill="#F9F9F9"/>
<path fill-rule="evenodd" clip-rule="evenodd" d="M377.913 213.867L378.421 213.882L378.986 213.904C379.042 213.907 379.083 213.909 379.11 213.91C379.726 213.945 380.197 214.469 380.163 215.083C380.13 215.674 379.638 216.131 379.051 216.133L378.584 216.113C378.472 216.109 378.35 216.105 378.218 216.101C373.777 215.966 368.451 216.196 363.184 217.078L360.148 217.61L358.783 217.855C358.438 217.918 358.105 217.979 357.781 218.04L357.301 218.13C353.827 218.788 351.332 219.368 349.88 219.902C349.542 220.026 349.275 220.143 349.09 220.247C349.045 220.272 349.007 220.295 348.976 220.316L348.932 220.346L348.923 220.361C348.767 220.61 348.771 220.721 348.906 220.878L348.936 220.912C349.24 221.238 349.916 221.552 350.813 221.74C352.878 222.172 355.35 221.837 356.775 220.853C357.282 220.503 357.978 220.628 358.33 221.133C358.682 221.637 358.556 222.33 358.049 222.68C356.07 224.047 352.977 224.465 350.353 223.916C349.044 223.642 347.966 223.141 347.297 222.423C346.416 221.477 346.327 220.234 347.094 219.08C347.445 218.549 348.09 218.189 349.107 217.815L349.337 217.733C350.876 217.197 353.214 216.65 356.388 216.04L357.369 215.854C357.942 215.747 358.539 215.638 359.187 215.522L362.358 214.963C367.795 214.014 373.286 213.748 377.913 213.867Z" fill="#2E186A"/>
<path fill-rule="evenodd" clip-rule="evenodd" d="M356.891 226.475C352.161 227.624 349.927 227.327 351.156 224.807C352.05 222.99 364.003 216.837 366.349 216.17C368.695 215.466 389.176 212.538 389.176 212.538L394.427 234.184H364.785C357.598 234.629 359.683 230.589 362.625 229.551C365.567 228.476 370.967 225.993 371.786 226.178C371.786 226.178 364.078 228.365 360.614 230.515C358.157 231.478 355.401 229.81 355.14 229.032C354.88 228.254 357.114 226.141 360.875 224.251C364.636 222.36 369.477 220.692 369.477 220.692" fill="#F9F9F9"/>
<path fill-rule="evenodd" clip-rule="evenodd" d="M390.245 212.213L390.262 212.276L395.513 233.923C395.677 234.602 395.181 235.255 394.492 235.294L394.427 235.296L364.822 235.296L364.695 235.303C361.047 235.498 358.871 234.555 358.792 232.522L358.79 232.433C358.788 232.274 358.802 232.115 358.83 231.957L358.843 231.892L358.737 231.888C356.652 231.786 354.591 230.716 354.106 229.455L354.081 229.384C353.954 229.007 353.997 228.593 354.186 228.155L354.196 228.129L354.108 228.141C353.086 228.264 352.264 228.26 351.616 228.118L351.52 228.096C349.728 227.654 349.267 226.134 350.153 224.317C350.714 223.177 353.434 221.391 357.672 219.082L358.365 218.707C361.487 217.035 364.611 215.551 365.892 215.146L366.112 215.081C367.203 214.778 370.75 214.177 376.248 213.33L377.484 213.141C379.09 212.896 380.768 212.644 382.473 212.391L386.923 211.739L389.017 211.437C389.566 211.358 390.085 211.692 390.245 212.213ZM393.007 233.072L388.329 213.783L385.738 214.159L382.802 214.591C381.587 214.771 380.385 214.951 379.213 215.128L375.733 215.66C370.898 216.411 367.64 216.968 366.729 217.218L366.656 217.239C363.909 218.02 352.747 224.101 352.161 225.292L352.095 225.433C352.006 225.633 351.961 225.78 351.944 225.871L351.939 225.901L351.946 225.904C351.965 225.911 351.988 225.918 352.015 225.926L352.057 225.937C352.794 226.119 354.35 225.947 356.626 225.394C356.69 225.378 356.754 225.369 356.818 225.364L356.832 225.364L356.879 225.33C357.822 224.654 358.956 223.978 360.219 223.335L360.371 223.258C361.043 222.92 361.771 222.578 362.549 222.232C363.986 221.592 365.522 220.97 367.058 220.39L367.509 220.221C367.729 220.139 367.942 220.06 368.146 219.986L368.657 219.802L369.112 219.641C369.695 219.44 370.331 219.748 370.533 220.328C370.727 220.888 370.447 221.497 369.904 221.72L369.3 221.935L368.913 222.075C368.582 222.195 368.226 222.327 367.851 222.469C366.353 223.035 364.855 223.642 363.461 224.262C362.714 224.594 362.017 224.922 361.379 225.243C359.676 226.099 358.221 227.042 357.232 227.897C356.872 228.21 356.592 228.494 356.41 228.728L356.365 228.786L356.434 228.84C356.701 229.041 357.06 229.237 357.455 229.389C358.359 229.735 359.294 229.799 360.096 229.52L360.122 229.51L360.216 229.453C361.348 228.778 362.882 228.079 364.732 227.365L364.975 227.271C365.767 226.969 366.588 226.674 367.423 226.389L367.953 226.21L368.47 226.004C370.668 225.135 371.382 224.957 372.002 225.087L372.033 225.093C373.161 225.349 373.204 226.932 372.092 227.247L371.768 227.341L371.172 227.519C370.91 227.599 370.632 227.684 370.341 227.776L370.121 227.845C369.791 227.949 369.461 228.055 369.133 228.163L368.75 228.29L367.537 228.781L364.974 229.83C364.2 230.144 363.7 230.34 363.198 230.525L362.998 230.599C361.901 230.986 361.02 231.905 361.024 232.414C361.025 232.524 361.101 232.624 361.447 232.774C362.056 233.037 363.094 233.16 364.546 233.084L364.716 233.074L364.785 233.072L393.007 233.072Z" fill="#2E186A"/>
<path fill-rule="evenodd" clip-rule="evenodd" d="M478.883 154.047L480 220.433C480.112 227.846 474.116 233.962 466.631 233.962H390.144C390.144 233.962 385.452 213.02 381.207 212.204L402.768 208.275L402.805 97.5952L465.179 130.918C473.893 135.329 479.218 144.373 478.883 154.047Z" fill="#02ADE3"/>
<path fill-rule="evenodd" clip-rule="evenodd" d="M439.962 171.397C440.555 171.354 441.074 171.78 441.151 172.36L441.158 172.425L443.094 198.779C443.133 199.314 442.784 199.797 442.27 199.934L442.205 199.949L397.854 209.031C397.25 209.154 396.659 208.767 396.535 208.165C396.415 207.585 396.773 207.018 397.34 206.867L397.404 206.852L440.794 197.968L438.929 172.587C438.886 171.997 439.314 171.48 439.897 171.404L439.962 171.397Z" fill="white"/>
<path fill-rule="evenodd" clip-rule="evenodd" d="M432.968 140.852L431.143 140.444C423.621 138.776 418.855 131.363 420.531 123.875L424.105 107.751C425.781 100.264 433.229 95.5195 440.751 97.1875L442.576 97.5952C450.098 99.2632 454.864 106.676 453.188 114.164L449.614 130.288C447.975 137.775 440.49 142.519 432.968 140.852Z" fill="#F9F9F9"/>
<path fill-rule="evenodd" clip-rule="evenodd" d="M423.015 107.509L419.44 123.635C417.632 131.714 422.77 139.726 430.901 141.529L432.724 141.936C440.853 143.739 448.935 138.612 450.705 130.524L454.279 114.403C456.087 106.325 450.949 98.3125 442.819 96.5096L440.994 96.1019C432.876 94.3018 424.826 99.4163 423.015 107.509ZM440.508 98.2726L442.331 98.68C449.261 100.217 453.638 107.042 452.098 113.922L448.523 130.048C447.016 136.933 440.132 141.301 433.211 139.766L431.388 139.359C424.458 137.822 420.081 130.997 421.621 124.117L425.196 107.991C426.739 101.097 433.596 96.74 440.508 98.2726Z" fill="black"/>
<path fill-rule="evenodd" clip-rule="evenodd" d="M464.881 89.4405C464.881 89.4405 476.798 66.3482 453.449 54.0052C451.289 52.8561 436.245 45.2946 429.021 57.4152C424.217 65.4957 420.68 74.8364 418.483 82.2867C418.483 82.3238 414.088 96.2607 417.03 105.75C419.972 115.239 432.372 118.537 440.081 116.87C447.789 115.202 449.614 113.608 452.928 109.716C456.242 105.824 464.844 89.5146 464.844 89.5146L464.881 89.4405Z" fill="#F9F9F9"/>
<path fill-rule="evenodd" clip-rule="evenodd" d="M428.06 56.8491L427.813 57.2659C423.561 64.5202 419.969 73.2972 417.411 81.9737L417.404 81.9985L417.405 81.9858C417.405 81.9898 417.404 81.9945 417.403 81.9997L417.303 82.3391L417.213 82.6555L417.118 82.996C417.085 83.1138 417.052 83.236 417.018 83.3631C416.722 84.4645 416.429 85.6792 416.156 86.9892C415.349 90.8492 414.874 94.7102 414.9 98.3337C414.92 101.201 415.258 103.803 415.963 106.078C417.44 110.843 421.205 114.432 426.345 116.523C430.851 118.355 436.11 118.867 440.318 117.956L440.767 117.858C447.621 116.339 449.902 114.961 453.658 110.577L453.78 110.435C454.959 109.05 456.771 106.212 459.084 102.235L459.622 101.305C459.76 101.066 459.899 100.824 460.039 100.578C461.238 98.4803 462.478 96.2473 463.699 94.0022L464.372 92.7613C464.523 92.4826 464.669 92.2112 464.811 91.948L465.833 90.0317L465.892 89.9145C466.048 89.6052 466.258 89.1481 466.504 88.5552C466.88 87.646 467.247 86.6319 467.583 85.528C468.519 82.4524 469.064 79.2039 469.038 75.9021C468.964 66.5406 464.386 58.5278 453.973 53.0233L453.594 52.8251C452.622 52.3268 451.472 51.8085 450.129 51.3076C447.869 50.4653 445.554 49.8705 443.252 49.6284C436.911 48.9616 431.605 51.0387 428.164 56.6761L428.06 56.8491ZM443.017 51.8401C445.114 52.0606 447.251 52.6095 449.345 53.3903C450.767 53.9202 451.953 54.47 452.923 54.9861C462.591 60.0973 466.736 67.3518 466.804 75.9197C466.828 78.9782 466.32 82.009 465.445 84.883C465.13 85.9161 464.787 86.8633 464.438 87.7085L464.312 88.0066C464.251 88.1503 464.191 88.286 464.133 88.4135L464.006 88.6894C463.973 88.7587 463.944 88.8185 463.92 88.8686L463.807 89.0894L463.115 90.3864C462.847 90.8878 462.559 91.4237 462.253 91.9879L462.099 92.2724C460.767 94.7298 459.406 97.1871 458.097 99.479L457.684 100.199L457.278 100.901C455.015 104.803 453.223 107.624 452.134 108.927L451.846 109.265C448.402 113.263 446.5 114.343 439.843 115.783C436.085 116.596 431.285 116.13 427.191 114.464C422.627 112.608 419.36 109.493 418.098 105.422C417.463 103.375 417.153 100.984 417.134 98.3182C417.111 95.0044 417.532 91.4453 418.255 87.8711L418.365 87.337L418.428 87.0466C418.784 85.4206 419.321 83.3562 419.521 82.5901L419.554 82.6001C422.065 74.0856 425.591 65.4719 429.742 58.3897L429.982 57.9828C432.931 53.0348 437.419 51.2513 443.017 51.8401Z" fill="black"/>
<path fill-rule="evenodd" clip-rule="evenodd" d="M418.482 82.2499C420.68 74.8366 424.18 65.4588 429.021 57.3784C429.244 57.0077 429.468 56.6371 429.728 56.3035C425.818 53.2641 419.451 59.5282 415.057 72.4644C412.785 79.1363 406.604 82.5093 406.604 82.5093C411.333 86.6237 415.615 84.8445 418.408 82.5093C418.445 82.3611 418.482 82.2499 418.482 82.2499Z" fill="#2E186A"/>
<path fill-rule="evenodd" clip-rule="evenodd" d="M428.504 77.5759C428.733 77.0053 429.382 76.727 429.956 76.9542C430.508 77.1733 430.788 77.7825 430.603 78.3373L430.58 78.3987L425.977 89.9045L429.036 91.0294C429.594 91.2345 429.889 91.8365 429.718 92.3958L429.697 92.4577C429.49 93.0133 428.886 93.307 428.324 93.1364L428.262 93.1156L424.128 91.5958C423.56 91.387 423.266 90.7684 423.454 90.2038L423.477 90.1413L428.504 77.5759Z" fill="black"/>
<path fill-rule="evenodd" clip-rule="evenodd" d="M426.162 77.1017C426.608 76.067 426.433 74.9992 425.772 74.7167C425.11 74.4341 424.212 75.0439 423.766 76.0786C423.32 77.1133 423.495 78.1812 424.157 78.4637C424.818 78.7462 425.716 78.1364 426.162 77.1017Z" fill="black"/>
<path fill-rule="evenodd" clip-rule="evenodd" d="M437.649 82.0328C437.893 80.9333 437.52 79.9169 436.818 79.7625C436.115 79.6081 435.347 80.3742 435.103 81.4736C434.86 82.5731 435.232 83.5895 435.935 83.7439C436.638 83.8983 437.405 83.1322 437.649 82.0328Z" fill="black"/>
<path fill-rule="evenodd" clip-rule="evenodd" d="M440.81 73.7286C440.931 73.1264 441.519 72.7358 442.124 72.8563C443.828 73.1954 445.166 74.0184 446.158 75.169C446.626 75.7107 446.985 76.2889 447.252 76.8692C447.417 77.227 447.517 77.5174 447.567 77.7087C447.721 78.3033 447.362 78.9099 446.765 79.0635C446.189 79.2117 445.602 78.8846 445.422 78.3279L445.388 78.2115C445.36 78.1252 445.306 77.981 445.221 77.7961C445.037 77.3952 444.786 76.9921 444.463 76.6178C443.784 75.8309 442.88 75.2748 441.686 75.0371C441.081 74.9166 440.689 74.3308 440.81 73.7286Z" fill="black"/>
<path fill-rule="evenodd" clip-rule="evenodd" d="M426.092 65.6674C427.428 65.5702 428.775 66.0199 430.089 66.8106C430.781 67.2268 431.316 67.6437 431.638 67.9386C432.093 68.354 432.123 69.0575 431.706 69.5098C431.288 69.9621 430.582 69.9921 430.127 69.5767L430.081 69.5356C430.024 69.4863 429.935 69.4129 429.818 69.3221C429.553 69.115 429.254 68.907 428.933 68.7138C427.979 68.1397 427.046 67.8279 426.255 67.8855C425.881 67.9127 425.541 68.0218 425.223 68.2261L425.128 68.2902C424.627 68.6478 423.929 68.533 423.57 68.0337C423.21 67.5344 423.326 66.8398 423.827 66.4822C424.513 65.9931 425.279 65.7266 426.092 65.6674Z" fill="black"/>
<path fill-rule="evenodd" clip-rule="evenodd" d="M489.831 82.6204L477.207 76.245C478.808 66.9043 477.803 52.4485 460.189 44.2939C432.633 31.5431 422.579 59.0092 422.579 59.0092L485.697 90.7008C487.932 91.8499 490.687 90.9232 491.842 88.6993C492.959 86.4753 492.065 83.7695 489.831 82.6204Z" fill="#2E186A"/>
<path fill-rule="evenodd" clip-rule="evenodd" d="M435.79 97.6859C436.254 98.0909 436.3 98.7935 435.893 99.2551C435.811 99.3487 435.675 99.4846 435.487 99.6482C435.188 99.9071 434.838 100.163 434.435 100.401C432.066 101.8 429.072 101.977 425.641 100.214C425.093 99.9322 424.878 99.2614 425.161 98.7158C425.444 98.1701 426.118 97.9561 426.666 98.2379C429.389 99.6373 431.568 99.5078 433.295 98.4879C433.577 98.3218 433.818 98.1453 434.018 97.9718L434.11 97.8896L434.214 97.7882C434.621 97.3266 435.327 97.2808 435.79 97.6859Z" fill="black"/>
<path fill-rule="evenodd" clip-rule="evenodd" d="M475.718 85.6968L449.092 72.3159C446.001 81.9161 442.129 101.153 458.625 106.232C458.625 106.232 471.51 110.494 475.233 106.269C475.233 106.269 466.371 99.8191 468.382 94.5186C468.382 94.5186 477.43 107.862 488.081 100.783C488.081 100.783 475.494 96.7796 475.718 85.6968Z" fill="#2E186A"/>
<path fill-rule="evenodd" clip-rule="evenodd" d="M544.049 233.035C544.666 233.035 545.167 233.533 545.167 234.147C545.167 234.739 544.702 235.223 544.115 235.257L544.049 235.259H-44.1646C-44.7816 235.259 -45.2817 234.761 -45.2817 234.147C-45.2817 233.555 -44.8167 233.071 -44.2302 233.037L-44.1646 233.035H544.049Z" fill="#2E186A"/>
</g>
<defs>
<clipPath id="clip0_106_669">
<rect width="480" height="235" fill="white"/>
</clipPath>
</defs>
</svg>
