<svg width="480" height="225" viewBox="0 0 480 225" fill="none" xmlns="http://www.w3.org/2000/svg">
<path fill-rule="evenodd" clip-rule="evenodd" d="M215.098 21.4716C212.361 21.5082 209.697 21.7642 207.106 22.2397L215.609 70.5525L199.297 116.817C204.698 118.719 210.39 119.67 216.12 119.633C242.979 119.341 264.838 96.9581 264.582 70.0405C264.29 43.1228 241.957 21.1791 215.098 21.4716Z" fill="#02ADE3"/>
<path fill-rule="evenodd" clip-rule="evenodd" d="M156.417 72.3082C156.636 92.8256 169.664 111.112 188.933 118.024L205.391 71.7961L156.417 72.3082Z" fill="#DBF6FF"/>
<path fill-rule="evenodd" clip-rule="evenodd" d="M194.261 13.3159C182.838 15.3274 172.511 21.362 165.103 30.2857C157.695 39.2461 153.681 50.5106 153.827 62.1408L202.8 61.6287L194.261 13.3159Z" fill="#3471E9"/>
<path fill-rule="evenodd" clip-rule="evenodd" d="M243.781 22.6785C246.281 22.6785 248.307 20.6481 248.307 18.1434C248.307 15.6388 246.281 13.6084 243.781 13.6084C241.282 13.6084 239.256 15.6388 239.256 18.1434C239.256 20.6481 241.282 22.6785 243.781 22.6785Z" fill="#02ADE3"/>
<path fill-rule="evenodd" clip-rule="evenodd" d="M159.447 111.77C161.946 111.77 163.972 109.74 163.972 107.235C163.972 104.731 161.946 102.7 159.447 102.7C156.947 102.7 154.921 104.731 154.921 107.235C154.921 109.74 156.947 111.77 159.447 111.77Z" fill="#DBF6FF"/>
<path fill-rule="evenodd" clip-rule="evenodd" d="M154.921 32.0413C157.421 32.0413 159.446 30.0109 159.446 27.5062C159.446 25.0016 157.421 22.9712 154.921 22.9712C152.422 22.9712 150.396 25.0016 150.396 27.5062C150.396 30.0109 152.422 32.0413 154.921 32.0413Z" fill="#3471E9"/>
<path fill-rule="evenodd" clip-rule="evenodd" d="M291.332 14.2302C291.936 14.2302 292.427 14.7215 292.427 15.3274C292.427 15.9117 291.971 16.3894 291.396 16.4227L291.332 16.4246H252.321C251.716 16.4246 251.226 15.9334 251.226 15.3274C251.226 14.7431 251.682 14.2655 252.257 14.2321L252.321 14.2302H291.332Z" fill="#02ADE3"/>
<path fill-rule="evenodd" clip-rule="evenodd" d="M263.962 19.8259C264.567 19.8259 265.057 20.3172 265.057 20.9231C265.057 21.5074 264.601 21.9851 264.026 22.0184L263.962 22.0203H252.321C251.716 22.0203 251.226 21.5291 251.226 20.9231C251.226 20.3388 251.682 19.8612 252.257 19.8278L252.321 19.8259H263.962Z" fill="#02ADE3"/>
<path fill-rule="evenodd" clip-rule="evenodd" d="M468.614 123.693C451.681 97.4337 433.216 85.8767 426.173 82.1828C426.1 75.1242 420.225 68.7971 403.109 65.7616C364.792 58.6664 355.085 69.0897 352.859 79.3301L324.394 78.7449L288.011 64.8472L270.786 83.0971C267.538 87.4859 267.867 100.323 279.252 111.258C287.208 118.902 315.672 137.737 332.167 148.453L333.773 222.769L454.674 223.501L448.981 193.803C452.046 193.657 451.171 193.584 452.083 193.547C478.796 192.706 490.035 157.011 468.614 123.693Z" fill="#3471E9"/>
<path fill-rule="evenodd" clip-rule="evenodd" d="M352.494 91.3627C352.384 88.4368 351.873 83.9018 352.859 79.3302L338.699 79.0376C338.845 84.3041 340.561 100.104 355.486 103.395C353.99 100.25 352.713 96.3732 352.494 91.3627Z" fill="#2E186A"/>
<path fill-rule="evenodd" clip-rule="evenodd" d="M440.661 91.9478C434.384 86.8642 429.202 83.7921 426.173 82.1829C426.282 92.4964 414.021 104.456 406.321 110.344C406.722 110.417 407.124 110.454 407.562 110.49C417.415 111.149 440.807 97.9092 444.784 95.6417C443.507 94.5811 442.12 93.301 440.661 91.9478Z" fill="#2E186A"/>
<path fill-rule="evenodd" clip-rule="evenodd" d="M444.292 132.036C448.383 131.371 452.799 132.097 457.499 134.451C458.04 134.722 458.259 135.382 457.989 135.924C457.718 136.466 457.061 136.685 456.52 136.414C452.224 134.262 448.271 133.612 444.643 134.202C441.752 134.672 439.178 135.908 436.932 137.679C435.904 138.491 435.015 139.36 434.269 140.228C434.047 140.486 433.852 140.727 433.685 140.947L433.531 141.153C433.51 141.183 433.49 141.21 433.473 141.234L433.401 141.339C433.069 141.845 432.39 141.986 431.885 141.653C431.38 141.32 431.239 140.64 431.571 140.133L431.649 140.019C431.846 139.732 432.167 139.31 432.61 138.795C433.444 137.826 434.433 136.858 435.578 135.955C438.099 133.966 441.007 132.57 444.292 132.036Z" fill="#2E186A"/>
<path fill-rule="evenodd" clip-rule="evenodd" d="M417.694 124.119C418.206 123.84 418.841 124.012 419.146 124.501L419.36 124.879C419.388 124.928 419.418 124.979 419.449 125.033C419.675 125.422 419.939 125.857 420.236 126.325C421.086 127.664 422.034 129.002 423.053 130.246C425.929 133.759 428.77 135.794 431.209 135.702L431.323 135.696L431.378 135.691L431.544 135.463C431.693 135.262 431.87 135.034 432.074 134.785L432.166 134.673C433.043 133.613 434.097 132.556 435.329 131.569C440.498 127.432 447.061 125.779 454.94 128.051C455.521 128.219 455.857 128.827 455.69 129.409C455.522 129.992 454.916 130.328 454.335 130.16C447.18 128.097 441.338 129.568 436.696 133.284C435.586 134.172 434.637 135.125 433.851 136.074C433.617 136.357 433.412 136.621 433.238 136.861L433.153 136.979C433.07 137.097 433.01 137.186 432.973 137.244L432.943 137.29C432.781 137.552 432.517 137.734 432.214 137.791C431.967 137.838 431.717 137.869 431.466 137.886C428.079 138.108 424.694 135.71 421.36 131.638C420.28 130.319 419.283 128.911 418.389 127.503L418.161 127.14C417.976 126.843 417.806 126.561 417.65 126.296L417.427 125.913C417.35 125.777 417.292 125.674 417.256 125.607C416.967 125.075 417.163 124.408 417.694 124.119Z" fill="#2E186A"/>
<path fill-rule="evenodd" clip-rule="evenodd" d="M361.947 107.821C362.708 107.646 363.467 108.102 363.678 108.846L363.7 108.936L363.809 109.431L363.948 110.089C363.985 110.264 364.022 110.449 364.061 110.641L364.1 110.836C364.4 112.338 364.7 113.994 364.979 115.757C365.598 119.659 366.03 123.515 366.192 127.132C366.321 130.002 366.273 132.63 366.024 134.967C365.939 135.77 365.219 136.352 364.418 136.266C363.616 136.18 363.036 135.459 363.121 134.656C363.353 132.48 363.398 129.996 363.276 127.263C363.119 123.768 362.699 120.018 362.096 116.217C361.823 114.494 361.53 112.875 361.237 111.41L361.126 110.858C361.078 110.623 361.032 110.404 360.988 110.199L360.851 109.574C360.671 108.787 361.161 108.002 361.947 107.821Z" fill="#2E186A"/>
<path fill-rule="evenodd" clip-rule="evenodd" d="M401.807 108.769C402.511 109.108 402.821 109.939 402.522 110.652L402.131 111.494L401.86 112.087C401.643 112.567 401.411 113.089 401.166 113.649C400.167 115.938 399.167 118.39 398.235 120.902C397.271 123.498 396.436 126.013 395.765 128.389C394.912 131.413 394.349 134.129 394.125 136.451C394.048 137.256 393.335 137.845 392.532 137.767C391.73 137.689 391.142 136.974 391.22 136.17C391.462 133.653 392.058 130.772 392.956 127.592C393.65 125.135 394.509 122.548 395.498 119.883C396.451 117.314 397.471 114.813 398.491 112.476L398.806 111.761C399.011 111.299 399.206 110.867 399.389 110.466L399.708 109.776L399.859 109.455C400.208 108.727 401.08 108.42 401.807 108.769Z" fill="#2E186A"/>
<path fill-rule="evenodd" clip-rule="evenodd" d="M408.839 79.1839L413.729 84.1944C413.729 84.1944 390.519 101.896 382.965 144.503C378.075 172.189 379.718 175.298 379.718 175.298L365.339 174.529C365.339 174.529 373.368 128.484 368.368 113.892C363.369 99.3356 367.93 82.9509 371.324 80.3177C374.718 77.6844 408.839 79.1839 408.839 79.1839Z" fill="white"/>
<path fill-rule="evenodd" clip-rule="evenodd" d="M402.38 62.9089L403.73 74.2831L408.328 79.5862C408.328 79.5862 394.716 88.0345 381.688 102.883C381.688 102.883 371.032 91.6187 369.171 73.954L394.132 77.0627L396.103 67.2977L402.38 62.9089Z" fill="white"/>
<path fill-rule="evenodd" clip-rule="evenodd" d="M395.476 66.3979L395.415 66.4439C395.217 66.604 395.081 66.8288 395.03 67.0802L393.26 75.8481L369.306 72.8652C368.607 72.7781 368.008 73.3666 368.082 74.0692C368.845 81.3047 371.08 88.0054 374.328 94.0601C375.755 96.7202 377.284 99.0778 378.816 101.109C379.3 101.751 379.755 102.32 380.169 102.813L380.437 103.127C380.645 103.368 380.8 103.539 380.894 103.638C381.337 104.106 382.085 104.092 382.51 103.608C383.036 103.008 383.568 102.414 384.106 101.824C389.537 95.8658 395.358 90.589 401.178 86.0524C403.214 84.4655 405.103 83.0852 406.797 81.9187L407.366 81.5302C407.669 81.3249 407.951 81.1369 408.21 80.9665L408.623 80.6979L408.904 80.519L408.962 80.4807C409.486 80.1092 409.582 79.3593 409.154 78.8666L404.777 73.818L403.467 62.7794C403.369 61.9565 402.431 61.535 401.753 62.0092L395.476 66.3979ZM401.508 64.8558L402.643 74.4128L402.656 74.494C402.692 74.682 402.778 74.8575 402.904 75.0028L406.675 79.3522L406.504 79.4664C406.21 79.6635 405.894 79.8781 405.557 80.1102C403.829 81.3005 401.905 82.7061 399.834 84.3202C393.921 88.9289 388.009 94.2879 382.489 100.344L381.944 100.945L381.696 101.222L381.577 101.077C381.26 100.691 380.921 100.261 380.563 99.786C379.096 97.8412 377.628 95.5775 376.256 93.021L376.084 92.6972C373.285 87.3981 371.296 81.5945 370.445 75.3712L370.424 75.2158L393.997 78.1515L394.063 78.1577C394.605 78.1928 395.096 77.8209 395.205 77.2802L397.089 67.9458L401.508 64.8558Z" fill="#2E186A"/>
<path fill-rule="evenodd" clip-rule="evenodd" d="M406.43 47.3289C406.43 47.3289 415.116 47.5117 413.546 55.2652C411.977 63.0186 402.416 58.5567 402.416 58.5567L403.693 47.4751L406.43 47.3289Z" fill="white"/>
<path fill-rule="evenodd" clip-rule="evenodd" d="M406.453 46.2319L406.372 46.2332L403.635 46.3795C403.102 46.408 402.667 46.8178 402.606 47.3493L401.329 58.4309C401.274 58.9004 401.526 59.3519 401.954 59.5514L402.1 59.6178C402.493 59.7913 403.081 60.0183 403.81 60.2439C405.258 60.6918 406.717 60.9534 408.108 60.9301C411.457 60.8739 413.877 59.1539 414.619 55.4833C415.464 51.3092 413.758 48.5498 410.517 47.1492C409.626 46.764 408.683 46.5117 407.742 46.363L407.507 46.3278C407.052 46.2639 406.689 46.2369 406.453 46.2319ZM404.675 48.5212L406.441 48.4268L406.605 48.4369L406.657 48.441C406.88 48.4587 407.13 48.4878 407.401 48.5306C408.173 48.6526 408.943 48.8587 409.65 49.1642C411.995 50.1776 413.098 51.9618 412.474 55.0471C411.95 57.6332 410.455 58.696 408.071 58.736C406.943 58.7549 405.701 58.5323 404.456 58.1471L404.247 58.081C404.041 58.0143 403.844 57.9456 403.655 57.8762L403.599 57.8549L404.675 48.5212Z" fill="#2E186A"/>
<path fill-rule="evenodd" clip-rule="evenodd" d="M381.688 22.825C379.389 22.6422 363.734 21.6547 362.019 34.7478C360.303 47.8409 362.164 62.3238 363.588 68.9069C365.011 75.49 395.045 72.4545 396.723 71.8693C398.402 71.2842 400.446 69.2726 400.446 69.2726L404.569 49.1575C404.569 49.1575 406.248 24.8731 381.688 22.825Z" fill="white"/>
<path fill-rule="evenodd" clip-rule="evenodd" d="M377.834 21.6737C375.581 21.7806 373.375 22.1206 371.311 22.7596C365.562 24.5394 361.752 28.3513 360.933 34.605C359.473 45.7518 360.446 59.5589 362.518 69.1392C363.305 72.7829 369.46 74.1313 379.445 74.1725L380.061 74.1734C386.754 74.1657 395.663 73.4005 397.083 72.9056C397.387 72.7996 397.7 72.6573 398.023 72.4825C398.497 72.226 398.986 71.9029 399.486 71.5279C399.828 71.2708 400.16 71.0006 400.475 70.7276L400.709 70.5226C400.94 70.3162 401.113 70.1535 401.212 70.0554C401.368 69.9027 401.474 69.707 401.518 69.4935L405.641 49.3783C405.651 49.3305 405.658 49.2821 405.661 49.2334L405.67 49.0721C405.681 48.8472 405.689 48.5218 405.688 48.1067C405.685 47.2381 405.64 46.2697 405.537 45.2238C405.244 42.2356 404.553 39.2126 403.348 36.3346C399.882 28.0604 392.944 22.6628 381.779 21.7316C380.612 21.6388 379.344 21.602 377.834 21.6737ZM381.601 23.9187C391.921 24.7794 398.169 29.6404 401.329 37.184C402.442 39.8422 403.085 42.6549 403.358 45.4384C403.454 46.4126 403.496 47.312 403.498 48.1134L403.498 48.3803C403.497 48.4655 403.496 48.5469 403.494 48.6245L403.486 48.8949C403.484 48.9417 403.482 48.9808 403.481 49.0138L399.443 68.7112L399.422 68.7306C399.369 68.7793 399.313 68.8304 399.253 68.8834C398.913 69.187 398.547 69.4907 398.172 69.7719C397.753 70.0866 397.351 70.352 396.983 70.5516C396.757 70.6738 396.549 70.7684 396.363 70.833L396.288 70.8567C394.902 71.2505 386.381 71.9717 380.058 71.979L379.521 71.9781C370.802 71.9398 365.099 70.7159 364.657 68.6745C362.636 59.3238 361.68 45.7628 363.104 34.8906C363.801 29.5688 366.967 26.401 371.957 24.8562C373.829 24.2769 375.856 23.9643 377.938 23.8655C379.344 23.7988 380.524 23.833 381.601 23.9187Z" fill="#2E186A"/>
<path fill-rule="evenodd" clip-rule="evenodd" d="M401.686 48.9746C400.227 50.401 396.285 58.7396 395.337 62.6163C395.337 62.6163 385.629 59.3613 371.726 59.1419C371.726 59.1419 364.135 59.2882 361.106 60.2025C361.106 60.2025 361.763 73.9539 367.93 81.049C374.098 88.1442 387.089 86.1693 393.183 81.8902C399.278 77.6112 400.3 75.5631 401.686 70.9915C403.11 66.4199 406.832 49.3403 406.832 49.3403L401.686 48.9746Z" fill="#968BB4"/>
<path fill-rule="evenodd" clip-rule="evenodd" d="M405.664 51.937C405.664 51.937 409.751 45.6099 411.32 39.0268C412.817 32.846 409.934 26.3725 404.241 23.593C399.46 21.2889 395.92 23.081 395.92 23.081C395.92 23.081 400.993 14.4498 393.366 6.80604C390.702 4.09965 386.98 2.63673 383.184 2.74645C373.879 3.00246 371.032 10.9022 371.032 10.9022C371.032 10.9022 361.106 -7.42082 340.707 3.44133C338.663 4.53852 336.327 7.57407 335.233 9.62215C328.481 22.0569 350.706 36.7958 362.237 37.9662C374.937 39.2462 382.345 37.125 386.432 34.0163C383.367 35.8449 386.797 54.8628 405.664 51.937Z" fill="#2E186A"/>
<path fill-rule="evenodd" clip-rule="evenodd" d="M370.565 53.7524C370.632 53.1502 371.174 52.7172 371.775 52.7851C372.355 52.8506 372.777 53.358 372.746 53.9341L372.74 53.9984L371.569 64.4062L374.223 63.7124C374.787 63.5649 375.363 63.8863 375.54 64.4352L375.558 64.4971C375.705 65.0625 375.385 65.64 374.837 65.8177L374.775 65.8357L370.579 66.9329C369.856 67.1219 369.168 66.5471 369.209 65.8117L369.214 65.7483L370.565 53.7524Z" fill="#2E186A"/>
<path fill-rule="evenodd" clip-rule="evenodd" d="M367.018 55.9967C367.703 55.9967 368.259 55.1452 368.259 54.0949C368.259 53.0446 367.703 52.1931 367.018 52.1931C366.333 52.1931 365.777 53.0446 365.777 54.0949C365.777 55.1452 366.333 55.9967 367.018 55.9967Z" fill="#2E186A"/>
<path fill-rule="evenodd" clip-rule="evenodd" d="M378.805 55.7772C379.49 55.7772 380.046 54.9258 380.046 53.8754C380.046 52.8251 379.49 51.9736 378.805 51.9736C378.12 51.9736 377.564 52.8251 377.564 53.8754C377.564 54.9258 378.12 55.7772 378.805 55.7772Z" fill="#2E186A"/>
<path fill-rule="evenodd" clip-rule="evenodd" d="M378.855 41.9291C380.818 41.6218 382.513 42.1205 383.891 43.1331C384.273 43.4138 384.602 43.7149 384.88 44.0186C385.054 44.2087 385.177 44.3654 385.251 44.472C385.596 44.9697 385.473 45.6534 384.977 45.999C384.498 46.3319 383.848 46.2299 383.493 45.7774L383.423 45.6852C383.381 45.6321 383.329 45.5704 383.267 45.5021C383.081 45.2996 382.857 45.0944 382.596 44.9027C381.662 44.2162 380.54 43.8863 379.193 44.0972C378.596 44.1907 378.036 43.7812 377.942 43.1825C377.849 42.5838 378.258 42.0227 378.855 41.9291Z" fill="#2E186A"/>
<path fill-rule="evenodd" clip-rule="evenodd" d="M365.315 41.7497C366.085 41.5609 366.872 41.5649 367.614 41.6804L367.771 41.7068C367.892 41.7287 367.989 41.7501 368.058 41.768C368.643 41.9194 368.995 42.5178 368.844 43.1045C368.699 43.6703 368.138 44.0187 367.573 43.9071L367.444 43.8781C367.403 43.8698 367.347 43.8596 367.278 43.8488C366.797 43.7739 366.283 43.7713 365.835 43.8812C365.231 44.0293 364.837 44.3495 364.627 44.9643L364.599 45.05C364.424 45.63 363.813 45.9578 363.234 45.7823C362.655 45.6068 362.328 44.9943 362.503 44.4144C362.944 42.9544 363.97 42.0794 365.315 41.7497Z" fill="#2E186A"/>
<path fill-rule="evenodd" clip-rule="evenodd" d="M379.79 68.7241C378.951 69.5287 377.637 70.5527 375.813 71.3939C375.813 71.3939 376.032 75.0512 380.228 73.8443C382.819 73.1128 382.491 70.8087 381.871 69.1629C381.506 68.3218 380.447 68.1023 379.79 68.7241Z" fill="#2E186A"/>
<path fill-rule="evenodd" clip-rule="evenodd" d="M292.966 86.3017C296.885 77.3711 294.663 67.7516 288.003 64.816C281.343 61.8803 272.767 66.7402 268.847 75.6708C264.928 84.6014 267.15 94.2209 273.811 97.1565C280.471 100.092 289.047 95.2323 292.966 86.3017Z" fill="#2E186A"/>
<path fill-rule="evenodd" clip-rule="evenodd" d="M252.649 68.3585C245.971 65.3229 245.022 68.7973 246.956 70.5528C249.401 72.7106 261.043 78.8183 261.043 78.8183C261.043 78.8183 251.627 78.1234 249.219 83.4265C246.81 88.7296 249.328 89.1684 252.941 86.8278C256.517 84.4871 267.575 87.5227 267.575 87.5227L270.896 90.8142C270.896 90.8142 282.318 94.947 285.748 82.2196C288.303 74.9416 283.668 69.7482 283.668 69.7482C282.354 68.139 277.756 61.373 261.991 57.3134C261.991 57.3134 254.583 56.2528 260.094 60.0564C261.517 61.0439 263.013 61.8485 264.436 62.5434" fill="white"/>
<path fill-rule="evenodd" clip-rule="evenodd" d="M260.018 56.0804C260.496 56.0779 260.999 56.1056 261.499 56.1531L261.765 56.1801C261.926 56.1978 262.056 56.2143 262.146 56.2272C262.186 56.2329 262.225 56.2407 262.264 56.2507C267.361 57.5633 271.624 59.2319 275.152 61.186C277.868 62.6901 280.039 64.2984 281.796 65.9869C282.382 66.55 282.898 67.0982 283.38 67.6573L283.559 67.8676C283.668 67.9972 283.83 68.1955 283.989 68.3935L284.517 69.0542L284.593 69.1435C284.674 69.2422 284.773 69.369 284.887 69.5232L285.005 69.6865C285.369 70.1991 285.732 70.7915 286.069 71.4589C287.7 74.6847 288.19 78.395 286.852 82.3774L286.795 82.5443L286.746 82.7204C285.39 87.5599 282.793 90.5093 279.325 91.8076L279.171 91.8638C276.758 92.7272 274.221 92.7233 271.844 92.2068C271.24 92.0757 270.789 91.9419 270.524 91.8461C270.4 91.8011 270.284 91.7339 270.184 91.648L270.126 91.5942L267.013 88.5086L266.646 88.4157L266.346 88.3419C265.597 88.1602 264.778 87.9783 263.915 87.8086C262.423 87.5149 260.964 87.2897 259.604 87.16C256.727 86.8858 254.564 87.076 253.536 87.7491C251.355 89.162 249.503 89.6998 248.249 88.9284C246.748 88.0047 246.875 85.9382 248.223 82.9719C249.301 80.5964 251.558 79.1174 254.578 78.3323C255.291 78.1471 256.011 78.0074 256.724 77.9063L256.961 77.8739L256.548 77.6489C255.605 77.1336 254.674 76.6179 253.774 76.1111L252.915 75.6251L251.906 75.0463C249.094 73.4206 247.135 72.1727 246.221 71.366C244.786 70.0635 244.478 68.0059 245.863 66.8236C247.24 65.6486 249.746 65.8338 253.101 67.3592C253.652 67.6094 253.896 68.2597 253.646 68.8116C253.397 69.3634 252.748 69.6079 252.197 69.3576C249.533 68.1467 247.837 68.0214 247.283 68.4942C247.053 68.691 247.134 69.2335 247.68 69.7293C248.469 70.4254 250.501 71.7102 253.375 73.3616L253.996 73.7171L254.315 73.898C255.545 74.5953 256.845 75.3145 258.16 76.0298L259.29 76.6413C259.81 76.9213 260.297 77.1819 260.742 77.4186L261.55 77.8462C262.584 78.3884 262.163 79.942 261.026 79.9156L260.712 79.8995C259.032 79.8313 257.021 79.9641 255.128 80.4564C252.685 81.0914 250.973 82.2138 250.215 83.8809C249.682 85.0546 249.407 85.9705 249.369 86.5918C249.347 86.9533 249.385 87.0522 249.395 87.0585C249.661 87.2224 250.774 86.9053 252.233 85.9796L252.343 85.909C253.914 84.8809 256.465 84.6566 259.811 84.9755C261.251 85.1127 262.779 85.3486 264.337 85.6553C265.121 85.8095 265.869 85.9733 266.566 86.1383L266.861 86.2091C267.08 86.2621 267.281 86.3122 267.461 86.3585L267.864 86.4644C268.02 86.5071 268.163 86.5835 268.286 86.688L268.345 86.7425L271.48 89.8501L271.519 89.862C271.71 89.9184 271.925 89.9752 272.162 90.0298L272.308 90.0622C274.32 90.4994 276.463 90.5027 278.435 89.7971C281.294 88.7747 283.448 86.371 284.636 82.1364L284.691 81.9334L284.716 81.8554C285.925 78.4108 285.523 75.2339 284.116 72.4506C283.83 71.8854 283.525 71.3862 283.222 70.9599L283.101 70.7943C283.063 70.7424 283.025 70.6938 282.99 70.6487L282.913 70.5516L282.821 70.4429C282.78 70.3897 282.193 69.6507 281.916 69.3185L281.886 69.2833C281.401 68.7073 280.882 68.1487 280.281 67.571C278.659 66.013 276.641 64.5181 274.093 63.1066C270.819 61.2934 266.856 59.7279 262.106 58.4768L261.781 58.3919L261.695 58.3812C261.575 58.3664 261.439 58.3516 261.293 58.3377C260.859 58.2965 260.425 58.2727 260.029 58.2747C259.909 58.2753 259.795 58.2784 259.688 58.2838L259.594 58.2891L259.659 58.3473C259.9 58.5582 260.212 58.8008 260.599 59.072L260.717 59.1542C261.939 60.0022 263.281 60.7588 264.916 61.5569C265.46 61.8223 265.686 62.4791 265.421 63.0238C265.156 63.5686 264.501 63.795 263.957 63.5296C262.23 62.6866 260.796 61.8782 259.473 60.9599L259.248 60.8027C257.343 59.4514 256.549 58.3852 257.121 57.227C257.572 56.3127 258.531 56.088 260.018 56.0804Z" fill="#2E186A"/>
<path fill-rule="evenodd" clip-rule="evenodd" d="M263.086 72.8204C260.751 71.6866 250.934 68.6145 248.635 65.835C246.336 63.0554 249.292 61.4096 257.685 65.2864" fill="white"/>
<path fill-rule="evenodd" clip-rule="evenodd" d="M248.954 61.9851C250.889 61.6314 254.072 62.4092 258.143 64.2899C258.693 64.5435 258.933 65.1952 258.68 65.7456C258.426 66.2959 257.776 66.5364 257.227 66.2828C253.53 64.575 250.731 63.891 249.347 64.1439C249.186 64.1733 249.071 64.2118 249.001 64.2492L248.979 64.2616L248.98 64.2685C248.985 64.299 248.997 64.3421 249.017 64.3978L249.034 64.4419C249.112 64.6356 249.26 64.8718 249.478 65.1347C249.7 65.4032 250.051 65.7096 250.522 66.04C251.692 66.8615 253.467 67.7529 255.824 68.7464L256.424 68.9962C257.914 69.6028 262.896 71.5087 263.563 71.8329C264.108 72.0971 264.335 72.7533 264.071 73.2986C263.818 73.8238 263.201 74.0546 262.67 73.8351L262.494 73.7557C261.566 73.3499 257.069 71.628 255.593 71.0262L255.451 70.968C252.725 69.8391 250.676 68.8276 249.265 67.8371C248.647 67.4032 248.155 66.9738 247.792 66.5351C246.154 64.5543 246.526 62.4289 248.954 61.9851Z" fill="#2E186A"/>
<path fill-rule="evenodd" clip-rule="evenodd" d="M266.808 68.651C266.553 68.3219 250.46 63.5308 251.554 61.2267C252.43 59.3615 254.766 58.8129 263.67 62.1776L270.786 65.3229" fill="white"/>
<path fill-rule="evenodd" clip-rule="evenodd" d="M250.564 60.7594C251.915 57.8824 255.372 57.9203 263.55 60.9609L264.056 61.1508L264.112 61.1736L271.228 64.3188C271.781 64.5634 272.032 65.211 271.788 65.7655C271.553 66.3001 270.943 66.5528 270.404 66.3509L270.344 66.3266L263.261 63.1957L262.656 62.9689C256.132 60.5498 253.56 60.3508 252.71 61.4254L252.691 61.4508L252.728 61.4874C252.801 61.5581 252.895 61.6391 253.01 61.7274L253.081 61.7812C253.682 62.228 254.649 62.7558 255.925 63.3395C256.819 63.7488 257.848 64.1787 259.005 64.6305L259.864 64.9615C260.915 65.361 261.923 65.727 263.222 66.1844L266.358 67.2823L266.707 67.4101C266.78 67.4376 266.846 67.4629 266.906 67.4862L267.015 67.5304C267.1 67.5653 267.171 67.5969 267.234 67.6286C267.421 67.7224 267.528 67.7904 267.673 67.9773C268.044 68.4556 267.958 69.1449 267.481 69.5169C267.113 69.8031 266.622 69.8182 266.245 69.5922L266.219 69.5751L266.097 69.5256C266.018 69.4944 265.917 69.4564 265.794 69.4115L264.305 68.8867L262.689 68.3225C261.145 67.7801 260.009 67.3669 258.765 66.89L258.206 66.6738C257.015 66.2084 255.95 65.7634 255.015 65.3356C253.612 64.6935 252.526 64.1011 251.777 63.544C250.639 62.699 250.068 61.8025 250.564 60.7594Z" fill="#2E186A"/>
<path fill-rule="evenodd" clip-rule="evenodd" d="M432.778 223.756L290.748 223.683L289.726 123.949L431.756 122.486L432.778 223.756Z" fill="white"/>
<path fill-rule="evenodd" clip-rule="evenodd" d="M431.745 121.389L289.715 122.852C289.11 122.858 288.625 123.354 288.631 123.96L289.653 223.695C289.659 224.296 290.147 224.78 290.747 224.781L432.778 224.854C433.387 224.854 433.879 224.356 433.873 223.745L432.851 122.475C432.845 121.869 432.35 121.383 431.745 121.389ZM430.673 123.594L431.672 222.659L291.831 222.587L290.832 125.034L430.673 123.594Z" fill="#2E186A"/>
<path fill-rule="evenodd" clip-rule="evenodd" d="M422.962 195.925H304.141C303.521 195.925 303.046 195.449 303.046 194.827C303.046 194.206 303.521 193.73 304.141 193.73H422.962C423.582 193.73 424.057 194.206 424.057 194.827C424.057 195.449 423.582 195.925 422.962 195.925Z" fill="#968BB4"/>
<path fill-rule="evenodd" clip-rule="evenodd" d="M422.962 181.698H304.141C303.521 181.698 303.046 181.222 303.046 180.601C303.046 179.979 303.521 179.503 304.141 179.503H422.962C423.582 179.503 424.057 179.979 424.057 180.601C424.057 181.222 423.582 181.698 422.962 181.698Z" fill="#968BB4"/>
<path fill-rule="evenodd" clip-rule="evenodd" d="M422.962 167.471H304.141C303.521 167.471 303.046 166.995 303.046 166.374C303.046 165.752 303.521 165.276 304.141 165.276H422.962C423.582 165.276 424.057 165.752 424.057 166.374C424.057 166.995 423.582 167.471 422.962 167.471Z" fill="#968BB4"/>
<path fill-rule="evenodd" clip-rule="evenodd" d="M422.962 153.244H304.141C303.521 153.244 303.046 152.768 303.046 152.147C303.046 151.525 303.521 151.05 304.141 151.05H422.962C423.582 151.05 424.057 151.525 424.057 152.147C424.057 152.768 423.582 153.244 422.962 153.244Z" fill="#968BB4"/>
<rect width="16.64" height="64.9504" transform="matrix(0.999947 -0.0102478 0.010203 0.999948 369.62 143.194)" fill="#02ADE3"/>
<rect width="16.7494" height="41.6545" transform="matrix(0.999947 -0.0102478 0.010203 0.999948 397.983 166.489)" fill="#3471E9"/>
<rect width="16.7494" height="41.6545" transform="matrix(0.999947 -0.0102478 0.010203 0.999948 341.75 166.489)" fill="#3471E9"/>
<path fill-rule="evenodd" clip-rule="evenodd" d="M331.036 207.92L314.395 208.103L314.14 188.135L330.781 187.952L331.036 207.92Z" fill="#3471E9"/>
<path fill-rule="evenodd" clip-rule="evenodd" d="M304.141 137.042C304.724 137.042 305.201 137.499 305.234 138.075L305.236 138.139L305.235 207.006H422.962C423.545 207.006 424.021 207.463 424.055 208.039L424.057 208.103C424.057 208.688 423.601 209.165 423.026 209.199L422.962 209.201H304.141C303.558 209.201 303.081 208.744 303.048 208.168L303.046 208.103V138.139C303.046 137.533 303.536 137.042 304.141 137.042Z" fill="#2E186A"/>
<path fill-rule="evenodd" clip-rule="evenodd" d="M326.657 211.139C327.262 211.139 327.752 211.63 327.752 212.236C327.752 212.82 327.296 213.298 326.721 213.331L326.657 213.333H316.877C316.272 213.333 315.782 212.842 315.782 212.236C315.782 211.652 316.238 211.174 316.813 211.141L316.877 211.139H326.657Z" fill="#3471E9"/>
<path fill-rule="evenodd" clip-rule="evenodd" d="M355.304 211.139C355.908 211.139 356.399 211.63 356.399 212.236C356.399 212.82 355.943 213.298 355.368 213.331L355.304 213.333H345.524C344.919 213.333 344.429 212.842 344.429 212.236C344.429 211.652 344.885 211.174 345.459 211.141L345.524 211.139H355.304Z" fill="#3471E9"/>
<path fill-rule="evenodd" clip-rule="evenodd" d="M383.404 211.139C384.008 211.139 384.498 211.63 384.498 212.236C384.498 212.82 384.043 213.298 383.468 213.331L383.404 213.333H373.587C372.982 213.333 372.492 212.842 372.492 212.236C372.492 211.652 372.948 211.174 373.523 211.141L373.587 211.139H383.404Z" fill="#02ADE3"/>
<path fill-rule="evenodd" clip-rule="evenodd" d="M411.539 211.139C412.144 211.139 412.634 211.63 412.634 212.236C412.634 212.82 412.178 213.298 411.604 213.331L411.539 213.333H401.759C401.155 213.333 400.665 212.842 400.665 212.236C400.665 211.652 401.12 211.174 401.695 211.141L401.759 211.139H411.539Z" fill="#3471E9"/>
<path fill-rule="evenodd" clip-rule="evenodd" d="M299.251 154.597C298.63 154.597 298.156 154.122 298.156 153.5V151.781C298.156 151.159 298.63 150.684 299.251 150.684C299.871 150.684 300.346 151.159 300.346 151.781V153.5C300.346 154.085 299.871 154.597 299.251 154.597Z" fill="#968BB4"/>
<path fill-rule="evenodd" clip-rule="evenodd" d="M299.251 168.312C298.63 168.312 298.156 167.837 298.156 167.215V165.496C298.156 164.874 298.63 164.399 299.251 164.399C299.871 164.399 300.346 164.874 300.346 165.496V167.215C300.346 167.837 299.871 168.312 299.251 168.312Z" fill="#968BB4"/>
<path fill-rule="evenodd" clip-rule="evenodd" d="M299.251 183.417C298.63 183.417 298.156 182.941 298.156 182.32V180.601C298.156 179.979 298.63 179.503 299.251 179.503C299.871 179.503 300.346 179.979 300.346 180.601V182.32C300.346 182.905 299.871 183.417 299.251 183.417Z" fill="#968BB4"/>
<path fill-rule="evenodd" clip-rule="evenodd" d="M299.251 197.644C298.63 197.644 298.156 197.168 298.156 196.546V194.827C298.156 194.206 298.63 193.73 299.251 193.73C299.871 193.73 300.346 194.206 300.346 194.827V196.546C300.346 197.132 299.871 197.644 299.251 197.644Z" fill="#968BB4"/>
<path fill-rule="evenodd" clip-rule="evenodd" d="M450.66 180.344C458.52 180.344 464.892 172.436 464.892 162.68C464.892 152.924 458.52 145.015 450.66 145.015C442.799 145.015 436.427 152.924 436.427 162.68C436.427 172.436 442.799 180.344 450.66 180.344Z" fill="#2E186A"/>
<path fill-rule="evenodd" clip-rule="evenodd" d="M416.867 165.057C409.532 165.13 410.08 161.546 412.525 160.778C415.626 159.79 428.727 158.913 428.727 158.913C428.727 158.913 419.823 155.731 419.75 149.916C419.677 144.101 422.159 144.722 424.494 148.307C426.83 151.891 438.179 153.573 438.179 153.573L442.558 151.891C442.558 151.891 454.674 152.732 452.703 165.715C452.119 173.396 445.806 176.285 445.806 176.285C443.945 177.236 437.048 181.551 420.954 178.918C420.954 178.918 413.765 176.87 420.298 175.627C422.013 175.297 423.691 175.151 425.261 175.115" fill="white"/>
<path fill-rule="evenodd" clip-rule="evenodd" d="M445.24 175.344L445.45 175.238C445.486 175.219 445.53 175.196 445.581 175.168C445.791 175.053 446.029 174.911 446.287 174.74C447.031 174.246 447.779 173.628 448.476 172.88C450.205 171.025 451.333 168.7 451.594 165.837L451.615 165.591L451.621 165.55C452.468 159.967 450.699 156.497 447.198 154.501C446.163 153.911 445.045 153.498 443.926 153.233C443.535 153.141 443.173 153.074 442.851 153.028L442.706 153.009L438.571 154.598C438.42 154.655 438.259 154.679 438.099 154.667L438.019 154.658L437.587 154.589L437.389 154.556C436.897 154.472 436.349 154.371 435.76 154.252C434.075 153.913 432.388 153.502 430.807 153.016L430.397 152.888C427.089 151.833 424.738 150.591 423.643 149.004L423.578 148.906C422.599 147.405 421.68 146.631 421.367 146.674L421.36 146.678C421.338 146.698 421.268 146.791 421.159 147.087C420.945 147.669 420.829 148.616 420.845 149.902C420.871 152.001 422.342 153.951 424.856 155.67C425.784 156.304 426.785 156.858 427.786 157.325C428.078 157.461 428.352 157.581 428.603 157.685L428.966 157.831L429.095 157.879C430.214 158.279 429.986 159.928 428.8 160.007L427.639 160.09C427.185 160.123 426.696 160.16 426.179 160.201L424.869 160.306C423.343 160.432 421.836 160.567 420.409 160.711L419.795 160.774C416.37 161.131 413.89 161.494 412.852 161.825C412.166 162.04 411.884 162.486 412.014 162.755C412.332 163.415 413.934 163.989 416.856 163.96C417.461 163.954 417.956 164.44 417.962 165.046C417.968 165.652 417.483 166.148 416.878 166.154C413.197 166.191 410.83 165.342 410.043 163.711C409.249 162.067 410.364 160.307 412.193 159.732L412.347 159.685C413.704 159.289 416.421 158.908 420.19 158.528L421.262 158.423C422.166 158.336 423.093 158.253 424.03 158.174L424.623 158.125L424.483 158.04C424.288 157.921 424.096 157.799 423.906 157.673L423.622 157.482C420.579 155.402 418.693 152.901 418.655 149.93C418.615 146.678 419.329 144.737 421.071 144.499C422.526 144.3 424 145.541 425.411 147.707C426.143 148.83 428.33 149.96 431.449 150.918C432.953 151.38 434.572 151.775 436.191 152.101C436.759 152.215 437.285 152.312 437.757 152.393L438.06 152.443L442.166 150.866C442.29 150.819 442.422 150.794 442.554 150.794L442.634 150.796L442.778 150.808C443.163 150.845 443.731 150.932 444.429 151.097C445.738 151.407 447.049 151.892 448.28 152.594C452.51 155.005 454.726 159.29 453.815 165.68L453.791 165.837L453.776 166.02C453.479 169.328 452.184 172.057 450.209 174.233L450.076 174.377C449.255 175.259 448.376 175.986 447.494 176.57L447.285 176.706C446.913 176.944 446.602 177.117 446.376 177.228L446.291 177.269L445.402 177.734L444.957 177.959C444.221 178.321 443.458 178.65 442.608 178.962C437.215 180.939 430.161 181.536 420.778 180.001C420.737 179.994 420.695 179.985 420.655 179.973L420.383 179.891C420.316 179.87 420.241 179.846 420.16 179.819L420.077 179.792C419.651 179.649 419.224 179.49 418.82 179.315C418.216 179.053 417.713 178.779 417.328 178.476C416.657 177.947 416.28 177.288 416.53 176.481C416.843 175.473 417.979 174.951 420.092 174.549C421.761 174.229 423.475 174.059 425.235 174.018C425.84 174.003 426.341 174.483 426.355 175.089C426.369 175.695 425.891 176.197 425.286 176.211C423.642 176.25 422.048 176.408 420.502 176.704C419.996 176.801 419.578 176.902 419.249 177.005L419.141 177.039L419.184 177.061C419.304 177.124 419.436 177.188 419.58 177.252L419.689 177.301C420.029 177.448 420.399 177.586 420.77 177.71L420.957 177.772L421.195 177.845L421.452 177.887C430.202 179.28 436.724 178.737 441.676 176.967L441.856 176.901C442.534 176.653 443.149 176.392 443.741 176.111L443.994 175.989C444.306 175.836 445.011 175.465 445.24 175.344Z" fill="#2E186A"/>
<path fill-rule="evenodd" clip-rule="evenodd" d="M428.253 165.203C425.662 165.276 415.444 164.179 412.233 165.752C409.021 167.325 411.065 170.067 420.298 169.885" fill="white"/>
<path fill-rule="evenodd" clip-rule="evenodd" d="M411.752 164.766C413.327 163.995 416.08 163.747 420.075 163.81L420.665 163.822C421.522 163.841 422.411 163.873 423.467 163.921L427.371 164.104C427.853 164.122 427.927 164.115 428.222 164.106C428.827 164.089 429.33 164.567 429.347 165.172C429.364 165.778 428.888 166.283 428.284 166.3L427.792 166.311C427.536 166.309 427.141 166.293 426.045 166.241L423.615 166.125C422.465 166.071 421.521 166.036 420.618 166.016L420.041 166.005C416.409 165.947 413.86 166.176 412.713 166.738C412.412 166.885 412.185 167.037 412.038 167.179C412.003 167.212 411.976 167.242 411.956 167.266L411.923 167.31L411.937 167.33C411.98 167.385 412.053 167.453 412.158 167.53L412.213 167.569C413.382 168.364 416.218 168.868 420.276 168.788C420.881 168.776 421.38 169.257 421.392 169.863C421.404 170.469 420.924 170.969 420.319 170.981C415.847 171.07 412.618 170.496 410.984 169.384C408.941 167.995 409.453 165.892 411.752 164.766Z" fill="#2E186A"/>
<path fill-rule="evenodd" clip-rule="evenodd" d="M429.968 170.506C429.603 170.726 412.963 168.605 413.036 171.128C413.109 173.213 415.006 174.639 424.494 175.115H432.304" fill="white"/>
<path fill-rule="evenodd" clip-rule="evenodd" d="M415.554 168.899C417.064 168.75 419.076 168.75 421.556 168.865L422.161 168.895C422.976 168.937 423.825 168.991 424.741 169.056L426.422 169.183L428.652 169.358C429.015 169.386 429.286 169.404 429.488 169.415L429.658 169.422L429.78 169.425L429.83 169.418C430.227 169.367 430.634 169.538 430.871 169.886L430.907 169.942C431.218 170.461 431.05 171.135 430.532 171.447C430.354 171.554 430.221 171.586 430.055 171.606C429.993 171.614 429.931 171.618 429.862 171.619C429.805 171.62 429.74 171.62 429.666 171.618L429.506 171.612C429.376 171.607 429.221 171.598 429.032 171.585L425.279 171.295L424.329 171.227C423.507 171.17 422.739 171.122 422.002 171.084L421.454 171.057C419.157 170.95 417.288 170.947 415.919 171.069L415.769 171.083C415.079 171.151 414.551 171.251 414.217 171.372L414.171 171.39L414.176 171.411C414.537 172.782 417.037 173.627 424.31 174.006L424.527 174.017H432.304C432.887 174.017 433.363 174.474 433.397 175.05L433.399 175.115C433.399 175.699 432.943 176.176 432.368 176.21L432.304 176.212H424.494L424.44 176.21L423.9 176.182C415.203 175.7 412.053 174.361 411.941 171.16C411.916 170.286 412.483 169.703 413.338 169.36C413.896 169.136 414.631 168.99 415.554 168.899Z" fill="#2E186A"/>
<path fill-rule="evenodd" clip-rule="evenodd" d="M235.826 144.43C242.796 141.687 240.497 139.2 237.76 139.566C234.33 140.004 221.484 144.32 221.484 144.32C221.484 144.32 228.272 138.542 225.389 134.153C222.506 129.764 220.463 131.154 220.061 134.775C219.66 138.395 209.259 143.515 209.259 143.515L204.953 144.613C204.953 144.613 195.976 151.891 204.625 160.924C209.259 166.593 215.755 165.386 215.755 165.386C217.726 165.093 225.134 164.545 238.964 156.426C238.964 156.426 244.73 152.147 237.906 153.719C236.154 154.122 234.439 154.67 232.943 155.219" fill="#C0A083"/>
<path fill-rule="evenodd" clip-rule="evenodd" d="M221.507 130.401C223.093 129.969 224.709 131.121 226.304 133.549C226.968 134.56 227.252 135.683 227.189 136.868C227.1 138.53 226.355 140.214 225.156 141.887L225.083 141.987L225.146 141.967C226.015 141.687 226.886 141.411 227.746 141.142L228.98 140.76L230.353 140.342C233.803 139.305 236.317 138.644 237.616 138.478C239.57 138.217 241.442 139.072 241.527 140.777C241.612 142.491 239.769 144.057 236.226 145.451C235.663 145.672 235.028 145.395 234.807 144.831C234.586 144.267 234.863 143.63 235.426 143.408C236.973 142.8 238.079 142.19 238.746 141.624C239.006 141.403 239.18 141.204 239.275 141.04C239.327 140.949 239.341 140.9 239.34 140.886C239.336 140.8 238.763 140.538 237.899 140.654L237.758 140.673C236.56 140.852 234.163 141.487 230.955 142.452L230.357 142.633C229.994 142.743 229.624 142.857 229.247 142.973C227.839 143.408 226.387 143.869 224.95 144.335L223.867 144.688L221.832 145.36C220.709 145.738 219.886 144.316 220.73 143.525L220.947 143.332L221.131 143.16C221.227 143.07 221.33 142.971 221.437 142.865C221.948 142.359 222.459 141.796 222.935 141.194C224.172 139.626 224.931 138.088 225.002 136.751C225.041 136.022 224.874 135.365 224.475 134.756C223.844 133.797 223.261 133.139 222.762 132.783C222.422 132.541 222.206 132.485 222.082 132.519C221.961 132.552 221.8 132.705 221.631 133.035C221.421 133.444 221.259 134.028 221.168 134.741L221.149 134.896C221.03 135.968 220.368 137.036 219.267 138.158C218.267 139.177 216.906 140.235 215.268 141.316C214.058 142.115 212.766 142.881 211.474 143.589L211.095 143.796C210.848 143.929 210.612 144.054 210.39 144.17L209.806 144.468C209.778 144.482 209.756 144.493 209.742 144.5C209.697 144.522 209.65 144.542 209.602 144.557L209.529 144.579L205.475 145.611L205.431 145.651C205.353 145.723 205.27 145.803 205.182 145.89L205.092 145.98C204.653 146.424 204.212 146.941 203.802 147.521C202.67 149.121 201.988 150.879 201.96 152.742C201.923 155.145 202.979 157.621 205.415 160.164L205.444 160.196L205.471 160.229C206.365 161.321 207.369 162.182 208.465 162.835C210.706 164.169 213.067 164.54 215.079 164.363L215.237 164.348C215.34 164.338 215.422 164.327 215.479 164.319L215.595 164.301C215.737 164.279 216.416 164.189 216.599 164.163C217.095 164.094 217.562 164.019 218.069 163.925C219.446 163.671 220.926 163.309 222.588 162.793C227.026 161.414 232.145 159.13 238.068 155.679L238.358 155.51L238.58 155.336L238.634 155.293C238.882 155.094 239.129 154.882 239.357 154.67L239.467 154.565L239.503 154.53L239.489 154.532C239.155 154.579 238.76 154.652 238.305 154.754L238.151 154.789C236.594 155.146 234.963 155.646 233.319 156.249C232.751 156.457 232.123 156.165 231.915 155.596C231.707 155.027 231.999 154.397 232.567 154.188C234.292 153.556 236.008 153.029 237.661 152.65L237.954 152.584C239.969 152.143 241.144 152.14 241.837 152.756C242.384 153.242 242.449 153.922 242.195 154.555C242.053 154.91 241.813 155.257 241.487 155.626C241.3 155.838 241.085 156.055 240.848 156.276C240.645 156.465 240.434 156.65 240.22 156.828L240.006 157.003C239.834 157.142 239.698 157.246 239.616 157.307C239.584 157.331 239.552 157.352 239.518 157.372C233.307 161.018 227.924 163.433 223.236 164.889C221.49 165.431 219.927 165.813 218.466 166.083C218.034 166.163 217.629 166.23 217.215 166.291L216.611 166.376L215.925 166.47L215.814 166.488C215.739 166.499 215.648 166.511 215.542 166.522L215.46 166.531C212.987 166.785 210.107 166.365 207.346 164.721C206.102 163.98 204.96 163.019 203.946 161.821L203.807 161.654L203.682 161.523C201.018 158.682 199.772 155.769 199.769 152.872L199.77 152.708C199.806 150.354 200.647 148.187 202.015 146.252C202.499 145.568 203.017 144.961 203.536 144.435L203.69 144.283C203.935 144.042 204.133 143.866 204.265 143.76C204.367 143.677 204.483 143.613 204.608 143.571L204.683 143.549L208.876 142.481L209.223 142.304L209.543 142.137C209.818 141.993 210.113 141.835 210.424 141.664C211.666 140.983 212.909 140.246 214.064 139.484C215.584 138.48 216.832 137.51 217.706 136.62C218.494 135.816 218.92 135.129 218.973 134.653C219.223 132.403 220.046 130.8 221.507 130.401Z" fill="#2E186A"/>
<path fill-rule="evenodd" clip-rule="evenodd" d="M225.134 148.855C227.652 147.941 236.739 143.186 240.57 143.15C244.402 143.113 243.855 145.929 235.06 149.331" fill="#C0A083"/>
<path fill-rule="evenodd" clip-rule="evenodd" d="M240.56 142.052C241.753 142.041 242.688 142.265 243.29 142.802C244.106 143.529 244.109 144.597 243.457 145.564C242.457 147.05 239.716 148.706 235.454 150.354C234.89 150.572 234.256 150.291 234.038 149.725C233.821 149.16 234.101 148.525 234.666 148.307L235.054 148.155C238.635 146.736 240.907 145.358 241.606 144.389L241.629 144.356L241.594 144.346L241.54 144.332C241.296 144.274 240.971 144.243 240.581 144.247C239.247 144.259 236.927 144.971 233.801 146.258C233.363 146.438 232.911 146.629 232.438 146.833L231.732 147.141C230.836 147.541 226.232 149.623 225.507 149.886C224.938 150.093 224.31 149.798 224.104 149.229C223.906 148.679 224.172 148.075 224.701 147.847L224.895 147.771C225.938 147.351 230.535 145.269 230.985 145.072L231.574 144.816C232.057 144.608 232.52 144.413 232.969 144.228L233.405 144.05C236.569 142.769 238.926 142.068 240.56 142.052Z" fill="#2E186A"/>
<path fill-rule="evenodd" clip-rule="evenodd" d="M226.192 153.536C226.666 153.536 241.3 145.6 242.541 147.538C243.526 149.111 242.468 150.94 233.746 154.926L226.374 157.888" fill="#C0A083"/>
<path fill-rule="evenodd" clip-rule="evenodd" d="M239.349 146.567L239.605 146.493C241.58 145.935 242.805 145.919 243.468 146.955C245.151 149.641 242.758 151.964 234.701 155.694L234.2 155.924L234.153 155.944L226.782 158.907C226.221 159.132 225.583 158.859 225.358 158.297C225.141 157.754 225.387 157.141 225.908 156.896L225.967 156.87L233.315 153.917L233.927 153.635C237.566 151.942 239.832 150.621 240.972 149.584L241.037 149.525L241.177 149.391C241.682 148.897 241.809 148.626 241.725 148.351L241.719 148.331L241.648 148.331L241.598 148.333C241.221 148.351 240.666 148.465 239.968 148.672L239.671 148.762C238.455 149.144 236.908 149.756 235.077 150.566L234.847 150.668C234.444 150.848 234.031 151.035 233.604 151.232L232.588 151.705C231.913 152.022 231.271 152.329 230.428 152.739L227.162 154.333C226.364 154.714 226.455 154.633 226.192 154.633C225.587 154.633 225.097 154.142 225.097 153.536C225.097 153.039 225.428 152.618 225.881 152.484L225.937 152.469L225.974 152.454C226.025 152.433 226.09 152.404 226.17 152.367L226.75 152.093L229.754 150.628C230.742 150.149 231.466 149.805 232.362 149.389L233.014 149.089C233.335 148.942 233.649 148.8 233.958 148.663L234.433 148.453C236.39 147.594 238.036 146.955 239.349 146.567Z" fill="#2E186A"/>
<path fill-rule="evenodd" clip-rule="evenodd" d="M70.1484 88.8755C75.8048 85.2913 94.8176 86.9737 109.634 92.4596L103.649 103.943L73.4328 99.1524L70.1484 88.8755Z" fill="#2E186A"/>
<path fill-rule="evenodd" clip-rule="evenodd" d="M74.2356 98.7868V68.3215L100.912 84.4502L100.292 100.798L74.2356 98.7868Z" fill="#C0A083"/>
<path fill-rule="evenodd" clip-rule="evenodd" d="M73.1406 68.3215V98.7868C73.1406 99.3601 73.581 99.8367 74.1513 99.8807L100.207 101.892C100.827 101.94 101.362 101.462 101.385 100.84L102.006 84.4919C102.021 84.0928 101.818 83.717 101.477 83.5107L74.8009 67.3821C74.0713 66.9409 73.1406 67.4675 73.1406 68.3215ZM75.3303 70.2646L99.7933 85.0551L99.2408 99.6162L75.3303 97.7704V70.2646Z" fill="#2E186A"/>
<path fill-rule="evenodd" clip-rule="evenodd" d="M109.561 35.6987C98.6858 28.1647 88.9057 25.3851 73.5787 45.0614L71.4986 58.0082C65.0758 56.0698 61.682 59.2151 63.0687 64.8473C64.5649 70.9184 68.0683 73.6248 73.9071 72.0522C73.9071 72.0522 73.5787 71.2841 73.9071 72.0522C76.7171 78.4159 81.9721 85.6939 91.7886 87.8517C107.152 91.1798 110.728 81.6708 112.444 77.9038C114.159 74.1368 120.436 43.2327 109.561 35.6987Z" fill="#C0A083"/>
<path fill-rule="evenodd" clip-rule="evenodd" d="M93.0836 29.0899C86.6945 30.009 80.1707 34.8154 72.7156 44.386L72.6693 44.45C72.5816 44.5812 72.5229 44.7301 72.4977 44.8867L70.6088 56.6434L70.57 56.6349C64.2334 55.2728 60.4758 58.8962 62.0057 65.1099L62.0563 65.3109C63.6643 71.576 67.4449 74.4482 73.0964 73.3647L73.2841 73.3272L73.3659 73.501C77.1338 81.4445 83.0164 87.0465 91.554 88.9231C101.09 90.9888 107.164 88.5863 110.928 83.116C111.493 82.2952 111.986 81.4354 112.459 80.4809L112.612 80.1672C112.688 80.0089 112.765 79.8473 112.843 79.6775L113.44 78.3591C114.69 75.6117 116.451 66.1536 116.817 58.2646L116.846 57.585C117.267 46.5427 115.316 38.3522 110.183 34.7959L109.722 34.4792C103.307 30.1072 98.4067 28.3241 93.0836 29.0899ZM108.938 36.6009C113.299 39.622 115.09 47.3279 114.644 57.8431L114.63 58.1626C114.279 65.7201 112.597 74.8151 111.481 77.3726L111.012 78.4167L110.859 78.7507C110.735 79.0183 110.618 79.2622 110.498 79.5044C110.068 80.3715 109.626 81.1429 109.126 81.8701C105.865 86.6078 100.686 88.6563 92.0199 86.779C83.9021 84.9946 78.3928 79.4993 74.9082 71.6079C74.6908 71.1154 74.1489 70.8539 73.6291 70.9906L73.4547 71.0365C68.4988 72.309 65.5165 70.2034 64.1315 64.5839C62.9288 59.6988 65.6607 57.3919 71.1829 59.0585L71.2464 59.0756C71.8602 59.2221 72.4777 58.8157 72.5794 58.1823L74.6143 45.5149L74.8688 45.1919C81.8251 36.392 87.7828 32.0693 93.3948 31.262C98.1733 30.5745 102.707 32.2838 108.938 36.6009Z" fill="#2E186A"/>
<path fill-rule="evenodd" clip-rule="evenodd" d="M104.329 58.3074C104.908 58.2416 105.433 58.6418 105.53 59.2103L105.54 59.2742L106.853 70.9043C106.926 71.5448 106.435 72.1043 105.801 72.1244L105.738 72.1246L101.431 72.0149C100.827 71.9995 100.349 71.4959 100.365 70.8902C100.38 70.306 100.847 69.8402 101.423 69.8214L101.487 69.8212L104.536 69.8984L103.364 59.521C103.298 58.9404 103.698 58.4144 104.265 58.3165L104.329 58.3074Z" fill="#2E186A"/>
<path fill-rule="evenodd" clip-rule="evenodd" d="M110.436 61.1531C111.142 61.1531 111.714 60.2526 111.714 59.1416C111.714 58.0307 111.142 57.1301 110.436 57.1301C109.731 57.1301 109.159 58.0307 109.159 59.1416C109.159 60.2526 109.731 61.1531 110.436 61.1531Z" fill="#2E186A"/>
<path fill-rule="evenodd" clip-rule="evenodd" d="M98.029 60.9337C98.7344 60.9337 99.3062 60.0331 99.3062 58.9222C99.3062 57.8112 98.7344 56.9106 98.029 56.9106C97.3236 56.9106 96.7517 57.8112 96.7517 58.9222C96.7517 60.0331 97.3236 60.9337 98.029 60.9337Z" fill="#2E186A"/>
<path fill-rule="evenodd" clip-rule="evenodd" d="M91.5937 48.1236C93.0277 47.0799 94.7811 46.5612 96.8046 46.8654C97.4025 46.9553 97.8145 47.5139 97.7248 48.1132C97.6351 48.7124 97.0777 49.1254 96.4798 49.0355C95.065 48.8228 93.8758 49.1746 92.8803 49.8991C92.5997 50.1033 92.358 50.3219 92.1575 50.5378L92.0491 50.6588C92.0193 50.6934 91.9957 50.7221 91.9786 50.7439L91.9528 50.778C91.6039 51.2729 90.9207 51.3905 90.4269 51.0408C89.9331 50.6911 89.8157 50.0065 90.1647 49.5116C90.2417 49.4023 90.3714 49.2404 90.5542 49.0433C90.8469 48.728 91.193 48.4152 91.5937 48.1236Z" fill="white"/>
<path fill-rule="evenodd" clip-rule="evenodd" d="M108.725 46.5788C109.509 46.4585 110.341 46.4569 111.154 46.6606C112.543 47.0087 113.604 47.9119 114.072 49.4152C114.253 49.9936 113.931 50.609 113.354 50.7897C112.798 50.964 112.207 50.6705 112.004 50.1307L111.983 50.0697C111.756 49.3416 111.309 48.9614 110.623 48.7894C110.134 48.6669 109.577 48.668 109.057 48.7479L108.958 48.7641C108.884 48.7771 108.833 48.7881 108.81 48.7941C108.224 48.9439 107.628 48.5893 107.478 48.0022C107.329 47.415 107.682 46.8176 108.268 46.6678L108.367 46.6445C108.46 46.624 108.581 46.601 108.725 46.5788Z" fill="#2E186A"/>
<path fill-rule="evenodd" clip-rule="evenodd" d="M95.7737 72.3221C96.3493 72.2287 96.8926 72.6033 97.0173 73.1665L97.0401 73.2855C97.0547 73.3544 97.0816 73.4621 97.1229 73.5968C97.2166 73.903 97.3456 74.2086 97.5109 74.4861C98.0267 75.3521 98.7363 75.7465 99.8815 75.5433C100.477 75.4376 101.045 75.8356 101.15 76.4323C101.256 77.029 100.859 77.5983 100.263 77.704C98.1488 78.0793 96.5825 77.2087 95.6308 75.6108C95.3679 75.1694 95.1718 74.7047 95.0296 74.2407L94.9771 74.0607C94.9218 73.8607 94.8868 73.6969 94.868 73.5806C94.7714 72.9824 95.1769 72.419 95.7737 72.3221Z" fill="#2E186A"/>
<path fill-rule="evenodd" clip-rule="evenodd" d="M52.9237 21.7643C46.0265 8.23229 34.8962 7.06195 22.1237 9.58548C9.35115 12.109 2.16205 29.408 1.72414 30.9806C-3.49434 49.6328 3.40281 69.6016 18.7663 81.3781C20.4815 82.6947 22.1602 84.0114 23.8023 85.2914C32.8161 92.3866 12.818 98.4211 12.818 98.4211C51.1355 101.493 42.7786 63.0916 41.9758 59.6538C54.2374 55.0456 59.3464 34.3819 52.9237 21.7643Z" fill="#2E186A"/>
<path fill-rule="evenodd" clip-rule="evenodd" d="M73.5787 48.6089C72.3744 51.7542 68.8346 53.2902 65.6962 52.0833L43.5085 43.4156C40.3701 42.2087 38.8374 38.6611 40.0417 35.5158C41.246 32.3705 44.7858 30.8345 47.9242 32.0414L70.1119 40.7092C73.2502 41.9161 74.7829 45.4636 73.5787 48.6089Z" fill="#3471E9"/>
<path fill-rule="evenodd" clip-rule="evenodd" d="M120.326 48.9379C120.18 39.5021 117.917 31.2732 112.261 25.8238C111.495 24.9095 110.436 24.0317 109.086 23.3003C104.452 20.3013 98.1747 18.6921 89.8179 18.9847C89.6719 18.9847 89.4894 19.0578 89.307 19.131C87.9932 19.2407 86.6795 19.4601 85.4022 19.7161C84.7453 19.8259 84.052 19.9721 83.3221 20.1916C80.9501 20.8133 78.6875 21.6911 76.6074 22.642C57.8866 30.7246 50.5515 45.2806 58.9084 65.3591C63.2145 75.7093 68.8344 79.0374 74.2354 79.074V72.7834C73.761 71.796 72.9946 72.1617 72.9946 72.1617C67.1558 73.7343 64.5648 70.9182 63.0686 64.8837C62.3387 61.9578 62.9226 59.6903 64.5283 58.4834C64.5648 58.4468 64.6013 58.4103 64.6378 58.3737C64.7107 58.3371 64.7837 58.3006 64.8567 58.2274C64.8932 58.1908 64.9297 58.1908 65.0027 58.1543C65.0757 58.1177 65.1487 58.0811 65.2217 58.0445C65.2581 58.008 65.2946 58.008 65.3676 57.9714C65.4406 57.9348 65.5136 57.8983 65.6231 57.8617C65.6596 57.8617 65.6961 57.8251 65.7326 57.8251C65.842 57.7885 65.915 57.752 66.0245 57.7154C66.061 57.7154 66.0975 57.7154 66.0975 57.6788C66.5719 57.5325 67.1193 57.4594 67.7032 57.4228H67.7397C67.8856 57.4228 68.0316 57.4228 68.1411 57.4228C68.1776 57.4228 68.2141 57.4228 68.2141 57.4228C68.36 57.4228 68.506 57.4228 68.652 57.4594C68.6885 57.4594 68.725 57.4594 68.725 57.4594C68.8709 57.4594 69.0169 57.496 69.1629 57.496C69.1994 57.496 69.1994 57.496 69.2359 57.496C69.9292 57.5691 70.6591 57.752 71.4619 57.9714C71.9728 58.1177 71.6079 58.3371 72.1188 58.5566L73.469 58.4468C73.9435 58.4468 74.4179 58.4103 74.8923 58.3371C86.716 56.9108 105.035 48.4624 111.604 37.5637C116.202 43.1594 116.713 54.2044 115.874 63.5305C118.72 59.288 120.399 54.3141 120.326 48.9379Z" fill="#2E186A"/>
<path fill-rule="evenodd" clip-rule="evenodd" d="M212.544 161.875C212.544 147.173 210.901 133.421 185.502 135.799C184.699 135.945 183.97 136.091 183.276 136.274L153.681 142.638L130.69 109.43C127.771 104.236 122.479 100.798 116.567 100.286L108.94 99.6281L109.634 92.4233C109.634 92.4233 108.575 95.0199 100.182 96.5926C88.8327 98.7138 70.1483 88.8391 70.1483 88.8391C70.1483 88.8391 70.1483 99.6281 70.1483 100.14C70.1483 100.286 56.0985 100.981 49.6393 105.041C43.18 109.064 40.4431 116.964 35.8815 128.009C31.3199 139.09 16.9781 178.37 16.6497 180.966C16.3213 183.6 13.1464 199.033 21.5763 208.177C28.7289 215.93 43.5815 228.877 58.9815 223.647L133.719 222.55C129.011 211.139 127.406 196.29 127.077 182.173C128.719 183.014 130.471 183.819 132.369 184.514C200.537 200.972 206.084 182.173 206.084 182.173C210.026 177.382 212.544 170.068 212.544 161.875Z" fill="#02ADE3"/>
<path fill-rule="evenodd" clip-rule="evenodd" d="M65.1627 131.52L65.227 131.523C65.8085 131.564 66.2514 132.054 66.2436 132.631L66.2409 132.695L64.2338 160.82C64.1793 161.583 63.382 162.057 62.6875 161.74C57.1895 159.227 51.9798 159.87 47.3291 162.477C46.4274 162.982 45.6255 163.524 44.9352 164.063C44.736 164.218 44.5589 164.364 44.4048 164.497L44.3151 164.575C44.2152 164.663 44.1514 164.722 44.125 164.747C43.691 165.169 42.9979 165.159 42.5769 164.724C42.1558 164.289 42.1663 163.594 42.6003 163.173L42.6819 163.095C42.8757 162.914 43.1802 162.651 43.5893 162.332C44.3637 161.727 45.2571 161.124 46.2603 160.562C51.0146 157.897 56.359 157.055 61.9673 159.078L62.1575 159.147L64.0569 132.539C64.0985 131.956 64.5871 131.512 65.1627 131.52Z" fill="white"/>
<path fill-rule="evenodd" clip-rule="evenodd" d="M72.1685 173.301L72.1703 173.275C72.193 172.993 72.1743 172.583 72.0761 172.062C71.9257 171.266 71.6181 170.394 71.1124 169.463C69.7137 166.888 67.0625 164.294 62.8273 161.826L62.598 161.694C62.0733 161.393 61.8913 160.722 62.1917 160.197C62.4809 159.69 63.1119 159.502 63.6297 159.76L63.6874 159.79L63.9317 159.932C68.4137 162.543 71.3298 165.365 72.9485 168.256L73.0355 168.414C74.1278 170.425 74.4563 172.165 74.3528 173.451L74.3427 173.557C74.3392 173.588 74.3357 173.615 74.3322 173.637C74.2395 174.236 73.68 174.646 73.0825 174.553C72.485 174.46 72.0758 173.9 72.1685 173.301Z" fill="white"/>
<path fill-rule="evenodd" clip-rule="evenodd" d="M121.044 121.625C121.397 121.134 122.081 121.022 122.572 121.377L122.64 121.428C122.717 121.486 122.818 121.568 122.94 121.672L123.003 121.726C123.313 121.995 123.654 122.322 124.018 122.709C125.042 123.798 126.061 125.158 127.007 126.808C129.159 130.561 130.627 135.255 131.109 140.967C131.701 147.978 130.768 156.14 128.032 165.533L127.964 165.762L129.483 187.069C129.525 187.652 129.104 188.161 128.533 188.235L128.469 188.241C127.887 188.283 127.38 187.861 127.305 187.289L127.299 187.225L125.766 165.72C125.757 165.589 125.771 165.457 125.809 165.33C128.566 156.012 129.504 147.983 128.927 141.152C128.472 135.76 127.101 131.376 125.109 127.901C124.25 126.403 123.334 125.181 122.425 124.214C122.151 123.923 121.896 123.676 121.667 123.47L121.481 123.309C121.426 123.263 121.382 123.227 121.349 123.2L121.292 123.157C120.801 122.803 120.69 122.117 121.044 121.625Z" fill="white"/>
<path fill-rule="evenodd" clip-rule="evenodd" d="M92.263 182.32C89.4166 173.432 79.9649 172.701 79.9649 172.701C79.9649 172.701 75.2938 171.604 69.8929 171.348C68.0682 173.725 63.3971 178.809 59.9668 188.903L61.7914 191.39C61.7914 191.39 67.6303 193.803 70.2943 194.864C73.6881 196.217 77.2279 196.327 80.3298 194.059C80.4393 193.986 80.5853 193.877 80.6948 193.803L82.7019 183.014C81.3881 181.113 81.9355 178.553 85.0009 180.052C88.1028 181.551 85.6213 185.428 89.672 185.757C93.7592 186.123 92.263 182.32 92.263 182.32Z" fill="#C0A083"/>
<path fill-rule="evenodd" clip-rule="evenodd" d="M69.9447 170.252C69.5869 170.235 69.2435 170.394 69.0252 170.679L68.6909 171.106L67.846 172.164C67.2509 172.914 66.7543 173.56 66.2401 174.265C64.8383 176.188 63.5595 178.213 62.3504 180.52C61.0691 182.965 59.9237 185.626 58.9305 188.549C58.8151 188.889 58.8727 189.264 59.0848 189.553L60.9095 192.04C61.0133 192.181 61.1493 192.295 61.3058 192.373L61.482 192.449L64.324 193.619L68.089 195.158C68.7981 195.446 69.4043 195.69 69.8902 195.884L70.0737 195.956C73.9867 197.465 77.6883 197.27 80.8283 195.051L80.9372 194.972L81.3021 194.716C81.5478 194.552 81.7169 194.295 81.7711 194.005L83.7782 183.216C83.8317 182.928 83.7683 182.631 83.6021 182.39C83.1589 181.748 83.0349 181.047 83.182 180.761C83.2019 180.723 83.2135 180.715 83.3019 180.703C83.5507 180.672 83.965 180.766 84.5208 181.038C85.2101 181.371 85.4939 181.809 85.7288 182.764L85.8236 183.181L85.8482 183.293C86.0891 184.401 86.2646 184.924 86.7196 185.509C87.3382 186.304 88.2786 186.745 89.5836 186.851C92.013 187.068 93.4205 185.986 93.6052 184.162C93.6619 183.601 93.5972 183.036 93.458 182.485L93.4345 182.394L93.3878 182.23C93.3724 182.178 93.3573 182.131 93.3427 182.087L93.2955 181.954L93.3055 181.984C92.171 178.442 89.9901 175.832 87.0889 174.041C85.5552 173.095 83.9194 172.438 82.2841 172.018C81.7108 171.87 81.1768 171.762 80.6947 171.688L80.4241 171.649C80.3699 171.641 80.3198 171.635 80.2738 171.63L80.1376 171.615L79.9288 171.568C79.7404 171.527 79.5272 171.482 79.2908 171.434L79.1462 171.405C78.3072 171.237 77.3699 171.07 76.3565 170.913C74.2391 170.587 72.0757 170.353 69.9447 170.252ZM70.4031 172.473L70.9618 172.509C72.6471 172.626 74.3494 172.824 76.0233 173.082C76.8946 173.217 77.7069 173.36 78.4445 173.503L78.9884 173.612C79.1182 173.639 79.2397 173.664 79.3524 173.689L79.7151 173.769C79.7514 173.778 79.7881 173.784 79.825 173.789L79.9853 173.805C80.0594 173.813 80.1596 173.826 80.2837 173.845L80.361 173.856C80.7744 173.92 81.2382 174.014 81.7395 174.143C83.1744 174.512 84.6089 175.088 85.9407 175.91C88.4165 177.438 90.2541 179.637 91.2206 182.655L91.2607 182.767C91.2799 182.823 91.3071 182.911 91.3354 183.023C91.4171 183.347 91.4541 183.67 91.4267 183.94C91.3684 184.517 91.0646 184.765 89.8737 184.673L89.7694 184.665C88.5937 184.569 88.3403 184.338 88.0505 183.106L87.8868 182.373C87.5108 180.76 86.8955 179.75 85.4766 179.064C83.5979 178.145 81.9584 178.354 81.2366 179.754L81.1899 179.85C80.7434 180.816 80.9084 182.082 81.5294 183.201L81.5476 183.232L79.7 193.162L79.6847 193.173C77.172 195.01 74.1937 195.191 70.8712 193.912L70.699 193.845C70.2543 193.668 69.7065 193.447 69.0697 193.189L67.0258 192.356L64.6744 191.391L62.4918 190.492L61.1893 188.717L61.3272 188.328C62.2056 185.877 63.1964 183.625 64.2888 181.541C65.4454 179.334 66.667 177.399 68.0079 175.56C68.3923 175.033 68.7676 174.538 69.1873 174.002L69.621 173.453L70.4031 172.473Z" fill="#2E186A"/>
<path opacity="0.5" fill-rule="evenodd" clip-rule="evenodd" d="M250 143C206.003 178.626 179.196 156.261 158.765 159.44C138.334 162.62 135.199 173.026 116.741 180.469C105.327 185.058 87.0099 184.408 80 183.251V214H250V143Z" fill="white"/>
<path fill-rule="evenodd" clip-rule="evenodd" d="M258.677 211.466C259.258 211.466 259.729 211.938 259.729 212.52C259.729 213.082 259.291 213.541 258.739 213.573L258.677 213.575H81.0519C80.4709 213.575 80 213.103 80 212.52C80 211.959 80.4379 211.5 80.9901 211.468L81.0519 211.466H258.677Z" fill="#3471E9"/>
<path fill-rule="evenodd" clip-rule="evenodd" d="M105.841 183.004C106.401 183.004 106.859 183.443 106.891 183.996L106.893 184.058V186.166C106.893 186.748 106.422 187.22 105.841 187.22C105.281 187.22 104.823 186.781 104.791 186.228L104.789 186.166V184.058C104.789 183.476 105.26 183.004 105.841 183.004Z" fill="#3471E9"/>
<path fill-rule="evenodd" clip-rule="evenodd" d="M104.789 191.015V195.864C104.789 196.446 105.26 196.918 105.841 196.918C106.422 196.918 106.893 196.446 106.893 195.864V191.015C106.893 190.433 106.422 189.961 105.841 189.961C105.26 189.961 104.789 190.433 104.789 191.015ZM104.789 200.712V205.56C104.789 206.143 105.26 206.614 105.841 206.614C106.422 206.614 106.893 206.143 106.893 205.56V200.712C106.893 200.13 106.422 199.658 105.841 199.658C105.26 199.658 104.789 200.13 104.789 200.712Z" fill="#3471E9"/>
<path fill-rule="evenodd" clip-rule="evenodd" d="M105.841 209.358C106.401 209.358 106.859 209.797 106.891 210.35L106.893 210.412V212.52C106.893 213.103 106.422 213.575 105.841 213.575C105.281 213.575 104.823 213.136 104.791 212.582L104.789 212.52V210.412C104.789 209.83 105.26 209.358 105.841 209.358Z" fill="#3471E9"/>
<path fill-rule="evenodd" clip-rule="evenodd" d="M159.451 160.023C160.011 160.023 160.469 160.462 160.501 161.015L160.503 161.077V163.185C160.503 163.767 160.032 164.239 159.451 164.239C158.891 164.239 158.433 163.801 158.401 163.247L158.399 163.185V161.077C158.399 160.495 158.87 160.023 159.451 160.023Z" fill="#3471E9"/>
<path fill-rule="evenodd" clip-rule="evenodd" d="M158.399 167.472V171.766C158.399 172.348 158.87 172.82 159.451 172.82C160.032 172.82 160.503 172.348 160.503 171.766V167.472C160.503 166.89 160.032 166.418 159.451 166.418C158.87 166.418 158.399 166.89 158.399 167.472ZM158.399 176.06V180.354C158.399 180.936 158.87 181.408 159.451 181.408C160.032 181.408 160.503 180.936 160.503 180.354V176.06C160.503 175.478 160.032 175.006 159.451 175.006C158.87 175.006 158.399 175.478 158.399 176.06ZM158.399 184.647V188.941C158.399 189.523 158.87 189.995 159.451 189.995C160.032 189.995 160.503 189.523 160.503 188.941V184.647C160.503 184.065 160.032 183.593 159.451 183.593C158.87 183.593 158.399 184.065 158.399 184.647ZM158.399 193.235V197.529C158.399 198.111 158.87 198.583 159.451 198.583C160.032 198.583 160.503 198.111 160.503 197.529V193.235C160.503 192.653 160.032 192.181 159.451 192.181C158.87 192.181 158.399 192.653 158.399 193.235ZM158.399 201.823V206.116C158.399 206.699 158.87 207.171 159.451 207.171C160.032 207.171 160.503 206.699 160.503 206.116V201.823C160.503 201.24 160.032 200.769 159.451 200.769C158.87 200.769 158.399 201.24 158.399 201.823Z" fill="#3471E9"/>
<path fill-rule="evenodd" clip-rule="evenodd" d="M159.451 209.358C160.011 209.358 160.469 209.797 160.501 210.35L160.503 210.412V212.52C160.503 213.103 160.032 213.575 159.451 213.575C158.891 213.575 158.433 213.136 158.401 212.582L158.399 212.52V210.412C158.399 209.83 158.87 209.358 159.451 209.358Z" fill="#3471E9"/>
<path fill-rule="evenodd" clip-rule="evenodd" d="M211.904 162.271C212.464 162.271 212.922 162.71 212.954 163.264L212.956 163.326V165.434C212.956 166.016 212.485 166.488 211.904 166.488C211.344 166.488 210.886 166.049 210.854 165.496L210.852 165.434V163.326C210.852 162.743 211.323 162.271 211.904 162.271Z" fill="#3471E9"/>
<path fill-rule="evenodd" clip-rule="evenodd" d="M210.852 169.51V173.6C210.852 174.182 211.323 174.654 211.904 174.654C212.485 174.654 212.956 174.182 212.956 173.6V169.51C212.956 168.928 212.485 168.456 211.904 168.456C211.323 168.456 210.852 168.928 210.852 169.51ZM210.852 177.689V181.779C210.852 182.361 211.323 182.833 211.904 182.833C212.485 182.833 212.956 182.361 212.956 181.779V177.689C212.956 177.107 212.485 176.635 211.904 176.635C211.323 176.635 210.852 177.107 210.852 177.689ZM210.852 185.868V189.958C210.852 190.54 211.323 191.012 211.904 191.012C212.485 191.012 212.956 190.54 212.956 189.958V185.868C212.956 185.286 212.485 184.814 211.904 184.814C211.323 184.814 210.852 185.286 210.852 185.868ZM210.852 194.048V198.137C210.852 198.719 211.323 199.191 211.904 199.191C212.485 199.191 212.956 198.719 212.956 198.137V194.048C212.956 193.465 212.485 192.993 211.904 192.993C211.323 192.993 210.852 193.465 210.852 194.048ZM210.852 202.227V206.316C210.852 206.899 211.323 207.37 211.904 207.37C212.485 207.37 212.956 206.899 212.956 206.316V202.227C212.956 201.645 212.485 201.173 211.904 201.173C211.323 201.173 210.852 201.645 210.852 202.227Z" fill="#3471E9"/>
<path fill-rule="evenodd" clip-rule="evenodd" d="M211.904 209.358C212.464 209.358 212.922 209.797 212.954 210.35L212.956 210.412V212.52C212.956 213.103 212.485 213.575 211.904 213.575C211.344 213.575 210.886 213.136 210.854 212.582L210.852 212.52V210.412C210.852 209.83 211.323 209.358 211.904 209.358Z" fill="#3471E9"/>
<path fill-rule="evenodd" clip-rule="evenodd" d="M248.688 142.311C249.306 141.817 250.204 141.923 250.692 142.549C251.181 143.175 251.076 144.083 250.458 144.577C236.024 156.118 222.56 162.36 209.224 164.502C203.837 165.367 198.532 165.56 192.993 165.194L192.473 165.158C188.143 164.845 184.267 164.285 178.352 163.221L173.627 162.369C169.798 161.685 169.097 161.592 166.974 161.343C163.231 160.905 160.162 160.87 157.365 161.3C148.393 162.677 142.988 165.09 135.429 170.313L134.111 171.236L131.81 172.861C130.55 173.748 129.556 174.434 128.551 175.102C124.144 178.036 120.044 180.263 115.105 182.228C105.05 186.247 94.3129 186.795 84.1929 185.089C83.4153 184.958 82.89 184.214 83.0196 183.427C83.1492 182.64 83.8847 182.109 84.6622 182.24C94.3113 183.867 104.542 183.344 114.058 179.54C118.658 177.711 122.492 175.649 126.597 172.945L126.982 172.689C127.674 172.229 128.364 171.758 129.146 171.213L133.27 168.31L133.817 167.93C141.706 162.479 147.488 159.894 156.937 158.444C159.923 157.986 163.127 158.006 166.943 158.433L168.164 158.576C169.592 158.749 170.544 158.892 173.1 159.343L179.5 160.493C184.962 161.466 188.627 161.985 192.677 162.277C198.195 162.675 203.448 162.505 208.776 161.649C221.612 159.588 234.626 153.554 248.688 142.311Z" fill="#DBF6FF"/>
<path fill-rule="evenodd" clip-rule="evenodd" d="M210.12 165.613C211.378 165.613 212.398 164.591 212.398 163.33C212.398 162.069 211.378 161.047 210.12 161.047C208.862 161.047 207.842 162.069 207.842 163.33C207.842 164.591 208.862 165.613 210.12 165.613Z" fill="#3471E9"/>
<path fill-rule="evenodd" clip-rule="evenodd" d="M159.26 163.228C160.518 163.228 161.538 162.206 161.538 160.945C161.538 159.684 160.518 158.662 159.26 158.662C158.002 158.662 156.982 159.684 156.982 160.945C156.982 162.206 158.002 163.228 159.26 163.228Z" fill="#3471E9"/>
<path fill-rule="evenodd" clip-rule="evenodd" d="M107.278 185.715C108.536 185.715 109.556 184.693 109.556 183.432C109.556 182.171 108.536 181.149 107.278 181.149C106.02 181.149 105 182.171 105 183.432C105 184.693 106.02 185.715 107.278 185.715Z" fill="#3471E9"/>
<path fill-rule="evenodd" clip-rule="evenodd" d="M75.1479 184.953C75.1479 184.953 83.6873 193.365 86.9352 191.536C90.183 189.707 91.8617 188.171 91.8617 186.05C91.8617 183.929 88.4679 182.539 86.7892 186.05C86.7892 186.05 80.9503 182.795 80.3664 180.637" fill="#C0A083"/>
<path fill-rule="evenodd" clip-rule="evenodd" d="M80.0797 179.578C80.6424 179.425 81.2217 179.741 81.4042 180.288L81.4229 180.35C81.4965 180.622 81.8304 181.078 82.3905 181.617C82.8676 182.077 83.4803 182.574 84.1945 183.09C84.7797 183.513 85.4038 183.928 86.0338 184.322L86.4106 184.555L86.4579 184.492C87.4053 183.248 88.6951 182.66 90.029 182.84L90.1317 182.855C91.7247 183.117 92.9563 184.453 92.9563 186.05C92.9563 188.567 91.2828 190.347 87.4712 192.493C85.8698 193.394 83.7339 192.764 81.0812 191.115C80.2278 190.585 79.3361 189.953 78.4192 189.242C77.431 188.475 76.4648 187.656 75.5585 186.837L75.2514 186.557C75.1524 186.466 75.057 186.378 74.9652 186.292L74.5188 185.87L74.3803 185.735C73.9491 185.311 73.9432 184.616 74.367 184.184C74.7739 183.769 75.429 183.747 75.8622 184.121L75.9152 184.17C75.9647 184.219 76.0633 184.315 76.2061 184.45L76.4578 184.687C76.6329 184.85 76.8224 185.024 77.025 185.207C77.8932 185.992 78.8186 186.777 79.7597 187.507C80.6204 188.175 81.4518 188.763 82.2352 189.25C84.2416 190.497 85.7526 190.943 86.3987 190.579L86.7102 190.402C89.6577 188.704 90.7667 187.477 90.7667 186.05C90.7667 185.569 90.3481 185.114 89.7778 185.021C89.0774 184.906 88.34 185.345 87.7763 186.524C87.5037 187.094 86.8081 187.316 86.2568 187.009L85.9619 186.84L85.6762 186.672C85.5277 186.584 85.3709 186.49 85.2072 186.389C84.427 185.911 83.6463 185.399 82.9139 184.87C82.1228 184.298 81.434 183.739 80.8736 183.2C80.0514 182.408 79.5118 181.672 79.3096 180.924C79.1514 180.34 79.4962 179.737 80.0797 179.578Z" fill="#2E186A"/>
<path fill-rule="evenodd" clip-rule="evenodd" d="M70.3308 187.696C70.3308 187.696 78.0308 195.34 81.5341 194.389C81.5341 194.389 84.5265 193.547 85.0374 191.719" fill="#C0A083"/>
<path fill-rule="evenodd" clip-rule="evenodd" d="M69.5531 186.924C69.9786 186.493 70.6717 186.49 71.1013 186.916L71.2899 187.1L71.3868 187.193C71.6229 187.418 71.8928 187.67 72.1913 187.942C73.0446 188.719 73.9547 189.495 74.8809 190.217C75.7427 190.889 76.5749 191.48 77.3585 191.966C79.1147 193.056 80.5058 193.531 81.2385 193.332L81.3463 193.299C81.4351 193.271 81.5564 193.228 81.7017 193.172C82.0681 193.032 82.4338 192.862 82.7681 192.665C83.4072 192.288 83.824 191.876 83.9627 191.487L83.9833 191.423C84.1463 190.839 84.7505 190.499 85.3327 190.662C85.9149 190.826 86.2548 191.431 86.0917 192.015C85.7947 193.078 84.9935 193.899 83.8774 194.557C83.4292 194.821 82.9565 195.041 82.4846 195.222C82.1994 195.331 81.9723 195.405 81.8204 195.448C80.3089 195.858 78.445 195.221 76.206 193.832C75.35 193.301 74.4556 192.666 73.5361 191.949C72.5623 191.19 71.6111 190.378 70.7194 189.567L70.4173 189.29C70.3199 189.2 70.226 189.112 70.1357 189.027L69.8123 188.72L69.5604 188.475C69.1309 188.049 69.1276 187.354 69.5531 186.924Z" fill="#2E186A"/>
<path fill-rule="evenodd" clip-rule="evenodd" d="M60.5142 189.634C60.5142 189.634 68.5061 200.204 71.4985 201.008C74.4909 201.776 73.6516 197.973 67.8492 190.402" fill="#C0A083"/>
<path fill-rule="evenodd" clip-rule="evenodd" d="M59.8531 188.76C60.3164 188.408 60.9691 188.482 61.3433 188.917L61.7561 189.453C62.0549 189.84 62.3925 190.271 62.7618 190.735C63.8165 192.061 64.9124 193.387 65.9913 194.623C66.4633 195.163 66.9224 195.675 67.3655 196.153L67.6026 196.408C69.5232 198.455 71.0535 199.753 71.7703 199.945C71.8736 199.972 71.9632 199.989 72.0378 199.999L72.0942 200.005C72.0914 199.82 72.0477 199.57 71.9584 199.264L71.927 199.159C71.3862 197.423 69.6927 194.608 66.9811 191.071C66.6128 190.59 66.703 189.901 67.1825 189.532C67.662 189.163 68.3493 189.253 68.7176 189.734L69.0306 190.145C71.7058 193.681 73.4051 196.541 74.0171 198.505C74.8056 201.037 73.6673 202.697 71.215 202.068C69.8915 201.712 68.105 200.178 65.7607 197.646C65.3023 197.151 64.8291 196.624 64.3437 196.068C63.2404 194.805 62.1237 193.454 61.0495 192.103L60.7354 191.706C60.6334 191.577 60.5342 191.451 60.4379 191.328L59.6417 190.297C59.2765 189.814 59.3712 189.126 59.8531 188.76Z" fill="#2E186A"/>
<path fill-rule="evenodd" clip-rule="evenodd" d="M478.944 222.44C479.527 222.44 480 223.013 480 223.72C480 224.403 479.558 224.962 479.002 224.998L478.944 225H1.17429C0.591141 225 0.118408 224.427 0.118408 223.72C0.118408 223.037 0.560151 222.478 1.11635 222.442L1.17429 222.44H478.944Z" fill="#2E186A"/>
</svg>
