<svg width="480" height="240" viewBox="0 0 480 240" fill="none" xmlns="http://www.w3.org/2000/svg">
<g clip-path="url(#clip0_24_7873)">
<path fill-rule="evenodd" clip-rule="evenodd" d="M321.83 239.397L240.846 239.896C231.119 239.896 222.71 231.523 222.71 221.761V20.6006C222.71 10.874 230.584 3 240.311 3H321.83C331.557 3 339.431 10.874 339.431 20.6006V221.761C339.466 231.488 331.557 239.397 321.83 239.397Z" fill="#3471E9"/>
<path fill-rule="evenodd" clip-rule="evenodd" d="M313.635 11.4084H295.393V15.292C295.393 16.539 294.324 17.5722 293.042 17.5722H259.337C258.019 17.5722 256.985 16.539 256.985 15.292V11.4084H238.743C233.435 11.4084 229.159 15.577 229.159 20.7076V222.117C229.159 227.248 233.435 231.417 238.743 231.417H313.635C318.944 231.417 323.219 227.248 323.219 222.117V20.7076C323.219 15.577 318.908 11.4084 313.635 11.4084Z" fill="white"/>
<path fill-rule="evenodd" clip-rule="evenodd" d="M315.452 3.60571C324.297 3.60571 331.518 10.5061 331.661 19.0929L331.664 19.3537L331.663 219.175L331.666 219.277L331.67 219.544C331.675 220.462 331.614 221.663 331.442 223.055C331.15 225.41 330.597 227.744 329.716 229.937C327.57 235.28 323.798 239.038 318.088 240.401C317.514 240.538 316.937 240.184 316.8 239.61C316.663 239.036 317.017 238.459 317.591 238.322C322.564 237.135 325.827 233.885 327.732 229.14C328.538 227.134 329.05 224.975 329.32 222.792C329.42 221.984 329.482 221.217 329.511 220.506L329.522 220.224C329.53 219.953 329.533 219.715 329.531 219.512L329.526 219.196V19.3537C329.526 11.8429 323.222 5.74344 315.452 5.74344C314.862 5.74344 314.384 5.2649 314.384 4.67458C314.384 4.08426 314.862 3.60571 315.452 3.60571Z" fill="white"/>
<path fill-rule="evenodd" clip-rule="evenodd" d="M228.304 34.9947C235.608 34.1752 256.629 28.2608 273.588 44.7926C290.548 61.3244 296.925 78.3193 324.039 78.6756V206.904C296.925 206.548 290.548 203.056 273.588 186.524C256.629 169.992 235.608 170.954 228.304 171.774V34.9947Z" fill="white"/>
<path fill-rule="evenodd" clip-rule="evenodd" d="M246.206 34.5818C251.446 34.7762 256.384 35.7827 261.047 37.7935C265.244 39.6034 269.143 42.2013 272.718 45.6856C273.165 46.1215 273.611 46.5642 274.058 47.0147C276.218 49.1926 278.273 51.426 280.805 54.307L285.333 59.4995C286.123 60.4007 286.839 61.2151 287.29 61.7204L287.436 61.8826C292.861 67.9196 297.099 71.6884 302.179 74.5573L302.442 74.7045C308.151 77.8719 314.635 79.6022 322.546 79.8865L322.792 79.8945V205.638L322.39 205.63C309.303 205.383 301.835 204.296 295.489 201.63L295.113 201.47C288.989 198.824 283.81 194.746 274.459 185.631C266.666 178.035 257.52 173.489 247.579 171.421L247.17 171.338C241.038 170.105 235.283 169.91 229.94 170.36L229.551 170.394V36.0821L232.6 35.6194L233.838 35.4245C238.418 34.7389 242.195 34.433 246.206 34.5818ZM282.944 52.9633C280.259 49.9008 278.105 47.5535 275.829 45.2584C275.373 44.798 274.916 44.3455 274.459 43.8997C270.665 40.2013 266.51 37.4331 262.035 35.5033C257.07 33.3626 251.831 32.2947 246.298 32.0895C242.243 31.9391 238.441 32.2314 233.923 32.8908L233.359 32.9759C232.635 33.0909 228.941 33.6684 228.165 33.7554C227.534 33.8262 227.057 34.3598 227.057 34.9947V171.774C227.057 172.518 227.704 173.096 228.443 173.013C234.155 172.372 240.388 172.473 247.072 173.863C256.46 175.816 265.085 180.072 272.464 187.171L273.584 188.258C282.699 197.082 287.957 201.133 294.324 203.845L294.523 203.93C301.498 206.86 309.6 207.961 324.022 208.151C324.718 208.16 325.286 207.599 325.286 206.904V78.6756C325.286 77.9933 324.737 77.4377 324.055 77.4287C315.753 77.3196 309.153 75.6325 303.405 72.3858C298.76 69.7616 294.809 66.297 289.788 60.7662L289.033 59.9268C288.552 59.3867 287.83 58.565 287.049 57.6726L282.944 52.9633Z" fill="#3471E9"/>
<rect x="253.779" y="50.9565" width="46.7807" height="46.7807" fill="#3471E9"/>
<rect x="254.598" y="101.763" width="12.0425" height="12.0425" fill="white"/>
<path fill-rule="evenodd" clip-rule="evenodd" d="M266.641 100.516H254.598C253.91 100.516 253.351 101.075 253.351 101.763V113.806C253.351 114.495 253.91 115.053 254.598 115.053H266.641C267.33 115.053 267.888 114.495 267.888 113.806V101.763C267.888 101.075 267.33 100.516 266.641 100.516ZM265.394 103.01V112.559H255.845V103.01H265.394Z" fill="#3471E9"/>
<path fill-rule="evenodd" clip-rule="evenodd" d="M265.759 100.882C266.246 100.395 267.036 100.395 267.523 100.882C267.992 101.351 268.009 102.102 267.573 102.592L267.523 102.645L255.48 114.688C254.993 115.175 254.204 115.175 253.717 114.688C253.247 114.218 253.23 113.467 253.666 112.977L253.717 112.924L265.759 100.882Z" fill="#3471E9"/>
<rect x="271.023" y="101.763" width="12.0425" height="12.0425" fill="white"/>
<path fill-rule="evenodd" clip-rule="evenodd" d="M283.066 100.516H271.023C270.334 100.516 269.776 101.075 269.776 101.763V113.806C269.776 114.495 270.334 115.053 271.023 115.053H283.066C283.754 115.053 284.313 114.495 284.313 113.806V101.763C284.313 101.075 283.754 100.516 283.066 100.516ZM281.818 103.01V112.559H272.27V103.01H281.818Z" fill="#3471E9"/>
<path fill-rule="evenodd" clip-rule="evenodd" d="M282.184 100.882C282.671 100.395 283.46 100.395 283.947 100.882C284.417 101.351 284.434 102.102 283.998 102.592L283.947 102.645L271.905 114.688C271.418 115.175 270.628 115.175 270.141 114.688C269.672 114.218 269.655 113.467 270.091 112.977L270.141 112.924L282.184 100.882Z" fill="#3471E9"/>
<rect x="287.484" y="101.763" width="12.0425" height="12.0425" fill="white"/>
<path fill-rule="evenodd" clip-rule="evenodd" d="M299.526 100.516H287.484C286.795 100.516 286.237 101.075 286.237 101.763V113.806C286.237 114.495 286.795 115.053 287.484 115.053H299.526C300.215 115.053 300.773 114.495 300.773 113.806V101.763C300.773 101.075 300.215 100.516 299.526 100.516ZM298.279 103.01V112.559H288.731V103.01H298.279Z" fill="#3471E9"/>
<path fill-rule="evenodd" clip-rule="evenodd" d="M298.644 100.882C299.131 100.395 299.921 100.395 300.408 100.882C300.877 101.351 300.894 102.102 300.458 102.592L300.408 102.645L288.365 114.688C287.878 115.175 287.089 115.175 286.602 114.688C286.132 114.218 286.115 113.467 286.551 112.977L286.602 112.924L298.644 100.882Z" fill="#3471E9"/>
<path fill-rule="evenodd" clip-rule="evenodd" d="M304.336 152.57H251.819C246.653 152.57 242.484 148.402 242.484 143.235V137.214C242.484 132.048 246.653 127.879 251.819 127.879H304.336C309.502 127.879 313.671 132.048 313.671 137.214V143.235C313.671 148.366 309.502 152.57 304.336 152.57Z" fill="#DBF6FF"/>
<path fill-rule="evenodd" clip-rule="evenodd" d="M303.98 182.213H251.463C246.297 182.213 242.128 178.045 242.128 172.878V166.857C242.128 161.691 246.297 157.522 251.463 157.522H303.98C309.146 157.522 313.315 161.691 313.315 166.857V172.878C313.315 178.009 309.146 182.213 303.98 182.213Z" fill="#DBF6FF"/>
<path fill-rule="evenodd" clip-rule="evenodd" d="M231.388 93.4176H136C130.306 93.4176 125.694 88.8058 125.694 83.1117V37.1352C125.694 31.4411 130.306 26.8293 136 26.8293H231.388C237.083 26.8293 241.694 31.4411 241.694 37.1352V83.1117C241.694 88.8058 237.083 93.4176 231.388 93.4176Z" fill="white"/>
<path fill-rule="evenodd" clip-rule="evenodd" d="M231.388 25.4177H136C129.526 25.4177 124.282 30.6616 124.282 37.1354V83.1118C124.282 89.5857 129.526 94.8295 136 94.8295H231.388C237.862 94.8295 243.106 89.5857 243.106 83.1118V37.1354C243.106 30.6616 237.862 25.4177 231.388 25.4177ZM136 28.2412H231.388C236.303 28.2412 240.282 32.2209 240.282 37.1353V83.1118C240.282 88.0262 236.303 92.0059 231.388 92.0059H136C131.086 92.0059 127.106 88.0262 127.106 83.1118V37.1353C127.106 32.2209 131.086 28.2412 136 28.2412Z" fill="#02ADE3"/>
<path fill-rule="evenodd" clip-rule="evenodd" d="M170.777 57.1823H170.447C169.459 57.1823 168.706 56.3823 168.706 55.4411V53.6999C168.706 52.7117 169.506 51.9587 170.447 51.9587H170.777C171.765 51.9587 172.518 52.7587 172.518 53.6999V55.4411C172.518 56.3823 171.718 57.1823 170.777 57.1823Z" fill="#3471E9"/>
<path fill-rule="evenodd" clip-rule="evenodd" d="M164.847 57.1823H143.247C141.93 57.1823 140.894 56.147 140.894 54.8293V54.3117C140.894 52.994 141.93 51.9587 143.247 51.9587H164.847C166.165 51.9587 167.2 52.994 167.2 54.3117V54.8293C167.2 56.147 166.165 57.1823 164.847 57.1823Z" fill="#02ADE3"/>
<path fill-rule="evenodd" clip-rule="evenodd" d="M167.247 81.5116H143.247C141.93 81.5116 140.894 80.4763 140.894 79.1587V78.641C140.894 77.3234 141.93 76.2881 143.247 76.2881H167.247C168.565 76.2881 169.6 77.3234 169.6 78.641V79.1587C169.6 80.4763 168.518 81.5116 167.247 81.5116Z" fill="#02ADE3"/>
<path fill-rule="evenodd" clip-rule="evenodd" d="M190.306 73.4176H150.541C149.224 73.4176 148.188 72.3823 148.188 71.0647V70.547C148.188 69.2294 149.224 68.1941 150.541 68.1941H190.306C191.624 68.1941 192.659 69.2294 192.659 70.547V71.0647C192.659 72.3823 191.577 73.4176 190.306 73.4176Z" fill="#3471E9"/>
<path fill-rule="evenodd" clip-rule="evenodd" d="M216.8 73.4176H197.459C196.141 73.4176 195.106 72.3823 195.106 71.0647V70.547C195.106 69.2294 196.141 68.1941 197.459 68.1941H216.8C218.118 68.1941 219.153 69.2294 219.153 70.547V71.0647C219.153 72.3823 218.118 73.4176 216.8 73.4176Z" fill="#3471E9"/>
<path fill-rule="evenodd" clip-rule="evenodd" d="M225.553 65.3234H225.224C224.235 65.3234 223.482 64.5234 223.482 63.5822V61.841C223.482 60.8528 224.282 60.0999 225.224 60.0999H225.553C226.541 60.0999 227.294 60.8999 227.294 61.841V63.5822C227.294 64.5234 226.541 65.3234 225.553 65.3234Z" fill="#02ADE3"/>
<path fill-rule="evenodd" clip-rule="evenodd" d="M184.565 65.3234H143.247C141.93 65.3234 140.894 64.2881 140.894 62.9704V62.4528C140.894 61.1351 141.93 60.0999 143.247 60.0999H184.565C185.883 60.0999 186.918 61.1351 186.918 62.4528V62.9704C186.918 64.241 185.835 65.3234 184.565 65.3234Z" fill="#02ADE3"/>
<path fill-rule="evenodd" clip-rule="evenodd" d="M198.165 57.1823H176.565C175.247 57.1823 174.212 56.147 174.212 54.8293V54.3117C174.212 52.994 175.247 51.9587 176.565 51.9587H198.165C199.483 51.9587 200.518 52.994 200.518 54.3117V54.8293C200.518 56.147 199.435 57.1823 198.165 57.1823Z" fill="#02ADE3"/>
<path fill-rule="evenodd" clip-rule="evenodd" d="M219.059 65.3236H191.294C189.977 65.3236 188.941 64.2883 188.941 62.9706V62.4059C188.941 61.0883 189.977 60.053 191.294 60.053H219.059C220.377 60.053 221.412 61.0883 221.412 62.4059V62.9706C221.412 64.2883 220.377 65.3236 219.059 65.3236Z" fill="#3471E9"/>
<path fill-rule="evenodd" clip-rule="evenodd" d="M145.835 40.5706L152.612 36.4764C152.706 36.4294 152.847 36.3823 152.941 36.3823C153.13 36.3823 153.271 36.4294 153.412 36.5706C153.553 36.7117 153.6 36.8529 153.6 37.0411C153.6 37.2764 153.506 37.4647 153.271 37.6529L147.435 41.1353L153.271 44.6176C153.506 44.7588 153.6 44.947 153.6 45.2294C153.6 45.4176 153.553 45.5588 153.412 45.7C153.271 45.8411 153.13 45.8882 152.941 45.8882C152.8 45.8882 152.706 45.8411 152.612 45.7941L145.835 41.7C145.6 41.5588 145.459 41.3235 145.459 41.0882C145.459 40.947 145.6 40.7117 145.835 40.5706Z" fill="#02ADE3"/>
<path fill-rule="evenodd" clip-rule="evenodd" d="M160.659 33.8882C160.8 33.747 160.941 33.7 161.13 33.7C161.318 33.7 161.459 33.747 161.6 33.8882C161.741 34.0294 161.788 34.1705 161.788 34.3588C161.788 34.4529 161.788 34.547 161.741 34.6411L156.283 48.2882C156.235 48.3352 156.188 48.4294 156.141 48.4764C156 48.6176 155.859 48.6647 155.671 48.6647C155.483 48.6647 155.341 48.6176 155.2 48.4764C155.059 48.3352 155.012 48.1941 155.012 48.0058C155.012 47.9117 155.012 47.8176 155.059 47.7235L160.518 34.0764C160.565 33.9823 160.612 33.9352 160.659 33.8882Z" fill="#02ADE3"/>
<path fill-rule="evenodd" clip-rule="evenodd" d="M171.388 41.1822C171.388 41.4175 171.247 41.6528 171.012 41.794L164.236 45.8881C164.141 45.9351 164 45.9822 163.906 45.9822C163.718 45.9822 163.577 45.9351 163.436 45.794C163.294 45.6528 163.247 45.5116 163.247 45.3234C163.247 45.0881 163.341 44.8998 163.577 44.7116L169.412 41.2293L163.577 37.7469C163.341 37.6057 163.247 37.4175 163.247 37.1351C163.247 36.9469 163.294 36.8057 163.436 36.6646C163.577 36.5234 163.718 36.4763 163.906 36.4763C164.047 36.4763 164.141 36.5234 164.236 36.5704L171.012 40.6646C171.247 40.7116 171.388 40.9469 171.388 41.1822Z" fill="#02ADE3"/>
<path fill-rule="evenodd" clip-rule="evenodd" d="M131.482 138.453C131.388 138.359 131.294 138.265 131.2 138.17C124.235 131.912 117.553 124.147 111.059 121.088C109.365 112.335 102.024 102.547 72.5648 107.959C54.0236 112.523 49.9295 119.347 52.0001 126.029C45.6471 129.841 32.6589 139.159 21.0354 157.182C4.94125 182.17 56.8942 221.653 66.0707 221.653C75.2471 221.653 139.859 196.429 139.859 196.429L143.671 184.947C149.082 168.382 144.377 150.123 131.482 138.453Z" fill="#3471E9"/>
<path fill-rule="evenodd" clip-rule="evenodd" d="M111.059 121.041C111.765 124.665 111.482 128.1 111.388 130.171C111.012 138.924 106.353 143.065 105.365 146.312C111.718 142.5 117.647 133.747 120.518 128.053C118.635 126.312 114.212 122.594 111.059 121.041Z" fill="#2E186A"/>
<path fill-rule="evenodd" clip-rule="evenodd" d="M74.8235 146.971C71.6706 145.512 54.5882 135.677 51.8588 125.606C48.6117 127.347 44.6117 129.888 41.5059 133.653C45.1294 135.865 65.6 148.006 74.6353 147.347C74.7765 147.347 74.8706 147.347 75.0117 147.3C74.9176 147.206 74.8706 147.065 74.8235 146.971Z" fill="#2E186A"/>
<path fill-rule="evenodd" clip-rule="evenodd" d="M69.0353 121.041L65.3647 124.806C65.3647 124.806 82.8236 138.076 88.4706 170.029C92.1412 190.782 94.0706 210.312 94.0706 210.312L104.894 209.747C104.894 209.747 95.7177 158.029 99.4824 147.112C103.247 136.194 99.8118 123.912 97.2706 121.935C94.6824 119.912 69.0353 121.041 69.0353 121.041Z" fill="white"/>
<path fill-rule="evenodd" clip-rule="evenodd" d="M65.5999 98.5C65.5999 98.5 59.294 100.194 61.8352 105.559C64.3764 110.924 70.5411 105.935 70.5411 105.935L67.6234 98.1235L65.5999 98.5Z" fill="white"/>
<path fill-rule="evenodd" clip-rule="evenodd" d="M67.3652 96.7356L65.3417 97.1121C65.3054 97.1189 65.2693 97.127 65.2336 97.1366L65.0933 97.1769C64.9125 97.2318 64.6734 97.3145 64.3912 97.4279C63.7944 97.6676 63.1974 97.9709 62.6318 98.3486C60.0248 100.089 58.9623 102.792 60.5593 106.163C61.6609 108.489 63.5101 109.561 65.7225 109.449C67.0077 109.383 68.3101 108.932 69.5982 108.23C70.4075 107.788 71.0421 107.346 71.4291 107.033C71.9011 106.651 72.076 106.01 71.8636 105.441L68.946 97.6296C68.7061 96.9873 68.0393 96.6102 67.3652 96.7356ZM66.7157 99.7282L68.8357 105.404L68.6841 105.499C68.5426 105.584 68.3964 105.669 68.2463 105.751C67.2978 106.268 66.373 106.588 65.5786 106.629C64.4939 106.684 63.7168 106.233 63.1111 104.954C62.1738 102.976 62.6677 101.72 64.1998 100.697C64.5898 100.436 65.0165 100.219 65.4436 100.048L65.5249 100.016C65.6563 99.9645 65.7663 99.9257 65.8488 99.8989L65.9218 99.8759L66.7157 99.7282Z" fill="#2E186A"/>
<path fill-rule="evenodd" clip-rule="evenodd" d="M79.1999 76.1941C80.8469 75.6294 92.094 72.1 95.7175 81.3235C99.341 90.547 100.565 101.418 100.706 106.5C100.847 111.582 78.3999 114.735 77.0351 114.641C75.6704 114.5 73.8351 113.418 73.8351 113.418L67.1999 99.4882C67.2469 99.5353 61.6469 82.1235 79.1999 76.1941Z" fill="white"/>
<path fill-rule="evenodd" clip-rule="evenodd" d="M81.6916 74.0754C80.6278 74.2863 79.7045 74.5387 78.932 74.7946L78.742 74.8586C72.0663 77.1137 67.9734 81.1401 66.1117 86.3949C64.7609 90.2079 64.7033 94.2127 65.4055 97.9791C65.5014 98.4933 65.6039 98.9547 65.7094 99.372L65.7752 99.6252L65.8023 99.7254L65.8042 99.7356C65.8278 99.8536 65.8676 99.974 65.9254 100.095L72.5607 114.025C72.6816 114.279 72.8757 114.491 73.118 114.634L73.2851 114.73C73.5868 114.899 74.0019 115.113 74.4846 115.327C74.9165 115.519 75.3409 115.682 75.7524 115.806C76.1496 115.926 76.5281 116.008 76.8899 116.045L76.9381 116.05C78.1599 116.134 84.5112 115.14 89.3697 113.98L89.771 113.883C97.6706 111.948 102.209 109.774 102.117 106.461C101.909 98.979 100.142 88.7254 97.0316 80.8073C95.2089 76.1678 91.5284 73.9513 86.7988 73.6788C85.1207 73.5821 83.399 73.7369 81.6916 74.0754ZM86.6363 76.4976C90.345 76.7113 93.0222 78.3236 94.4035 81.8397C97.3825 89.4224 99.0952 99.3613 99.2946 106.539C99.2991 106.702 99.1707 106.949 98.8132 107.289C98.3531 107.726 97.6212 108.19 96.6488 108.656C94.8077 109.538 92.2132 110.378 89.0994 111.14C86.7555 111.714 84.206 112.222 81.7705 112.622L80.9536 112.753L80.4654 112.828C78.9137 113.061 77.5947 113.216 77.2166 113.232L77.1538 113.233L77.1805 113.237C77.0137 113.22 76.8057 113.174 76.5685 113.103C76.2799 113.016 75.9622 112.894 75.6305 112.747L75.4278 112.654C75.2937 112.592 75.1623 112.527 75.0351 112.462L74.9138 112.399L68.531 98.9993L68.4753 98.7912C68.466 98.7556 68.4566 98.7188 68.4467 98.6798C68.3553 98.3182 68.2657 97.9147 68.1812 97.4616C67.5622 94.1415 67.613 90.6127 68.7732 87.3378C70.3453 82.9002 73.7897 79.5118 79.6517 77.5316C80.3552 77.2904 81.2236 77.0467 82.2406 76.845C83.7295 76.5499 85.2188 76.4159 86.6363 76.4976Z" fill="#2E186A"/>
<path fill-rule="evenodd" clip-rule="evenodd" d="M73.2707 110.359L72.8472 117.371L69.4119 121.324C69.4119 121.324 79.6236 127.629 89.4589 138.782C89.4589 138.782 97.4589 130.312 98.8707 117.088L73.2707 110.359Z" fill="white"/>
<path fill-rule="evenodd" clip-rule="evenodd" d="M71.8613 110.274L71.4663 116.806L68.3461 120.398C67.7946 121.032 67.9193 121.998 68.5954 122.476L68.6699 122.525C68.7269 122.56 68.8372 122.63 68.9976 122.733L69.3726 122.979C69.6365 123.153 69.928 123.349 70.2456 123.567L70.8014 123.952C71.9309 124.742 73.1655 125.65 74.4817 126.674C78.874 130.088 83.2676 134.066 87.3652 138.562C87.7135 138.944 88.0584 139.329 88.3999 139.716C88.9492 140.339 89.9149 140.356 90.4851 139.752L90.6051 139.622C90.9467 139.247 91.4592 138.635 92.0898 137.798C93.2593 136.247 94.4261 134.448 95.5142 132.421C97.9851 127.819 99.688 122.73 100.274 117.238C100.348 116.544 99.9043 115.9 99.2294 115.723L73.6294 108.994C72.7682 108.767 71.915 109.385 71.8613 110.274ZM74.5755 112.162L97.3177 118.14L97.3091 118.207C96.6523 122.83 95.1418 127.146 93.0266 131.086C92.0097 132.98 90.921 134.658 89.8351 136.099L89.5575 136.462L89.425 136.631L89.4522 136.66C85.2387 132.037 80.7274 127.953 76.2148 124.445C74.6337 123.215 73.1641 122.145 71.843 121.239L71.537 121.03L73.9127 118.297C74.1167 118.062 74.2375 117.766 74.2563 117.456L74.5755 112.162Z" fill="#2E186A"/>
<path fill-rule="evenodd" clip-rule="evenodd" d="M69.4117 98.8293C70.7764 99.6293 75.1529 104.947 76.5646 107.582C76.5646 107.582 83.1999 103.441 93.5058 100.712C93.5058 100.712 99.1529 99.4411 101.553 99.5352C101.553 99.5352 103.529 109.653 100.235 115.959C96.9411 122.265 86.9176 123.206 81.647 121.229C76.3293 119.253 75.247 117.935 73.3646 114.876C71.4823 111.818 65.647 100.053 65.647 100.053L69.4117 98.8293Z" fill="#968BB4"/>
<path fill-rule="evenodd" clip-rule="evenodd" d="M66.9646 101.7C66.9646 101.7 62.8705 97.8413 60.5176 93.3236C58.3058 89.0883 59.247 83.8648 62.9176 80.806C65.9764 78.2648 68.894 78.9236 68.894 78.9236C68.894 78.9236 63.6234 73.5589 67.8117 66.5942C69.2705 64.1471 71.7176 62.406 74.494 61.7942C81.3176 60.3354 84.847 65.5118 84.847 65.5118C84.847 65.5118 88.7999 50.406 105.647 54.5942C107.341 55.0177 109.6 56.806 110.776 58.1236C117.929 65.9824 104.376 80.6648 96.1411 83.6295C87.1058 86.8295 81.3176 86.6413 77.7882 85.1354C80.3293 85.9824 81.2705 100.429 66.9646 101.7Z" fill="#2E186A"/>
<path fill-rule="evenodd" clip-rule="evenodd" d="M91.6486 95.718C92.3532 95.4557 93.1342 95.7921 93.433 96.4717L93.4642 96.5486L96.6171 105.019C96.9538 105.924 96.3045 106.883 95.3559 106.922L95.2739 106.923L91.9797 106.876C91.2001 106.865 90.5771 106.224 90.5883 105.444C90.599 104.693 91.1955 104.087 91.9371 104.054L92.0201 104.053L93.2512 104.07L90.818 97.5335C90.5557 96.8289 90.8921 96.0479 91.5717 95.7492L91.6486 95.718Z" fill="#2E186A"/>
<path fill-rule="evenodd" clip-rule="evenodd" d="M96.3537 97.4649C96.8583 97.3402 97.1158 96.6255 96.9289 95.8686C96.7419 95.1117 96.1813 94.5991 95.6766 94.7238C95.172 94.8484 94.9145 95.5631 95.1015 96.32C95.2885 97.0769 95.8491 97.5895 96.3537 97.4649Z" fill="#2E186A"/>
<path fill-rule="evenodd" clip-rule="evenodd" d="M88.3008 99.3646C88.8198 99.3364 89.2064 98.6825 89.1642 97.904C89.122 97.1255 88.667 96.5171 88.148 96.5453C87.629 96.5734 87.2425 97.2273 87.2846 98.0058C87.3268 98.7844 87.7818 99.3927 88.3008 99.3646Z" fill="#2E186A"/>
<path fill-rule="evenodd" clip-rule="evenodd" d="M85.6437 90.9714C86.4229 90.9435 87.0771 91.5527 87.105 92.3319C87.1318 93.0832 86.5664 93.7184 85.8273 93.7878L85.7445 93.7931C84.9728 93.8207 84.3763 94.093 83.8976 94.5409C83.6204 94.8003 83.4445 95.0533 83.372 95.1923L83.3548 95.2274C83.031 95.9366 82.1935 96.2491 81.4843 95.9253C80.775 95.6015 80.4625 94.764 80.7863 94.0548L80.8489 93.927C80.9096 93.8104 80.9918 93.6692 81.0972 93.5095C81.3305 93.1564 81.6187 92.8065 81.9684 92.4793C82.9222 91.5867 84.1535 91.0246 85.6437 90.9714Z" fill="#2E186A"/>
<path fill-rule="evenodd" clip-rule="evenodd" d="M95.7756 85.9185C96.8124 85.9204 97.76 86.2634 98.5042 87.0076C99.0555 87.5589 99.0555 88.4528 98.5042 89.0041C97.9749 89.5334 97.13 89.5546 96.5754 89.0676L96.5077 89.0041C96.3283 88.8248 96.1012 88.7426 95.7705 88.742C95.3714 88.7413 94.884 88.8667 94.3815 89.0827C94.195 89.1629 94.0211 89.2491 93.867 89.3343L93.7066 89.4275C93.0514 89.8502 92.1776 89.6617 91.7549 89.0065C91.3322 88.3513 91.5207 87.4776 92.1759 87.0549C92.4137 86.9015 92.789 86.6939 93.2664 86.4887C94.0927 86.1335 94.9343 85.9169 95.7756 85.9185Z" fill="#2E186A"/>
<path fill-rule="evenodd" clip-rule="evenodd" d="M92.9885 108.009L88.0473 108.338C86.9501 108.412 86.354 109.656 86.9847 110.557C87.0752 110.686 87.217 110.853 87.4158 111.042C87.7115 111.323 88.0748 111.596 88.5097 111.845C89.4157 112.362 90.5307 112.715 91.8619 112.846C91.9195 112.852 91.9775 112.854 92.0354 112.852C93.5861 112.814 94.5445 111.865 94.6528 110.545C94.6872 110.126 94.6357 109.719 94.5326 109.326C94.4843 109.141 94.4335 108.993 94.3911 108.888C94.1623 108.323 93.5968 107.968 92.9885 108.009Z" fill="#2E186A"/>
<path fill-rule="evenodd" clip-rule="evenodd" d="M78.2158 146.062C78.9254 145.813 79.6997 146.165 79.985 146.85L80.0226 146.951L80.1894 147.445L80.3721 148.004C80.4356 148.202 80.5016 148.41 80.5697 148.628L80.6386 148.849C81.1016 150.345 81.5643 151.978 81.9963 153.697C82.7384 156.649 83.3116 159.541 83.6497 162.266C83.7093 162.746 83.7612 163.219 83.8053 163.685C83.8788 164.461 83.3091 165.15 82.5329 165.223C81.7567 165.297 81.0678 164.727 80.9943 163.951C80.9529 163.513 80.9039 163.067 80.8477 162.614C80.5253 160.015 79.9738 157.233 79.2579 154.385C78.8809 152.885 78.4795 151.452 78.0759 150.123L77.9413 149.684C77.8518 149.395 77.7659 149.123 77.6846 148.87L77.3497 147.86C77.0921 147.125 77.4799 146.319 78.2158 146.062Z" fill="#2E186A"/>
<path fill-rule="evenodd" clip-rule="evenodd" d="M102.784 145.392C103.552 145.526 104.066 146.257 103.932 147.026L103.895 147.245L103.816 147.756L103.795 147.902C103.689 148.619 103.584 149.432 103.486 150.321C103.068 154.092 102.906 157.961 103.145 161.551C103.182 162.112 103.229 162.661 103.286 163.198C103.369 163.973 102.807 164.668 102.032 164.751C101.256 164.833 100.561 164.272 100.478 163.497C100.417 162.923 100.367 162.336 100.327 161.739C100.076 157.96 100.245 153.934 100.679 150.011C100.769 149.202 100.864 148.454 100.96 147.778L101.046 147.191L101.15 146.539C101.285 145.771 102.016 145.257 102.784 145.392Z" fill="#2E186A"/>
<path fill-rule="evenodd" clip-rule="evenodd" d="M63.5804 160.409C64.1636 159.891 65.0558 159.944 65.5734 160.527C66.071 161.088 66.041 161.935 65.5195 162.459L65.4546 162.52L57.9252 169.203C57.4583 169.617 56.7746 169.676 56.2441 169.347C52.0816 166.765 48.6447 166.855 45.8502 168.497C45.4259 168.746 45.0579 169.012 44.7503 169.274L44.6327 169.376C44.5628 169.439 44.5096 169.489 44.4736 169.525L44.4327 169.567C43.9082 170.144 43.0154 170.187 42.4384 169.662C41.8615 169.138 41.819 168.245 42.3435 167.668C42.4583 167.541 42.6506 167.353 42.9188 167.125C43.3471 166.76 43.8478 166.398 44.4199 166.062C47.827 164.06 52.0042 163.817 56.6647 166.328L56.8163 166.411L63.5804 160.409Z" fill="#2E186A"/>
<path fill-rule="evenodd" clip-rule="evenodd" d="M55.055 167.119C55.4263 166.467 56.2393 166.223 56.9042 166.55L76.3597 177.584C76.485 177.653 76.5691 177.7 76.6102 177.721C77.3002 178.084 77.5651 178.938 77.202 179.628C76.8523 180.292 76.0477 180.563 75.3725 180.258L75.2344 180.187C74.8191 179.962 73.1142 179 70.3496 177.433L60.9498 172.096L55.584 169.045C54.9063 168.659 54.6695 167.797 55.055 167.119Z" fill="#2E186A"/>
<path fill-rule="evenodd" clip-rule="evenodd" d="M118.203 157.775C118.89 157.469 119.69 157.757 120.031 158.417L120.066 158.491L123.831 166.962C124.148 167.674 123.827 168.509 123.114 168.825C122.427 169.131 121.627 168.843 121.287 168.183L121.251 168.109L117.486 159.638C117.17 158.926 117.491 158.091 118.203 157.775Z" fill="#2E186A"/>
<path fill-rule="evenodd" clip-rule="evenodd" d="M75.0588 208.335C75.0588 208.335 56.3765 201.559 33.2235 187.582C10.1177 173.606 -4.61175 195.253 1.60002 204.053C7.1059 211.865 37.8824 238.641 37.8824 238.641L142.682 237.888C142.682 237.888 167.294 210.877 171.153 206.688C184.235 192.382 173.412 184.853 159.059 183.724C145.553 182.688 109.035 205.841 104.565 208.853L75.0588 208.335Z" fill="#2E186A"/>
<path fill-rule="evenodd" clip-rule="evenodd" d="M139.153 166.688H71.8116C70.9175 166.688 70.1645 167.3 69.9763 168.147L60.8469 206.782H43.9057C43.9057 206.782 42.3528 214.688 51.2939 214.688C53.5998 214.688 56.9881 214.688 60.7998 214.688C60.9881 214.735 61.1292 214.782 61.3645 214.782H128.706C129.6 214.782 130.353 214.171 130.541 213.324L140.988 169.041C141.317 167.818 140.376 166.688 139.153 166.688Z" fill="#02ADE3"/>
<path fill-rule="evenodd" clip-rule="evenodd" d="M348.141 136.571C348.141 136.571 340.188 136.336 335.012 133.277C331.906 131.489 327.906 128.994 327.718 127.912C327.341 125.889 332.235 127.959 333.035 128.241" fill="#F9F9F9"/>
<path fill-rule="evenodd" clip-rule="evenodd" d="M332.565 129.573L331.651 129.231C331.426 129.148 331.203 129.067 331.037 129.01L330.782 128.924L330.683 128.891L330.919 129.06L331.077 129.171C332.16 129.924 333.544 130.787 335.127 131.712L335.73 132.061C336.876 132.738 338.252 133.309 339.808 133.777C341.634 134.325 343.605 134.704 345.578 134.94C346.171 135.011 346.728 135.065 347.236 135.103L347.486 135.122C347.686 135.135 347.862 135.145 348.012 135.152L348.183 135.16C348.962 135.183 349.575 135.833 349.552 136.612C349.529 137.392 348.879 138.005 348.099 137.982L347.824 137.97C347.681 137.963 347.504 137.953 347.294 137.938C346.673 137.896 345.984 137.833 345.242 137.744C343.119 137.489 340.994 137.081 338.996 136.481C337.353 135.987 335.865 135.383 334.58 134.657L333.62 134.102C328.991 131.408 326.592 129.677 326.33 128.17C326.065 126.749 326.976 125.773 328.303 125.64C328.995 125.571 329.812 125.702 330.8 125.977C331.148 126.074 331.51 126.188 331.889 126.317L332.216 126.432C332.435 126.51 332.685 126.602 332.906 126.684L333.505 126.91C334.24 127.17 334.626 127.976 334.367 128.711C334.107 129.446 333.301 129.832 332.565 129.573Z" fill="#2E186A"/>
<path fill-rule="evenodd" clip-rule="evenodd" d="M342.494 130.924C342.494 130.924 338.212 128.712 336.376 126.453C334.494 124.194 333.223 122.453 333.553 122.03C333.882 121.606 336.329 121.653 337.6 122.924C339.2 125.23 344.188 127.724 344.188 127.724C343.623 127.63 340.423 125.418 338.823 123.959C337.271 122.5 336.518 119.771 340.847 121.983C340.847 121.983 345.459 124.477 347.153 125.136C347.153 125.136 354.4 126.03 356.753 128.477C358.306 130.124 370.588 142.641 379.812 150.5C385.129 153.936 399.718 179.347 385.882 179.441C383.012 179.536 379.341 177.653 377.835 175.583L350.212 137.088C345.788 136.383 342.635 135.253 340.518 134.077C337.788 132.571 329.412 125.653 329.271 124.759C328.847 122.312 332.988 122.406 336.047 126.265" fill="#F9F9F9"/>
<path fill-rule="evenodd" clip-rule="evenodd" d="M336.508 120.667C336.925 120.007 337.695 119.689 338.575 119.744C339.311 119.791 340.205 120.087 341.329 120.645L341.545 120.755L342.476 121.253C343.057 121.561 343.645 121.868 344.216 122.163L344.945 122.535C345.932 123.036 346.744 123.427 347.303 123.67L347.514 123.759L347.804 123.801C348.172 123.856 348.581 123.923 349.02 124.003C350.279 124.233 351.538 124.523 352.724 124.879C354.976 125.557 356.707 126.392 357.78 127.508L358.408 128.164C359.967 129.776 363.015 132.841 366.031 135.796L366.393 136.149C371.581 141.22 376.427 145.742 380.429 149.171L380.663 149.371L380.689 149.388C383.794 151.494 388.715 158.924 391.258 165.485L391.349 165.722C392.833 169.626 393.43 173.029 392.902 175.642C392.246 178.888 389.886 180.765 386.115 180.85L385.929 180.852C382.727 180.957 378.667 178.997 376.787 176.538L376.688 176.406L349.404 138.385L349.251 138.359C345.482 137.698 342.396 136.691 340.059 135.435L339.836 135.313C338.52 134.587 335.998 132.717 333.404 130.589L332.669 129.982C329.591 127.421 328.024 125.919 327.88 125C327.487 122.735 329.29 121.418 331.558 121.75C331.725 121.775 331.894 121.808 332.064 121.848L332.107 121.859L332.123 121.787C332.169 121.606 332.251 121.428 332.374 121.251L332.439 121.163C333.131 120.272 334.863 120.181 336.43 120.678L336.49 120.698L336.508 120.667ZM340.055 123.164L340.183 123.274C340.87 123.858 341.79 124.559 342.702 125.195C342.988 125.395 343.262 125.58 343.513 125.744L343.613 125.809L343.772 125.899L344.097 126.079C344.201 126.136 344.302 126.19 344.399 126.242L344.82 126.461C346.269 127.186 345.555 129.383 343.956 129.116C343.65 129.065 343.097 128.79 342.429 128.386L342.362 128.345L341.962 128.118C341.388 127.787 340.817 127.439 340.266 127.078L339.857 126.804C338.634 125.973 337.635 125.154 336.923 124.342C336.788 124.189 336.664 124.035 336.55 123.882L336.532 123.856C336.359 123.704 336.134 123.572 335.875 123.467L335.773 123.427L335.99 123.717C336.279 124.097 336.62 124.527 337.016 125.011L337.472 125.563C337.984 126.193 338.806 126.906 339.844 127.644C340.564 128.156 341.342 128.649 342.12 129.101L342.437 129.283C342.539 129.341 342.638 129.396 342.732 129.449L343.142 129.669C343.835 130.027 344.106 130.879 343.748 131.572C343.391 132.264 342.539 132.536 341.846 132.178L341.521 132.004C341.273 131.869 340.997 131.714 340.701 131.542C339.853 131.049 339.005 130.512 338.207 129.945C337.134 129.181 336.235 128.423 335.565 127.676L335.448 127.543L335.406 127.523C335.256 127.447 335.117 127.342 334.998 127.21L334.941 127.142C333.742 125.63 332.289 124.711 331.148 124.544C331.062 124.531 330.985 124.524 330.916 124.521L330.831 124.519L330.875 124.566C331.052 124.754 331.28 124.981 331.552 125.239L331.671 125.352C332.476 126.11 333.589 127.079 334.823 128.101L335.354 128.537C337.766 130.506 340.102 132.235 341.203 132.843C343.41 134.068 346.512 135.068 350.434 135.694C350.775 135.749 351.083 135.926 351.302 136.191L351.359 136.265L378.977 174.752C380.229 176.473 383.379 178.04 385.724 178.032L385.873 178.03C388.485 178.012 389.74 177.037 390.135 175.083C390.535 173.102 390.021 170.176 388.71 166.725C386.358 160.538 381.577 153.321 379.046 151.686C378.993 151.652 378.943 151.615 378.896 151.575L378.287 151.053C374.496 147.788 370.005 143.606 365.201 138.931L363.508 137.276C360.169 133.995 356.902 130.693 355.735 129.455C355.093 128.788 353.734 128.132 351.91 127.583C350.836 127.26 349.675 126.993 348.513 126.781C348.105 126.706 347.727 126.644 347.389 126.594L346.98 126.537C346.864 126.522 346.75 126.494 346.641 126.451L346.435 126.369C345.786 126.1 344.847 125.651 343.669 125.054L343.357 124.895C342.82 124.621 342.264 124.332 341.708 124.04L340.712 123.512L340.205 123.24L340.055 123.164Z" fill="#2E186A"/>
<path fill-rule="evenodd" clip-rule="evenodd" d="M475.906 183.865C476.141 177.183 472.47 171.018 466.541 167.959L432.047 149.041C426.635 146.077 420.235 145.559 414.4 147.63L392.565 155.394L364.612 125.7L345.6 145.653L381.082 186.453C383.388 189.088 387.059 190.03 390.353 188.806L396.376 186.077L385.741 237.512L415.059 238.077C415.106 238.547 415.153 238.783 415.153 238.783H452.612L461.223 238.971C461.223 238.971 461.223 238.924 461.223 238.783H467.482C472.612 238.783 476.706 234.594 476.612 229.512L475.906 183.865Z" fill="#02ADE3"/>
<path fill-rule="evenodd" clip-rule="evenodd" d="M407.2 224.523C407.2 224.523 401.694 224.194 395.859 225.229C392.376 225.841 386.447 226.829 385.882 227.771C384.47 229.888 389.835 230.971 392.329 229.229" fill="#F9F9F9"/>
<path fill-rule="evenodd" clip-rule="evenodd" d="M393.826 224.153L395.612 223.839C399.329 223.18 403.08 222.994 406.279 223.076L406.957 223.099C407.102 223.104 407.211 223.11 407.284 223.114C408.063 223.161 408.656 223.83 408.609 224.608C408.563 225.386 407.894 225.979 407.116 225.933L406.665 225.913L406.567 225.91C403.591 225.812 400.044 225.96 396.541 226.545L394.319 226.933C393.59 227.062 392.965 227.176 392.369 227.289L391.459 227.466C389.709 227.816 388.381 228.14 387.582 228.417L387.499 228.446L387.548 228.463C387.635 228.491 387.731 228.518 387.833 228.543L387.938 228.567C389.148 228.827 390.596 228.651 391.425 228.135L391.521 228.072C392.161 227.626 393.041 227.782 393.487 228.421C393.933 229.061 393.777 229.941 393.137 230.387C391.622 231.445 389.314 231.751 387.344 231.327C386.326 231.108 385.469 230.705 384.906 230.094C384.124 229.248 384.019 228.11 384.641 227.092L384.708 226.988L384.745 226.931C384.924 226.675 385.155 226.477 385.436 226.303L385.559 226.229C386.567 225.655 388.518 225.153 391.591 224.563L392.305 224.428C392.775 224.341 393.272 224.251 393.826 224.153Z" fill="#2E186A"/>
<path fill-rule="evenodd" clip-rule="evenodd" d="M391.953 232.476C388.706 233.276 387.153 233.088 388 231.3C388.612 230.076 396.847 225.794 398.447 225.323C400.047 224.853 414.118 222.829 414.118 222.829L417.741 237.794H397.365C392.424 238.123 393.835 235.3 395.859 234.594C397.882 233.841 401.6 232.147 402.165 232.288C402.165 232.288 396.847 233.794 394.494 235.3C392.8 235.959 390.918 234.829 390.729 234.265C390.541 233.7 392.094 232.241 394.682 230.971C397.271 229.7 400.612 228.523 400.612 228.523" fill="#F9F9F9"/>
<path fill-rule="evenodd" clip-rule="evenodd" d="M415.468 222.417L415.49 222.497L419.113 237.462C419.322 238.323 418.695 239.154 417.823 239.204L417.741 239.206H397.403L397.3 239.212C394.619 239.359 392.826 238.625 392.61 236.916L392.601 236.833L392.552 236.826C391.113 236.589 389.81 235.793 389.421 234.797L389.39 234.711C389.352 234.596 389.326 234.481 389.312 234.365L389.309 234.337L389.191 234.34C388.827 234.344 388.502 234.316 388.209 234.254L388.101 234.229C386.419 233.812 385.964 232.3 386.737 230.669C387.212 229.718 389.07 228.496 392.173 226.792L392.693 226.509C394.946 225.293 397.181 224.224 398.049 223.969L398.193 223.93C399.021 223.719 401.267 223.338 404.737 222.801L405.995 222.607L408.672 222.203L411.986 221.713L413.917 221.432C414.609 221.332 415.266 221.755 415.468 222.417ZM415.947 236.382L413.048 224.411L411.851 224.586C410.463 224.79 409.074 224.996 407.738 225.198L405.211 225.585C401.786 226.115 399.444 226.513 398.877 226.669L398.845 226.678C398.191 226.87 395.882 227.984 393.689 229.181L393.532 229.267C392.321 229.932 391.244 230.567 390.441 231.096L390.175 231.273C390.133 231.302 390.092 231.33 390.052 231.358L389.923 231.448L389.95 231.445C390.318 231.391 390.758 231.307 391.262 231.19L391.63 231.102L391.737 231.029C392.367 230.601 393.097 230.184 393.899 229.783L394.06 229.703C394.533 229.471 395.046 229.234 395.593 228.994C396.59 228.555 397.654 228.124 398.718 227.719L399.151 227.555C399.291 227.503 399.425 227.452 399.555 227.405L400.143 227.192C400.878 226.933 401.684 227.319 401.943 228.055C402.193 228.764 401.843 229.539 401.158 229.825L400.713 229.988C400.415 230.096 400.082 230.22 399.724 230.357C398.701 230.747 397.679 231.16 396.73 231.578C396.217 231.804 395.74 232.024 395.304 232.238C394.249 232.756 393.343 233.326 392.71 233.847L392.6 233.94L392.669 233.965C393.059 234.094 393.447 234.124 393.786 234.045L393.878 234.02L393.889 234.013C394.687 233.525 395.744 233.033 397.016 232.534L397.274 232.434C397.768 232.244 398.278 232.059 398.797 231.879L398.958 231.823L399.843 231.471C401.421 230.854 401.884 230.772 402.465 230.908L402.507 230.919C403.91 231.269 403.941 233.252 402.549 233.647L402.191 233.751L401.63 233.922C401.498 233.962 401.362 234.005 401.221 234.05C400.887 234.156 400.553 234.265 400.222 234.376L399.954 234.468L397.032 235.656L396.324 235.927C396.112 236.001 395.902 236.121 395.73 236.262L395.648 236.332L395.669 236.337C396.008 236.402 396.492 236.428 397.113 236.395L397.271 236.385L397.365 236.382H415.947Z" fill="#2E186A"/>
<path fill-rule="evenodd" clip-rule="evenodd" d="M449.075 194.927C449.824 194.873 450.48 195.415 450.576 196.151L450.585 196.234L451.902 214.445C451.951 215.116 451.521 215.723 450.882 215.905L450.801 215.925L416.73 223.502C415.969 223.671 415.215 223.191 415.045 222.43C414.882 221.696 415.323 220.969 416.037 220.766L416.117 220.746L448.998 213.433L447.768 196.437C447.714 195.687 448.256 195.032 448.992 194.936L449.075 194.927Z" fill="white"/>
<path fill-rule="evenodd" clip-rule="evenodd" d="M438.541 172.759C433.035 171.536 429.506 166.077 430.73 160.524L432.941 150.641C434.165 145.136 439.624 141.606 445.177 142.83C450.683 144.053 454.212 149.512 452.988 155.065L450.777 164.947C449.553 170.5 444.047 173.983 438.541 172.759Z" fill="#F9F9F9"/>
<path fill-rule="evenodd" clip-rule="evenodd" d="M431.563 150.335L429.352 160.215C427.963 166.517 431.953 172.741 438.235 174.137L438.411 174.175C444.585 175.442 450.659 171.562 452.113 165.437L454.366 155.373C455.755 149.072 451.765 142.848 445.483 141.452L445.291 141.411C439.052 140.142 432.944 144.123 431.563 150.335ZM444.729 144.178L444.884 144.211C449.635 145.267 452.661 149.988 451.61 154.761L449.399 164.639C448.357 169.367 443.705 172.379 438.99 171.411L438.836 171.378C434.083 170.322 431.057 165.601 432.108 160.827L434.319 150.95C435.366 146.236 440 143.216 444.729 144.178Z" fill="#2E186A"/>
<path fill-rule="evenodd" clip-rule="evenodd" d="M461.13 137.371C461.13 137.371 469.318 121.418 453.271 112.853C451.765 112.053 441.412 106.83 436.471 115.206C433.177 120.806 430.73 127.253 429.224 132.382C429.224 132.43 426.212 142.03 428.235 148.618C430.259 155.206 438.824 157.465 444.094 156.288C449.412 155.112 450.635 154.03 452.941 151.347C455.153 148.665 461.082 137.371 461.13 137.371Z" fill="#F9F9F9"/>
<path fill-rule="evenodd" clip-rule="evenodd" d="M446.01 111.992C447.394 112.139 448.814 112.505 450.21 113.028C451.161 113.383 451.947 113.749 452.608 114.1C458.979 117.5 461.713 122.252 461.804 127.888C461.837 129.925 461.515 131.955 460.943 133.89C460.735 134.594 460.506 135.244 460.27 135.827L460.22 135.952C460.136 136.154 460.06 136.328 459.994 136.473L459.898 136.676L459.8 136.849L458.196 139.798C457.455 141.156 456.771 142.393 456.096 143.589L455.563 144.527L455.157 145.234C453.672 147.807 452.518 149.641 451.852 150.449L451.616 150.721C449.414 153.239 448.233 153.913 444.014 154.86L443.789 154.91C438.196 156.159 431.148 153.293 429.585 148.203C429.173 146.861 428.966 145.284 428.949 143.52C428.927 141.309 429.198 138.928 429.671 136.528L429.784 135.974L429.863 135.611C429.934 135.296 430.014 134.955 430.096 134.616L430.55 132.772L430.578 132.78C432.303 126.905 434.786 120.855 437.687 115.923C439.563 112.743 442.394 111.61 446.01 111.992ZM462.269 138.219L461.734 139.135C461.397 139.689 461.815 138.782 461.129 138.782C461.664 138.782 462.153 138.48 462.392 138.002L462.413 137.96L462.505 137.769C462.617 137.53 462.747 137.236 462.888 136.886C463.157 136.22 463.417 135.485 463.651 134.689C464.299 132.497 464.665 130.189 464.627 127.843C464.52 121.207 461.24 115.506 453.935 111.608C453.171 111.202 452.277 110.786 451.2 110.383C449.595 109.783 447.95 109.358 446.307 109.184C441.739 108.701 437.864 110.217 435.366 114.303L435.254 114.49C432.224 119.641 429.655 125.901 427.869 131.985L427.844 132.083C427.83 132.148 427.82 132.215 427.815 132.282L427.811 132.38L427.811 132.365C427.805 132.299 427.763 132.402 427.736 132.471L427.717 132.521L427.637 132.812L427.595 132.968C427.39 133.743 427.187 134.59 426.997 135.505C426.431 138.238 426.1 140.971 426.126 143.548C426.145 145.565 426.386 147.405 426.886 149.032C428.94 155.721 437.509 159.205 444.402 157.666L444.882 157.558C449.655 156.462 451.286 155.438 454.012 152.268C454.826 151.281 456.025 149.378 457.58 146.684L458.182 145.635L458.35 145.338C459.099 144.017 459.852 142.657 460.674 141.153L462.269 138.219Z" fill="#2E186A"/>
<path fill-rule="evenodd" clip-rule="evenodd" d="M429.177 132.382C430.682 127.253 433.129 120.806 436.424 115.206C436.565 114.971 436.753 114.688 436.894 114.453C434.212 112.335 429.835 116.712 426.824 125.606C425.271 130.218 420.988 132.571 420.988 132.571C424.235 135.441 427.2 134.171 429.129 132.571C429.177 132.477 429.177 132.382 429.177 132.382Z" fill="#2E186A"/>
<path fill-rule="evenodd" clip-rule="evenodd" d="M435.489 128.893C435.779 128.17 436.6 127.817 437.324 128.107C438.022 128.386 438.375 129.16 438.139 129.864L438.111 129.942L435.171 137.291L436.667 137.831C437.375 138.086 437.753 138.847 437.542 139.559L437.516 139.638C437.261 140.345 436.5 140.724 435.788 140.513L435.709 140.487L432.839 139.452C432.114 139.19 431.738 138.4 431.978 137.679L432.007 137.599L435.489 128.893Z" fill="#2E186A"/>
<path fill-rule="evenodd" clip-rule="evenodd" d="M434.474 128.841C434.782 128.125 434.663 127.386 434.209 127.191C433.756 126.997 433.139 127.42 432.831 128.136C432.524 128.853 432.642 129.591 433.096 129.786C433.55 129.981 434.167 129.558 434.474 128.841Z" fill="#2E186A"/>
<path fill-rule="evenodd" clip-rule="evenodd" d="M442.371 132.208C442.539 131.447 442.284 130.743 441.802 130.637C441.32 130.531 440.793 131.061 440.625 131.823C440.457 132.584 440.711 133.288 441.193 133.394C441.676 133.501 442.203 132.97 442.371 132.208Z" fill="#2E186A"/>
<path fill-rule="evenodd" clip-rule="evenodd" d="M443.887 126.359C444.043 125.595 444.788 125.102 445.552 125.258C446.855 125.523 447.892 126.162 448.666 127.05C449.031 127.469 449.313 127.916 449.525 128.366C449.658 128.648 449.741 128.883 449.786 129.049C449.99 129.801 449.545 130.577 448.793 130.78C448.067 130.977 447.32 130.57 447.085 129.866L447.051 129.759C447.038 129.723 447.012 129.657 446.97 129.569C446.864 129.343 446.72 129.115 446.537 128.904C446.183 128.499 445.729 128.205 445.13 128.056L444.989 128.025C444.225 127.869 443.732 127.124 443.887 126.359Z" fill="#2E186A"/>
<path fill-rule="evenodd" clip-rule="evenodd" d="M434.278 120.301C435.399 120.184 436.488 120.537 437.534 121.171C438.051 121.483 438.45 121.797 438.7 122.028C439.272 122.557 439.307 123.451 438.778 124.023C438.269 124.574 437.423 124.627 436.85 124.16L436.724 124.051C436.705 124.035 436.682 124.016 436.655 123.994L436.612 123.96C436.45 123.833 436.268 123.704 436.072 123.586C435.504 123.242 434.968 123.068 434.572 123.11C434.439 123.124 434.319 123.162 434.203 123.231L434.133 123.276C433.496 123.726 432.615 123.575 432.165 122.939C431.715 122.302 431.866 121.421 432.502 120.971C433.043 120.589 433.644 120.368 434.278 120.301Z" fill="#2E186A"/>
<path fill-rule="evenodd" clip-rule="evenodd" d="M478.259 132.618L469.6 128.194C470.682 121.747 470.024 111.724 457.882 106.077C438.918 97.2766 432 116.241 432 116.241L475.435 138.171C476.988 138.971 478.871 138.359 479.671 136.806C480.424 135.3 479.812 133.418 478.259 132.618Z" fill="#2E186A"/>
<path fill-rule="evenodd" clip-rule="evenodd" d="M434.729 145.559C432.8 141.606 441.835 144.288 441.835 144.288C441.835 144.288 439.294 153.371 434.729 145.559Z" fill="#2E186A"/>
<path fill-rule="evenodd" clip-rule="evenodd" d="M468.565 134.783L450.259 125.559C448.141 132.194 445.459 145.512 456.8 148.994C456.8 148.994 465.694 151.912 468.235 149.041C468.235 149.041 462.165 144.571 463.529 140.947C463.529 140.947 469.741 150.171 477.082 145.277C477.082 145.183 468.424 142.406 468.565 134.783Z" fill="#2E186A"/>
<path fill-rule="evenodd" clip-rule="evenodd" d="M418.118 60.7588H332.565C326.871 60.7588 322.259 56.1471 322.259 50.453V43.6765C322.259 37.9824 326.871 33.3706 332.565 33.3706H418.118C423.812 33.3706 428.423 37.9824 428.423 43.6765V50.453C428.376 56.1471 423.765 60.7588 418.118 60.7588Z" fill="#02ADE3"/>
<path fill-rule="evenodd" clip-rule="evenodd" d="M415.482 42.8293C416.262 42.8293 416.894 43.4614 416.894 44.2411C416.894 44.993 416.306 45.6075 415.565 45.6505L415.482 45.6529H335.906C335.126 45.6529 334.494 45.0208 334.494 44.2411C334.494 43.4893 335.082 42.8747 335.823 42.8317L335.906 42.8293H415.482Z" fill="white"/>
<path fill-rule="evenodd" clip-rule="evenodd" d="M373.647 49.606C374.427 49.606 375.059 50.238 375.059 51.0177C375.059 51.7696 374.471 52.3842 373.73 52.4271L373.647 52.4295H335.906C335.126 52.4295 334.494 51.7974 334.494 51.0177C334.494 50.2659 335.082 49.6513 335.823 49.6084L335.906 49.606H373.647Z" fill="white"/>
<path fill-rule="evenodd" clip-rule="evenodd" d="M281.035 214.971H195.482C189.788 214.971 185.177 210.359 185.177 204.665V197.888C185.177 192.194 189.788 187.583 195.482 187.583H281.035C286.729 187.583 291.341 192.194 291.341 197.888V204.665C291.341 210.359 286.729 214.971 281.035 214.971Z" fill="#02ADE3"/>
<path fill-rule="evenodd" clip-rule="evenodd" d="M278.4 197.041C279.18 197.041 279.812 197.673 279.812 198.453C279.812 199.205 279.224 199.819 278.483 199.862L278.4 199.865H198.871C198.091 199.865 197.459 199.233 197.459 198.453C197.459 197.701 198.046 197.087 198.788 197.044L198.871 197.041H278.4Z" fill="white"/>
<path fill-rule="evenodd" clip-rule="evenodd" d="M236.612 203.865C237.391 203.865 238.023 204.497 238.023 205.277C238.023 206.029 237.436 206.643 236.695 206.686L236.612 206.689H198.871C198.091 206.689 197.459 206.056 197.459 205.277C197.459 204.525 198.046 203.91 198.788 203.867L198.871 203.865H236.612Z" fill="white"/>
<path fill-rule="evenodd" clip-rule="evenodd" d="M606.864 235.488C607.644 235.485 608.279 236.114 608.282 236.894C608.286 237.645 607.701 238.263 606.96 238.309L606.877 238.312L-107.099 241.606C-107.879 241.61 -108.514 240.98 -108.518 240.201C-108.521 239.449 -107.936 238.832 -107.195 238.785L-107.112 238.782L606.864 235.488Z" fill="#2E186A"/>
</g>
<defs>
<clipPath id="clip0_24_7873">
<rect width="480" height="240" fill="white"/>
</clipPath>
</defs>
</svg>
