<svg width="30" height="30" viewBox="0 0 30 30" fill="none" xmlns="http://www.w3.org/2000/svg">
<path d="M19.5 7C20.3281 7 21 7.62959 21 8.40625V20.5938C21 21.3701 20.3281 22 19.5 22H16.5V19.6562C16.5 18.8799 15.8281 18.25 15 18.25C14.1719 18.25 13.5 18.8799 13.5 19.6562V22H10.5C9.67156 22 9 21.3701 9 20.5938V8.40625C9 7.62959 9.67156 7 10.5 7H19.5ZM11 14.9688C11 15.2266 11.2238 15.4375 11.5 15.4375H12.5C12.775 15.4375 13 15.2266 13 14.9688V14.0312C13 13.7734 12.775 13.5625 12.5 13.5625H11.5C11.2238 13.5625 11 13.7734 11 14.0312V14.9688ZM14.5 13.5625C14.225 13.5625 14 13.7734 14 14.0312V14.9688C14 15.2266 14.225 15.4375 14.5 15.4375H15.5C15.775 15.4375 16 15.2266 16 14.9688V14.0312C16 13.7734 15.775 13.5625 15.5 13.5625H14.5ZM17 14.9688C17 15.2266 17.225 15.4375 17.5 15.4375H18.5C18.775 15.4375 19 15.2266 19 14.9688V14.0312C19 13.7734 18.775 13.5625 18.5 13.5625H17.5C17.225 13.5625 17 13.7734 17 14.0312V14.9688ZM11.5 9.8125C11.2238 9.8125 11 10.0234 11 10.2812V11.2188C11 11.4766 11.2238 11.6875 11.5 11.6875H12.5C12.775 11.6875 13 11.4766 13 11.2188V10.2812C13 10.0234 12.775 9.8125 12.5 9.8125H11.5ZM14 11.2188C14 11.4766 14.225 11.6875 14.5 11.6875H15.5C15.775 11.6875 16 11.4766 16 11.2188V10.2812C16 10.0234 15.775 9.8125 15.5 9.8125H14.5C14.225 9.8125 14 10.0234 14 10.2812V11.2188ZM17.5 9.8125C17.225 9.8125 17 10.0234 17 10.2812V11.2188C17 11.4766 17.225 11.6875 17.5 11.6875H18.5C18.775 11.6875 19 11.4766 19 11.2188V10.2812C19 10.0234 18.775 9.8125 18.5 9.8125H17.5Z" fill="#9C9EAD"/>
</svg>
