<svg width="30" height="30" viewBox="0 0 30 30" fill="none" xmlns="http://www.w3.org/2000/svg">
<path d="M16.0387 7.01978C14.9656 6.94166 13.8883 7.09552 12.88 7.47088C11.8716 7.84625 10.9559 8.43432 10.1951 9.19512C9.43432 9.95592 8.84625 10.8716 8.47088 11.88C8.09552 12.8883 7.94166 13.9656 8.01978 15.0387C8.28983 19.007 11.7555 22 15.7312 22H18.4992C18.9118 22 19.2493 21.6624 19.2493 21.2499C19.2493 20.8373 18.9118 20.4997 18.4992 20.4997H15.7462C12.9482 20.4997 10.3827 18.6844 9.68508 15.9764C8.56738 11.6256 12.6181 7.56738 16.9689 8.69258C19.6844 9.38271 21.4997 11.9482 21.4997 14.7462V15.5713C21.4997 16.1639 20.9671 16.749 20.3745 16.749C19.7819 16.749 19.2493 16.1639 19.2493 15.5713V14.6337C19.2493 12.7508 17.9141 11.0555 16.0537 10.793C15.4618 10.705 14.8575 10.7596 14.291 10.9524C13.7245 11.1452 13.2123 11.4705 12.7969 11.9012C12.3815 12.332 12.0751 12.8558 11.9031 13.4289C11.7311 14.002 11.6985 14.608 11.808 15.1963C11.9395 15.9051 12.2728 16.561 12.7677 17.0852C13.2627 17.6094 13.8983 17.9798 14.5985 18.1518C15.9787 18.4744 17.2915 18.0318 18.1541 17.1541C18.8217 18.0693 20.157 18.5494 21.3797 18.0618C22.3849 17.6642 23 16.6365 23 15.5563V14.7387C23 10.7555 20.007 7.28983 16.0387 7.01978ZM15.4986 16.749C14.2534 16.749 13.2482 15.7439 13.2482 14.4986C13.2482 13.2534 14.2534 12.2482 15.4986 12.2482C16.7439 12.2482 17.749 13.2534 17.749 14.4986C17.749 15.7439 16.7439 16.749 15.4986 16.749Z" fill="#9C9EAD"/>
</svg>
