<svg width="80" height="80" viewBox="0 0 80 80" fill="none" xmlns="http://www.w3.org/2000/svg">
<g opacity="0.2">
<path d="M57.6763 22.3232C54.4202 19.0671 50.3473 16.7789 45.8986 15.7052C45.2963 15.5609 44.6888 15.9297 44.5431 16.5328L41.1231 30.6178V16.1235C41.1231 15.5031 40.6196 15 39.9996 15C35.3974 15 30.8975 16.261 26.986 18.6488C25.2943 19.6849 23.726 20.9205 22.3238 22.3242C19.0677 25.5799 16.7788 29.6528 15.707 34.0979C15.2375 36.0028 15 37.9892 15 40.0003C15 44.6026 16.261 49.1025 18.6476 53.013C18.8592 53.3602 19.2291 53.551 19.6077 53.551C19.8063 53.551 20.0089 53.4977 20.1916 53.3868L32.5621 45.849L22.3234 56.0888C21.8845 56.5277 21.8845 57.2389 22.3234 57.6774C25.5791 60.9335 29.6519 63.2225 34.097 64.2943C36.0027 64.7634 37.9892 65.0009 40.0003 65.0009C44.6025 65.0009 49.1024 63.7398 53.0129 61.3533C53.542 61.0304 53.7097 60.3391 53.3872 59.8093L45.8494 47.4387L56.0881 57.6774C56.3079 57.8973 56.5948 58.0066 56.8824 58.0066C57.1701 58.0066 57.4573 57.8969 57.6768 57.6774C60.9329 54.4217 63.2218 50.3489 64.2948 45.8998C64.4402 45.2975 64.0703 44.6908 63.4672 44.5446L49.3832 41.1251H63.8765C64.4969 41.1251 65 40.6215 65 40.0016C65 35.3994 63.739 30.8995 61.3512 26.988C60.3159 25.2971 59.0792 23.7276 57.6766 22.3254L57.6763 22.3232ZM39.9997 38.0335C40.0816 38.0335 40.1604 38.0241 40.2372 38.0072C40.3109 38.0433 40.3873 38.073 40.468 38.0926C40.8176 38.1765 41.1366 38.3548 41.3909 38.6087C41.5034 38.7212 41.5919 38.8352 41.6825 38.9896C41.8682 39.2859 41.9662 39.6355 41.9662 39.9999C41.9662 40.0818 41.9756 40.1605 41.9924 40.2373C41.9564 40.311 41.9266 40.3874 41.907 40.4682C41.8231 40.8177 41.6448 41.1367 41.3909 41.391C41.3341 41.4479 41.2851 41.509 41.2432 41.574C41.1624 41.6015 41.0837 41.636 41.01 41.6826C40.5813 41.9518 40.0471 42.0423 39.5319 41.9071C39.1823 41.8233 38.8633 41.645 38.609 41.391C38.5522 41.3342 38.4906 41.2852 38.426 41.2433C38.3986 41.1626 38.3641 41.0838 38.3182 41.0101C38.1317 40.7139 38.0333 40.3643 38.0333 39.9999C38.0333 39.8365 38.0506 39.6915 38.0925 39.532C38.1764 39.1824 38.3547 38.8634 38.6086 38.6091C38.7215 38.4963 38.8351 38.4081 38.9895 38.3176C39.2858 38.1314 39.6353 38.0335 39.9997 38.0335L39.9997 38.0335ZM20.0048 50.8685C18.1974 47.547 17.2468 43.8123 17.2468 39.9997C17.2468 38.1693 17.4627 36.3639 17.8899 34.6283C18.8664 30.5809 20.9484 26.8754 23.9122 23.912C25.1897 22.6345 26.6186 21.5082 28.1578 20.5654C31.3966 18.5892 35.0811 17.461 38.8761 17.2744V35.9371C38.5006 36.0397 38.1476 36.1937 37.8313 36.3928C37.5433 36.559 37.2701 36.7702 37.0201 37.021C36.4731 37.5688 36.0882 38.2558 35.9135 38.9851C35.8277 39.3092 35.7861 39.6415 35.7861 40C35.7861 40.395 35.8406 40.783 35.9468 41.1549L20.0048 50.8685ZM39.9997 62.7525C38.1693 62.7525 36.3639 62.5366 34.6283 62.1094C30.9435 61.2206 27.5423 59.4149 24.7259 56.8621L37.9221 43.6659C38.2568 43.856 38.6149 43.9979 38.9841 44.086C39.6667 44.2659 40.4466 44.2553 41.1547 44.0523L50.8682 59.9943C47.5467 61.8017 43.812 62.7523 39.9994 62.7523L39.9997 62.7525ZM56.8627 55.2731L43.6665 42.0769C43.6708 42.0683 43.6759 42.06 43.6806 42.0514L61.8196 46.455C60.8567 49.7224 59.1631 52.7353 56.8627 55.2734L56.8627 55.2731ZM44.0627 38.8757C43.9593 38.5002 43.8053 38.1464 43.6066 37.8297C43.4396 37.5409 43.2284 37.2685 42.9792 37.0189C42.7021 36.7419 42.3898 36.5071 42.0512 36.319L46.4551 18.18C50.0792 19.2479 53.3906 21.2155 56.0871 23.9124C57.3646 25.1899 58.4909 26.6188 59.4337 28.158C61.4099 31.3969 62.5381 35.081 62.7247 38.8763L44.0627 38.8757Z" fill="#050A24"/>
</g>
</svg>
