<svg width="80" height="80" viewBox="0 0 80 80" fill="none" xmlns="http://www.w3.org/2000/svg">
<g opacity="0.2">
<path d="M61.8807 55.449H55.0635L54.4528 54.8365C57.9955 50.9067 60.1558 45.7017 60.1558 39.9999C60.1558 33.5503 57.3801 27.4887 52.5334 23.2742L52.533 16.1235C52.533 15.5032 52.031 15 51.413 15H24.7428C24.1244 15 23.6228 15.5036 23.6228 16.1235V23.2746C18.7753 27.4904 16 33.5516 16 40.0003C16 52.2115 25.9043 62.1464 38.0776 62.1464C43.7623 62.1464 48.9509 59.9789 52.8684 56.426L53.479 57.0385V63.8765C53.479 64.4968 53.981 65 54.599 65H59.2422C59.8606 65 60.3622 64.4964 60.3622 63.8765V62.354H61.88C62.4984 62.354 63 61.8504 63 61.2305V56.5729C63 55.953 62.4984 55.4494 61.88 55.4494L61.8807 55.449ZM25.8624 17.2464H50.2923V21.5528C50.2497 21.5242 50.2044 21.5007 50.1614 21.4721C49.7598 21.2087 49.3531 20.956 48.9359 20.7196C48.9046 20.7024 48.873 20.6859 48.8417 20.6691C48.4346 20.441 48.0201 20.2282 47.6002 20.0268C47.5381 19.997 47.4763 19.9657 47.4138 19.9359C46.988 19.7372 46.5559 19.5534 46.1184 19.3814C46.0332 19.3481 45.9476 19.3155 45.8625 19.283C45.4218 19.1169 44.9768 18.9617 44.526 18.8233C44.4651 18.8041 44.4022 18.7881 44.3412 18.77C43.8982 18.6388 43.4513 18.52 43.0005 18.4162C42.9575 18.406 42.9153 18.3942 42.8723 18.3848C42.407 18.281 41.9371 18.1955 41.4648 18.1219C41.3761 18.1078 41.2874 18.0937 41.1975 18.0807C40.7338 18.0137 40.2677 17.9616 39.799 17.9244C39.7165 17.9181 39.6337 17.9138 39.5521 17.9079C39.0618 17.875 38.5703 17.853 38.0773 17.853C37.5843 17.853 37.0928 17.875 36.6033 17.9079C36.5209 17.9134 36.4381 17.9181 36.3556 17.9244C35.8876 17.9616 35.4219 18.0141 34.9582 18.0807C34.8679 18.0937 34.7777 18.1078 34.6882 18.1223C34.2179 18.1959 33.749 18.2806 33.2854 18.3844C33.2393 18.395 33.1947 18.4076 33.1494 18.4177C32.7025 18.5204 32.2591 18.6384 31.8191 18.7689C31.7547 18.7881 31.6902 18.8049 31.6258 18.8245C31.1777 18.9621 30.7346 19.1161 30.2963 19.2815C30.2084 19.3152 30.1205 19.3489 30.0326 19.3829C29.5974 19.5538 29.1673 19.7364 28.7433 19.9339C28.6777 19.9649 28.614 19.9974 28.5484 20.0288C28.1323 20.2282 27.7214 20.4395 27.3174 20.6652C27.2838 20.6836 27.2498 20.7005 27.2166 20.7197C26.8009 20.9544 26.3954 21.2072 25.9949 21.4697C25.9508 21.4983 25.9047 21.5226 25.8609 21.5516V17.2464L25.8624 17.2464ZM38.0778 59.8983C27.1386 59.8983 18.2405 50.972 18.2405 39.9994C18.2405 34.0377 20.8744 28.4393 25.4672 24.6411C29.0039 21.7129 33.4822 20.0999 38.0776 20.0999C38.9395 20.0999 39.797 20.1567 40.6452 20.268C40.9835 20.3123 41.3198 20.3688 41.6551 20.4303C43.6377 20.7959 45.5535 21.4629 47.3334 22.4046C48.5191 23.0316 49.6458 23.7778 50.6889 24.6411C50.6889 24.6411 50.6893 24.6415 50.6901 24.6415C55.2813 28.4392 57.9152 34.0373 57.9152 39.9988C57.9152 45.0815 56.0032 49.723 52.8658 53.2443L49.0622 49.4286C51.2309 46.8899 52.5458 43.5966 52.5458 39.9987C52.5458 31.9957 46.0553 25.4861 38.0781 25.4861C30.0999 25.4861 23.6104 31.9968 23.6104 39.9987C23.6104 48.0006 30.1003 54.5123 38.0781 54.5123C41.664 54.5123 44.9484 53.1933 47.4788 51.0175L51.2824 54.8332C47.7722 57.9805 43.1451 59.8983 38.0778 59.8983L38.0778 59.8983ZM43.4832 43.8327C44.2493 42.748 44.7052 41.427 44.7052 39.9997C44.7052 36.3341 41.7319 33.3518 38.0778 33.3518C34.4235 33.3518 31.4505 36.3344 31.4505 39.9997C31.4505 43.6651 34.4235 46.6477 38.0778 46.6477C39.501 46.6477 40.8184 46.1907 41.899 45.4218L45.8913 49.4265C43.7707 51.1978 41.0466 52.2657 38.0778 52.2657C31.3353 52.2657 25.8494 46.7632 25.8494 39.9993C25.8494 33.2354 31.3349 27.7329 38.0778 27.7329C44.8208 27.7329 50.3063 33.2354 50.3063 39.9993C50.3063 42.9777 49.2421 45.7103 47.4759 47.837L43.4832 43.8327ZM38.8697 39.2054C38.4322 38.7665 37.7227 38.7665 37.286 39.2054C36.8484 39.6443 36.8484 40.3556 37.286 40.7941L40.2816 43.799C39.6331 44.1788 38.8814 44.4006 38.0778 44.4006C35.6588 44.4006 33.691 42.4262 33.691 40.0001C33.691 37.5735 35.6593 35.5997 38.0778 35.5997C40.4969 35.5997 42.4647 37.574 42.4647 40.0001C42.4647 40.8062 42.2435 41.5598 41.8654 42.2103L38.8697 39.2054ZM60.7603 60.1065H59.2425C58.6241 60.1065 58.1225 60.6101 58.1225 61.23V62.7525H55.7195V57.6964H60.7599L60.7603 60.1065Z" fill="#050A24"/>
</g>
</svg>
