<svg width="80" height="80" viewBox="0 0 80 80" fill="none" xmlns="http://www.w3.org/2000/svg">
<g opacity="0.2">
<path d="M62.6796 47.7321H61.8143L61.8147 25.5223C61.8147 23.5797 60.2299 22 58.2811 22H21.7192C19.7707 22 18.1856 23.5797 18.1856 25.5223L18.1852 47.7321H17.3203C16.7011 47.7321 16.1181 47.9739 15.6776 48.413C15.2465 48.8426 15 49.4368 15 50.045C15 53.8804 18.1303 57 21.9774 57H58.0227C59.8872 57 61.6397 56.277 62.958 54.9637C64.2747 53.65 65 51.9032 65 50.0446C65 48.7697 63.9592 47.7322 62.6797 47.7322L62.6796 47.7321ZM20.4325 25.5223C20.4325 24.8149 21.0093 24.2399 21.719 24.2399H58.2809C58.9906 24.2399 59.5674 24.8149 59.5674 25.5223L59.567 47.7321H43.8427C43.2224 47.7321 42.7193 48.2341 42.7193 48.852V50H37.2812L37.2808 48.852C37.2808 48.2336 36.7772 47.7321 36.1573 47.7321H20.433L20.4325 25.5223ZM61.3684 53.3791C60.4753 54.2693 59.2871 54.7596 58.0222 54.7596H21.9779C19.3696 54.7596 17.2476 52.6444 17.2667 49.9963C17.2918 49.9713 17.311 49.9713 17.3208 49.9713H35.0345V51.1193C35.0345 51.7376 35.538 52.2392 36.158 52.2392H43.8434C44.4638 52.2392 44.9669 51.7372 44.9669 51.1193V49.9713H62.6806C62.7245 49.9713 62.7535 50.0088 62.7535 50.0439C62.7539 51.3048 62.2621 52.4892 61.3694 53.3791L61.3684 53.3791Z" fill="#050A24"/>
<path d="M38.9778 37.1202C38.9778 32.9 35.5336 29.4668 31.2997 29.4668C27.0659 29.4668 23.6221 32.9004 23.6221 37.1202C23.6221 41.3405 27.0663 44.7737 31.3001 44.7737C35.534 44.7737 38.9778 41.3405 38.9778 37.1202ZM31.3001 42.5339C28.3057 42.5339 25.8691 40.105 25.8691 37.1202C25.8691 34.1355 28.3049 31.7066 31.3001 31.7066C34.2952 31.7066 36.7312 34.1355 36.7312 37.1202C36.7312 40.105 34.2945 42.5339 31.3001 42.5339Z" fill="#050A24"/>
<path d="M43.2224 32.5483H55.2538C55.8742 32.5483 56.3773 32.0463 56.3773 31.4284C56.3773 30.81 55.8738 30.3085 55.2538 30.3085L43.2224 30.3081C42.602 30.3081 42.0989 30.8101 42.0989 31.428C42.0989 32.0464 42.602 32.5483 43.2224 32.5483V32.5483Z" fill="#050A24"/>
<path d="M43.2224 38.2403H55.2538C55.8742 38.2403 56.3773 37.7383 56.3773 37.1204C56.3773 36.502 55.8738 36.0005 55.2538 36.0005H43.2224C42.602 36.0005 42.0989 36.5024 42.0989 37.1204C42.0989 37.7387 42.602 38.2403 43.2224 38.2403Z" fill="#050A24"/>
<path d="M43.2224 43.9322H55.2538C55.8742 43.9322 56.3773 43.4302 56.3773 42.8123C56.3773 42.1939 55.8738 41.6924 55.2538 41.6924H43.2224C42.602 41.6924 42.0989 42.1943 42.0989 42.8123C42.0989 43.4302 42.602 43.9322 43.2224 43.9322Z" fill="#050A24"/>
</g>
</svg>
