<svg width="80" height="80" viewBox="0 0 80 80" fill="none" xmlns="http://www.w3.org/2000/svg">
<g opacity="0.2">
<path d="M38.8697 22.9511C38.0924 22.9897 37.3136 23.0984 36.5506 23.2731C31.0205 24.5615 26.9217 29.3268 26.5828 34.863C26.405 37.788 27.2101 40.5834 28.9102 42.9457C30.8991 45.7215 32.0245 48.7856 32.2142 51.8599H30.6151C29.9854 51.8599 29.4747 52.3621 29.4747 52.9803V59.8711C29.4747 60.4897 29.9858 60.9915 30.6151 60.9915H33.0337C33.556 63.282 35.638 64.9998 38.125 64.9998H40.8816C42.2747 64.9998 43.5842 64.4675 44.5692 63.5C45.2796 62.8012 45.7553 61.9348 45.9674 60.9907H48.3843C49.014 60.9907 49.5247 60.4885 49.5247 59.8703V52.9795C49.5247 52.3609 49.0136 51.8591 48.3843 51.8591H46.79C46.8807 50.4754 47.1321 49.115 47.5545 47.8004C48.0884 46.1325 48.8931 44.5694 49.9464 43.1544C51.5785 40.962 52.4413 38.3683 52.4413 35.6524C52.4413 32.1404 51.0169 28.8714 48.43 26.4473C45.8455 24.0264 42.4468 22.7849 38.8695 22.9513L38.8697 22.9511ZM42.9562 61.9155C42.4025 62.4595 41.6658 62.7588 40.8817 62.7588H38.1251C36.9087 62.7588 35.8616 62.0288 35.4158 60.9913H43.5884C43.4428 61.3328 43.23 61.6466 42.9563 61.9155H42.9562ZM47.244 58.7501H31.756V54.1001H47.244V58.7501ZM38.9305 47.6964H40.0686V51.8412H38.9305V47.6964ZM36.6496 45.4557H36.1858C35.9304 45.4557 35.722 45.2517 35.722 45C35.722 44.7483 35.9296 44.5443 36.1858 44.5443C36.442 44.5443 36.6496 44.7483 36.6496 45V45.4557ZM48.105 41.8318C46.9044 43.4454 45.9871 45.2278 45.3789 47.1271C44.8868 48.6586 44.5912 50.246 44.4978 51.8596H42.3497V47.6965H42.8135C44.327 47.6965 45.5582 46.487 45.5582 45.0001C45.5582 43.5131 44.327 42.3036 42.8135 42.3036C41.2999 42.3036 40.0687 43.5131 40.0687 45.0001V45.4557H38.9306V45.0001C38.9306 43.5139 37.6995 42.3036 36.1859 42.3036C34.6723 42.3036 33.4412 43.5131 33.4412 45.0001C33.4412 46.487 34.6723 47.6965 36.1859 47.6965H36.6497V51.8596H34.5096C34.3198 48.3233 33.0382 44.814 30.7735 41.6533C29.3745 39.709 28.7126 37.4074 28.8597 34.9965C29.1386 30.4395 32.5174 26.5157 37.0733 25.4546C37.7006 25.31 38.3441 25.2209 38.9818 25.1889C41.9323 25.0548 44.7279 26.074 46.8561 28.069C48.9871 30.0655 50.1609 32.7593 50.1609 35.6523C50.1601 37.8887 49.4493 40.0264 48.1048 41.8319L48.105 41.8318ZM42.3497 45.4557V45C42.3497 44.7491 42.5573 44.5443 42.8135 44.5443C43.0697 44.5443 43.2773 44.7483 43.2773 45C43.2773 45.2517 43.0697 45.4557 42.8135 45.4557H42.3497Z" fill="#050A24"/>
<path d="M40.6405 19.482V16.1204C40.6405 15.5018 40.1293 15 39.5001 15C38.8704 15 38.3596 15.5022 38.3596 16.1204V19.482C38.3596 20.1006 38.8708 20.6024 39.5001 20.6024C40.1298 20.6024 40.6405 20.1002 40.6405 19.482Z" fill="#050A24"/>
<path d="M55.0533 20.3004L52.2731 23.0317C51.8276 23.4694 51.8276 24.1787 52.2731 24.616C52.4955 24.8352 52.7875 24.9442 53.0794 24.9442C53.3714 24.9442 53.6634 24.8348 53.8858 24.616L56.6659 21.8847C57.1115 21.447 57.1115 20.7377 56.6659 20.3004C56.2212 19.8627 55.4984 19.8627 55.0533 20.3004Z" fill="#050A24"/>
<path d="M26.727 23.0312L23.9468 20.2999C23.5021 19.8623 22.7789 19.8623 22.3341 20.2999C21.8886 20.7376 21.8886 21.4469 22.3341 21.8842L25.1143 24.6155C25.3367 24.8347 25.6287 24.9437 25.9206 24.9437C26.2126 24.9437 26.5046 24.8343 26.727 24.6155C27.1725 24.1778 27.1725 23.4689 26.727 23.0312Z" fill="#050A24"/>
</g>
</svg>
