<svg width="80" height="80" viewBox="0 0 80 80" fill="none" xmlns="http://www.w3.org/2000/svg">
<g opacity="0.2">
<path d="M60.6921 15H19.3079C16.9327 15 15 16.9323 15 19.3074C15 21.6795 16.9328 23.6082 19.3079 23.6082H21.0195V50.5046C21.0195 51.1239 21.5231 51.6262 22.143 51.6262L38.8765 51.6266V57.4704C37.2973 57.9516 36.1451 59.4195 36.1451 61.1515C36.1451 63.2738 37.8744 65 40 65C42.1252 65 43.8545 63.2735 43.8545 61.1515C43.8545 59.4195 42.7024 57.9524 41.1235 57.4704V51.6259H57.857C58.4773 51.6259 58.9805 51.1232 58.9805 50.5043V23.6078H60.6921C63.0681 23.6078 65 21.6791 65 19.3071C65 16.9324 63.068 15.0001 60.6921 15.0001V15ZM41.6081 61.1501C41.6081 62.035 40.8875 62.7553 40.0007 62.7553C39.1143 62.7553 38.3929 62.035 38.3929 61.1501C38.3929 60.2651 39.1143 59.5456 40.0007 59.5456C40.8871 59.5456 41.6081 60.2651 41.6081 61.1501ZM20.4325 21.3588V17.2755H59.394V21.3588H20.4325ZM17.2481 19.3072C17.2481 18.5842 17.6215 17.9465 18.1851 17.578V21.0306C17.6219 20.6632 17.2481 20.0282 17.2481 19.3072ZM56.7343 49.3826H23.2683V23.6079H56.7343V49.3826ZM61.641 21.128V17.4744C62.3017 17.8187 62.7539 18.5115 62.7539 19.3073C62.7539 20.0964 62.3068 20.783 61.641 21.1281V21.128Z" fill="#050A24"/>
<path d="M28.5153 45.8084H33.3402C33.9605 45.8084 34.4636 45.3057 34.4636 44.6868V33.168C34.4636 32.5487 33.9601 32.0464 33.3402 32.0464H28.5153C27.895 32.0464 27.3918 32.5491 27.3918 33.168V44.6868C27.3918 45.3065 27.8946 45.8084 28.5153 45.8084ZM29.6388 34.2896H32.2162V43.5644H29.6388V34.2896Z" fill="#050A24"/>
<path d="M37.5874 45.8083H42.4122C43.0325 45.8083 43.5357 45.3056 43.5357 44.6867V27.1998C43.5357 26.5804 43.0321 26.0781 42.4122 26.0781H37.5874C36.967 26.0781 36.4639 26.5808 36.4639 27.1998V44.6867C36.4639 45.306 36.967 45.8079 37.5874 45.8079V45.8083ZM38.7108 28.3214H41.2882V43.5649H38.7108V28.3214Z" fill="#050A24"/>
<path d="M46.6604 45.8084H51.4852C52.1055 45.8084 52.6087 45.3057 52.6087 44.6868V33.168C52.6087 32.5487 52.1051 32.0464 51.4852 32.0464H46.6604C46.04 32.0464 45.5369 32.5491 45.5369 33.168V44.6868C45.5369 45.3065 46.0404 45.8084 46.6604 45.8084ZM47.7842 34.2896H50.3616V43.5644H47.7842V34.2896Z" fill="#050A24"/>
</g>
</svg>
