<svg width="170" height="126" viewBox="0 0 170 126" fill="none" xmlns="http://www.w3.org/2000/svg">
<rect x="1" y="1" width="168" height="125" fill="white"/>
<path fill-rule="evenodd" clip-rule="evenodd" d="M169.337 0H0.66294C0.296809 0 0 0.26551 0 0.593034V125.407C0 125.734 0.296809 126 0.66294 126H169.337C169.703 126 170 125.734 170 125.407V0.593034C170 0.26551 169.703 0 169.337 0ZM168.674 1.18589V124.814H1.32587V1.18589H168.674Z" fill="#2E186A"/>
<rect x="96.5903" y="104.921" width="9.45795" height="14.7615" fill="#DBF6FF"/>
<rect x="111.418" y="98.7119" width="9.45795" height="20.971" fill="#DBF6FF"/>
<rect x="126.268" y="88.9004" width="9.45795" height="30.7825" fill="#DBF6FF"/>
<rect x="141.096" y="80.4146" width="9.45795" height="39.2682" fill="#3471E9"/>
<path fill-rule="evenodd" clip-rule="evenodd" d="M153.758 60.2612C153.603 60.1286 153.404 60.0844 153.227 60.1065L147.04 61.1009C146.686 61.1672 146.421 61.4987 146.488 61.8522C146.554 62.2058 146.885 62.4489 147.239 62.4047L151.283 61.7639L139.217 75.774L134.289 71.045C134.157 70.9124 133.98 70.8461 133.803 70.8682C133.626 70.8682 133.45 70.9566 133.339 71.0892L117.163 89.8725L112.479 86.3589C112.214 86.1601 111.86 86.1822 111.617 86.4031L97.0985 100.325C96.8333 100.568 96.8333 100.988 97.0764 101.253C97.209 101.386 97.3857 101.452 97.5625 101.452C97.7172 101.452 97.894 101.386 98.0266 101.275L112.147 87.729L116.898 91.2868C117.186 91.4857 117.561 91.4636 117.804 91.1984L133.914 72.4814L138.842 77.2104C138.974 77.3429 139.151 77.4092 139.328 77.3871C139.505 77.3871 139.681 77.2988 139.792 77.1662L152.675 62.2058L152.587 67.443C152.587 67.8187 152.874 68.106 153.25 68.106C153.603 68.106 153.912 67.8187 153.912 67.443L154.023 60.7473C153.979 60.5927 153.89 60.3938 153.758 60.2612Z" fill="#3471E9"/>
<path fill-rule="evenodd" clip-rule="evenodd" d="M58.3606 103.75C58.7268 103.75 59.0236 104.047 59.0236 104.413C59.0236 104.766 58.7476 105.055 58.3996 105.075L58.3606 105.076H17.7003C17.3342 105.076 17.0374 104.779 17.0374 104.413C17.0374 104.06 17.3133 103.771 17.6613 103.751L17.7003 103.75H58.3606Z" fill="#2E186A"/>
<path fill-rule="evenodd" clip-rule="evenodd" d="M47.621 109.938C47.9871 109.938 48.2839 110.234 48.2839 110.6C48.2839 110.953 48.008 111.242 47.66 111.262L47.621 111.263H17.7003C17.3342 111.263 17.0374 110.967 17.0374 110.6C17.0374 110.247 17.3133 109.959 17.6613 109.939L17.7003 109.938H47.621Z" fill="#2E186A"/>
<path fill-rule="evenodd" clip-rule="evenodd" d="M38.0306 116.876C38.3967 116.876 38.6935 117.173 38.6935 117.539C38.6935 117.892 38.4175 118.181 38.0695 118.201L38.0306 118.202H16.8165C16.4504 118.202 16.1536 117.906 16.1536 117.539C16.1536 117.186 16.4296 116.898 16.7776 116.878L16.8165 116.876H38.0306Z" fill="#2E186A"/>
<path fill-rule="evenodd" clip-rule="evenodd" d="M80.5913 103.75C80.9575 103.75 81.2543 104.047 81.2543 104.413C81.2543 104.766 80.9783 105.055 80.6303 105.075L80.5913 105.076H63.0455C62.6794 105.076 62.3826 104.779 62.3826 104.413C62.3826 104.06 62.6586 103.771 63.0066 103.751L63.0455 103.75H80.5913Z" fill="#2E186A"/>
<rect x="16.8164" y="84.8345" width="63.7749" height="12.2423" fill="#02ADE3"/>
<path fill-rule="evenodd" clip-rule="evenodd" d="M29.567 84.1714C29.92 84.1714 30.2086 84.4474 30.2288 84.7954L30.2299 84.8343V97.0987C30.2299 97.4649 29.9331 97.7617 29.567 97.7617C29.2139 97.7617 28.9253 97.4857 28.9052 97.1377L28.9041 97.0987V84.8343C28.9041 84.4682 29.2009 84.1714 29.567 84.1714Z" fill="white"/>
<path fill-rule="evenodd" clip-rule="evenodd" d="M42.3175 84.1714C42.6705 84.1714 42.9591 84.4474 42.9793 84.7954L42.9804 84.8343V97.0987C42.9804 97.4649 42.6836 97.7617 42.3175 97.7617C41.9644 97.7617 41.6758 97.4857 41.6557 97.1377L41.6545 97.0987V84.8343C41.6545 84.4682 41.9513 84.1714 42.3175 84.1714Z" fill="white"/>
<path fill-rule="evenodd" clip-rule="evenodd" d="M55.0682 84.1714C55.4213 84.1714 55.7099 84.4474 55.73 84.7954L55.7312 84.8343V97.0987C55.7312 97.4649 55.4343 97.7617 55.0682 97.7617C54.7152 97.7617 54.4266 97.4857 54.4064 97.1377L54.4053 97.0987V84.8343C54.4053 84.4682 54.7021 84.1714 55.0682 84.1714Z" fill="white"/>
<path fill-rule="evenodd" clip-rule="evenodd" d="M67.8407 84.1714C68.1937 84.1714 68.4823 84.4474 68.5025 84.7954L68.5036 84.8343V97.0987C68.5036 97.4649 68.2068 97.7617 67.8407 97.7617C67.4876 97.7617 67.199 97.4857 67.1789 97.1377L67.1777 97.0987V84.8343C67.1777 84.4682 67.4745 84.1714 67.8407 84.1714Z" fill="white"/>
<path fill-rule="evenodd" clip-rule="evenodd" d="M29.1075 84.3565C29.3714 84.1027 29.791 84.1109 30.0448 84.3748C30.2885 84.6281 30.2907 85.025 30.0571 85.2809L30.0266 85.3121L17.2761 97.5765C17.0122 97.8303 16.5925 97.8222 16.3387 97.5583C16.0951 97.305 16.0928 96.9081 16.3265 96.6522L16.3569 96.6209L29.1075 84.3565Z" fill="white"/>
<path fill-rule="evenodd" clip-rule="evenodd" d="M16.3339 84.3798C16.5752 84.1235 16.9724 84.102 17.2396 84.3239L17.271 84.3517L29.7785 96.1299C30.045 96.3809 30.0576 96.8005 29.8066 97.0671C29.5653 97.3234 29.1681 97.3449 28.9009 97.123L28.8695 97.0952L16.362 85.317C16.0955 85.0659 16.0829 84.6464 16.3339 84.3798Z" fill="white"/>
<path fill-rule="evenodd" clip-rule="evenodd" d="M41.858 84.3565C42.1219 84.1027 42.5415 84.1109 42.7953 84.3748C43.039 84.6281 43.0412 85.025 42.8076 85.2809L42.7771 85.3121L30.0266 97.5765C29.7627 97.8303 29.343 97.8222 29.0892 97.5583C28.8455 97.305 28.8433 96.9081 29.077 96.6522L29.1074 96.6209L41.858 84.3565Z" fill="white"/>
<path fill-rule="evenodd" clip-rule="evenodd" d="M29.0844 84.3798C29.3257 84.1235 29.7229 84.102 29.9901 84.3239L30.0215 84.3517L42.529 96.1299C42.7955 96.3809 42.8081 96.8005 42.5571 97.0671C42.3157 97.3234 41.9186 97.3449 41.6514 97.123L41.62 97.0952L29.1125 85.317C28.846 85.0659 28.8334 84.6464 29.0844 84.3798Z" fill="white"/>
<path fill-rule="evenodd" clip-rule="evenodd" d="M54.6085 84.3565C54.8723 84.1027 55.292 84.1109 55.5458 84.3748C55.7895 84.6281 55.7917 85.025 55.558 85.2809L55.5276 85.3121L42.7771 97.5765C42.5132 97.8303 42.0935 97.8222 41.8397 97.5583C41.596 97.305 41.5938 96.9081 41.8275 96.6522L41.8579 96.6209L54.6085 84.3565Z" fill="white"/>
<path fill-rule="evenodd" clip-rule="evenodd" d="M41.8349 84.3798C42.0762 84.1235 42.4734 84.102 42.7406 84.3239L42.772 84.3517L55.2794 96.1299C55.546 96.3809 55.5586 96.8005 55.3076 97.0671C55.0662 97.3234 54.669 97.3449 54.4019 97.123L54.3705 97.0952L41.863 85.317C41.5964 85.0659 41.5838 84.6464 41.8349 84.3798Z" fill="white"/>
<rect x="137.56" y="39.8867" width="6.85038" height="6.85038" fill="#3471E9"/>
<rect x="119.594" y="27.4678" width="26.1861" height="7.88899" fill="#3471E9"/>
<path fill-rule="evenodd" clip-rule="evenodd" d="M132.919 46.0742C133.286 46.0742 133.582 46.371 133.582 46.7372C133.582 47.0902 133.306 47.3788 132.958 47.399L132.919 47.4001H119.594C119.228 47.4001 118.931 47.1033 118.931 46.7372C118.931 46.3841 119.207 46.0955 119.555 46.0753L119.594 46.0742H132.919Z" fill="#2E186A"/>
<path fill-rule="evenodd" clip-rule="evenodd" d="M132.919 42.8257C133.286 42.8257 133.582 43.1225 133.582 43.4886C133.582 43.8417 133.306 44.1303 132.958 44.1504L132.919 44.1516H119.594C119.228 44.1516 118.931 43.8548 118.931 43.4886C118.931 43.1356 119.207 42.847 119.555 42.8268L119.594 42.8257H132.919Z" fill="#2E186A"/>
<path fill-rule="evenodd" clip-rule="evenodd" d="M132.919 39.5996C133.286 39.5996 133.582 39.8964 133.582 40.2625C133.582 40.6156 133.306 40.9042 132.958 40.9244L132.919 40.9255H119.594C119.228 40.9255 118.931 40.6287 118.931 40.2625C118.931 39.9095 119.207 39.6209 119.555 39.6007L119.594 39.5996H132.919Z" fill="#2E186A"/>
<path fill-rule="evenodd" clip-rule="evenodd" d="M134.511 64.5923C134.877 64.5923 135.173 64.8891 135.173 65.2552C135.173 65.6083 134.897 65.8969 134.549 65.917L134.511 65.9182H98.1151C97.749 65.9182 97.4521 65.6214 97.4521 65.2552C97.4521 64.9022 97.7281 64.6136 98.0761 64.5934L98.1151 64.5923H134.511Z" fill="#2E186A"/>
<path fill-rule="evenodd" clip-rule="evenodd" d="M119.594 67.708C119.96 67.708 120.257 68.0048 120.257 68.3709C120.257 68.724 119.981 69.0126 119.633 69.0328L119.594 69.0339H98.1151C97.749 69.0339 97.4521 68.7371 97.4521 68.3709C97.4521 68.0179 97.7281 67.7293 98.0761 67.7091L98.1151 67.708H119.594Z" fill="#2E186A"/>
<path fill-rule="evenodd" clip-rule="evenodd" d="M60.7695 46.3838L85.7402 33.7217C87.7291 37.6551 88.7677 41.9863 88.7677 46.3838C88.7677 61.742 76.1276 74.382 60.7695 74.382C52.2397 74.382 44.1739 70.4928 38.8704 63.8192L60.7695 46.3838Z" fill="#3471E9"/>
<path fill-rule="evenodd" clip-rule="evenodd" d="M105.341 24.3521C105.707 24.3521 106.004 24.6489 106.004 25.015C106.004 25.368 105.728 25.6566 105.38 25.6768L105.341 25.6779H75.4869C75.1208 25.6779 74.824 25.3811 74.824 25.015C74.824 24.6619 75.1 24.3733 75.448 24.3532L75.4869 24.3521H105.341Z" fill="#2E186A"/>
<path fill-rule="evenodd" clip-rule="evenodd" d="M105.341 27.4678C105.707 27.4678 106.004 27.7646 106.004 28.1307C106.004 28.4838 105.728 28.7724 105.38 28.7925L105.341 28.7937H93.0106C92.6445 28.7937 92.3477 28.4968 92.3477 28.1307C92.3477 27.7777 92.6236 27.4891 92.9716 27.4689L93.0106 27.4678H105.341Z" fill="#2E186A"/>
<path fill-rule="evenodd" clip-rule="evenodd" d="M105.341 30.6055C105.707 30.6055 106.004 30.9023 106.004 31.2684C106.004 31.6215 105.728 31.9101 105.38 31.9302L105.341 31.9313H97.1649C96.7988 31.9313 96.502 31.6345 96.502 31.2684C96.502 30.9154 96.7779 30.6268 97.1259 30.6066L97.1649 30.6055H105.341Z" fill="#2E186A"/>
<path fill-rule="evenodd" clip-rule="evenodd" d="M106.048 49.168C106.414 49.168 106.711 49.4648 106.711 49.8309C106.711 50.184 106.435 50.4726 106.087 50.4927L106.048 50.4938H76.1717C75.8056 50.4938 75.5088 50.197 75.5088 49.8309C75.5088 49.4779 75.7848 49.1893 76.1328 49.1691L76.1717 49.168H106.048Z" fill="#2E186A"/>
<path fill-rule="evenodd" clip-rule="evenodd" d="M106.048 51.6206C106.415 51.6206 106.711 51.9174 106.711 52.2835C106.711 52.6366 106.435 52.9252 106.087 52.9454L106.048 52.9465H100.458C100.091 52.9465 99.7947 52.6497 99.7947 52.2835C99.7947 51.9305 100.071 51.6419 100.419 51.6217L100.458 51.6206H106.048Z" fill="#2E186A"/>
<path fill-rule="evenodd" clip-rule="evenodd" d="M43.7982 21.7666C44.1643 21.7666 44.4611 22.0634 44.4611 22.4295C44.4611 22.7826 44.1851 23.0712 43.8371 23.0914L43.7982 23.0925H25.9872C25.621 23.0925 25.3242 22.7957 25.3242 22.4295C25.3242 22.0765 25.6002 21.7879 25.9482 21.7677L25.9872 21.7666H43.7982Z" fill="#2E186A"/>
<path fill-rule="evenodd" clip-rule="evenodd" d="M29.567 24.2856C29.9332 24.2856 30.23 24.5825 30.23 24.9486C30.23 25.3016 29.954 25.5902 29.606 25.6104L29.567 25.6115H25.9872C25.621 25.6115 25.3242 25.3147 25.3242 24.9486C25.3242 24.5955 25.6002 24.3069 25.9482 24.2868L25.9872 24.2856H29.567Z" fill="#2E186A"/>
<path fill-rule="evenodd" clip-rule="evenodd" d="M34.4286 64.3493L55.5322 47.6211L28.5947 47.9084C28.6831 54.1179 30.8487 59.8192 34.4286 64.3493Z" fill="#DBF6FF"/>
<path fill-rule="evenodd" clip-rule="evenodd" d="M31.5559 35.4893C30.3847 38.5167 29.7439 41.7872 29.7439 45.2345C29.7439 45.345 29.7439 45.4776 29.7439 45.588L56.6593 45.2345L31.5559 35.4893Z" fill="#DBF6FF"/>
<path fill-rule="evenodd" clip-rule="evenodd" d="M75.067 19.3135L61.7861 42.6711L85.8509 30.7161C83.4864 25.9208 79.7076 21.9431 75.067 19.3135Z" fill="#DBF6FF"/>
<path fill-rule="evenodd" clip-rule="evenodd" d="M71.9511 19.9323C68.0619 17.7004 63.5539 16.4187 58.7586 16.3745H58.3167C47.0246 16.485 37.412 23.5343 33.5227 33.4563L58.5819 43.2899L71.9511 19.9323Z" fill="#02ADE3"/>
<path fill-rule="evenodd" clip-rule="evenodd" d="M33.6331 51.709C33.9992 51.709 34.2961 52.0058 34.2961 52.3719C34.2961 52.725 34.0201 53.0136 33.6721 53.0337L33.6331 53.0349H15.8221C15.456 53.0349 15.1592 52.7381 15.1592 52.3719C15.1592 52.0189 15.4352 51.7303 15.7832 51.7101L15.8221 51.709H33.6331Z" fill="#2E186A"/>
<path fill-rule="evenodd" clip-rule="evenodd" d="M22.2526 54.2285C22.6188 54.2285 22.9156 54.5253 22.9156 54.8915C22.9156 55.2445 22.6396 55.5331 22.2916 55.5533L22.2526 55.5544H15.8221C15.456 55.5544 15.1592 55.2576 15.1592 54.8915C15.1592 54.5384 15.4352 54.2498 15.7832 54.2296L15.8221 54.2285H22.2526Z" fill="#2E186A"/>
</svg>
