<svg width="170" height="125" viewBox="0 0 170 125" fill="none" xmlns="http://www.w3.org/2000/svg">
<path fill-rule="evenodd" clip-rule="evenodd" d="M168.719 123.675L2.47747 123.586L1.28149 3.09309L167.523 1.32568L168.719 123.675Z" fill="white"/>
<path fill-rule="evenodd" clip-rule="evenodd" d="M167.509 7.14813e-05L1.26824 1.76748C0.56058 1.775 -0.00719706 2.37454 6.89682e-05 3.10658L1.19605 123.6C1.20326 124.326 1.77442 124.911 2.47673 124.912L168.718 125C169.431 125 170.007 124.399 170 123.661L168.804 1.31216C168.797 0.580022 168.217 -0.007453 167.509 7.14813e-05ZM167.215 1.3456L168.4 123.411L2.5851 123.323L1.3999 3.12024L167.215 1.3456Z" fill="#2E186A"/>
<path fill-rule="evenodd" clip-rule="evenodd" d="M157.229 90.0496H18.1532C17.4271 90.0496 16.8718 89.4751 16.8718 88.724C16.8718 87.9728 17.4271 87.3984 18.1532 87.3984H157.229C157.955 87.3984 158.51 87.9728 158.51 88.724C158.51 89.4751 157.955 90.0496 157.229 90.0496Z" fill="#968BB4"/>
<path fill-rule="evenodd" clip-rule="evenodd" d="M157.229 72.8616H18.1532C17.4271 72.8616 16.8718 72.2872 16.8718 71.536C16.8718 70.7849 17.4271 70.2104 18.1532 70.2104H157.229C157.955 70.2104 158.51 70.7849 158.51 71.536C158.51 72.2872 157.955 72.8616 157.229 72.8616Z" fill="#968BB4"/>
<path fill-rule="evenodd" clip-rule="evenodd" d="M157.229 55.6731H18.1532C17.4271 55.6731 16.8718 55.0987 16.8718 54.3475C16.8718 53.5964 17.4271 53.022 18.1532 53.022H157.229C157.955 53.022 158.51 53.5964 158.51 54.3475C158.51 55.0987 157.955 55.6731 157.229 55.6731Z" fill="#968BB4"/>
<path fill-rule="evenodd" clip-rule="evenodd" d="M157.229 38.4856H18.1532C17.4271 38.4856 16.8718 37.9112 16.8718 37.16C16.8718 36.4089 17.4271 35.8345 18.1532 35.8345H157.229C157.955 35.8345 158.51 36.4089 158.51 37.16C158.51 37.9112 157.955 38.4856 157.229 38.4856Z" fill="#968BB4"/>
<rect width="19.4765" height="78.4689" transform="matrix(0.999944 -0.0105776 0.00988482 0.999951 94.7942 26.3433)" fill="#02ADE3"/>
<rect width="19.6047" height="50.3244" transform="matrix(0.999944 -0.0105776 0.00988482 0.999951 127.992 54.4873)" fill="#3471E9"/>
<rect width="19.6047" height="50.3244" transform="matrix(0.999944 -0.0105776 0.00988482 0.999951 62.1736 54.4873)" fill="#3471E9"/>
<path fill-rule="evenodd" clip-rule="evenodd" d="M49.6333 104.542L30.1559 104.763L29.8569 80.6379L49.3343 80.417L49.6333 104.542Z" fill="#3471E9"/>
<path fill-rule="evenodd" clip-rule="evenodd" d="M18.1532 18.9111C18.8357 18.9111 19.3935 19.463 19.4325 20.1588L19.4346 20.2367L19.4342 103.437H157.229C157.911 103.437 158.469 103.989 158.508 104.685L158.51 104.763C158.51 105.469 157.977 106.046 157.304 106.086L157.229 106.089H18.1532C17.4708 106.089 16.913 105.537 16.874 104.841L16.8718 104.763V20.2367C16.8718 19.5046 17.4455 18.9111 18.1532 18.9111Z" fill="#2E186A"/>
<path fill-rule="evenodd" clip-rule="evenodd" d="M44.5075 108.43C45.2152 108.43 45.7889 109.024 45.7889 109.756C45.7889 110.462 45.2554 111.039 44.5827 111.079L44.5075 111.081H33.0602C32.3525 111.081 31.7788 110.488 31.7788 109.756C31.7788 109.05 32.3123 108.473 32.9849 108.432L33.0602 108.43H44.5075Z" fill="#3471E9"/>
<path fill-rule="evenodd" clip-rule="evenodd" d="M78.0377 108.43C78.7454 108.43 79.3191 109.024 79.3191 109.756C79.3191 110.462 78.7857 111.039 78.113 111.079L78.0377 111.081H66.5905C65.8828 111.081 65.3091 110.488 65.3091 109.756C65.3091 109.05 65.8425 108.473 66.5152 108.432L66.5905 108.43H78.0377Z" fill="#3471E9"/>
<path fill-rule="evenodd" clip-rule="evenodd" d="M110.927 108.43C111.635 108.43 112.209 109.024 112.209 109.756C112.209 110.462 111.675 111.039 111.002 111.079L110.927 111.081H99.4372C98.7295 111.081 98.1558 110.488 98.1558 109.756C98.1558 109.05 98.6892 108.473 99.3619 108.432L99.4372 108.43H110.927Z" fill="#02ADE3"/>
<path fill-rule="evenodd" clip-rule="evenodd" d="M143.859 108.43C144.567 108.43 145.141 109.024 145.141 109.756C145.141 110.462 144.607 111.039 143.935 111.079L143.859 111.081H132.412C131.704 111.081 131.131 110.488 131.131 109.756C131.131 109.05 131.664 108.473 132.337 108.432L132.412 108.43H143.859Z" fill="#3471E9"/>
<path fill-rule="evenodd" clip-rule="evenodd" d="M12.4296 40.1199C11.7035 40.1199 11.1482 39.5455 11.1482 38.7944V36.7176C11.1482 35.9665 11.7035 35.3921 12.4296 35.3921C13.1557 35.3921 13.711 35.9665 13.711 36.7176V38.7944C13.711 39.5013 13.1557 40.1199 12.4296 40.1199Z" fill="#968BB4"/>
<path fill-rule="evenodd" clip-rule="evenodd" d="M12.4296 56.6892C11.7035 56.6892 11.1482 56.1148 11.1482 55.3637V53.287C11.1482 52.5358 11.7035 51.9614 12.4296 51.9614C13.1557 51.9614 13.711 52.5358 13.711 53.287V55.3637C13.711 56.1148 13.1557 56.6892 12.4296 56.6892Z" fill="#968BB4"/>
<path fill-rule="evenodd" clip-rule="evenodd" d="M12.4296 74.9378C11.7035 74.9378 11.1482 74.3634 11.1482 73.6122V71.5355C11.1482 70.7844 11.7035 70.21 12.4296 70.21C13.1557 70.21 13.711 70.7844 13.711 71.5355V73.6122C13.711 74.3192 13.1557 74.9378 12.4296 74.9378Z" fill="#968BB4"/>
<path fill-rule="evenodd" clip-rule="evenodd" d="M12.4296 92.1258C11.7035 92.1258 11.1482 91.5514 11.1482 90.8002V88.7235C11.1482 87.9724 11.7035 87.3979 12.4296 87.3979C13.1557 87.3979 13.711 87.9724 13.711 88.7235V90.8002C13.711 91.5072 13.1557 92.1258 12.4296 92.1258Z" fill="#968BB4"/>
</svg>
