<svg width="170" height="125" viewBox="0 0 170 125" fill="none" xmlns="http://www.w3.org/2000/svg">
<path fill-rule="evenodd" clip-rule="evenodd" d="M169.389 88.5149V3.76709H161.001V89.2056L169.389 88.5149Z" fill="white"/>
<path fill-rule="evenodd" clip-rule="evenodd" d="M169.389 3H161.001C160.664 3 160.39 3.34358 160.39 3.76741V89.2059C160.39 89.6495 160.689 90.0007 161.041 89.9717L169.429 89.281C169.75 89.2546 170 88.9196 170 88.5153V3.76741C170 3.34358 169.727 3 169.389 3ZM168.778 4.53441V87.7963L161.612 88.3862V4.53441H168.778Z" fill="#2E186A"/>
<rect x="0.61084" y="3.76709" width="164.584" height="117.465" fill="white"/>
<path fill-rule="evenodd" clip-rule="evenodd" d="M165.195 3H0.610778C0.273455 3 0 3.34358 0 3.76741V121.233C0 121.656 0.273455 122 0.610778 122H165.195C165.533 122 165.806 121.656 165.806 121.233V3.76741C165.806 3.34358 165.533 3 165.195 3ZM164.584 4.53516V120.466H1.22135V4.53516H164.584Z" fill="#2E186A"/>
<rect x="34.3054" y="49.1982" width="6.88144" height="8.64618" fill="#DBF6FF"/>
<rect x="34.3054" y="57.8701" width="6.88144" height="8.64618" fill="#3471E9"/>
<rect x="141.354" y="32.8525" width="6.88144" height="8.64617" fill="#DBF6FF"/>
<rect x="141.354" y="41.5244" width="6.88144" height="8.64618" fill="#3471E9"/>
<rect x="11.9712" y="47.0498" width="6.88144" height="8.64617" fill="#DBF6FF"/>
<rect x="11.9712" y="55.6958" width="6.88144" height="8.64618" fill="#3471E9"/>
<rect x="11.9712" y="64.3677" width="6.88144" height="8.64618" fill="#DBF6FF"/>
<rect x="61.6887" y="47.6123" width="6.88144" height="8.64618" fill="#DBF6FF"/>
<rect x="61.6887" y="56.2842" width="6.88144" height="8.64618" fill="#DBF6FF"/>
<rect x="61.6887" y="64.9302" width="6.88144" height="8.64618" fill="#3471E9"/>
<rect x="131.134" y="27.9668" width="6.88144" height="8.64617" fill="#3471E9"/>
<rect x="131.134" y="36.6128" width="6.88144" height="8.64618" fill="#DBF6FF"/>
<rect x="131.134" y="45.2588" width="6.88144" height="8.64618" fill="#3471E9"/>
<rect x="106.927" y="58.2798" width="6.88144" height="8.64617" fill="#DBF6FF"/>
<rect x="106.927" y="66.9263" width="6.88144" height="8.64618" fill="#DBF6FF"/>
<rect x="106.927" y="75.5977" width="6.88144" height="8.64618" fill="#DBF6FF"/>
<rect x="106.927" y="84.2441" width="6.88144" height="8.64618" fill="#3471E9"/>
<rect x="120.038" y="45.2847" width="6.88144" height="8.64617" fill="#DBF6FF"/>
<rect x="120.038" y="53.9561" width="6.88144" height="8.64617" fill="#3471E9"/>
<rect x="120.038" y="62.6025" width="6.88144" height="8.64618" fill="#DBF6FF"/>
<rect x="120.038" y="71.2744" width="6.88144" height="8.64618" fill="#DBF6FF"/>
<rect x="53.0359" y="40.834" width="6.88144" height="8.64617" fill="#DBF6FF"/>
<rect x="70.9519" y="40.834" width="6.88144" height="8.64617" fill="#3471E9"/>
<rect x="70.9519" y="49.48" width="6.88144" height="8.64618" fill="#3471E9"/>
<rect x="70.9519" y="58.1519" width="6.88144" height="8.64618" fill="#3471E9"/>
<rect x="70.9519" y="66.7979" width="6.88144" height="8.64618" fill="#DBF6FF"/>
<rect x="70.9519" y="75.4692" width="6.88144" height="8.64617" fill="#3471E9"/>
<rect x="70.9519" y="84.1157" width="6.88144" height="8.64618" fill="#DBF6FF"/>
<rect x="97.1138" y="56.3613" width="6.88144" height="8.64618" fill="#DBF6FF"/>
<rect x="97.1138" y="108.315" width="6.88144" height="8.64617" fill="#DBF6FF"/>
<rect x="97.1138" y="65.0332" width="6.88144" height="8.64618" fill="#3471E9"/>
<rect x="97.1138" y="73.6792" width="6.88144" height="8.64618" fill="#DBF6FF"/>
<rect x="97.1138" y="82.3511" width="6.88144" height="8.64618" fill="#3471E9"/>
<rect x="97.1138" y="90.9971" width="6.88144" height="8.64617" fill="#DBF6FF"/>
<rect x="97.1138" y="99.6689" width="6.88144" height="8.64617" fill="#3471E9"/>
<rect x="23.1484" y="43.4941" width="6.88143" height="8.64618" fill="#DBF6FF"/>
<rect x="23.1484" y="52.1655" width="6.88143" height="8.64618" fill="#3471E9"/>
<rect x="23.1484" y="60.812" width="6.88143" height="8.64618" fill="#3471E9"/>
<rect x="23.1484" y="69.4067" width="6.88143" height="8.64618" fill="#DBF6FF"/>
<rect x="41.9402" y="89.8457" width="6.88144" height="8.64618" fill="#DBF6FF"/>
<rect x="50.6743" y="89.8457" width="6.88144" height="8.64618" fill="#3471E9"/>
<rect x="117.514" y="96.0361" width="6.88144" height="8.64617" fill="#DBF6FF"/>
<rect x="125.82" y="96.0361" width="6.88144" height="8.64617" fill="#3471E9"/>
<rect x="117.514" y="106.575" width="6.88144" height="8.64617" fill="#DBF6FF"/>
<rect x="52.7915" y="100.513" width="6.88144" height="8.64618" fill="#3471E9"/>
<rect x="44.2202" y="100.513" width="6.88144" height="8.64618" fill="#3471E9"/>
<rect x="34.8347" y="100.513" width="6.88144" height="8.64618" fill="#DBF6FF"/>
<path fill-rule="evenodd" clip-rule="evenodd" d="M39.2119 33.876C39.5372 33.876 39.8031 34.1955 39.8217 34.5983L39.8227 34.6434V45.9499C39.8227 46.3738 39.5493 46.7173 39.2119 46.7173C38.8867 46.7173 38.6208 46.3979 38.6022 45.995L38.6012 45.9499V35.4105H15.0048V43.4942C15.0048 43.9029 14.7505 44.237 14.4299 44.2603L14.394 44.2616C14.0687 44.2616 13.8028 43.9421 13.7842 43.5393L13.7832 43.4942V34.6434C13.7832 34.2347 14.0375 33.9006 14.3581 33.8773L14.394 33.876H39.2119Z" fill="#2E186A"/>
<path fill-rule="evenodd" clip-rule="evenodd" d="M26.8132 18.7832C27.1385 18.7832 27.4043 19.1027 27.4229 19.5055L27.424 19.5506V40.7312C27.424 41.155 27.1505 41.4986 26.8132 41.4986C26.4879 41.4986 26.222 41.1791 26.2034 40.7763L26.2024 40.7312V19.5506C26.2024 19.1268 26.4758 18.7832 26.8132 18.7832Z" fill="#2E186A"/>
<path fill-rule="evenodd" clip-rule="evenodd" d="M75.1258 30.5249C75.4511 30.5249 75.717 30.8444 75.7356 31.2472L75.7366 31.2923V37.713C75.7366 38.1368 75.4632 38.4804 75.1258 38.4804C74.8006 38.4804 74.5347 38.1609 74.5161 37.7581L74.5151 37.713L74.5149 32.0597H57.0875V37.713C57.0875 38.1217 56.8333 38.4558 56.5126 38.4791L56.4767 38.4804C56.1515 38.4804 55.8856 38.1609 55.867 37.7581L55.866 37.713V31.2923C55.866 30.8836 56.1202 30.5495 56.4409 30.5262L56.4767 30.5249H75.1258Z" fill="#2E186A"/>
<path fill-rule="evenodd" clip-rule="evenodd" d="M65.8012 18.3228C66.1265 18.3228 66.3924 18.6422 66.411 19.0451L66.412 19.0902V43.5962C66.412 44.02 66.1385 44.3636 65.8012 44.3636C65.4759 44.3636 65.21 44.0441 65.1915 43.6413L65.1904 43.5962V19.0902C65.1904 18.6663 65.4639 18.3228 65.8012 18.3228Z" fill="#2E186A"/>
<path fill-rule="evenodd" clip-rule="evenodd" d="M39.2119 13.9995C39.5493 13.9995 39.8227 14.3431 39.8227 14.7669C39.8227 15.1756 39.5685 15.5097 39.2478 15.533L39.2119 15.5343H14.394C14.0567 15.5343 13.7832 15.1908 13.7832 14.7669C13.7832 14.3582 14.0375 14.0242 14.3581 14.0008L14.394 13.9995H39.2119Z" fill="#3471E9"/>
<path fill-rule="evenodd" clip-rule="evenodd" d="M75.1258 15.4839C75.4631 15.4839 75.7366 15.8275 75.7366 16.2513C75.7366 16.66 75.4823 16.9941 75.1617 17.0174L75.1258 17.0187H57.2097C56.8723 17.0187 56.5989 16.6751 56.5989 16.2513C56.5989 15.8426 56.8531 15.5085 57.1738 15.4852L57.2097 15.4839H75.1258Z" fill="#3471E9"/>
<path fill-rule="evenodd" clip-rule="evenodd" d="M137.954 11.4419C138.292 11.4419 138.565 11.7855 138.565 12.2093C138.565 12.618 138.311 12.9521 137.99 12.9754L137.954 12.9767H120.038C119.701 12.9767 119.427 12.6331 119.427 12.2093C119.427 11.8006 119.682 11.4665 120.002 11.4432L120.038 11.4419H137.954Z" fill="#3471E9"/>
<path fill-rule="evenodd" clip-rule="evenodd" d="M61.0168 84.2437C61.3542 84.2437 61.6276 84.5872 61.6276 85.0111C61.6276 85.4198 61.3733 85.7538 61.0527 85.7772L61.0168 85.7785H42.551C42.2136 85.7785 41.9402 85.4349 41.9402 85.0111C41.9402 84.6024 42.1945 84.2683 42.5151 84.245L42.551 84.2437H61.0168Z" fill="#3471E9"/>
<path fill-rule="evenodd" clip-rule="evenodd" d="M157.683 63.6001C158.02 63.6001 158.294 63.9437 158.294 64.3675C158.294 64.7762 158.039 65.1103 157.719 65.1336L157.683 65.1349H142.413C142.076 65.1349 141.802 64.7913 141.802 64.3675C141.802 63.9588 142.057 63.6247 142.377 63.6014L142.413 63.6001H157.683Z" fill="#2E186A"/>
<path fill-rule="evenodd" clip-rule="evenodd" d="M129.261 90.3833C129.598 90.3833 129.872 90.7269 129.872 91.1507C129.872 91.5594 129.618 91.8935 129.297 91.9168L129.261 91.9181H120.955C120.617 91.9181 120.344 91.5745 120.344 91.1507C120.344 90.742 120.598 90.4079 120.919 90.3846L120.955 90.3833H129.261Z" fill="#3471E9"/>
<path fill-rule="evenodd" clip-rule="evenodd" d="M109.757 45.0801C110.082 45.0801 110.348 45.3996 110.367 45.8024L110.368 45.8475V55.3634C110.368 55.7872 110.094 56.1308 109.757 56.1308C109.431 56.1308 109.166 55.8113 109.147 55.4085L109.146 55.3634V46.6149H100.127L100.127 52.9333C100.127 53.342 99.8726 53.676 99.5519 53.6994L99.5161 53.7007C99.1908 53.7007 98.9249 53.3812 98.9063 52.9784L98.9053 52.9333V45.8475C98.9053 45.4388 99.1595 45.1047 99.4802 45.0814L99.5161 45.0801H109.757Z" fill="#2E186A"/>
<path fill-rule="evenodd" clip-rule="evenodd" d="M144.816 19.3721C145.141 19.3721 145.407 19.6915 145.425 20.0944L145.426 20.1395V29.9624C145.426 30.3862 145.153 30.7298 144.816 30.7298C144.49 30.7298 144.224 30.4103 144.206 30.0074L144.205 29.9624L144.205 20.9069H105.237V27.8136C105.237 28.2223 104.983 28.5564 104.662 28.5797L104.626 28.581C104.301 28.581 104.035 28.2615 104.017 27.8587L104.016 27.8136V20.1395C104.016 19.7308 104.27 19.3967 104.591 19.3734L104.626 19.3721H144.816Z" fill="#2E186A"/>
<path fill-rule="evenodd" clip-rule="evenodd" d="M104.626 37.8916C104.952 37.8916 105.218 38.2111 105.236 38.6139L105.237 38.659V45.8471C105.237 46.2709 104.964 46.6145 104.626 46.6145C104.301 46.6145 104.035 46.295 104.017 45.8922L104.016 45.8471V38.659C104.016 38.2352 104.289 37.8916 104.626 37.8916Z" fill="#2E186A"/>
<path fill-rule="evenodd" clip-rule="evenodd" d="M123.438 19.3721C123.764 19.3721 124.03 19.6915 124.048 20.0944L124.049 20.1395V41.5247C124.049 41.9485 123.776 42.2921 123.438 42.2921C123.113 42.2921 122.847 41.9726 122.829 41.5698L122.828 41.5247V20.1395C122.828 19.7157 123.101 19.3721 123.438 19.3721Z" fill="#2E186A"/>
<path fill-rule="evenodd" clip-rule="evenodd" d="M134.147 19.3721C134.473 19.3721 134.739 19.6915 134.757 20.0944L134.758 20.1395V24.3091C134.758 24.7329 134.485 25.0765 134.147 25.0765C133.822 25.0765 133.556 24.757 133.538 24.3542L133.537 24.3091V20.1395C133.537 19.7157 133.81 19.3721 134.147 19.3721Z" fill="#2E186A"/>
<path fill-rule="evenodd" clip-rule="evenodd" d="M128.304 14.3833C128.629 14.3833 128.895 14.7028 128.914 15.1056L128.915 15.1507V19.3203C128.915 19.7441 128.641 20.0877 128.304 20.0877C127.979 20.0877 127.713 19.7682 127.694 19.3654L127.693 19.3203V15.1507C127.693 14.7269 127.967 14.3833 128.304 14.3833Z" fill="#2E186A"/>
<path fill-rule="evenodd" clip-rule="evenodd" d="M112.465 30.7549C112.802 30.7549 113.076 31.0985 113.076 31.5223C113.076 31.931 112.821 32.2651 112.501 32.2884L112.465 32.2897H97.8061C97.4688 32.2897 97.1953 31.9461 97.1953 31.5223C97.1953 31.1136 97.4496 30.7795 97.7702 30.7562L97.8061 30.7549H112.465Z" fill="#3471E9"/>
<path fill-rule="evenodd" clip-rule="evenodd" d="M109.166 34.0811C109.504 34.0811 109.777 34.4246 109.777 34.8485C109.777 35.2572 109.523 35.5912 109.202 35.6146L109.166 35.6159H101.104C100.767 35.6159 100.493 35.2723 100.493 34.8485C100.493 34.4398 100.748 34.1057 101.068 34.0824L101.104 34.0811H109.166Z" fill="#3471E9"/>
</svg>
