<svg width="170" height="125" viewBox="0 0 170 125" fill="none" xmlns="http://www.w3.org/2000/svg">
<path fill-rule="evenodd" clip-rule="evenodd" d="M164.625 124.311H5.37509C3.07991 124.311 1.21631 122.268 1.21631 119.72V26.0791H168.803V119.72C168.784 122.268 166.92 124.311 164.625 124.311Z" fill="white"/>
<path fill-rule="evenodd" clip-rule="evenodd" d="M168.803 25.3901H1.21619C0.891169 25.3901 0.627686 25.6985 0.627686 26.0788V119.72C0.627686 122.653 2.75798 125 5.37497 125H164.625C167.238 125 169.369 122.659 169.392 119.726L169.392 26.0788C169.392 25.6985 169.128 25.3901 168.803 25.3901ZM1.80469 26.7672H168.215V119.72C168.198 121.874 166.606 123.622 164.625 123.622H5.37497L5.3083 123.622C3.35717 123.583 1.80469 121.849 1.80469 119.72V26.7672Z" fill="#2E186A"/>
<path fill-rule="evenodd" clip-rule="evenodd" d="M0.706179 27.663L0.51001 5.28007C0.51001 2.47934 2.39323 0.229568 4.70802 0.229568L165.213 0C167.528 0 169.411 2.27273 169.411 5.05051V27.663H0.706179Z" fill="#02ADE3"/>
<path fill-rule="evenodd" clip-rule="evenodd" d="M72.5433 3.67285C74.2153 3.67285 75.7834 4.59736 76.7992 6.17371L76.8133 6.19655L76.8266 6.22004L81.9302 15.6563H169.411C169.725 15.6563 169.981 15.943 169.999 16.3046L170 16.345C170 16.7118 169.755 17.0116 169.446 17.0326L169.411 17.0337H81.6063C81.418 17.0337 81.242 16.9284 81.1316 16.7522L81.109 16.7134L75.847 6.98415L75.8092 6.92665C75.031 5.76565 73.8677 5.07985 72.6245 5.0512L72.5433 5.05026H38.2333C36.9597 5.05026 35.7625 5.74041 34.9674 6.92665L34.9295 6.98415L29.6676 16.7134C29.5674 16.8986 29.3984 17.0161 29.2131 17.0319L29.1732 17.0337L0.591334 17.1944C0.266315 17.1963 0.00156846 16.8894 6.93823e-06 16.509C-0.00149881 16.1423 0.242267 15.8411 0.551106 15.8184L0.58568 15.817L28.8453 15.6582L33.95 6.22004C33.9543 6.2121 33.9587 6.20427 33.9633 6.19655L33.9774 6.17371C34.975 4.62551 36.5055 3.70608 38.1439 3.67373L38.2333 3.67285H72.5433Z" fill="#3471E9"/>
<path fill-rule="evenodd" clip-rule="evenodd" d="M87.2166 3.7417C88.6138 3.7417 89.772 4.99246 89.8053 6.56469L89.8061 6.63426V15.4038C89.8061 15.7841 89.5426 16.0925 89.2176 16.0925C88.9041 16.0925 88.6479 15.8058 88.63 15.4442L88.629 15.4038V6.63426C88.629 5.8274 88.0262 5.14796 87.2654 5.12L87.2166 5.11911H72.4647C72.1397 5.11911 71.8762 4.81077 71.8762 4.4304C71.8762 4.06363 72.1212 3.76382 72.4301 3.74287L72.4647 3.7417H87.2166Z" fill="#3471E9"/>
<path fill-rule="evenodd" clip-rule="evenodd" d="M7.51333 11.295C8.92177 11.295 10.0635 9.95879 10.0635 8.31056C10.0635 6.66233 8.92177 5.32617 7.51333 5.32617C6.1049 5.32617 4.96313 6.66233 4.96313 8.31056C4.96313 9.95879 6.1049 11.295 7.51333 11.295Z" fill="white"/>
<path fill-rule="evenodd" clip-rule="evenodd" d="M15.9093 11.295C17.3178 11.295 18.4595 9.95879 18.4595 8.31056C18.4595 6.66233 17.3178 5.32617 15.9093 5.32617C14.5009 5.32617 13.3591 6.66233 13.3591 8.31056C13.3591 9.95879 14.5009 11.295 15.9093 11.295Z" fill="white"/>
<path fill-rule="evenodd" clip-rule="evenodd" d="M24.3251 11.295C25.7335 11.295 26.8753 9.95879 26.8753 8.31056C26.8753 6.66233 25.7335 5.32617 24.3251 5.32617C22.9167 5.32617 21.7749 6.66233 21.7749 8.31056C21.7749 9.95879 22.9167 11.295 24.3251 11.295Z" fill="white"/>
<path fill-rule="evenodd" clip-rule="evenodd" d="M69.3341 9.32633C69.5398 9.05094 69.8914 9.01329 70.1357 9.23332L70.1645 9.26096L72.4989 11.6485C72.7436 11.8988 72.7687 12.3339 72.5548 12.6203C72.3491 12.8956 71.9975 12.9333 71.7532 12.7133L71.7244 12.6856L69.39 10.2981C69.1452 10.0478 69.1202 9.61273 69.3341 9.32633Z" fill="white"/>
<path fill-rule="evenodd" clip-rule="evenodd" d="M71.7542 9.27328C72.0038 9.02955 72.3749 9.06867 72.5832 9.36068C72.7834 9.64145 72.7602 10.0538 72.5363 10.3018L72.5085 10.3307L70.1348 12.6494C69.8853 12.8931 69.5142 12.854 69.3059 12.562C69.1056 12.2812 69.1289 11.8689 69.3528 11.6209L69.3806 11.5919L71.7542 9.27328Z" fill="white"/>
<path fill-rule="evenodd" clip-rule="evenodd" d="M83.4741 8.6548C83.7875 8.65739 84.0419 8.9462 84.0577 9.30787L84.0584 9.34834L84.0388 12.6082C84.0365 12.9886 83.7712 13.2947 83.4462 13.2921C83.1328 13.2895 82.8783 13.0007 82.8626 12.639L82.8618 12.5985L82.8814 9.33864C82.8837 8.95829 83.1491 8.65212 83.4741 8.6548Z" fill="white"/>
<path fill-rule="evenodd" clip-rule="evenodd" d="M84.8627 10.2847C85.1877 10.2847 85.4512 10.593 85.4512 10.9734C85.4512 11.3402 85.2062 11.64 84.8973 11.6609L84.8627 11.6621H82.0575C81.7325 11.6621 81.469 11.3537 81.469 10.9734C81.469 10.6066 81.714 10.3068 82.0229 10.2858L82.0575 10.2847H84.8627Z" fill="white"/>
<path fill-rule="evenodd" clip-rule="evenodd" d="M162.624 19.3525C162.949 19.3525 163.212 19.6609 163.212 20.0412C163.212 20.408 162.967 20.7078 162.659 20.7288L162.624 20.7299H159.426C159.101 20.7299 158.838 20.4216 158.838 20.0412C158.838 19.6745 159.083 19.3747 159.392 19.3537L159.426 19.3525H162.624Z" fill="white"/>
<path fill-rule="evenodd" clip-rule="evenodd" d="M162.624 21.4185C162.949 21.4185 163.212 21.7268 163.212 22.1072C163.212 22.4739 162.967 22.7738 162.659 22.7947L162.624 22.7959H159.426C159.101 22.7959 158.838 22.4875 158.838 22.1072C158.838 21.7404 159.083 21.4406 159.392 21.4196L159.426 21.4185H162.624Z" fill="white"/>
<path fill-rule="evenodd" clip-rule="evenodd" d="M162.624 23.5078C162.949 23.5078 163.212 23.8162 163.212 24.1965C163.212 24.5633 162.967 24.8631 162.659 24.8841L162.624 24.8852H159.426C159.101 24.8852 158.838 24.5769 158.838 24.1965C158.838 23.8297 159.083 23.5299 159.392 23.509L159.426 23.5078H162.624Z" fill="white"/>
<path fill-rule="evenodd" clip-rule="evenodd" d="M153.816 20.9139C153.738 20.6155 153.522 20.4088 153.247 20.4088H151.953L151.56 18.9626C151.482 18.6871 151.246 18.4805 150.991 18.4805C150.736 18.4805 150.501 18.6641 150.422 18.9626L150.03 20.4088H148.735C148.48 20.4088 148.245 20.5925 148.166 20.8909C148.088 21.1664 148.166 21.4878 148.382 21.6715L149.422 22.5668L149.03 24.0131C148.951 24.2885 149.03 24.6099 149.245 24.7936C149.343 24.8854 149.461 24.9313 149.598 24.9313C149.736 24.9313 149.834 24.8854 149.952 24.7936L151.031 23.8753L152.09 24.587C152.306 24.7247 152.561 24.7018 152.757 24.5181C152.953 24.3345 153.012 24.036 152.953 23.7605L152.561 22.3831L153.541 21.7174C153.777 21.5337 153.875 21.2123 153.816 20.9139Z" fill="white"/>
<path fill-rule="evenodd" clip-rule="evenodd" d="M142.654 24.7246H30.0336C29.4843 24.7246 29.0527 24.2195 29.0527 23.5767V21.5565C29.0527 20.9137 29.4843 20.4087 30.0336 20.4087H142.654C143.203 20.4087 143.635 20.9137 143.635 21.5565V23.5767C143.635 24.2195 143.203 24.7246 142.654 24.7246Z" fill="white"/>
<path fill-rule="evenodd" clip-rule="evenodd" d="M10.2737 19.7174C10.5131 19.4602 10.8854 19.479 11.1052 19.7592C11.3164 20.0287 11.3098 20.4419 11.096 20.7019L11.0694 20.7323L9.64105 22.2657L11.1265 23.8477C11.3576 24.0939 11.3827 24.506 11.1898 24.7875L11.1656 24.8206C10.9553 25.0911 10.6031 25.1205 10.3626 24.8948L10.3343 24.8664L8.37259 22.7774C8.12622 22.515 8.11633 22.0688 8.34354 21.7917L8.37081 21.7605L10.2737 19.7174Z" fill="white"/>
<path fill-rule="evenodd" clip-rule="evenodd" d="M13.5552 21.6255C13.8802 21.6255 14.1437 21.9338 14.1437 22.3142C14.1437 22.681 13.8987 22.9808 13.5898 23.0017L13.5552 23.0029H8.76868C8.44366 23.0029 8.18018 22.6946 8.18018 22.3142C8.18018 21.9474 8.42518 21.6476 8.7341 21.6267L8.76868 21.6255H13.5552Z" fill="white"/>
<path fill-rule="evenodd" clip-rule="evenodd" d="M19.6561 19.7566C19.8685 19.4884 20.221 19.4628 20.4597 19.6912L20.4877 19.7198L22.371 21.7629C22.6144 22.027 22.6217 22.4714 22.3942 22.7464L22.3669 22.7774L20.4053 24.8664C20.1649 25.1224 19.7927 25.1019 19.5739 24.8206C19.3636 24.5501 19.3717 24.137 19.5863 23.878L19.6131 23.8477L21.1006 22.2632L19.6875 20.7299C19.4583 20.4812 19.4365 20.0688 19.6316 19.7895L19.6561 19.7566Z" fill="white"/>
<path fill-rule="evenodd" clip-rule="evenodd" d="M21.9709 21.6255C22.2959 21.6255 22.5594 21.9338 22.5594 22.3142C22.5594 22.681 22.3144 22.9808 22.0055 23.0017L21.9709 23.0029H17.204C16.879 23.0029 16.6155 22.6946 16.6155 22.3142C16.6155 21.9474 16.8605 21.6476 17.1694 21.6267L17.204 21.6255H21.9709Z" fill="white"/>
<path fill-rule="evenodd" clip-rule="evenodd" d="M157.594 8.84259C157.657 8.46943 157.966 8.22662 158.285 8.30027C158.592 8.37129 158.796 8.71063 158.754 9.06937L158.748 9.1093L158.578 10.1197L159.512 10.2429C159.823 10.2839 160.051 10.6023 160.034 10.9639L160.031 11.0043C159.996 11.3687 159.724 11.6346 159.415 11.615L159.38 11.6117L157.811 11.4051C157.481 11.3616 157.249 11.0082 157.294 10.6281L157.299 10.5873L157.594 8.84259Z" fill="white"/>
<path fill-rule="evenodd" clip-rule="evenodd" d="M159.826 8.23508C160.089 8.01152 160.457 8.07975 160.648 8.38748C160.832 8.68337 160.785 9.09295 160.547 9.32276L160.518 9.34946L158.223 11.3008C157.96 11.5243 157.592 11.4561 157.401 11.1484C157.217 10.8525 157.264 10.4429 157.501 10.2131L157.531 10.1864L159.826 8.23508Z" fill="white"/>
<path fill-rule="evenodd" clip-rule="evenodd" d="M161.902 5.29192C161.939 4.92763 162.212 4.66313 162.521 4.68429L162.555 4.68783L164.066 4.89444C164.396 4.93961 164.626 5.29446 164.58 5.67441L164.574 5.7152L164.26 7.52879C164.196 7.90158 163.885 8.14258 163.567 8.06708C163.259 7.99427 163.057 7.65375 163.101 7.29526L163.107 7.25537L163.293 6.17537L162.418 6.05592C162.107 6.01334 161.881 5.69376 161.899 5.33225L161.902 5.29192Z" fill="white"/>
<path fill-rule="evenodd" clip-rule="evenodd" d="M163.668 5.04643C163.93 4.82115 164.298 4.88698 164.491 5.19346C164.676 5.48814 164.631 5.89802 164.395 6.12938L164.365 6.15627L162.07 8.13056C161.808 8.35583 161.44 8.29 161.247 7.98353C161.062 7.68884 161.107 7.27896 161.344 7.0476L161.373 7.02071L163.668 5.04643Z" fill="white"/>
<path fill-rule="evenodd" clip-rule="evenodd" d="M54.476 90.7021H23.9914C22.7947 90.7021 21.8335 89.5772 21.8335 88.1768V68.4798C21.8335 67.0795 22.7947 65.9546 23.9914 65.9546H54.476C55.6726 65.9546 56.6339 67.0795 56.6339 68.4798V88.1768C56.6339 89.5772 55.6726 90.7021 54.476 90.7021Z" fill="#3471E9"/>
<path fill-rule="evenodd" clip-rule="evenodd" d="M138.848 58.9986H23.3245C22.7164 58.9986 22.2456 58.4247 22.2456 57.736V48.163C22.2456 47.4514 22.736 46.9004 23.3245 46.9004H138.848C139.457 46.9004 139.927 47.4743 139.927 48.163V57.736C139.927 58.4247 139.437 58.9986 138.848 58.9986Z" fill="white"/>
<path fill-rule="evenodd" clip-rule="evenodd" d="M138.848 46.2119H23.3244C22.4057 46.2119 21.657 47.0772 21.657 48.1632V57.7362C21.657 58.8114 22.3963 59.6876 23.3244 59.6876H138.848C139.762 59.6876 140.516 58.8053 140.516 57.7362V48.1632C140.516 47.0881 139.776 46.2119 138.848 46.2119ZM23.3244 47.5892H138.848C139.123 47.5892 139.339 47.8449 139.339 48.1631V57.7361C139.339 58.0445 139.112 58.3101 138.848 58.3101H23.3244C23.0497 58.3101 22.834 58.0544 22.834 57.7361V48.1631C22.834 47.8417 23.0525 47.5892 23.3244 47.5892Z" fill="#3471E9"/>
<rect x="109.894" y="46.6938" width="29.9158" height="12.2819" fill="#DBF6FF"/>
<path fill-rule="evenodd" clip-rule="evenodd" d="M128.569 58.425C128.471 58.425 128.393 58.3791 128.334 58.3331L125.627 55.5783C125.293 55.7849 124.96 55.9456 124.587 56.0145C124.351 56.0604 124.096 56.1063 123.861 56.1063C122.135 56.1063 120.644 54.683 120.31 52.7087C120.114 51.6068 120.31 50.459 120.84 49.5177C121.37 48.5765 122.194 47.9337 123.155 47.7041C123.39 47.6582 123.645 47.6123 123.881 47.6123C125.607 47.6123 127.098 49.0356 127.431 51.0099C127.647 52.2725 127.372 53.5811 126.666 54.5682L129.216 57.1624C129.315 57.2771 129.354 57.4378 129.315 57.6215C129.295 57.7592 129.216 57.9199 129.118 58.0347L129.04 58.1495C128.922 58.3102 128.726 58.425 128.569 58.425ZM123.861 49.2423C123.704 49.2423 123.567 49.2653 123.41 49.2882C122.821 49.426 122.331 49.8162 121.997 50.4131C121.664 50.987 121.546 51.6987 121.664 52.3645C121.88 53.5812 122.782 54.4535 123.841 54.4535C123.998 54.4535 124.136 54.4306 124.293 54.4076C124.881 54.2699 125.372 53.8796 125.705 53.2827C126.038 52.7088 126.156 51.9971 126.038 51.3314C125.842 50.1147 124.92 49.2423 123.861 49.2423Z" fill="white"/>
<path fill-rule="evenodd" clip-rule="evenodd" d="M59.2233 55.5555H26.8554C26.4434 55.5555 26.0903 55.1652 26.0903 54.6602V51.0789C26.0903 50.5968 26.4238 50.1836 26.8554 50.1836H59.2233C59.6352 50.1836 59.9883 50.5739 59.9883 51.0789V54.6602C59.9883 55.1423 59.6352 55.5555 59.2233 55.5555Z" fill="#DBF6FF"/>
<path fill-rule="evenodd" clip-rule="evenodd" d="M55.4372 97.7041H22.5004C22.0885 97.7041 21.7354 97.3138 21.7354 96.8088V95.6609C21.7354 95.1788 22.0688 94.7656 22.5004 94.7656H55.4372C55.8491 94.7656 56.2022 95.1559 56.2022 95.6609V96.8088C56.1826 97.3138 55.8491 97.7041 55.4372 97.7041Z" fill="#3471E9"/>
<path fill-rule="evenodd" clip-rule="evenodd" d="M96.5346 90.7021H66.0499C64.8533 90.7021 63.8921 89.5772 63.8921 88.1768V68.4798C63.8921 67.0795 64.8533 65.9546 66.0499 65.9546H96.5346C97.7312 65.9546 98.6925 67.0795 98.6925 68.4798V88.1768C98.6925 89.5772 97.7312 90.7021 96.5346 90.7021Z" fill="#DBF6FF"/>
<path fill-rule="evenodd" clip-rule="evenodd" d="M97.4764 97.7041H64.5592C64.1473 97.7041 63.7942 97.3138 63.7942 96.8088V95.6609C63.7942 95.1788 64.1277 94.7656 64.5592 94.7656H97.4764C97.8883 94.7656 98.2415 95.1559 98.2415 95.6609V96.8088C98.2415 97.3138 97.908 97.7041 97.4764 97.7041Z" fill="#3471E9"/>
<path fill-rule="evenodd" clip-rule="evenodd" d="M138.593 90.7021H108.089C106.892 90.7021 105.931 89.5772 105.931 88.1768V68.4798C105.931 67.0795 106.892 65.9546 108.089 65.9546H138.574C139.77 65.9546 140.732 67.0795 140.732 68.4798V88.1768C140.751 89.5772 139.77 90.7021 138.593 90.7021Z" fill="#3471E9"/>
<path fill-rule="evenodd" clip-rule="evenodd" d="M139.535 97.7041H106.618C106.206 97.7041 105.853 97.3138 105.853 96.8088V95.6609C105.853 95.1788 106.186 94.7656 106.618 94.7656H139.535C139.947 94.7656 140.3 95.1559 140.3 95.6609V96.8088C140.3 97.3138 139.947 97.7041 139.535 97.7041Z" fill="#3471E9"/>
<path fill-rule="evenodd" clip-rule="evenodd" d="M56.6339 109.412V123.645H21.8335V109.412C21.8335 108.012 22.7947 106.887 23.9914 106.887H54.476C55.6726 106.887 56.6339 108.012 56.6339 109.412Z" fill="#3471E9"/>
<path fill-rule="evenodd" clip-rule="evenodd" d="M98.6925 109.412V123.645H63.8921V109.412C63.8921 108.012 64.8533 106.887 66.0499 106.887H96.5346C97.7312 106.887 98.6925 108.012 98.6925 109.412Z" fill="#3471E9"/>
<path fill-rule="evenodd" clip-rule="evenodd" d="M140.751 109.412V123.645H105.931V109.412C105.931 108.012 106.892 106.887 108.089 106.887H138.574C139.77 106.887 140.751 108.012 140.751 109.412Z" fill="#3471E9"/>
</svg>
