<svg width="600" height="448" viewBox="0 0 600 448" fill="none" xmlns="http://www.w3.org/2000/svg">
<path fill-rule="evenodd" clip-rule="evenodd" d="M377.898 278.836C378.782 278.836 379.498 279.552 379.498 280.436C379.498 281.288 378.832 281.984 377.992 282.033L377.898 282.035H139.162C138.279 282.035 137.563 281.319 137.563 280.436C137.563 279.584 138.229 278.887 139.068 278.839L139.162 278.836H377.898Z" fill="#968BB4"/>
<path fill-rule="evenodd" clip-rule="evenodd" d="M377.898 250.307C378.782 250.307 379.498 251.023 379.498 251.907C379.498 252.759 378.832 253.455 377.992 253.504L377.898 253.507H139.162C138.279 253.507 137.563 252.79 137.563 251.907C137.563 251.055 138.229 250.359 139.068 250.31L139.162 250.307H377.898Z" fill="#968BB4"/>
<path fill-rule="evenodd" clip-rule="evenodd" d="M377.898 221.778C378.782 221.778 379.498 222.495 379.498 223.378C379.498 224.23 378.832 224.926 377.992 224.975L377.898 224.978H139.162C138.279 224.978 137.563 224.262 137.563 223.378C137.563 222.526 138.229 221.83 139.068 221.781L139.162 221.778H377.898Z" fill="#968BB4"/>
<path fill-rule="evenodd" clip-rule="evenodd" d="M377.898 193.25C378.782 193.25 379.498 193.966 379.498 194.849C379.498 195.701 378.832 196.398 377.992 196.446L377.898 196.449H139.162C138.279 196.449 137.563 195.733 137.563 194.849C137.563 193.997 138.229 193.301 139.068 193.252L139.162 193.25H377.898Z" fill="#968BB4"/>
<rect x="270.721" y="176.829" width="33.4331" height="130.213" transform="rotate(-0.58588 270.721 176.829)" fill="#3471E9"/>
<rect x="327.695" y="223.539" width="33.6464" height="83.5028" transform="rotate(-0.58588 327.695 223.539)" fill="#3471E9"/>
<rect x="214.704" y="223.539" width="33.6464" height="83.5028" transform="rotate(-0.58588 214.704 223.539)" fill="#3471E9"/>
<path fill-rule="evenodd" clip-rule="evenodd" d="M193.181 306.725L159.693 307.045L159.213 267.051L192.647 266.678L193.181 306.725Z" fill="#3471E9"/>
<path fill-rule="evenodd" clip-rule="evenodd" d="M139.162 165.201C140.014 165.201 140.711 165.867 140.76 166.706L140.762 166.8V305.445H377.898C378.75 305.445 379.447 306.111 379.495 306.951L379.498 307.045C379.498 307.897 378.832 308.593 377.992 308.642L377.898 308.645H139.162C138.311 308.645 137.614 307.979 137.565 307.139L137.563 307.045V166.8C137.563 165.917 138.279 165.201 139.162 165.201Z" fill="#2E186A"/>
<path fill-rule="evenodd" clip-rule="evenodd" d="M184.382 313.764C185.266 313.764 185.982 314.48 185.982 315.364C185.982 316.216 185.316 316.912 184.476 316.961L184.382 316.964H164.705C163.822 316.964 163.105 316.247 163.105 315.364C163.105 314.512 163.771 313.816 164.611 313.767L164.705 313.764H184.382Z" fill="#3471E9"/>
<path fill-rule="evenodd" clip-rule="evenodd" d="M241.92 313.764C242.803 313.764 243.52 314.48 243.52 315.364C243.52 316.216 242.854 316.912 242.014 316.961L241.92 316.964H222.296C221.413 316.964 220.697 316.247 220.697 315.364C220.697 314.512 221.363 313.816 222.202 313.767L222.296 313.764H241.92Z" fill="#3471E9"/>
<path fill-rule="evenodd" clip-rule="evenodd" d="M298.338 313.764C299.221 313.764 299.937 314.48 299.937 315.364C299.937 316.216 299.271 316.912 298.432 316.961L298.338 316.964H278.714C277.83 316.964 277.114 316.247 277.114 315.364C277.114 314.512 277.78 313.816 278.62 313.767L278.714 313.764H298.338Z" fill="#3471E9"/>
<path fill-rule="evenodd" clip-rule="evenodd" d="M354.915 313.764C355.799 313.764 356.515 314.48 356.515 315.364C356.515 316.216 355.849 316.912 355.009 316.961L354.915 316.964H335.238C334.355 316.964 333.639 316.247 333.639 315.364C333.639 314.512 334.305 313.816 335.144 313.767L335.238 313.764H354.915Z" fill="#3471E9"/>
<path fill-rule="evenodd" clip-rule="evenodd" d="M129.298 192.556C130.149 192.556 130.846 193.222 130.895 194.062L130.897 194.156V197.569C130.897 198.452 130.181 199.168 129.298 199.168C128.446 199.168 127.749 198.502 127.7 197.663L127.698 197.569V194.156C127.698 193.272 128.414 192.556 129.298 192.556Z" fill="#2E186A"/>
<path fill-rule="evenodd" clip-rule="evenodd" d="M129.298 220.072C130.149 220.072 130.846 220.738 130.895 221.578L130.897 221.672V225.084C130.897 225.968 130.181 226.684 129.298 226.684C128.446 226.684 127.749 226.018 127.7 225.178L127.698 225.084V221.672C127.698 220.788 128.414 220.072 129.298 220.072Z" fill="#2E186A"/>
<path fill-rule="evenodd" clip-rule="evenodd" d="M129.298 250.307C130.149 250.307 130.846 250.973 130.895 251.813L130.897 251.907V255.32C130.897 256.203 130.181 256.919 129.298 256.919C128.446 256.919 127.749 256.253 127.7 255.414L127.698 255.32V251.907C127.698 251.023 128.414 250.307 129.298 250.307Z" fill="#2E186A"/>
<path fill-rule="evenodd" clip-rule="evenodd" d="M129.298 278.836C130.149 278.836 130.846 279.502 130.895 280.342L130.897 280.436V283.848C130.897 284.732 130.181 285.448 129.298 285.448C128.446 285.448 127.749 284.782 127.7 283.942L127.698 283.848V280.436C127.698 279.552 128.414 278.836 129.298 278.836Z" fill="#2E186A"/>
<path fill-rule="evenodd" clip-rule="evenodd" d="M511.797 134.646C501.346 152.35 482.042 164.241 459.966 164.241C426.744 164.241 399.815 137.312 399.815 104.09C399.815 70.869 426.744 43.94 459.966 43.94C478.789 43.94 495.64 52.5786 506.625 66.1765L536.434 43.46C518.57 20.9569 490.947 6.50586 459.966 6.50586C406.054 6.50586 362.328 50.2323 362.328 104.144C362.328 158.055 406.054 201.782 459.966 201.782C498.466 201.782 531.741 179.492 547.632 147.124L511.797 134.646Z" fill="#02ADE3"/>
<path fill-rule="evenodd" clip-rule="evenodd" d="M554.457 139.285C559.043 130.273 562.083 120.248 563.096 109.583C565.175 88.4128 559.043 68.3093 547.312 52.4185L517.716 70.7622C525.662 80.3074 529.874 92.8921 528.595 106.223C527.955 112.996 525.928 119.235 522.836 124.834L554.457 139.285Z" fill="#DBF6FF"/>
<path fill-rule="evenodd" clip-rule="evenodd" d="M394.322 148.136C395.206 148.136 395.922 148.852 395.922 149.736C395.922 150.588 395.256 151.284 394.417 151.333L394.322 151.336H339.025C338.141 151.336 337.425 150.619 337.425 149.736C337.425 148.884 338.091 148.188 338.931 148.139L339.025 148.136H394.322Z" fill="#2E186A"/>
<path fill-rule="evenodd" clip-rule="evenodd" d="M598.077 72.1484C598.961 72.1484 599.677 72.8647 599.677 73.7482C599.677 74.6001 599.011 75.2966 598.171 75.3452L598.077 75.3479H548.112C547.228 75.3479 546.512 74.6317 546.512 73.7482C546.512 72.8962 547.178 72.1998 548.018 72.1512L548.112 72.1484H598.077Z" fill="#2E186A"/>
<path fill-rule="evenodd" clip-rule="evenodd" d="M359.021 155.975C359.905 155.975 360.621 156.691 360.621 157.575C360.621 158.427 359.955 159.123 359.115 159.172L359.021 159.175H339.025C338.141 159.175 337.425 158.458 337.425 157.575C337.425 156.723 338.091 156.026 338.931 155.978L339.025 155.975H359.021Z" fill="#2E186A"/>
<path fill-rule="evenodd" clip-rule="evenodd" d="M598.077 77.854C598.96 77.854 599.677 78.5702 599.677 79.4538C599.677 80.3057 599.011 81.0021 598.171 81.0508L598.077 81.0535H578.133C577.25 81.0535 576.534 80.3373 576.534 79.4538C576.534 78.6018 577.2 77.9054 578.039 77.8567L578.133 77.854H598.077Z" fill="#2E186A"/>
<path fill-rule="evenodd" clip-rule="evenodd" d="M460.019 164.188C470.524 164.188 480.389 161.522 488.974 156.776L491.907 99.1849L437.196 98.1184L439.275 93.5857L401.735 89.1064C400.508 93.9057 399.868 98.8649 399.868 104.037C399.868 137.259 426.797 164.188 460.019 164.188Z" fill="#3471E9"/>
<path fill-rule="evenodd" clip-rule="evenodd" d="M364.887 81.9608L310.816 63.1904L292.099 95.7186L364.727 125.527C363.181 118.595 362.328 111.449 362.328 104.037C362.381 96.4652 363.287 89.053 364.887 81.9608Z" fill="#3471E9"/>
<path fill-rule="evenodd" clip-rule="evenodd" d="M330.919 54.8178C330.919 54.8178 342.437 55.0311 341.584 50.3385C340.731 45.6459 330.706 49.5387 319.081 43.1397C309.963 38.1271 281.487 41.0067 283.247 63.4031C284.74 82.7068 305.43 101.051 305.43 101.051L343.024 95.8247C343.024 95.8247 316.042 71.3486 322.227 67.7225C328.413 64.0964 330.919 54.8178 330.919 54.8178Z" fill="#E6D1BF"/>
<path fill-rule="evenodd" clip-rule="evenodd" d="M296.543 41.4881C286.706 45.0281 280.912 52.4828 281.628 63.201L281.652 63.5268C282.311 72.0569 286.486 80.897 293.015 89.628C295.493 92.9426 298.146 96.0117 300.799 98.7629L301.349 99.3283C301.981 99.9727 302.579 100.563 303.135 101.097L303.684 101.619L304.215 102.11C304.284 102.172 304.335 102.218 304.369 102.248C304.719 102.558 305.187 102.7 305.65 102.635L343.244 97.4095C344.588 97.2226 345.104 95.552 344.099 94.6401L343.18 93.7934L342.416 93.0799C341.889 92.585 341.327 92.0526 340.737 91.4875C338.21 89.0659 335.684 86.5412 333.329 84.0433C332.178 82.8231 331.096 81.6374 330.094 80.4952L329.578 79.9036C326.958 76.8738 325.009 74.2616 323.896 72.2173C323.29 71.1048 322.962 70.2084 322.912 69.6001C322.885 69.2752 322.911 69.1868 323.01 69.1194L323.036 69.1029C325.41 67.7115 327.412 65.5454 329.094 62.8262C330.121 61.1669 330.968 59.4001 331.65 57.6341L331.726 57.4374C331.824 57.1787 331.913 56.9346 331.994 56.7069L332.099 56.4029L332.21 56.4001C332.495 56.3904 332.791 56.3769 333.095 56.3591C334.501 56.2767 335.876 56.1164 337.143 55.8555C338.836 55.507 340.233 55.0024 341.279 54.2716C342.739 53.2519 343.474 51.7878 343.158 50.0527C342.865 48.4386 341.84 47.3627 340.238 46.7524L340.01 46.6693C339.052 46.3355 337.969 46.1513 336.076 45.9463L332.908 45.6108C330.85 45.3811 329.994 45.2367 328.414 44.8971C325.54 44.2793 322.862 43.3426 320.245 41.9507L319.852 41.7385C314.545 38.8212 304.555 38.6048 296.543 41.4881ZM318.31 44.5418C321.34 46.2094 324.434 47.3138 327.742 48.025L328.514 48.1872C330.133 48.5165 331.217 48.6557 334.292 48.9769L335.671 49.1209C338.997 49.4832 339.868 49.8418 340.01 50.6249C340.155 51.4232 339.048 52.1966 336.498 52.7216C335.4 52.9477 334.172 53.0909 332.908 53.1649C332.538 53.1866 332.182 53.2013 331.846 53.21L331.487 53.2172L330.942 53.2184C330.211 53.2079 329.566 53.6947 329.375 54.4009L329.294 54.6786C329.27 54.7557 329.242 54.8452 329.21 54.9464C329.062 55.4072 328.881 55.9235 328.666 56.4809C328.05 58.0741 327.287 59.6665 326.374 61.1425C324.998 63.3649 323.412 65.1095 321.633 66.2132L321.418 66.3425C319.043 67.7352 319.263 70.398 321.086 73.7469C322.408 76.176 324.665 79.1604 327.689 82.6057C328.718 83.7778 329.825 84.9914 331.001 86.238C333.397 88.7793 335.96 91.341 338.524 93.7974L339.112 94.3593L339.474 94.7029L305.956 99.3619L305.678 99.1008L305.575 99.004C304.831 98.2956 303.999 97.4716 303.102 96.5417C300.536 93.8814 297.97 90.9118 295.577 87.7119C289.474 79.55 285.568 71.3514 284.872 63.6392L284.842 63.278C284.108 53.9375 288.959 47.6176 297.626 44.4985C304.828 41.9069 313.874 42.1028 318.31 44.5418Z" fill="#2E186A"/>
<rect x="108.021" y="59.6172" width="244.228" height="55.6179" fill="#3471E9"/>
<path fill-rule="evenodd" clip-rule="evenodd" d="M136.496 103.397C145.302 103.397 152.441 96.2587 152.441 87.4529C152.441 78.6472 145.302 71.5088 136.496 71.5088C127.691 71.5088 120.552 78.6472 120.552 87.4529C120.552 96.2587 127.691 103.397 136.496 103.397Z" fill="#2E186A"/>
<path fill-rule="evenodd" clip-rule="evenodd" d="M328.84 74.1748C329.723 74.1748 330.439 74.891 330.439 75.7746C330.439 76.6265 329.773 77.3229 328.934 77.3716L328.84 77.3743H174.624C173.74 77.3743 173.024 76.6581 173.024 75.7746C173.024 74.9226 173.69 74.2262 174.53 74.1775L174.624 74.1748H328.84Z" fill="white"/>
<path fill-rule="evenodd" clip-rule="evenodd" d="M328.84 82.707C329.723 82.707 330.439 83.4233 330.439 84.3068C330.439 85.1587 329.773 85.8552 328.934 85.9038L328.84 85.9065H174.624C173.74 85.9065 173.024 85.1903 173.024 84.3068C173.024 83.4548 173.69 82.7584 174.53 82.7097L174.624 82.707H328.84Z" fill="white"/>
<path fill-rule="evenodd" clip-rule="evenodd" d="M328.84 91.2388C329.723 91.2388 330.439 91.955 330.439 92.8385C330.439 93.6905 329.773 94.3869 328.934 94.4355L328.84 94.4383H174.624C173.74 94.4383 173.024 93.722 173.024 92.8385C173.024 91.9866 173.69 91.2901 174.53 91.2415L174.624 91.2388H328.84Z" fill="white"/>
<path fill-rule="evenodd" clip-rule="evenodd" d="M238.934 99.771C239.817 99.771 240.534 100.487 240.534 101.371C240.534 102.223 239.868 102.919 239.028 102.968L238.934 102.97H174.624C173.74 102.97 173.024 102.254 173.024 101.371C173.024 100.519 173.69 99.8224 174.53 99.7737L174.624 99.771H238.934Z" fill="white"/>
<path fill-rule="evenodd" clip-rule="evenodd" d="M319.615 43.4067C328.2 46.8195 338.225 57.6445 338.972 59.7242C339.771 61.8572 337.265 65.3233 333.852 62.2304C330.386 59.1376 324.254 52.3653 324.254 52.3653C328.307 58.2844 333.053 65.9099 333.106 67.5629C333.106 70.0692 328.733 71.0824 326.067 66.9764L318.122 55.5648C318.122 55.5648 325.8 69.2693 326.174 71.2957C326.547 73.322 321.908 76.4682 317.642 67.6696C313.376 58.871 312.469 58.7643 312.469 58.7643C312.469 58.7643 317.162 69.6959 317.588 72.1489C318.015 74.6018 309.75 75.1884 306.71 63.8835C306.71 63.8835 300.844 68.2028 295.992 60.0441" fill="#E6D1BF"/>
<path fill-rule="evenodd" clip-rule="evenodd" d="M318.128 42.8159C318.454 41.9948 319.384 41.5938 320.205 41.9202C324.282 43.5405 328.894 46.8038 333.318 50.8904L333.703 51.2482C337.142 54.4725 339.967 57.7623 340.469 59.1625C341.12 60.8967 340.47 63.0282 338.978 64.1965C337.376 65.4514 335.266 65.3429 333.324 63.8705L333.289 63.8431L333.35 63.962C334.168 65.5602 334.651 66.7828 334.702 67.4936L334.705 67.563C334.705 69.7309 332.899 71.2637 330.646 71.348C329.658 71.3849 328.667 71.1524 327.741 70.6768L327.652 70.6297L327.661 70.6576C327.692 70.7623 327.716 70.8575 327.734 70.9433L327.747 71.0059C328.15 73.1943 326.082 75.2316 323.589 75.1408C322.081 75.0858 320.602 74.3354 319.218 72.9051L319.159 72.8427L319.137 72.9431C318.907 73.9011 318.12 74.6353 317.068 74.9794L316.946 75.0173C315.759 75.3649 314.296 75.2388 312.853 74.6602C309.936 73.4899 307.44 70.7162 305.864 66.4908L305.738 66.1446L305.661 66.173C302.925 67.1321 299.943 66.7304 297.226 64.1914L297.066 64.0396C296.192 63.1925 295.375 62.1366 294.617 60.862C294.165 60.1026 294.414 59.1209 295.174 58.6693C295.933 58.2176 296.915 58.4671 297.367 59.2264C297.985 60.2667 298.63 61.0995 299.293 61.742C301.239 63.6275 303.166 63.7938 305.027 62.9871C305.364 62.841 305.606 62.702 305.726 62.6204L305.761 62.5954C306.668 61.9277 307.962 62.3808 308.255 63.4682C309.477 68.0147 311.646 70.7285 314.044 71.6907C314.754 71.9754 315.407 72.0597 315.863 71.9873L315.908 71.9783L315.821 71.6733C315.525 70.6827 314.932 69.0512 314.126 66.9951L313.705 65.9318L313.559 65.5685C313.111 64.4522 312.638 63.2961 312.158 62.1454L311.218 59.9089L310.999 59.3954C310.513 58.2645 311.434 57.0318 312.656 57.1756L312.747 57.1897C313.976 57.4276 315.471 59.6114 318.605 65.995L319.081 66.9717C320.746 70.4052 322.431 71.8969 323.705 71.9434C324.037 71.9555 324.303 71.8516 324.475 71.6817C324.521 71.6368 324.554 71.5918 324.576 71.5529L324.587 71.5277L324.584 71.5139C324.396 70.8155 323.088 68.1276 321.176 64.5138L320.743 63.6985C320.115 62.5218 319.456 61.3017 318.787 60.0776L317.57 57.8658L316.726 56.3469C315.748 54.6019 318.196 53.0326 319.38 54.5762L319.434 54.6508L327.409 66.1052C328.333 67.5287 329.502 68.189 330.526 68.1507C331.185 68.1261 331.506 67.8534 331.507 67.6146C331.495 67.2487 330.455 65.1517 328.805 62.3828L328.355 61.6347C326.814 59.0931 324.866 56.0917 322.934 53.2692C321.825 51.6499 324.032 49.8698 325.377 51.2258L326.441 52.3857C326.638 52.5996 326.844 52.8232 327.059 53.0551C328.287 54.3798 329.537 55.7043 330.733 56.9387L331.354 57.5766L332.044 58.2756C333.164 59.4031 334.136 60.34 334.927 61.0451C335.929 61.9533 336.565 62.0227 337.005 61.6776C337.42 61.3531 337.623 60.6851 337.466 60.2647C337.371 60.0013 336.716 59.0892 335.74 57.9521L335.63 57.8248C334.412 56.4186 332.844 54.8078 331.147 53.2405C326.987 49.3972 322.668 46.3422 319.024 44.8934C318.203 44.567 317.802 43.6369 318.128 42.8159Z" fill="#2E186A"/>
<path fill-rule="evenodd" clip-rule="evenodd" d="M437.409 272.491V278.89C437.409 279.773 438.125 280.49 439.009 280.49C439.892 280.49 440.608 279.773 440.608 278.89V272.491C440.608 271.607 439.892 270.891 439.009 270.891C438.125 270.891 437.409 271.607 437.409 272.491ZM437.409 285.289V291.688C437.409 292.571 438.125 293.288 439.009 293.288C439.892 293.288 440.608 292.571 440.608 291.688V285.289C440.608 284.405 439.892 283.689 439.009 283.689C438.125 283.689 437.409 284.405 437.409 285.289ZM437.409 298.087V304.486C437.409 305.369 438.125 306.086 439.009 306.086C439.892 306.086 440.608 305.369 440.608 304.486V298.087C440.608 297.203 439.892 296.487 439.009 296.487C438.125 296.487 437.409 297.203 437.409 298.087ZM437.409 310.885V317.284C437.409 318.167 438.125 318.884 439.009 318.884C439.892 318.884 440.608 318.167 440.608 317.284V310.885C440.608 310.001 439.892 309.285 439.009 309.285C438.125 309.285 437.409 310.001 437.409 310.885ZM437.409 323.683V330.082C437.409 330.965 438.125 331.682 439.009 331.682C439.892 331.682 440.608 330.965 440.608 330.082V323.683C440.608 322.799 439.892 322.083 439.009 322.083C438.125 322.083 437.409 322.799 437.409 323.683ZM437.409 336.481V342.88C437.409 343.763 438.125 344.48 439.009 344.48C439.892 344.48 440.608 343.763 440.608 342.88V336.481C440.608 335.597 439.892 334.881 439.009 334.881C438.125 334.881 437.409 335.597 437.409 336.481ZM437.409 349.279V355.678C437.409 356.561 438.125 357.278 439.009 357.278C439.892 357.278 440.608 356.561 440.608 355.678V349.279C440.608 348.395 439.892 347.679 439.009 347.679C438.125 347.679 437.409 348.395 437.409 349.279ZM437.409 362.077V368.476C437.409 369.359 438.125 370.075 439.009 370.075C439.892 370.075 440.608 369.359 440.608 368.476V362.077C440.608 361.193 439.892 360.477 439.009 360.477C438.125 360.477 437.409 361.193 437.409 362.077ZM437.409 374.875V381.274C437.409 382.157 438.125 382.873 439.009 382.873C439.892 382.873 440.608 382.157 440.608 381.274V374.875C440.608 373.991 439.892 373.275 439.009 373.275C438.125 373.275 437.409 373.991 437.409 374.875ZM437.409 387.673V394.072C437.409 394.955 438.125 395.671 439.009 395.671C439.892 395.671 440.608 394.955 440.608 394.072V387.673C440.608 386.789 439.892 386.073 439.009 386.073C438.125 386.073 437.409 386.789 437.409 387.673ZM437.409 400.471V406.87C437.409 407.753 438.125 408.469 439.009 408.469C439.892 408.469 440.608 407.753 440.608 406.87V400.471C440.608 399.587 439.892 398.871 439.009 398.871C438.125 398.871 437.409 399.587 437.409 400.471ZM437.409 413.269V419.668C437.409 420.551 438.125 421.267 439.009 421.267C439.892 421.267 440.608 420.551 440.608 419.668V413.269C440.608 412.385 439.892 411.669 439.009 411.669C438.125 411.669 437.409 412.385 437.409 413.269ZM437.409 426.067V432.466C437.409 433.349 438.125 434.065 439.009 434.065C439.892 434.065 440.608 433.349 440.608 432.466V426.067C440.608 425.183 439.892 424.467 439.009 424.467C438.125 424.467 437.409 425.183 437.409 426.067ZM437.409 438.865V444.464C437.409 445.347 438.125 446.064 439.009 446.064C439.892 446.064 440.608 445.347 440.608 444.464V438.865C440.608 437.981 439.892 437.265 439.009 437.265C438.125 437.265 437.409 437.981 437.409 438.865Z" fill="#3471E9"/>
<path fill-rule="evenodd" clip-rule="evenodd" d="M356.195 362.29V368.689C356.195 369.573 356.911 370.289 357.795 370.289C358.678 370.289 359.395 369.573 359.395 368.689V362.29C359.395 361.407 358.678 360.69 357.795 360.69C356.911 360.69 356.195 361.407 356.195 362.29ZM356.195 375.088V381.487C356.195 382.371 356.911 383.087 357.795 383.087C358.678 383.087 359.395 382.371 359.395 381.487V375.088C359.395 374.205 358.678 373.488 357.795 373.488C356.911 373.488 356.195 374.205 356.195 375.088ZM356.195 387.886V394.285C356.195 395.168 356.911 395.885 357.795 395.885C358.678 395.885 359.395 395.168 359.395 394.285V387.886C359.395 387.002 358.678 386.286 357.795 386.286C356.911 386.286 356.195 387.002 356.195 387.886ZM356.195 400.684V407.083C356.195 407.966 356.911 408.683 357.795 408.683C358.678 408.683 359.395 407.966 359.395 407.083V400.684C359.395 399.8 358.678 399.084 357.795 399.084C356.911 399.084 356.195 399.8 356.195 400.684ZM356.195 413.482V419.881C356.195 420.764 356.911 421.481 357.795 421.481C358.678 421.481 359.395 420.764 359.395 419.881V413.482C359.395 412.598 358.678 411.882 357.795 411.882C356.911 411.882 356.195 412.598 356.195 413.482ZM356.195 426.28V432.679C356.195 433.562 356.911 434.279 357.795 434.279C358.678 434.279 359.395 433.562 359.395 432.679V426.28C359.395 425.396 358.678 424.68 357.795 424.68C356.911 424.68 356.195 425.396 356.195 426.28ZM356.195 439.078V444.464C356.195 445.347 356.911 446.064 357.795 446.064C358.678 446.064 359.395 445.347 359.395 444.464V439.078C359.395 438.194 358.678 437.478 357.795 437.478C356.911 437.478 356.195 438.194 356.195 439.078Z" fill="#3471E9"/>
<path fill-rule="evenodd" clip-rule="evenodd" d="M288.686 410.389V416.788C288.686 417.671 289.402 418.388 290.286 418.388C291.169 418.388 291.885 417.671 291.885 416.788V410.389C291.885 409.505 291.169 408.789 290.286 408.789C289.402 408.789 288.686 409.505 288.686 410.389ZM288.686 423.187V429.586C288.686 430.469 289.402 431.186 290.286 431.186C291.169 431.186 291.885 430.469 291.885 429.586V423.187C291.885 422.303 291.169 421.587 290.286 421.587C289.402 421.587 288.686 422.303 288.686 423.187ZM288.686 435.985V442.384C288.686 443.267 289.402 443.984 290.286 443.984C291.169 443.984 291.885 443.267 291.885 442.384V435.985C291.885 435.101 291.169 434.385 290.286 434.385C289.402 434.385 288.686 435.101 288.686 435.985Z" fill="#3471E9"/>
<path fill-rule="evenodd" clip-rule="evenodd" d="M530.354 236.656V243.055C530.354 243.939 531.071 244.655 531.954 244.655C532.838 244.655 533.554 243.939 533.554 243.055V236.656C533.554 235.773 532.838 235.057 531.954 235.057C531.071 235.057 530.354 235.773 530.354 236.656ZM530.354 249.454V255.853C530.354 256.737 531.07 257.453 531.954 257.453C532.838 257.453 533.554 256.737 533.554 255.853V249.454C533.554 248.571 532.838 247.855 531.954 247.855C531.07 247.855 530.354 248.571 530.354 249.454ZM530.354 262.253V268.651C530.354 269.535 531.07 270.251 531.954 270.251C532.838 270.251 533.554 269.535 533.554 268.651V262.253C533.554 261.369 532.838 260.653 531.954 260.653C531.07 260.653 530.354 261.369 530.354 262.253ZM530.354 275.051V281.45C530.354 282.333 531.07 283.049 531.954 283.049C532.838 283.049 533.554 282.333 533.554 281.45V275.051C533.554 274.167 532.838 273.451 531.954 273.451C531.07 273.451 530.354 274.167 530.354 275.051ZM530.354 287.849V294.248C530.354 295.131 531.07 295.847 531.954 295.847C532.838 295.847 533.554 295.131 533.554 294.248V287.849C533.554 286.965 532.838 286.249 531.954 286.249C531.07 286.249 530.354 286.965 530.354 287.849ZM530.354 300.647V307.046C530.354 307.929 531.07 308.645 531.954 308.645C532.838 308.645 533.554 307.929 533.554 307.046V300.647C533.554 299.763 532.838 299.047 531.954 299.047C531.07 299.047 530.354 299.763 530.354 300.647ZM530.354 313.445V319.844C530.354 320.727 531.07 321.443 531.954 321.443C532.838 321.443 533.554 320.727 533.554 319.844V313.445C533.554 312.561 532.838 311.845 531.954 311.845C531.07 311.845 530.354 312.561 530.354 313.445ZM530.354 326.243V332.642C530.354 333.525 531.07 334.241 531.954 334.241C532.838 334.241 533.554 333.525 533.554 332.642V326.243C533.554 325.359 532.838 324.643 531.954 324.643C531.07 324.643 530.354 325.359 530.354 326.243ZM530.354 339.04V345.439C530.354 346.323 531.07 347.039 531.954 347.039C532.838 347.039 533.554 346.323 533.554 345.439V339.04C533.554 338.157 532.838 337.441 531.954 337.441C531.07 337.441 530.354 338.157 530.354 339.04ZM530.354 351.838V358.237C530.354 359.121 531.07 359.837 531.954 359.837C532.838 359.837 533.554 359.121 533.554 358.237V351.838C533.554 350.955 532.838 350.239 531.954 350.239C531.07 350.239 530.354 350.955 530.354 351.838ZM530.354 364.636V371.035C530.354 371.919 531.07 372.635 531.954 372.635C532.838 372.635 533.554 371.919 533.554 371.035V364.636C533.554 363.753 532.838 363.037 531.954 363.037C531.07 363.037 530.354 363.753 530.354 364.636ZM530.354 377.434V383.833C530.354 384.717 531.07 385.433 531.954 385.433C532.838 385.433 533.554 384.717 533.554 383.833V377.434C533.554 376.551 532.838 375.835 531.954 375.835C531.07 375.835 530.354 376.551 530.354 377.434ZM530.354 390.232V396.631C530.354 397.515 531.07 398.231 531.954 398.231C532.838 398.231 533.554 397.515 533.554 396.631V390.232C533.554 389.349 532.838 388.633 531.954 388.633C531.07 388.633 530.354 389.349 530.354 390.232ZM530.354 403.03V409.429C530.354 410.313 531.07 411.029 531.954 411.029C532.838 411.029 533.554 410.313 533.554 409.429V403.03C533.554 402.147 532.838 401.431 531.954 401.431C531.07 401.431 530.354 402.147 530.354 403.03ZM530.354 415.828V422.227C530.354 423.111 531.07 423.827 531.954 423.827C532.838 423.827 533.554 423.111 533.554 422.227V415.828C533.554 414.945 532.838 414.229 531.954 414.229C531.07 414.229 530.354 414.945 530.354 415.828ZM530.354 428.626V435.025C530.354 435.909 531.07 436.625 531.954 436.625C532.838 436.625 533.554 435.909 533.554 435.025V428.626C533.554 427.743 532.838 427.026 531.954 427.026C531.07 427.026 530.354 427.743 530.354 428.626ZM530.354 441.424V444.464C530.354 445.347 531.07 446.063 531.954 446.063C532.838 446.063 533.554 445.347 533.554 444.464V441.424C533.554 440.541 532.838 439.824 531.954 439.824C531.07 439.824 530.354 440.541 530.354 441.424Z" fill="#3471E9"/>
<path opacity="0.41" fill-rule="evenodd" clip-rule="evenodd" d="M550.085 234.204C399.762 248.655 394.749 349.599 359.448 362.29C324.147 374.981 324.733 393.538 294.445 405.43C275.728 412.789 255.731 445.584 244.266 443.717L245.653 444.944H550.565L550.085 234.204Z" fill="#DBF6FF"/>
<path fill-rule="evenodd" clip-rule="evenodd" d="M471.484 252.334C471.857 252.494 467.378 242.202 461.565 240.123C455.753 238.096 462.365 231.324 468.924 235.59C475.483 239.856 476.816 244.708 476.816 244.708" fill="#E6D1BF"/>
<path fill-rule="evenodd" clip-rule="evenodd" d="M459.599 234.253C462.199 232.15 466.28 231.962 469.796 234.249C470.526 234.724 471.214 235.218 471.861 235.729C474.152 237.54 475.852 239.496 477.044 241.467C477.469 242.17 477.801 242.83 478.051 243.43C478.209 243.811 478.308 244.101 478.359 244.285C478.593 245.137 478.092 246.017 477.24 246.251C476.418 246.477 475.571 246.019 475.301 245.222L475.257 245.081L475.247 245.051C475.21 244.943 475.16 244.812 475.097 244.66C474.907 244.204 474.647 243.687 474.306 243.123C473.308 241.473 471.861 239.808 469.877 238.239C469.307 237.789 468.699 237.352 468.052 236.931C465.692 235.396 463.128 235.514 461.612 236.741C460.595 237.563 460.656 238.112 462.104 238.617C465.07 239.678 467.785 242.444 470.192 246.206C471.038 247.529 471.791 248.902 472.357 250.106L472.507 250.432C472.651 250.75 472.772 251.037 472.863 251.278L472.907 251.395C472.98 251.596 473.032 251.765 473.065 251.926C473.107 252.132 473.124 252.313 473.086 252.564C472.937 253.527 471.925 254.264 470.854 253.805C470.303 253.568 469.952 253.06 469.893 252.503L469.889 252.459L469.868 252.403C469.801 252.228 469.705 252 469.587 251.738L469.461 251.467C468.953 250.386 468.267 249.134 467.497 247.931C465.438 244.713 463.161 242.393 461.039 241.633C457.125 240.269 456.715 236.587 459.599 234.253Z" fill="#2E186A"/>
<path fill-rule="evenodd" clip-rule="evenodd" d="M476.176 235.323C472.444 238.363 467.004 244.335 467.484 249.135C468.178 256.067 474.95 262.679 490.041 262.732C514.677 262.786 512.597 229.351 512.597 229.351L512.651 210.527L482.469 214.9L481.615 235.27" fill="#E6D1BF"/>
<path fill-rule="evenodd" clip-rule="evenodd" d="M512.421 208.944C513.357 208.809 514.197 209.508 514.248 210.438L514.25 210.532L514.197 229.3L514.214 229.689L514.218 229.795C514.382 234.704 513.871 240.699 512.093 246.51C508.71 257.573 501.624 264.357 490.035 264.332C475.619 264.281 466.782 258.192 465.893 249.294C465.413 244.502 469.643 238.581 475.166 234.083C475.851 233.525 476.859 233.628 477.417 234.313C477.975 234.998 477.872 236.006 477.186 236.564C472.44 240.428 468.74 245.61 469.076 248.975C469.782 256.031 477.119 261.087 490.044 261.133C500.029 261.154 506.024 255.414 509.034 245.574C509.973 242.504 510.554 239.206 510.84 235.85C511.026 233.674 511.069 231.736 511.028 230.174L511.005 229.532L511.001 229.45L510.997 229.346L511.045 212.376L484.011 216.293L483.214 235.337C483.178 236.188 482.484 236.856 481.643 236.87L481.548 236.868C480.697 236.833 480.029 236.138 480.016 235.297L480.017 235.203L480.87 214.833C480.901 214.096 481.431 213.48 482.145 213.333L482.239 213.317L512.421 208.944Z" fill="#2E186A"/>
<path fill-rule="evenodd" clip-rule="evenodd" d="M549.984 232.611C550.864 232.526 551.645 233.17 551.73 234.05C551.815 234.929 551.171 235.711 550.291 235.796C515.557 239.146 486.964 247.255 463.308 259.606C443.463 269.967 427.549 282.999 413.643 299.081C406.848 306.939 401.087 314.763 393.914 325.475L392.423 327.715C390.731 330.272 386.679 336.407 385.113 338.741L384.349 339.873C381.716 343.755 379.542 346.785 377.446 349.449L377.229 349.723C371.367 357.121 366.043 361.638 360.042 363.795C346.293 368.738 338.07 374.164 328.118 383.517L326.975 384.6L323.547 387.886C318.807 392.414 316.001 394.873 312.326 397.558C307.41 401.149 302.06 404.127 295.667 406.687L295.083 406.919C288.742 409.412 282.532 414.625 273.338 424.323L265.696 432.481L264.97 433.242C262.553 435.768 260.599 437.694 258.77 439.321C253.716 443.816 249.716 445.895 246.035 445.296C245.163 445.154 244.571 444.332 244.713 443.46C244.855 442.588 245.677 441.996 246.549 442.138C248.98 442.534 252.259 440.829 256.644 436.93L257.051 436.564C258.626 435.139 260.332 433.454 262.393 431.308L263.564 430.078C265.279 428.262 269.602 423.621 270.385 422.79L271.35 421.77C280.575 412.071 286.928 406.751 293.68 404.033L293.913 403.941C300.309 401.43 305.594 398.514 310.438 394.975L310.859 394.665C314.265 392.146 316.995 389.728 321.628 385.294L324.338 382.694C324.634 382.411 324.911 382.147 325.178 381.894L325.573 381.52C335.979 371.683 344.593 365.95 358.96 360.784C364.296 358.866 369.196 354.709 374.721 347.736L375.356 346.926C377.343 344.367 379.437 341.425 381.974 337.674L383.988 334.661C386.354 331.098 389.895 325.734 390.448 324.903L391.259 323.69C398.497 312.881 404.328 304.962 411.223 296.988C425.381 280.614 441.608 267.326 461.827 256.77C485.861 244.221 514.852 236 549.984 232.611Z" fill="#3471E9"/>
<path fill-rule="evenodd" clip-rule="evenodd" d="M290.286 410.389C292.435 410.389 294.178 408.646 294.178 406.496C294.178 404.346 292.435 402.604 290.286 402.604C288.136 402.604 286.393 404.346 286.393 406.496C286.393 408.646 288.136 410.389 290.286 410.389Z" fill="#02ADE3"/>
<path fill-rule="evenodd" clip-rule="evenodd" d="M439.009 276.384C441.159 276.384 442.901 274.641 442.901 272.491C442.901 270.341 441.159 268.598 439.009 268.598C436.859 268.598 435.116 270.341 435.116 272.491C435.116 274.641 436.859 276.384 439.009 276.384Z" fill="#02ADE3"/>
<path fill-rule="evenodd" clip-rule="evenodd" d="M357.795 366.183C359.945 366.183 361.688 364.44 361.688 362.29C361.688 360.14 359.945 358.397 357.795 358.397C355.645 358.397 353.902 360.14 353.902 362.29C353.902 364.44 355.645 366.183 357.795 366.183Z" fill="#02ADE3"/>
<path fill-rule="evenodd" clip-rule="evenodd" d="M531.954 239.963C534.104 239.963 535.847 238.22 535.847 236.07C535.847 233.92 534.104 232.177 531.954 232.177C529.804 232.177 528.061 233.92 528.061 236.07C528.061 238.22 529.804 239.963 531.954 239.963Z" fill="#02ADE3"/>
<path fill-rule="evenodd" clip-rule="evenodd" d="M482.149 238.843C482.255 233.297 478.416 232.711 473.617 237.403C471.217 239.749 468.231 243.802 467.484 247.428" fill="#E6D1BF"/>
<path fill-rule="evenodd" clip-rule="evenodd" d="M472.498 236.259C478.194 230.69 483.888 231.623 483.748 238.874C483.731 239.757 483.001 240.459 482.118 240.442C481.235 240.425 480.532 239.695 480.549 238.812C480.588 236.819 480.119 235.97 479.464 235.862C478.493 235.703 476.748 236.579 474.735 238.547C472.051 241.172 469.639 244.895 469.051 247.751C468.873 248.616 468.027 249.173 467.162 248.995C466.296 248.817 465.739 247.971 465.917 247.106C466.654 243.527 469.398 239.29 472.498 236.259Z" fill="#2E186A"/>
<path fill-rule="evenodd" clip-rule="evenodd" d="M475.27 250.041C474.576 246.415 476.443 242.415 478.896 239.749C483.268 235.003 485.881 233.777 487.161 238.949" fill="#E6D1BF"/>
<path fill-rule="evenodd" clip-rule="evenodd" d="M483.895 234.057C486.341 233.602 487.91 235.314 488.714 238.565C488.926 239.423 488.403 240.29 487.546 240.502C486.688 240.715 485.821 240.191 485.608 239.334C485.349 238.286 485.049 237.615 484.765 237.306C484.653 237.183 484.63 237.175 484.481 237.203C483.668 237.354 482.198 238.527 480.073 240.833C477.652 243.464 476.309 246.959 476.841 249.741C477.007 250.609 476.438 251.447 475.57 251.612C474.702 251.778 473.864 251.209 473.699 250.342C472.953 246.444 474.668 241.982 477.719 238.665L478.085 238.272C480.491 235.71 482.237 234.366 483.895 234.057Z" fill="#2E186A"/>
<path fill-rule="evenodd" clip-rule="evenodd" d="M484.548 255.64C484.548 255.64 481.296 250.681 483.055 244.922C484.762 239.163 489.988 235.377 492.281 239.749" fill="#E6D1BF"/>
<path fill-rule="evenodd" clip-rule="evenodd" d="M486.605 237.177C489.305 235.503 492.164 236.082 493.697 239.007C494.108 239.789 493.806 240.756 493.023 241.166C492.27 241.561 491.345 241.296 490.912 240.577L490.864 240.493C490.242 239.306 489.489 239.154 488.291 239.896C486.782 240.832 485.312 242.936 484.585 245.39C483.798 247.965 484.076 250.576 485.03 253.005C485.194 253.422 485.366 253.802 485.54 254.142L485.643 254.34C485.718 254.478 485.779 254.586 485.824 254.662L485.886 254.763C486.371 255.502 486.165 256.494 485.426 256.978C484.687 257.463 483.695 257.257 483.211 256.518C482.902 256.047 482.473 255.247 482.052 254.175C480.855 251.127 480.502 247.805 481.521 244.468C482.456 241.315 484.384 238.554 486.605 237.177Z" fill="#2E186A"/>
<path fill-rule="evenodd" clip-rule="evenodd" d="M492.227 255.64C492.227 255.64 488.708 250.574 489.507 245.615C490.307 240.656 494.253 237.296 496.6 240.656C496.6 240.656 496.386 246.308 499.479 247.001" fill="#E6D1BF"/>
<path fill-rule="evenodd" clip-rule="evenodd" d="M491.511 238.739C493.691 237.095 496.266 237.385 497.911 239.74C498.089 239.994 498.188 240.293 498.198 240.601L498.196 240.955C498.198 241.178 498.208 241.448 498.23 241.75C498.276 242.348 498.363 242.934 498.5 243.467C498.793 244.61 499.234 245.258 499.757 245.421L499.829 245.441C500.691 245.634 501.234 246.489 501.04 247.352C500.847 248.214 499.991 248.756 499.129 248.563C497.131 248.115 495.973 246.496 495.4 244.261C495.213 243.529 495.098 242.764 495.04 241.992C495.026 241.8 495.015 241.617 495.008 241.445L495.001 241.221L494.989 241.208C494.553 240.78 494.119 240.805 493.519 241.233L493.436 241.294C492.358 242.106 491.412 243.857 491.087 245.87C491.073 245.953 491.061 246.037 491.051 246.122C490.807 248.058 491.291 250.223 492.267 252.388C492.552 253.021 492.858 253.604 493.162 254.122L493.274 254.309C493.327 254.396 493.374 254.471 493.414 254.535L493.541 254.728C494.045 255.453 493.865 256.45 493.14 256.954C492.414 257.458 491.417 257.279 490.913 256.553L490.83 256.43C490.722 256.267 490.577 256.036 490.405 255.744C490.044 255.131 489.685 254.446 489.35 253.702C488.154 251.049 487.547 248.337 487.876 245.722C487.892 245.601 487.909 245.48 487.928 245.36C488.377 242.577 489.725 240.084 491.511 238.739Z" fill="#2E186A"/>
<path fill-rule="evenodd" clip-rule="evenodd" d="M474.31 95.8252L476.496 162.321L479.802 230.631L515.903 229.671L512.81 157.949L510.624 117.688C507.318 105.797 500.226 99.2913 492.227 98.2248L474.31 95.8252Z" fill="#3471E9"/>
<path fill-rule="evenodd" clip-rule="evenodd" d="M427.437 84.0405L432.077 94.3856L425.144 92.8925C424.398 94.2256 415.439 113.583 437.143 118.595C451.38 121.848 467.911 110.276 475.377 99.7181L463.325 97.5317L453.46 73.8555L427.437 84.0405Z" fill="#E6D1BF"/>
<path fill-rule="evenodd" clip-rule="evenodd" d="M426.854 82.5509L426.765 82.589C425.975 82.9536 425.617 83.891 425.977 84.6952L429.323 92.1561L425.481 91.3286C424.794 91.1807 424.092 91.498 423.748 92.1109C423.313 92.8886 422.633 94.5419 422.116 96.3189C421.333 99.0098 420.946 101.773 421.128 104.472C421.644 112.122 426.556 117.792 436.782 120.154C443.865 121.772 451.798 120.059 459.576 115.734C466.366 111.959 472.64 106.359 476.682 100.642L476.736 100.561C477.327 99.6132 476.781 98.3471 475.662 98.144L464.467 96.1128L454.936 73.2402C454.602 72.4372 453.687 72.0487 452.877 72.3658L426.854 82.5509ZM452.585 75.9153L461.848 98.1469L461.893 98.2452C462.117 98.6948 462.541 99.0153 463.039 99.1057L472.527 100.827L472.437 100.938C468.706 105.507 463.536 109.871 458.022 112.937C450.878 116.909 443.716 118.456 437.499 117.035C428.639 114.989 424.741 110.489 424.321 104.256C424.166 101.97 424.502 99.5693 425.188 97.2131L425.285 96.887C425.483 96.2401 425.699 95.6265 425.923 95.0609L426.058 94.7251L431.74 95.9494L431.827 95.9658C433.068 96.1664 434.06 94.9 433.536 93.7309L429.584 84.9176L452.585 75.9153Z" fill="#2E186A"/>
<path fill-rule="evenodd" clip-rule="evenodd" d="M455.699 67.4031L457.726 68.7362C457.726 68.7362 469.884 75.3485 473.723 63.0838C476.603 53.7519 467.698 50.819 463.218 49.9658" fill="#E6D1BF"/>
<path fill-rule="evenodd" clip-rule="evenodd" d="M461.647 49.6664C461.812 48.7985 462.65 48.229 463.517 48.3943C466.859 49.0308 469.944 50.2056 472.25 52.1124C475.539 54.8324 476.748 58.7048 475.25 63.5616C473.669 68.6111 470.59 71.3392 466.546 71.9744C464.174 72.347 461.703 71.9742 459.297 71.137L458.915 71.0002C458.052 70.6815 457.382 70.3702 456.961 70.1415L456.903 70.1082L456.846 70.0726L454.82 68.7395C454.082 68.2539 453.877 67.2619 454.363 66.5238C454.83 65.813 455.768 65.5969 456.496 66.0154L456.579 66.0666L458.542 67.3577L458.726 67.4495L458.961 67.5597C459.372 67.7481 459.839 67.9378 460.348 68.1152C462.301 68.7945 464.275 69.0924 466.05 68.8136C468.875 68.3699 470.974 66.5093 472.194 62.612C473.305 59.0145 472.514 56.4825 470.211 54.5781C468.399 53.0801 465.779 52.082 462.919 51.5373C462.051 51.3719 461.481 50.5343 461.647 49.6664Z" fill="#2E186A"/>
<path fill-rule="evenodd" clip-rule="evenodd" d="M412.186 44.2598C410.533 49.9122 405.787 76.628 422.958 83.2403C440.075 89.8526 456.179 76.5747 462.258 60.0973C468.337 43.6199 464.551 27.5691 453.78 23.0898C443.008 18.6105 424.184 3.46623 412.186 44.2598Z" fill="#E6D1BF"/>
<path fill-rule="evenodd" clip-rule="evenodd" d="M431.214 15.4454C422.709 17.405 415.945 26.0995 410.806 43.2878L410.651 43.8113C409.239 48.64 408.283 56.5895 408.92 63.5368C409.872 73.914 414.077 81.5353 422.383 84.7337C430.988 88.0576 439.818 86.7978 447.626 81.6648C454.733 76.9934 460.551 69.3479 463.759 60.6515C470.078 43.5236 466.143 26.4989 454.394 21.6132L454.093 21.4864C453.483 21.2249 452.808 20.9146 451.956 20.5063L448.736 18.9478C441.504 15.4978 436.546 14.217 431.214 15.4454ZM413.65 44.9605L413.721 44.7118C418.586 28.171 424.7 20.2295 431.932 18.5633C436.207 17.5783 440.443 18.6029 446.703 21.5263L447.6 21.9514L450.351 23.285C451.503 23.8393 452.36 24.2326 453.165 24.5675C463.044 28.6753 466.55 43.8436 460.758 59.5442C457.778 67.6193 452.383 74.7091 445.869 78.9912C438.891 83.5783 431.135 84.6848 423.534 81.7486C416.562 79.0635 412.958 72.5331 412.106 63.2446C411.519 56.8462 412.383 49.4523 413.65 44.9605Z" fill="#2E186A"/>
<path fill-rule="evenodd" clip-rule="evenodd" d="M429.677 65.9633C426.211 66.5498 423.491 65.59 422.051 64.8968C421.412 64.5768 420.612 64.9501 420.505 65.6966C420.132 67.8296 420.238 71.5091 424.878 72.5756C429.73 73.7487 430.743 69.4827 430.957 67.1364C431.01 66.4432 430.37 65.8033 429.677 65.9633Z" fill="#2E186A"/>
<path fill-rule="evenodd" clip-rule="evenodd" d="M428.958 35.7261C429.312 34.9168 430.256 34.5479 431.065 34.9023C431.846 35.244 432.216 36.1334 431.924 36.9221L431.889 37.0093L423.629 55.8745L427.147 56.7893C427.971 57.0037 428.478 57.8235 428.313 58.6485L428.292 58.7401C428.078 59.5647 427.258 60.0711 426.433 59.9069L426.341 59.8859L421.009 58.4994C420.088 58.26 419.586 57.2795 419.91 56.4001L419.946 56.3095L428.958 35.7261Z" fill="#2E186A"/>
<path fill-rule="evenodd" clip-rule="evenodd" d="M434.721 38.2177C437.477 36.9648 439.984 37.8638 441.981 39.9652C442.424 40.4315 442.81 40.9257 443.14 41.4208L443.281 41.6368C443.411 41.841 443.507 42.0087 443.571 42.1284C443.982 42.9103 443.682 43.8777 442.9 44.2892C442.147 44.6854 441.222 44.4217 440.787 43.7035L440.678 43.5103C440.631 43.4321 440.565 43.3255 440.479 43.1974C440.245 42.8458 439.97 42.4933 439.662 42.1694C438.544 40.9929 437.422 40.5658 436.17 41.0762L436.045 41.1304C435.24 41.496 434.292 41.1403 433.926 40.336C433.561 39.5317 433.916 38.5833 434.721 38.2177Z" fill="#2E186A"/>
<path fill-rule="evenodd" clip-rule="evenodd" d="M416.391 33.1532C419.058 31.449 421.747 32.0774 424.048 34.0123C424.812 34.6549 425.37 35.2956 425.7 35.7592C426.213 36.4787 426.046 37.4776 425.326 37.9904C424.634 38.4834 423.684 38.3474 423.156 37.6966L423.031 37.5321C422.983 37.471 422.914 37.3867 422.825 37.2851C422.58 37.004 422.298 36.7215 421.988 36.4609C420.644 35.3298 419.386 35.036 418.113 35.8494C417.369 36.3251 416.38 36.1071 415.904 35.3626C415.428 34.618 415.646 33.6289 416.391 33.1532Z" fill="#2E186A"/>
<path fill-rule="evenodd" clip-rule="evenodd" d="M435.72 52.2762C436.041 50.7185 435.505 49.2921 434.525 49.0902C433.544 48.8883 432.489 49.9875 432.168 51.5452C431.848 53.1029 432.383 54.5294 433.364 54.7312C434.344 54.9331 435.399 53.834 435.72 52.2762Z" fill="#2E186A"/>
<path fill-rule="evenodd" clip-rule="evenodd" d="M418.194 48.9169C418.514 47.3591 417.979 45.9327 416.998 45.7308C416.018 45.529 414.963 46.6281 414.642 48.1858C414.321 49.7436 414.857 51.17 415.837 51.3719C416.818 51.5737 417.873 50.4746 418.194 48.9169Z" fill="#2E186A"/>
<path fill-rule="evenodd" clip-rule="evenodd" d="M478.316 115.61C483.067 110.456 482.125 101.86 476.214 96.4109C470.302 90.9613 461.658 90.7217 456.907 95.8756C452.156 101.029 453.097 109.625 459.009 115.075C464.921 120.524 473.565 120.764 478.316 115.61Z" fill="#2E186A"/>
<path fill-rule="evenodd" clip-rule="evenodd" d="M471.804 135.663C476.036 131.072 475.183 123.402 469.9 118.531C464.616 113.661 456.902 113.434 452.67 118.025C448.438 122.616 449.291 130.286 454.575 135.156C459.859 140.027 467.573 140.254 471.804 135.663Z" fill="#2E186A"/>
<path fill-rule="evenodd" clip-rule="evenodd" d="M458.899 152.137C455.273 155.816 448.874 155.443 444.608 151.337C440.342 147.177 439.808 140.885 443.435 137.152C447.061 133.473 453.566 133.526 457.832 137.632C462.098 141.738 462.525 148.457 458.899 152.137Z" fill="#2E186A"/>
<path fill-rule="evenodd" clip-rule="evenodd" d="M451.7 167.334C447.061 169.84 446.314 173.146 446.687 175.813C446.847 177.039 445.408 177.839 444.501 177.039C439.115 172.24 430.903 162.961 437.569 155.389C440.715 151.816 446.421 151.336 450.793 154.696C455.113 158.055 455.913 165.094 451.7 167.334Z" fill="#2E186A"/>
<path fill-rule="evenodd" clip-rule="evenodd" d="M461.129 92.0418C461.47 90.9527 462.604 90.3311 463.696 90.6132L463.802 90.6434L476.92 94.7494C478.044 95.1013 478.67 96.2979 478.318 97.4222C477.977 98.5113 476.844 99.1329 475.751 98.8507L475.646 98.8206L462.528 94.7146C461.403 94.3627 460.777 93.1661 461.129 92.0418Z" fill="#3471E9"/>
<path fill-rule="evenodd" clip-rule="evenodd" d="M457.658 114.355C458.071 113.292 459.245 112.748 460.316 113.104L460.419 113.141L471.244 117.354C472.342 117.781 472.885 119.017 472.458 120.115C472.044 121.178 470.871 121.722 469.8 121.366L469.697 121.329L458.872 117.116C457.774 116.689 457.23 115.453 457.658 114.355Z" fill="#3471E9"/>
<path fill-rule="evenodd" clip-rule="evenodd" d="M452.504 134.884C453.061 133.889 454.296 133.513 455.307 134.011L455.407 134.064L458.553 135.824C459.582 136.399 459.949 137.698 459.374 138.726C458.817 139.721 457.582 140.097 456.571 139.599L456.471 139.547L453.325 137.787C452.297 137.212 451.929 135.912 452.504 134.884Z" fill="#3471E9"/>
<path fill-rule="evenodd" clip-rule="evenodd" d="M444.88 151.248C445.383 150.224 446.599 149.784 447.635 150.23L447.735 150.276L450.988 151.875C452.045 152.395 452.481 153.674 451.961 154.731C451.457 155.755 450.242 156.195 449.205 155.749L449.105 155.703L445.853 154.104C444.795 153.584 444.36 152.305 444.88 151.248Z" fill="#3471E9"/>
<path fill-rule="evenodd" clip-rule="evenodd" d="M485.721 69.0027C482.255 65.6433 477.936 63.6703 473.67 63.2437C470.63 72.5222 462.738 70.7091 459.379 69.4293C454.846 75.935 456.179 85.6401 462.898 92.1991C470.31 99.398 481.402 100.038 487.747 93.6389C494.093 87.2399 493.08 76.2016 485.721 69.0027Z" fill="#2E186A"/>
<path fill-rule="evenodd" clip-rule="evenodd" d="M485.561 41.0604C484.281 32.5284 469.35 18.7706 457.672 18.8773C442.635 3.62633 420.238 -11.6246 407.174 15.1445C405.787 17.9707 407.387 21.3835 410.373 22.1301L464.605 38.2342C465.298 41.9136 465.404 46.0196 464.765 50.2856C469.457 51.5121 476.336 54.7116 473.723 63.0303C470.15 74.5485 459.272 69.4826 457.886 68.7894C455.646 72.2555 452.926 75.4017 449.887 77.9613C460.499 84.2536 472.443 88.093 478.949 79.4544C486.894 68.9494 487.321 52.9519 485.561 41.0604Z" fill="#2E186A"/>
<path fill-rule="evenodd" clip-rule="evenodd" d="M427.56 46.9996C426.015 56.0965 430.291 64.5283 437.335 65.7243C444.379 66.9204 451.198 60.3723 452.742 51.2755C454.287 42.1786 450.012 33.7468 442.968 32.5508C435.924 31.3547 429.105 37.9028 427.56 46.9996ZM429.926 47.4012C431.27 39.4833 437.009 33.9728 442.566 34.9164C448.123 35.86 451.721 42.9558 450.377 50.8736C449.032 58.7915 443.294 64.302 437.737 63.3584C432.179 62.4148 428.581 55.319 429.926 47.4012Z" fill="#3471E9"/>
<path fill-rule="evenodd" clip-rule="evenodd" d="M397.626 41.2233C396.082 50.3201 400.357 58.7519 407.401 59.948C414.445 61.144 421.264 54.5959 422.809 45.4991C424.353 36.4023 420.078 27.9704 413.034 26.7744C405.99 25.5783 399.171 32.1264 397.626 41.2233ZM399.992 41.625C401.337 33.7072 407.075 28.1966 412.632 29.1402C418.19 30.0838 421.788 37.1796 420.443 45.0975C419.099 53.0153 413.36 58.5258 407.803 57.5822C402.246 56.6387 398.648 49.5429 399.992 41.625Z" fill="#3471E9"/>
<path fill-rule="evenodd" clip-rule="evenodd" d="M421.032 41.265C421.149 40.6421 421.728 40.2228 422.348 40.2946L422.433 40.3075L429.525 41.6406C430.176 41.763 430.605 42.3902 430.483 43.0414C430.366 43.6643 429.787 44.0836 429.167 44.0118L429.082 43.9989L421.99 42.6658C421.338 42.5434 420.91 41.9162 421.032 41.265Z" fill="#3471E9"/>
<path fill-rule="evenodd" clip-rule="evenodd" d="M450.829 45.318C451.031 44.7171 451.662 44.3813 452.266 44.5378L452.348 44.5622L468.399 49.948C469.027 50.1588 469.366 50.8389 469.155 51.4671C468.953 52.068 468.322 52.4038 467.718 52.2474L467.636 52.2229L451.585 46.8371C450.957 46.6263 450.618 45.9462 450.829 45.318Z" fill="#3471E9"/>
<path fill-rule="evenodd" clip-rule="evenodd" d="M173.344 223.912L173.451 246.095L201.66 247.748V226.738C201.66 226.738 208.005 223.112 205.872 211.647C203.739 200.182 170.731 203.968 168.918 210.954C167.105 217.94 173.344 223.912 173.344 223.912Z" fill="white"/>
<path fill-rule="evenodd" clip-rule="evenodd" d="M187.204 202.783L186.611 202.813C176.936 203.343 168.468 206.319 167.37 210.552C166.363 214.431 167.37 218.248 169.617 221.77C170.181 222.654 170.784 223.452 171.389 224.154L171.583 224.376L171.747 224.559L171.851 246.103C171.855 246.947 172.514 247.643 173.357 247.692L201.566 249.345L201.66 249.348C202.537 249.348 203.259 248.637 203.259 247.748L203.259 227.553L203.427 227.413C204.071 226.862 204.707 226.172 205.295 225.332C207.618 222.017 208.568 217.39 207.445 211.354C206.276 205.071 198.03 202.305 187.204 202.783ZM204.299 211.94C205.267 217.143 204.497 220.896 202.675 223.496C202.246 224.109 201.792 224.601 201.345 224.983C201.226 225.085 201.117 225.172 201.019 225.243L200.866 225.349L200.775 225.405C200.33 225.7 200.06 226.2 200.06 226.738L200.059 246.052L175.042 244.586L174.944 223.904C174.942 223.506 174.792 223.125 174.526 222.833L174.295 222.598L174.114 222.405C174.019 222.301 173.919 222.188 173.813 222.065C173.303 221.474 172.791 220.796 172.314 220.049C170.502 217.208 169.718 214.239 170.466 211.356C171.077 209.005 178.811 206.357 187.346 205.98C196.716 205.565 203.539 207.854 204.299 211.94Z" fill="#2E186A"/>
<rect x="172.171" y="175.706" width="30.7685" height="41.0602" fill="#3471E9"/>
<path fill-rule="evenodd" clip-rule="evenodd" d="M173.291 223.751C167.478 221.992 168.811 210.474 169.664 207.647C170.251 205.728 171.584 201.142 171.477 197.729C171.424 196.236 173.557 194.529 174.997 195.116C176.757 195.809 178.41 198.795 178.73 208.127C183.209 213.193 184.862 218.739 184.862 218.739" fill="white"/>
<path fill-rule="evenodd" clip-rule="evenodd" d="M169.884 198.029L169.879 197.786C169.784 195.131 173.084 192.609 175.583 193.628C178.436 194.751 179.92 198.907 180.293 207.171L180.307 207.505L180.651 207.917L181.002 208.351C182.711 210.513 184.082 212.822 185.15 215.132C185.478 215.841 185.757 216.508 185.989 217.12L186.086 217.378C186.24 217.796 186.342 218.104 186.395 218.282C186.648 219.129 186.166 220.02 185.319 220.272C184.503 220.515 183.645 220.076 183.358 219.285L183.256 218.968C183.222 218.868 183.179 218.744 183.126 218.598L183.084 218.485C182.862 217.881 182.583 217.205 182.245 216.474C181.277 214.38 180.033 212.285 178.492 210.336C178.181 209.944 177.861 209.56 177.531 209.187C177.285 208.909 177.144 208.553 177.131 208.182C176.985 203.92 176.551 200.866 175.887 198.893C175.403 197.455 174.887 196.792 174.393 196.598C174.096 196.476 173.062 197.267 173.076 197.679C173.169 200.643 172.415 204.121 171.196 208.11C170.692 209.778 170.342 213.196 170.572 215.967C170.857 219.4 171.909 221.583 173.642 222.184L173.754 222.22C174.6 222.476 175.078 223.369 174.822 224.215C174.566 225.061 173.673 225.539 172.827 225.283C169.431 224.254 167.771 220.903 167.384 216.232C167.121 213.063 167.512 209.242 168.135 207.18C169.218 203.636 169.911 200.486 169.884 198.029Z" fill="#2E186A"/>
<path fill-rule="evenodd" clip-rule="evenodd" d="M191.688 201.942C188.541 195.116 202.086 189.464 202.086 189.464C204.806 188.184 210.031 192.397 201.873 196.343" fill="white"/>
<path fill-rule="evenodd" clip-rule="evenodd" d="M201.526 187.962C203.685 187.035 206.542 188.129 207.516 190.285C208.71 192.927 206.877 195.699 202.569 197.783C201.774 198.168 200.817 197.835 200.433 197.039C200.048 196.244 200.381 195.287 201.176 194.903C204.122 193.478 204.91 192.286 204.601 191.602C204.353 191.055 203.404 190.683 202.839 190.882L202.767 190.911L202.367 191.087L202.282 191.126C201.93 191.286 201.536 191.475 201.111 191.691C199.895 192.307 198.681 193.01 197.555 193.783C193.81 196.354 192.139 198.892 193.09 201.157L193.14 201.272C193.51 202.075 193.16 203.025 192.357 203.395C191.555 203.764 190.605 203.414 190.235 202.611C188.298 198.41 190.79 194.546 195.744 191.145C196.997 190.285 198.331 189.513 199.664 188.837C200.052 188.64 200.419 188.463 200.756 188.306L201.227 188.093L201.526 187.962Z" fill="#2E186A"/>
<path fill-rule="evenodd" clip-rule="evenodd" d="M191.261 209.301C188.115 202.475 202.14 196.236 202.14 196.236C202.14 196.236 206.672 193.677 207.792 197.943C208.698 201.302 203.579 202.582 203.526 202.742" fill="white"/>
<path fill-rule="evenodd" clip-rule="evenodd" d="M205.172 193.882C207.181 193.986 208.731 195.22 209.336 197.526C209.992 199.957 208.744 201.812 206.519 203.111C205.98 203.427 205.438 203.68 204.821 203.929L204.335 204.121L204.319 204.131C203.963 204.334 203.531 204.4 203.11 204.286L203.02 204.259C202.182 203.98 201.729 203.074 202.008 202.236C202.155 201.795 202.364 201.59 202.649 201.398C202.703 201.362 202.753 201.332 202.803 201.305L202.88 201.266C202.937 201.238 202.993 201.213 203.059 201.186L203.624 200.962C204.109 200.766 204.521 200.574 204.905 200.349C206.028 199.693 206.441 199.079 206.244 198.349C205.994 197.393 205.638 197.11 205.007 197.077C204.586 197.055 204.072 197.16 203.546 197.355L203.359 197.428C203.185 197.499 203.048 197.564 202.964 197.608L202.926 197.629C202.882 197.654 202.836 197.677 202.79 197.698L202.563 197.802L202.347 197.905C201.978 198.083 201.565 198.292 201.12 198.529C199.847 199.208 198.575 199.975 197.395 200.811C193.493 203.575 191.719 206.256 192.664 208.518L192.714 208.631C193.084 209.433 192.733 210.384 191.931 210.753C191.128 211.123 190.178 210.773 189.808 209.97C187.875 205.776 190.447 201.813 195.545 198.2C196.846 197.279 198.231 196.443 199.616 195.706L200.088 195.458C200.396 195.299 200.686 195.154 200.957 195.024L201.25 194.884L201.437 194.797C201.644 194.685 201.93 194.55 202.279 194.414L202.433 194.355C203.264 194.047 204.112 193.864 204.96 193.875L205.172 193.882Z" fill="#2E186A"/>
<path fill-rule="evenodd" clip-rule="evenodd" d="M193.714 216.98C192.008 216.713 191.421 214.847 191.421 214.847C188.275 208.021 205.179 201.942 205.179 201.942C205.179 201.942 211.898 204.182 206.779 209.087" fill="white"/>
<path fill-rule="evenodd" clip-rule="evenodd" d="M204.638 200.436C204.975 200.315 205.344 200.31 205.685 200.424L205.82 200.471C205.969 200.526 206.163 200.604 206.389 200.707C206.883 200.93 207.378 201.201 207.849 201.526C210.868 203.608 211.414 206.861 207.886 210.242C207.248 210.853 206.235 210.832 205.624 210.194C205.012 209.556 205.034 208.543 205.672 207.932L205.889 207.72C207.62 205.984 207.428 205.122 206.032 204.16C205.792 203.994 205.533 203.845 205.269 203.716L205.154 203.661C204.764 203.814 204.337 203.988 203.88 204.182L203.602 204.301C201.996 204.993 200.392 205.778 198.902 206.634C194.205 209.335 191.968 211.979 192.831 214.078L192.914 214.27L192.947 214.367C192.98 214.469 193.093 214.711 193.275 214.943C193.46 215.179 193.656 215.324 193.877 215.381L193.961 215.399C194.834 215.535 195.431 216.353 195.295 217.226C195.158 218.099 194.34 218.696 193.467 218.56C192.33 218.382 191.428 217.774 190.755 216.914C190.377 216.431 190.127 215.954 189.975 215.555L189.927 215.423L189.898 215.359C188.93 213.103 189.488 210.816 191.198 208.688L191.32 208.54C192.696 206.884 194.749 205.332 197.308 203.86C198.913 202.937 200.624 202.101 202.335 201.363C202.833 201.148 203.302 200.954 203.734 200.782L204.201 200.6C204.398 200.524 204.545 200.47 204.638 200.436Z" fill="#2E186A"/>
<path fill-rule="evenodd" clip-rule="evenodd" d="M206.565 209.407C206.565 209.407 190.675 216.126 195.581 220.659C198.78 223.218 208.752 216.926 208.698 213.833C208.645 210.687 207.845 209.674 206.565 209.407Z" fill="white"/>
<path fill-rule="evenodd" clip-rule="evenodd" d="M205.942 207.934L205.398 208.173L204.962 208.371C204.662 208.509 204.342 208.66 204.007 208.822C202.568 209.516 201.128 210.281 199.777 211.095C196.95 212.8 194.878 214.489 193.819 216.223C192.622 218.185 192.769 220.239 194.495 221.834L194.581 221.908C196.739 223.635 200.369 222.905 204.15 220.757C207.692 218.744 210.337 216.079 210.298 213.806C210.238 210.242 209.203 208.323 206.892 207.841C206.573 207.775 206.242 207.807 205.942 207.934ZM206.584 211.147L206.602 211.164C206.905 211.471 207.071 212.193 207.099 213.861C207.111 214.531 205.146 216.511 202.569 217.975L202.391 218.075C199.791 219.514 197.441 219.992 196.633 219.448L196.616 219.436L196.538 219.358C196.13 218.923 196.144 218.557 196.55 217.891C197.268 216.714 199.012 215.293 201.429 213.835C202.687 213.077 204.042 212.358 205.398 211.703L205.861 211.482C206.011 211.411 206.157 211.343 206.298 211.278L206.584 211.147Z" fill="#2E186A"/>
<path fill-rule="evenodd" clip-rule="evenodd" d="M168.065 232.177L160.653 277.823L130.577 291.101L130.524 291.048L49.6835 323.949C39.7117 329.069 34.5925 342.347 33.3661 353.491L21.048 429.106C19.6616 437.585 25.474 445.53 33.9526 446.757L136.39 445.05C136.39 445.05 136.976 442.064 137.883 437.958L173.077 443.717L155 341.387L196.38 319.204C201.126 316.644 203.259 308.539 203.526 303.153L206.672 232.177H168.065Z" fill="#02ADE3"/>
<path fill-rule="evenodd" clip-rule="evenodd" d="M105.408 328.962C114.1 327.042 119.752 319.257 117.833 310.565L112.234 285.235C110.314 276.543 101.675 271.051 92.9833 272.97C84.2913 274.89 78.7988 283.529 80.7185 292.221L86.1577 316.697C88.0774 325.389 96.6627 330.881 105.408 328.962Z" fill="white"/>
<path fill-rule="evenodd" clip-rule="evenodd" d="M92.9245 271.348L92.6383 271.409C83.0875 273.518 77.0454 283.007 79.1565 292.566L84.5961 317.044C86.6843 326.499 95.954 332.513 105.464 330.585L105.738 330.527C115.447 328.383 121.477 319.649 119.395 310.22L113.796 284.89C111.71 275.446 102.397 269.416 92.9245 271.348ZM110.672 285.58L116.271 310.91C117.96 318.561 113.08 325.629 105.063 327.4L104.815 327.452C97.0272 329.031 89.4317 324.103 87.7198 316.352L82.2802 291.874L82.2303 291.639C80.6657 283.965 85.4836 276.398 93.0945 274.586L93.3246 274.533L93.5764 274.48C101.327 272.9 108.963 277.844 110.672 285.58Z" fill="black"/>
<path fill-rule="evenodd" clip-rule="evenodd" d="M106.954 238.149C106.954 238.149 93.3031 261.239 109.247 268.171C109.247 268.171 116.18 270.891 119.272 268.064C119.272 268.064 114.42 265.185 116.393 261.399C116.393 261.399 123.858 273.61 132.977 265.665C132.977 265.665 126.258 261.985 123.805 254.733C118.686 239.589 111.114 232.817 106.954 238.149Z" fill="#2E186A"/>
<path fill-rule="evenodd" clip-rule="evenodd" d="M69.8402 273.237C69.8402 273.237 56.9356 248.121 82.2649 234.683C84.6112 233.457 100.929 225.191 108.714 238.363C113.94 247.161 117.726 257.346 120.126 265.398C120.126 265.452 124.872 280.596 121.672 290.941C118.473 301.286 105.035 304.859 96.716 303.046C88.3973 301.233 86.3709 299.526 82.7982 295.26C79.2254 291.048 69.8402 273.29 69.8402 273.237Z" fill="white"/>
<path fill-rule="evenodd" clip-rule="evenodd" d="M71.955 273.826L71.3663 272.71C72.5739 275.035 71.4401 272.795 71.4401 273.237C71.4401 273.019 71.3955 272.804 71.3096 272.604L71.1461 272.264L71.0157 271.981C70.9476 271.83 70.8752 271.665 70.7992 271.486C70.4334 270.625 70.0661 269.639 69.7226 268.549C67.8205 262.514 67.4574 256.21 69.5709 250.376C71.6334 244.683 75.9572 239.841 83.0148 236.096C84.1304 235.513 85.3389 234.954 86.8535 234.387C89.1011 233.545 91.3854 232.954 93.6205 232.714C99.4641 232.088 104.115 233.896 107.207 238.961L107.339 239.18L107.648 239.705C112.067 247.275 115.79 256.449 118.593 265.855L118.632 265.843L119.053 267.515C119.334 268.641 119.666 270.009 119.887 271.074C120.724 275.113 121.213 279.144 121.179 282.879C121.153 285.73 120.819 288.285 120.144 290.468C118.809 294.785 115.353 298.094 110.509 300.072C106.149 301.852 101.037 302.35 97.0568 301.483L96.4904 301.358C89.9167 299.887 87.8523 298.704 84.462 294.749L84.0247 294.233C82.5714 292.519 79.8834 288.14 76.5446 282.208L76.3743 281.906C75.2811 279.959 74.1796 277.956 73.1526 276.057L72.1706 274.23C72.0961 274.09 72.0241 273.955 71.955 273.826ZM121.672 264.988L121.672 264.993L121.659 264.941C118.788 255.308 114.973 245.904 110.409 238.088L110.091 237.548C106.3 231.135 100.362 228.774 93.2794 229.533C90.7519 229.804 88.2141 230.461 85.732 231.39C84.0777 232.009 82.7557 232.621 81.5239 233.265C73.7701 237.379 68.9009 242.832 66.5627 249.286C64.174 255.88 64.5764 262.864 66.6711 269.511C67.0466 270.703 67.4496 271.784 67.8542 272.737L67.9149 272.878C68.1333 273.386 68.3074 273.754 68.4174 273.968L68.4832 273.934L68.5348 274.05L68.6508 274.304C70.5854 278.455 78.8151 292.934 81.4938 296.194L81.5782 296.295C85.7926 301.327 88.3766 302.865 96.3754 304.609C101 305.617 106.77 305.054 111.719 303.034C117.389 300.718 121.557 296.728 123.2 291.414C123.976 288.905 124.35 286.049 124.378 282.908C124.415 278.916 123.9 274.669 123.019 270.424C122.756 269.155 122.477 267.968 122.193 266.875L122.086 266.469C122.02 266.22 121.957 265.989 121.896 265.771L121.672 264.988Z" fill="#2E186A"/>
<path fill-rule="evenodd" clip-rule="evenodd" d="M107.537 259.272C108.329 258.958 109.222 259.32 109.577 260.082L109.614 260.169L115.054 273.873C115.373 274.679 114.993 275.586 114.209 275.928L114.121 275.964L109.641 277.617C108.812 277.923 107.892 277.499 107.587 276.67C107.292 275.871 107.675 274.987 108.446 274.651L108.533 274.616L111.475 273.53L106.641 261.349C106.326 260.557 106.688 259.664 107.451 259.309L107.537 259.272Z" fill="#2E186A"/>
<path fill-rule="evenodd" clip-rule="evenodd" d="M113.962 261.272C114.692 260.959 114.899 259.805 114.423 258.695C113.947 257.585 112.968 256.94 112.237 257.254C111.507 257.567 111.3 258.721 111.776 259.831C112.252 260.94 113.231 261.586 113.962 261.272Z" fill="#2E186A"/>
<path fill-rule="evenodd" clip-rule="evenodd" d="M101.18 267.006C101.957 266.835 102.375 265.74 102.115 264.561C101.855 263.382 101.014 262.565 100.238 262.737C99.4612 262.908 99.0427 264.003 99.3029 265.182C99.5631 266.361 100.404 267.178 101.18 267.006Z" fill="#2E186A"/>
<path fill-rule="evenodd" clip-rule="evenodd" d="M94.4292 254.818C95.2956 254.644 96.1384 255.206 96.3116 256.072C96.4787 256.908 95.9622 257.721 95.1483 257.934L95.0567 257.955C93.8632 258.194 92.9616 258.75 92.2776 259.54C91.9514 259.917 91.6964 260.324 91.5076 260.728C91.4594 260.832 91.4188 260.927 91.3856 261.014L91.3287 261.174C91.0995 262.027 90.2219 262.533 89.3687 262.304C88.5154 262.075 88.0095 261.197 88.2388 260.344C88.2998 260.117 88.4183 259.782 88.6091 259.374C88.9166 258.716 89.3268 258.061 89.8578 257.447C90.9897 256.139 92.5093 255.201 94.4292 254.818Z" fill="#2E186A"/>
<path fill-rule="evenodd" clip-rule="evenodd" d="M107.291 248.229C108.78 247.329 110.314 246.815 111.86 246.931C112.805 247.002 113.698 247.315 114.496 247.886C115.215 248.399 115.382 249.398 114.868 250.117C114.375 250.809 113.432 250.989 112.721 250.545L112.637 250.489C112.324 250.266 111.993 250.15 111.62 250.122C110.858 250.065 109.918 250.379 108.946 250.967C108.68 251.128 108.428 251.299 108.197 251.472L108.027 251.602C107.936 251.673 107.862 251.734 107.807 251.78L107.717 251.859C107.066 252.456 106.054 252.414 105.456 251.763C104.859 251.112 104.901 250.1 105.552 249.503C105.919 249.166 106.517 248.697 107.291 248.229Z" fill="#2E186A"/>
<path fill-rule="evenodd" clip-rule="evenodd" d="M84.7178 248.601C84.7178 248.601 100.662 284.062 76.6124 291.474C76.6124 291.474 62.6413 296.114 58.6419 291.528C58.6419 291.528 68.2404 284.489 66.0541 278.73C66.0541 278.73 56.2423 293.234 44.7241 285.555C44.7241 285.555 61.2548 280.276 57.5221 265.185C54.8559 254.413 79.6519 240.282 84.7178 248.601Z" fill="#2E186A"/>
<path fill-rule="evenodd" clip-rule="evenodd" d="M42.8045 265.772L56.4557 258.839C54.7493 248.654 55.8158 232.924 74.9061 224.072C104.768 210.207 115.646 240.069 115.646 240.069L47.2838 274.624C44.8309 275.85 41.898 274.89 40.6715 272.437C39.3917 269.984 40.3516 267.051 42.8045 265.772Z" fill="#2E186A"/>
<path fill-rule="evenodd" clip-rule="evenodd" d="M101.099 281.9C101.738 281.34 102.697 281.379 103.288 281.973L103.357 282.046C103.475 282.18 103.784 282.45 104.264 282.735C106.019 283.777 108.224 283.915 111.023 282.479C111.81 282.075 112.774 282.386 113.177 283.172C113.58 283.958 113.27 284.922 112.484 285.325C108.669 287.283 105.301 287.072 102.631 285.486C102.173 285.214 101.773 284.921 101.432 284.623C101.213 284.433 101.054 284.272 100.953 284.158C100.37 283.494 100.436 282.483 101.099 281.9Z" fill="#2E186A"/>
<path fill-rule="evenodd" clip-rule="evenodd" d="M157.613 422.6C157.613 422.6 166.785 422.067 176.544 423.774C182.356 424.787 192.221 426.493 193.234 427.986C195.581 431.506 186.675 433.319 182.463 430.386" fill="white"/>
<path fill-rule="evenodd" clip-rule="evenodd" d="M158.519 420.962C163.934 420.789 170.404 421.076 176.818 422.198L180.872 422.914C181.428 423.015 181.941 423.11 182.472 423.21L183.121 423.334C186.971 424.073 189.847 424.742 191.74 425.397C193.175 425.893 194.063 426.359 194.565 427.099C195.531 428.548 195.417 430.141 194.31 431.343C193.493 432.228 192.201 432.836 190.643 433.17C187.548 433.833 183.909 433.342 181.549 431.699C180.823 431.194 180.645 430.197 181.15 429.472C181.655 428.747 182.652 428.568 183.377 429.073C184.94 430.162 187.684 430.531 189.973 430.041C190.886 429.846 191.575 429.535 191.901 429.231L191.957 429.174C192.022 429.104 192.044 429.094 192.013 429.038L191.974 428.977L191.895 428.928L191.787 428.869C191.532 428.735 191.163 428.583 190.694 428.421C189.144 427.885 186.718 427.304 183.505 426.669L181.564 426.295C180.161 426.032 178.79 425.789 176.268 425.349C170.295 424.305 164.228 424.012 159.113 424.146L158.321 424.17L157.706 424.198C156.824 424.249 156.067 423.575 156.016 422.693C155.967 421.843 156.591 421.109 157.427 421.012L157.555 421.001L158.055 420.979C158.198 420.973 158.352 420.967 158.519 420.962Z" fill="#2E186A"/>
<path fill-rule="evenodd" clip-rule="evenodd" d="M182.196 435.345C190.461 437.851 191.368 435.985 189.608 432.359C188.595 430.279 174.89 424.68 172.171 423.88C169.451 423.08 154.787 422.014 154.787 422.014L143.802 420.841C140.709 427.72 138.15 439.878 137.296 443.984C152.974 443.504 174.357 443.664 174.357 443.664C182.569 444.197 179.85 440.518 176.49 439.291C173.077 438.065 166.892 435.185 165.985 435.399C165.985 435.399 174.837 437.905 178.837 440.411C181.663 441.531 184.862 439.611 185.129 438.705C185.449 437.798 182.836 435.345 178.517 433.159C174.197 430.973 168.598 429.053 168.598 429.053" fill="white"/>
<path fill-rule="evenodd" clip-rule="evenodd" d="M142.343 420.185C142.613 419.584 143.222 419.213 143.874 419.242L143.972 419.25L154.954 420.422L155.674 420.476L157.083 420.585L159.268 420.762C160.572 420.871 161.863 420.984 163.106 421.1L164.586 421.241C166.404 421.419 167.986 421.593 169.275 421.76L169.972 421.853C171.188 422.022 172.067 422.182 172.622 422.345L172.948 422.446C174.682 423.004 178.431 424.501 181.74 425.98L182.723 426.424C187.546 428.628 190.362 430.254 191.047 431.66C192.334 434.311 192.441 436.382 190.468 437.533C189.617 438.029 188.462 438.19 186.921 438.039L186.677 438.012L186.685 438.042C186.775 438.422 186.773 438.79 186.668 439.141L186.664 439.156C186.208 440.703 183.95 442.004 181.546 442.274L181.365 442.292L181.361 442.394C181.289 443.527 180.496 444.389 179.276 444.845L179.144 444.892C178.101 445.248 176.659 445.377 174.778 445.289L174.297 445.263L172.001 445.251L169.684 445.242C163.049 445.224 155.853 445.249 148.948 445.341L146.409 445.378C143.133 445.43 140.097 445.498 137.345 445.583C136.311 445.614 135.52 444.671 135.73 443.658L135.952 442.598C137.948 433.124 139.929 425.553 142.343 420.185ZM154.617 423.604L144.804 422.556L144.767 422.644C142.855 427.279 141.171 433.612 139.505 441.283L139.28 442.326L141.469 442.273C142.792 442.243 144.165 442.216 145.584 442.191L147.686 442.158C155.384 442.046 163.504 442.021 170.86 442.047L174.369 442.064L174.461 442.067C175.998 442.167 177.13 442.11 177.835 441.942L177.859 441.936L177.788 441.869L177.693 441.786C177.236 441.398 176.6 441.034 175.949 440.796L175.641 440.684C174.95 440.43 174.198 440.133 173.055 439.666L169.551 438.228L169.021 438.014L168.449 437.827L167.811 437.623L167.229 437.441C167.04 437.382 166.856 437.326 166.679 437.272L165.549 436.937C163.961 436.488 164.012 434.219 165.619 433.841L165.772 433.808C166.513 433.669 167.199 433.833 169.843 434.893L170.166 435.023L170.75 435.218C171.622 435.513 172.483 435.818 173.321 436.13L173.944 436.366C176.117 437.199 177.93 438.016 179.32 438.834L179.536 438.964L179.573 438.977C180.364 439.245 181.29 439.199 182.201 438.885L182.372 438.823C182.692 438.7 182.989 438.551 183.235 438.395L183.28 438.365L183.255 438.337C183.094 438.156 182.887 437.951 182.641 437.731L182.514 437.62C181.394 436.648 179.733 435.567 177.794 434.586C177.053 434.211 176.24 433.827 175.366 433.438C173.775 432.729 172.064 432.037 170.352 431.392L169.487 431.07C169.21 430.968 168.947 430.873 168.697 430.783L168.079 430.566C167.244 430.279 166.798 429.369 167.085 428.534C167.361 427.728 168.217 427.285 169.027 427.511L169.146 427.549L169.774 427.771L170.309 427.964C170.677 428.098 171.069 428.243 171.481 428.398C173.247 429.064 175.014 429.778 176.668 430.515C177.587 430.925 178.448 431.331 179.239 431.731C180.584 432.412 181.808 433.121 182.859 433.838L182.952 433.901L183.202 433.975L183.752 434.131C185.094 434.503 186.203 434.735 187.083 434.836L187.246 434.854C187.977 434.926 188.47 434.895 188.725 434.822L188.758 434.811L188.757 434.79C188.74 434.451 188.571 433.913 188.243 433.212L188.17 433.059C187.972 432.652 184.908 430.922 180.87 429.097L179.999 428.707C176.765 427.278 173.204 425.868 171.811 425.442L171.72 425.415C171.328 425.3 170.485 425.151 169.299 424.99L168.608 424.9C167.23 424.726 165.517 424.543 163.543 424.355C162.088 424.216 160.554 424.08 159.001 423.951L156.536 423.751L154.617 423.604Z" fill="#2E186A"/>
<path fill-rule="evenodd" clip-rule="evenodd" d="M86.0593 373.545C86.909 373.606 87.5559 374.321 87.5441 375.162L87.5401 375.256L85.4635 404.126L144.576 411.093C145.422 411.193 146.036 411.936 145.986 412.775L145.977 412.869C145.878 413.715 145.135 414.329 144.295 414.279L144.201 414.27L83.5709 407.125C82.753 407.029 82.1474 406.329 82.1585 405.516L82.1625 405.421L84.3489 375.026C84.41 374.176 85.1242 373.53 85.9653 373.541L86.0593 373.545Z" fill="white"/>
<path fill-rule="evenodd" clip-rule="evenodd" d="M598.662 444.193C599.401 444.193 600 444.823 600 445.601C600 446.351 599.443 446.965 598.741 447.007L598.662 447.01H1.33789C0.598995 447.01 0 446.379 0 445.601C0 444.851 0.556973 444.238 1.25928 444.195L1.33789 444.193H598.662Z" fill="#2E186A"/>
</svg>
