<svg width="20" height="19" viewBox="0 0 20 19" fill="none" xmlns="http://www.w3.org/2000/svg">
<path fill-rule="evenodd" clip-rule="evenodd" d="M7.429 6.62055H11.143V8.37805C11.678 7.36725 13.05 6.45905 15.111 6.45905C19.062 6.45905 20 8.47115 20 12.1629V19H16V13.0036C16 10.9012 15.465 9.71565 14.103 9.71565C12.214 9.71565 11.429 10.9934 11.429 13.0027V19H7.429V6.62055ZM0.57 18.8385H4.57V6.45905H0.57V18.8385ZM5.143 2.4225C5.14315 2.74101 5.07666 3.05637 4.94739 3.35026C4.81812 3.64414 4.62865 3.91069 4.39 4.1344C3.9064 4.59099 3.25181 4.84657 2.57 4.845C1.88939 4.84457 1.23631 4.58964 0.752 4.13535C0.514211 3.91088 0.325386 3.64403 0.196344 3.35011C0.0673015 3.05619 0.000579132 2.74096 0 2.4225C0 1.77935 0.27 1.16375 0.753 0.70965C1.23689 0.254751 1.89024 -0.00028425 2.571 2.37751e-07C3.253 2.37751e-07 3.907 0.25555 4.39 0.70965C4.872 1.16375 5.143 1.77935 5.143 2.4225Z" fill="#9C9EAD"/>
</svg>
