<svg width="145" height="20" viewBox="0 0 145 20" fill="none" xmlns="http://www.w3.org/2000/svg">
<path d="M42.842 0.000976562H40.1555V14.2005L26.3995 0.000976562H25.655V20.0003H28.3091V5.63413L42.0976 20.0003H42.842V0.000976562Z" fill="#1C3054"/>
<path d="M47.7388 20.0003H50.749L52.335 16.7338H62.9838L64.5698 20.0003H67.6123L57.9345 0.000976562H57.3842L47.7388 20.0003ZM61.6243 13.9672L61.8185 14.3005H53.5002L53.6944 13.9672L57.4813 5.4008H57.805L61.6243 13.9672Z" fill="#1C3054"/>
<path d="M86.2664 20.0003V17.5004H75.1644V0.000976562H72.5103V20.0003H86.2664Z" fill="#1C3054"/>
<path d="M95.4208 8.46737L94.8381 9.70067H94.6439L94.0937 8.46737L89.012 0.000976562H85.9048L93.3493 12.3672V20.0003H96.0357V12.3339L103.513 0.000976562H100.438L95.4208 8.46737Z" fill="#1C3054"/>
<path d="M106.84 20.0003H122.344V17.5004H111.371L122.538 0.700953V0.000976562H107.228V2.5009H118.233L106.84 19.3004V20.0003Z" fill="#1C3054"/>
<path d="M136.52 0.000976562H128.396V20.0003H131.05V13.5005H136.973L142.055 20.0003H145V19.467L139.983 13.1006V12.9672C142.637 12.0339 144.353 9.93399 144.353 6.7341C144.353 2.36757 141.375 0.000976562 136.52 0.000976562ZM141.569 6.80076C141.569 9.70067 139.562 11.034 136.714 11.034H131.05V2.5009H136.455C139.562 2.5009 141.569 3.90085 141.569 6.80076Z" fill="#1C3054"/>
<path d="M12.1445 4.00814L4.60718 20L9.90481 8.78994L15.2781 20H19.881C19.881 20 16.8773 13.7805 14.2632 8.38229C11.6491 2.98409 12.1445 4.00814 12.1445 4.00814Z" fill="url(#paint0_linear_24_8525)"/>
<path d="M9.92339 0H9.65343L0 20H4.68287L12.1618 4.04709L10.2036 0H9.92339Z" fill="#07ACE3"/>
<path d="M11.256 11.6128L8.18397 12.5348L4.6814 19.9986L13.0431 15.3359L11.256 11.6128Z" fill="#0B253E"/>
<defs>
<linearGradient id="paint0_linear_24_8525" x1="7.05092" y1="9.30176" x2="18.4172" y2="24.5048" gradientUnits="userSpaceOnUse">
<stop stop-color="#07ACE3"/>
<stop offset="0.04" stop-color="#0FAEE4"/>
<stop offset="0.4" stop-color="#4DC1E9"/>
<stop offset="0.67" stop-color="#73CDEC"/>
<stop offset="0.8" stop-color="#82D1ED"/>
<stop offset="1" stop-color="#85D4EE"/>
</linearGradient>
</defs>
</svg>
