<svg width="21" height="19" viewBox="0 0 21 19" fill="none" xmlns="http://www.w3.org/2000/svg">
<path fill-rule="evenodd" clip-rule="evenodd" d="M7.62138 6.62055H11.3354V8.37805C11.8704 7.36725 13.2424 6.45905 15.3034 6.45905C19.2544 6.45905 20.1924 8.47115 20.1924 12.1629V19H16.1924V13.0036C16.1924 10.9012 15.6574 9.71565 14.2954 9.71565C12.4064 9.71565 11.6214 10.9934 11.6214 13.0027V19H7.62138V6.62055ZM0.762383 18.8385H4.76238V6.45905H0.762383V18.8385ZM5.33538 2.4225C5.33553 2.74101 5.26904 3.05637 5.13977 3.35026C5.0105 3.64414 4.82103 3.91069 4.58238 4.1344C4.09878 4.59099 3.44419 4.84657 2.76238 4.845C2.08177 4.84457 1.42869 4.58964 0.944383 4.13535C0.706594 3.91088 0.517769 3.64403 0.388726 3.35011C0.259684 3.05619 0.192962 2.74096 0.192383 2.4225C0.192383 1.77935 0.462383 1.16375 0.945383 0.70965C1.42927 0.254751 2.08262 -0.00028425 2.76338 2.37751e-07C3.44538 2.37751e-07 4.09938 0.25555 4.58238 0.70965C5.06438 1.16375 5.33538 1.77935 5.33538 2.4225Z" fill="white" fill-opacity="0.8"/>
</svg>
