<svg width="19" height="15" viewBox="0 0 19 15" fill="none" xmlns="http://www.w3.org/2000/svg">
<path d="M18.1924 1.77927C17.5304 2.07995 16.8194 2.28311 16.0718 2.37493C16.8431 1.90181 17.4202 1.15718 17.6953 0.279967C16.9706 0.721218 16.1775 1.03181 15.3504 1.19824C14.7942 0.58947 14.0575 0.185967 13.2547 0.050377C12.4518 -0.0852125 11.6278 0.0546982 10.9104 0.448387C10.1931 0.842076 9.62266 1.46752 9.28763 2.22761C8.9526 2.9877 8.87175 3.83991 9.05762 4.65193C7.58921 4.57635 6.15271 4.18511 4.84136 3.5036C3.53 2.82209 2.37309 1.86554 1.44571 0.696035C1.12861 1.25675 0.94628 1.90686 0.94628 2.59922C0.945927 3.22251 1.09566 3.83624 1.38219 4.38598C1.66873 4.93572 2.0832 5.40446 2.58884 5.75061C2.00243 5.73148 1.42896 5.56905 0.916156 5.27684V5.3256C0.916097 6.19978 1.21108 7.04707 1.75106 7.72368C2.29104 8.40029 3.04274 8.86456 3.87863 9.03771C3.33464 9.18863 2.76431 9.21086 2.2107 9.10272C2.44654 9.8549 2.90594 10.5127 3.52457 10.9839C4.1432 11.4551 4.89011 11.7163 5.66072 11.7308C4.35256 12.7835 2.737 13.3545 1.07391 13.352C0.779314 13.3521 0.484965 13.3344 0.192383 13.2992C1.88051 14.4118 3.84561 15.0023 5.85256 15C12.6464 15 16.3604 9.23193 16.3604 4.22936C16.3604 4.06683 16.3564 3.90268 16.3493 3.74016C17.0717 3.20461 17.6953 2.54144 18.1908 1.78171L18.1924 1.77927Z" fill="white" fill-opacity="0.8"/>
</svg>
