<svg width="21" height="14" viewBox="0 0 21 14" fill="none" xmlns="http://www.w3.org/2000/svg">
<path d="M16.0385 0.00100229H4.34631C2.05138 0.00100229 0.192383 1.84021 0.192383 4.10939V9.89061C0.192383 12.1598 2.05238 14 4.34631 14H16.0385C18.3334 14 20.1924 12.1598 20.1924 9.89061V4.10939C20.1924 1.84021 18.3324 0 16.0385 0V0.00100229ZM13.2294 7.28064L7.76065 9.86154C7.7273 9.8776 7.69042 9.88497 7.65346 9.88294C7.61649 9.88092 7.58064 9.86958 7.54923 9.84997C7.51783 9.83037 7.49189 9.80313 7.47384 9.77081C7.45579 9.73848 7.4462 9.70212 7.44598 9.66509V4.34393C7.44665 4.30672 7.45672 4.27028 7.47526 4.23801C7.49381 4.20574 7.52021 4.17869 7.55203 4.15938C7.58384 4.14007 7.62002 4.12913 7.6572 4.12758C7.69438 4.12602 7.73135 4.1339 7.76466 4.15049L13.2344 6.89175C13.2709 6.90992 13.3014 6.938 13.3226 6.97276C13.3438 7.00752 13.3548 7.04756 13.3543 7.08827C13.3537 7.12898 13.3417 7.16872 13.3197 7.20293C13.2976 7.23713 13.2663 7.26441 13.2294 7.28164V7.28064Z" fill="white" fill-opacity="0.8"/>
</svg>
