<svg width="30" height="30" viewBox="0 0 30 30" fill="none" xmlns="http://www.w3.org/2000/svg">
<path d="M21.5938 9C22.3701 9 23 9.62959 23 10.4062C23 10.8486 22.792 11.2646 22.4375 11.5312L16.0625 16.3125C15.7285 16.5615 15.2715 16.5615 14.9375 16.3125L8.5625 11.5312C8.20839 11.2646 8 10.8486 8 10.4062C8 9.62959 8.62959 9 9.40625 9H21.5938ZM14.375 17.0625C15.043 17.5635 15.957 17.5635 16.625 17.0625L23 12.2812V18.375C23 19.4092 22.1592 20.25 21.125 20.25H9.875C8.83936 20.25 8 19.4092 8 18.375V12.2812L14.375 17.0625Z" fill="#9C9EAD"/>
</svg>
