<svg width="217" height="50" viewBox="0 0 217 50" fill="none" xmlns="http://www.w3.org/2000/svg">
<path d="M43.9475 37.7512L33.126 31.7884C31.6057 30.9536 29.6616 31.4501 28.7818 32.9002C28.4408 33.4714 28.3072 34.0997 28.3717 34.7105V46.3637C28.3717 48.029 29.7906 49.3824 31.5412 49.3824C33.2872 49.3824 34.7061 48.029 34.7061 46.3637V39.6626L40.7688 43.0022C42.289 43.8415 44.2378 43.3405 45.1131 41.8904C45.993 40.4404 45.4725 38.5861 43.9475 37.7512Z" fill="#02ADE3"/>
<path d="M17.034 24.9727C17.0524 23.8962 16.4581 22.8943 15.4815 22.3538L4.65994 16.3955C4.19004 16.1362 3.65104 16 3.11204 16C2.00178 16 0.969835 16.5667 0.417009 17.4807C-0.439869 18.8957 0.0714945 20.7103 1.5549 21.5277L7.79262 24.9595L1.5549 28.3957C0.836235 28.7912 0.320265 29.4283 0.10835 30.1928C-0.108174 30.9574 0.00239119 31.7571 0.417009 32.4426C0.969835 33.3566 2.00178 33.9234 3.10743 33.9234C3.65104 33.9234 4.19004 33.7872 4.65994 33.5279L15.4815 27.5695C16.449 27.0335 17.0433 26.0405 17.034 24.9727Z" fill="#02ADE3"/>
<path d="M7.11579 12.1731L17.9373 18.1315C19.1996 18.8302 20.7567 18.6016 21.7519 17.6745C22.383 17.1209 22.7746 16.33 22.7746 15.4512V3.50799C22.7746 1.83824 21.3557 0.484863 19.6097 0.484863C17.859 0.484863 16.4401 1.83824 16.4401 3.50799V10.3056L10.2945 6.9222C8.77426 6.08293 6.83016 6.57945 5.95025 8.0295C5.07033 9.47956 5.59552 11.3339 7.11579 12.1731Z" fill="#02ADE3"/>
<path d="M31.4485 25.4564C31.4485 25.6849 31.3103 26.0013 31.1398 26.1682L26.8509 30.2592C26.6804 30.4217 26.3441 30.5536 26.1046 30.5536H25.0127C24.7732 30.5536 24.4368 30.4217 24.2664 30.2592L19.9727 26.1682C19.8023 26.0013 19.6641 25.6849 19.6641 25.4564V24.415C19.6641 24.1822 19.8023 23.8658 19.9727 23.7032L24.2664 19.6079C24.4368 19.4453 24.7732 19.3135 25.0127 19.3135H26.1046C26.3441 19.3135 26.6804 19.4453 26.8509 19.6079L31.1398 23.7032C31.3103 23.8658 31.4485 24.1822 31.4485 24.415V25.4564ZM27.6202 24.9555V24.9116C27.6202 24.7446 27.5189 24.5117 27.3945 24.3887L26.1276 23.1846C26.0031 23.0616 25.7591 22.965 25.5794 22.965H25.5333C25.3582 22.965 25.1141 23.0616 24.9851 23.1846L23.7228 24.3887C23.5983 24.5073 23.497 24.7402 23.497 24.9116V24.9555C23.497 25.1268 23.5983 25.3598 23.7228 25.4784L24.9851 26.6867C25.1141 26.8055 25.3582 26.9021 25.5333 26.9021H25.5794C25.7591 26.9021 26.0031 26.8055 26.1276 26.6867L27.3945 25.4784C27.5189 25.3598 27.6202 25.1268 27.6202 24.9555Z" fill="#02ADE3"/>
<path d="M33.1257 18.1315L43.9473 12.1731C45.4675 11.3383 45.9927 9.47956 45.1127 8.0295C44.2329 6.57945 42.2888 6.08293 40.7684 6.9222L34.7059 10.2617V3.50799C34.7059 1.83824 33.2869 0.484863 31.541 0.484863C29.7903 0.484863 28.3714 1.83824 28.3714 3.50799V15.2138C28.3114 15.8202 28.4359 16.453 28.7814 17.0242C29.6613 18.4743 31.6054 18.9708 33.1257 18.1315Z" fill="#02ADE3"/>
<path d="M20.1072 31.4368C19.3885 31.3049 18.6192 31.4148 17.9373 31.7883L7.11579 37.7511C5.59552 38.586 5.07033 40.4403 5.95025 41.8903C6.83016 43.3448 8.77426 43.8413 10.2945 43.002L16.4401 39.6186V46.3636C16.4401 48.0289 17.859 49.3823 19.6097 49.3823C21.3557 49.3823 22.7746 48.0289 22.7746 46.3636V34.4204C22.7746 32.9132 21.6183 31.6653 20.1072 31.4368Z" fill="#02ADE3"/>
<path d="M50.7104 17.446C49.835 15.9916 47.8863 15.495 46.366 16.3343L35.5445 22.2927C34.5079 22.8639 33.9366 23.9097 33.955 24.9731C33.9459 26.032 34.5171 27.0647 35.5445 27.6271L46.366 33.5898C47.8863 34.4247 49.8304 33.9282 50.7104 32.4782C51.5902 31.0281 51.065 29.1738 49.5448 28.3346L43.4176 24.9599L49.5448 21.5853C51.0696 20.7504 51.5902 18.8961 50.7104 17.446Z" fill="#02ADE3"/>
<path d="M217 24.2614V24.2657V24.3756C217 24.938 216.507 25.3555 215.899 25.3555H200.696C200.724 25.6983 200.77 26.0322 200.843 26.3618C201.548 29.5035 204.368 31.8412 207.716 31.8676C207.726 31.8676 207.897 31.8676 208.159 31.8676C208.2 31.8676 208.242 31.8676 208.283 31.8676H208.601C208.671 31.8676 208.739 31.8676 208.814 31.8631C208.878 31.8631 208.943 31.8587 209.007 31.8543C209.011 31.8543 209.016 31.8543 209.021 31.85C210.131 31.7665 211.251 31.3402 212.25 30.6548C212.25 30.6548 212.25 30.6548 212.255 30.6548C212.305 30.6197 212.361 30.58 212.411 30.5405C212.421 30.5362 212.429 30.5273 212.444 30.5185C212.486 30.4878 212.531 30.4527 212.577 30.4174C212.595 30.4043 212.61 30.3912 212.628 30.3779C212.665 30.3515 212.701 30.3208 212.738 30.29C212.761 30.2724 212.789 30.2505 212.812 30.2329C212.84 30.2065 212.867 30.1802 212.9 30.1583C212.927 30.1319 212.96 30.1055 212.988 30.0792C213.01 30.0615 213.033 30.0395 213.056 30.0176C213.093 29.9869 213.126 29.9561 213.162 29.9254C213.18 29.9078 213.199 29.8858 213.217 29.8683C213.255 29.833 213.291 29.7979 213.328 29.7628C213.346 29.7452 213.361 29.732 213.379 29.7144C213.416 29.6749 213.452 29.6354 213.489 29.5958C213.508 29.5826 213.522 29.565 213.535 29.5474C213.577 29.5079 213.613 29.4684 213.651 29.4288C213.664 29.4113 213.683 29.3936 213.696 29.3761C213.734 29.3321 213.766 29.2926 213.802 29.253C213.82 29.2311 213.84 29.2091 213.858 29.1871C213.89 29.1476 213.923 29.1124 213.95 29.0773C213.978 29.0421 214.001 29.0114 214.024 28.9806C214.047 28.9499 214.07 28.9235 214.092 28.8927C214.13 28.8444 214.167 28.7961 214.198 28.7477C214.213 28.7301 214.222 28.717 214.231 28.7038C214.323 28.5764 214.41 28.4445 214.498 28.3083C214.498 28.3083 214.498 28.304 214.503 28.2995C214.521 28.2687 214.545 28.2424 214.568 28.2116C214.576 28.1985 214.586 28.1852 214.599 28.1765C214.613 28.1545 214.632 28.1414 214.646 28.1237C214.659 28.1106 214.674 28.0974 214.687 28.0842C214.705 28.0711 214.719 28.0579 214.737 28.0447C214.752 28.0315 214.765 28.0183 214.784 28.0095C214.807 27.992 214.835 27.9744 214.863 27.9612C214.881 27.948 214.904 27.9348 214.922 27.9261C214.946 27.9172 214.964 27.9085 214.982 27.8997C215.001 27.8909 215.019 27.8865 215.032 27.8777C215.06 27.869 215.083 27.8645 215.111 27.8557C215.125 27.8513 215.133 27.847 215.148 27.8426C215.236 27.825 215.327 27.8118 215.415 27.8118C215.511 27.8118 215.612 27.825 215.705 27.8513C215.71 27.8513 215.71 27.8513 215.715 27.8513C215.751 27.8645 215.793 27.8733 215.829 27.8909C215.839 27.8952 215.848 27.8952 215.858 27.8997C215.899 27.9172 215.936 27.9348 215.972 27.9568L215.99 27.9656C216.498 28.3171 216.655 28.9323 216.345 29.4376L216.342 29.442C216.304 29.4991 216.267 29.5563 216.231 29.609C216.221 29.6221 216.212 29.6354 216.203 29.6485C215.125 31.2128 213.66 32.4607 212.025 33.2077C211.987 33.2209 211.955 33.2385 211.919 33.2561C211.914 33.2561 211.904 33.2605 211.9 33.2605C211.144 33.5944 210.334 33.8273 209.467 33.924C209.449 33.924 209.43 33.9284 209.412 33.9284C209.339 33.9371 209.265 33.9459 209.191 33.9504C209.15 33.9504 209.109 33.9548 209.062 33.9591C209.011 33.9591 208.956 33.9635 208.905 33.9679C208.804 33.9679 208.703 33.9723 208.601 33.9723C208.588 33.9723 208.205 33.9723 207.947 33.9723C207.799 33.9723 207.716 33.9723 207.708 33.9723C202.594 33.9371 198.476 29.8683 198.476 24.8854C198.476 19.819 202.622 15.728 207.777 15.728C207.929 15.728 208.081 15.7324 208.233 15.7369C210.029 15.8248 211.688 16.4092 213.066 17.3671C213.071 17.3714 213.074 17.3758 213.079 17.3758C213.157 17.4286 213.232 17.4857 213.305 17.5384C213.341 17.5692 213.383 17.5999 213.425 17.6307C213.462 17.6571 213.499 17.6878 213.535 17.7142C215.475 19.2565 216.783 21.5722 217 24.2526V24.2614ZM200.843 23.2859H214.604C213.923 20.1221 211.07 17.8328 207.777 17.8328C204.424 17.8328 201.594 20.0781 200.843 23.2859Z" fill="#02ADE3"/>
<path d="M178.131 16.0356C178.302 16.1983 178.418 16.4179 178.445 16.6728C178.445 16.7079 178.45 16.7431 178.45 16.7783V32.9177C178.45 33.4934 177.942 33.9723 177.344 33.9723C176.745 33.9723 176.243 33.4934 176.243 32.9177V30.7734C175.824 31.2568 175.363 31.6962 174.861 32.0785C174.847 32.0916 174.834 32.1005 174.819 32.1136C174.773 32.1487 174.723 32.184 174.676 32.2147C173.156 33.3307 171.309 33.9723 169.378 33.9723C166.27 33.9723 163.533 32.3948 161.901 30.0044C161.888 29.9869 161.87 29.9649 161.855 29.9473C161.81 29.8726 161.764 29.7979 161.713 29.7188C161.681 29.6705 161.653 29.6221 161.621 29.5738C161.588 29.5255 161.561 29.4728 161.533 29.42C161.487 29.3454 161.441 29.2663 161.399 29.1915C161.386 29.1651 161.376 29.1388 161.363 29.1124C160.759 27.97 160.386 26.6826 160.322 25.3159C160.312 25.1621 160.308 25.0084 160.308 24.8501C160.308 24.692 160.312 24.5381 160.322 24.3844C160.386 23.0178 160.759 21.7304 161.363 20.5835C161.376 20.5615 161.386 20.5352 161.399 20.5088C161.441 20.4341 161.487 20.355 161.533 20.2804C161.561 20.2276 161.588 20.1749 161.621 20.1265C161.648 20.0781 161.681 20.0299 161.713 19.9815C161.759 19.9069 161.81 19.8277 161.855 19.753C161.87 19.7355 161.888 19.7135 161.901 19.6959C163.533 17.3056 166.27 15.728 169.378 15.728C171.48 15.728 173.465 16.4619 175.045 17.7406C175.479 18.0877 175.878 18.47 176.243 18.8917V16.7783C176.243 16.7431 176.243 16.7079 176.248 16.6728C176.275 16.4179 176.39 16.1983 176.561 16.0356C176.561 16.0356 176.561 16.0356 176.561 16.0313C176.579 16.0137 176.603 16.0005 176.621 15.9829C176.626 15.9785 176.634 15.9698 176.639 15.9654C176.653 15.9521 176.671 15.9434 176.686 15.9345C176.699 15.9258 176.712 15.9126 176.727 15.9038C176.736 15.8994 176.745 15.895 176.754 15.8863C176.777 15.8774 176.795 15.8643 176.818 15.8511C176.823 15.8511 176.828 15.8467 176.833 15.8467C176.86 15.8335 176.888 15.8204 176.916 15.8071C176.916 15.8071 176.916 15.8071 176.92 15.8071C176.984 15.7808 177.054 15.7633 177.123 15.75C177.128 15.75 177.137 15.7456 177.141 15.7456C177.169 15.7413 177.201 15.7369 177.233 15.7324C177.271 15.7324 177.307 15.728 177.344 15.728C177.385 15.728 177.422 15.7324 177.46 15.7324C177.491 15.7369 177.519 15.7413 177.551 15.7456C177.556 15.7456 177.561 15.75 177.569 15.75C177.639 15.7633 177.708 15.7808 177.773 15.8071H177.777C177.805 15.8204 177.833 15.8335 177.856 15.8467C177.864 15.8467 177.869 15.8511 177.874 15.8511C177.892 15.8643 177.916 15.8774 177.934 15.8863C177.942 15.895 177.957 15.8994 177.966 15.9038C177.98 15.9126 177.994 15.9258 178.007 15.9345C178.022 15.9434 178.035 15.9521 178.048 15.9654C178.058 15.9698 178.063 15.9785 178.072 15.9829C178.09 16.0005 178.113 16.0137 178.128 16.0313C178.131 16.0356 178.131 16.0356 178.131 16.0356ZM169.378 31.8676C173.161 31.8676 176.243 28.7214 176.243 24.8501C176.243 20.9614 173.161 17.7977 169.378 17.7977C165.625 17.7977 162.515 20.957 162.515 24.8501C162.515 24.9733 162.52 25.0919 162.523 25.2105C162.523 25.2633 162.533 25.3115 162.533 25.3599C162.538 25.4302 162.542 25.5005 162.551 25.5664C162.556 25.6235 162.565 25.6763 162.57 25.729C162.579 25.7905 162.583 25.8564 162.593 25.9179C162.602 25.9663 162.611 26.0102 162.616 26.0542C162.629 26.1244 162.639 26.1948 162.652 26.2651C162.662 26.3002 162.671 26.3309 162.676 26.3618C162.694 26.4452 162.712 26.5243 162.73 26.6078C162.735 26.6254 162.74 26.6429 162.75 26.6606C163.533 29.6661 166.223 31.8676 169.378 31.8676Z" fill="#02ADE3"/>
<path d="M150.439 8.11719H150.141C150.103 8.11719 150.061 8.11719 150.025 8.12158C149.983 8.11719 149.947 8.11719 149.905 8.11719C149.799 8.11719 149.693 8.11719 149.587 8.12158C149.569 8.12158 149.546 8.12598 149.527 8.12598C149.444 8.12598 149.362 8.13036 149.279 8.13915C149.265 8.13915 149.246 8.13915 149.232 8.13915C149.145 8.14794 149.062 8.15234 148.979 8.16113C148.97 8.16553 148.96 8.16552 148.952 8.16552C148.859 8.1787 148.772 8.18749 148.689 8.20068C148.684 8.20068 148.68 8.20068 148.68 8.20068C148.122 8.28416 147.621 8.43356 147.173 8.64448C147.173 8.64887 147.168 8.64887 147.164 8.64887C147.099 8.68402 147.031 8.71918 146.966 8.75433C146.953 8.75872 146.943 8.76751 146.929 8.77629C146.873 8.80706 146.819 8.83782 146.764 8.87297C146.74 8.88615 146.722 8.90372 146.704 8.91691C146.658 8.94327 146.616 8.97404 146.57 9.00479C146.537 9.03115 146.505 9.05751 146.474 9.07949C146.445 9.10145 146.417 9.12343 146.391 9.1454C146.339 9.18934 146.293 9.22889 146.247 9.27283C146.238 9.28162 146.228 9.29041 146.22 9.2992C146.164 9.35632 146.109 9.40905 146.054 9.46616C146.044 9.47935 146.036 9.49254 146.026 9.50132C145.98 9.54965 145.933 9.59799 145.892 9.64633C145.879 9.66829 145.86 9.69027 145.847 9.71223C145.809 9.75618 145.777 9.79572 145.744 9.83966C145.736 9.85725 145.726 9.87042 145.713 9.88361C145.676 9.93634 145.64 9.98906 145.607 10.0418C145.602 10.0506 145.598 10.055 145.593 10.0638C145.293 10.5339 145.081 11.0876 144.948 11.7555C144.948 11.7643 144.948 11.7775 144.944 11.7862C144.925 11.8697 144.912 11.9576 144.897 12.0455C144.892 12.0719 144.889 12.0983 144.889 12.1246C144.874 12.1993 144.866 12.274 144.856 12.353C144.851 12.397 144.847 12.441 144.842 12.4893C144.833 12.5508 144.824 12.6079 144.819 12.6739C144.814 12.7398 144.809 12.8057 144.806 12.876C144.801 12.9199 144.801 12.9639 144.796 13.0122C144.791 13.1044 144.786 13.2012 144.783 13.2978C144.783 13.3242 144.778 13.3418 144.778 13.3637C144.773 13.4868 144.773 13.6142 144.773 13.7372V15.4729H142.479C142.336 15.4685 142.193 15.4949 142.064 15.5387C141.65 15.6837 141.354 16.0574 141.354 16.4924C141.354 16.901 141.567 17.248 141.898 17.4503C142.064 17.5513 142.258 17.6128 142.47 17.6215H142.479V17.626H144.773V32.9526C144.768 32.9746 144.773 32.9921 144.773 33.0141C144.773 33.0272 144.773 33.0404 144.773 33.0536C144.786 33.2997 144.892 33.5237 145.063 33.6951L145.068 33.6996C145.091 33.7215 145.119 33.7435 145.141 33.7655C145.146 33.7698 145.151 33.7698 145.156 33.7742C145.174 33.7918 145.197 33.805 145.215 33.8182C145.224 33.827 145.239 33.8357 145.247 33.8401C145.257 33.849 145.265 33.8533 145.28 33.8577C145.459 33.9676 145.671 34.0291 145.897 34.0291C145.933 34.0291 145.971 34.0247 146.003 34.0203C146.22 34.0027 146.417 33.9149 146.578 33.7875L146.583 33.783C146.606 33.7655 146.625 33.7479 146.643 33.726C146.648 33.7215 146.658 33.7171 146.662 33.7127C146.681 33.6951 146.694 33.6776 146.708 33.6644C146.883 33.4622 146.979 33.2118 146.966 32.9526V17.626H149.435V17.6215H149.444C150.099 17.5908 150.578 17.103 150.559 16.4967C150.559 16.4923 150.559 16.4924 150.559 16.4879C150.564 16.466 150.559 16.444 150.559 16.422C150.559 16.4132 150.559 16.4044 150.559 16.4C150.54 16.1671 150.434 15.9562 150.269 15.7936C150.269 15.7936 150.269 15.7936 150.269 15.7892C150.265 15.7892 150.265 15.7892 150.265 15.7892C150.242 15.7672 150.223 15.7497 150.2 15.7321C150.191 15.7234 150.182 15.719 150.177 15.7101C150.159 15.697 150.144 15.6882 150.126 15.675C150.113 15.6662 150.094 15.653 150.08 15.6442C150.071 15.6399 150.058 15.6311 150.048 15.6267C150.025 15.6135 150.002 15.6003 149.978 15.5915C149.975 15.5871 149.965 15.5827 149.96 15.5827C149.933 15.5696 149.905 15.5564 149.877 15.5476C149.872 15.5432 149.869 15.5432 149.859 15.5387C149.831 15.53 149.804 15.5212 149.776 15.5125C149.766 15.5125 149.758 15.508 149.748 15.508C149.721 15.5036 149.698 15.4949 149.67 15.4905C149.657 15.4905 149.642 15.4905 149.629 15.4861C149.61 15.4817 149.587 15.4817 149.564 15.4772C149.546 15.4772 149.527 15.4772 149.514 15.4772C149.499 15.4772 149.486 15.4729 149.472 15.4729C149.458 15.4729 149.44 15.4729 149.435 15.4729H146.966V13.7417C146.966 13.7284 146.966 13.7153 146.966 13.7064C146.971 13.6186 146.971 13.5307 146.975 13.4472C146.975 13.4253 146.975 13.3989 146.979 13.3769C146.979 13.3022 146.984 13.2275 146.989 13.1572C146.989 13.144 146.994 13.1264 146.994 13.1133C146.998 13.0298 147.007 12.9463 147.016 12.8672C147.104 12.0104 147.298 11.4699 147.5 11.1403C147.505 11.1315 147.505 11.1271 147.51 11.1183C147.523 11.0964 147.541 11.0744 147.556 11.0524C147.565 11.0349 147.579 11.0173 147.593 10.9997C147.598 10.9909 147.606 10.9733 147.616 10.9645C147.639 10.9338 147.662 10.9074 147.689 10.8811C147.979 10.5691 148.431 10.3801 149.085 10.3054C149.095 10.3054 149.099 10.301 149.113 10.301C149.149 10.2967 149.191 10.2923 149.227 10.2923C149.246 10.2879 149.269 10.2879 149.287 10.2835C149.325 10.2835 149.357 10.2791 149.393 10.2791C149.421 10.2791 149.444 10.2747 149.476 10.2747C149.509 10.2703 149.541 10.2703 149.574 10.2703C149.605 10.2703 149.638 10.2659 149.67 10.2659C149.703 10.2659 149.735 10.2659 149.766 10.2659C149.813 10.2659 149.859 10.2659 149.905 10.2659H149.91C149.947 10.2659 149.978 10.2615 150.016 10.2571C150.058 10.2615 150.099 10.2659 150.141 10.2659H150.439C151.057 10.2659 151.563 9.78255 151.563 9.18934C151.563 8.59614 151.057 8.11719 150.439 8.11719Z" fill="#02ADE3"/>
<path d="M156.382 8.14843C156.382 8.14843 156.378 8.14404 156.373 8.14404C156.351 8.13526 156.331 8.12647 156.304 8.12207C156.295 8.11767 156.281 8.11328 156.268 8.10888C156.248 8.10449 156.23 8.10009 156.212 8.09571C156.194 8.09131 156.175 8.08252 156.162 8.08252C156.139 8.07813 156.12 8.07373 156.097 8.07373C156.079 8.06934 156.064 8.06934 156.046 8.06494C156.009 8.06055 155.968 8.06055 155.931 8.06055C155.332 8.06055 154.826 8.53951 154.826 9.11074V32.9179C154.826 33.4935 155.332 33.9724 155.931 33.9724C155.968 33.9724 156.009 33.9724 156.046 33.9681C156.051 33.9681 156.061 33.9637 156.064 33.9637C156.097 33.9593 156.129 33.9549 156.162 33.9505C156.165 33.9505 156.175 33.9461 156.185 33.9461C156.212 33.9373 156.24 33.9329 156.268 33.9242C156.272 33.9242 156.276 33.9242 156.281 33.9198C156.706 33.7923 157.019 33.4495 157.064 33.0278C157.069 32.9925 157.074 32.9574 157.074 32.9179V9.11074C157.074 9.07558 157.069 9.04043 157.064 9.00528C157.023 8.6186 156.756 8.29784 156.382 8.14843Z" fill="#02ADE3"/>
<path d="M71.7961 28.3699C71.787 28.3083 71.787 28.2512 71.7777 28.1941C71.7731 28.1501 71.7684 28.1106 71.7639 28.0711C71.7547 28.0227 71.75 27.9787 71.7409 27.9305C71.7316 27.8865 71.7223 27.8426 71.7132 27.7942C71.7086 27.7591 71.6994 27.7195 71.6902 27.6843C71.6764 27.6316 71.6671 27.5833 71.6533 27.5306C71.6441 27.5042 71.6349 27.4735 71.6257 27.4471C71.6119 27.39 71.5934 27.3372 71.5703 27.2845C71.5658 27.2626 71.5565 27.2406 71.5519 27.223C71.5289 27.1615 71.5058 27.1043 71.4783 27.0428C71.4736 27.0341 71.469 27.0208 71.4644 27.0077C71.4322 26.9462 71.4045 26.8802 71.3722 26.8187C71.3677 26.8143 71.3677 26.8099 71.3631 26.8056C71.1005 26.3002 70.7273 25.8784 70.2712 25.5224C70.2712 25.518 70.2712 25.518 70.2666 25.518C70.2021 25.4698 70.1376 25.417 70.0685 25.3687C70.0685 25.3687 70.0639 25.3643 70.0594 25.3599C70.0547 25.3599 70.0501 25.3555 70.0455 25.3511C70.004 25.3248 69.9626 25.294 69.9258 25.2676C69.3591 24.8854 68.7325 24.5821 67.8204 24.2481C67.8066 24.2438 67.7927 24.2394 67.7789 24.235C67.7651 24.2262 67.7466 24.2219 67.7328 24.213C67.2169 24.0285 66.6825 23.8527 66.1342 23.6814C66.1342 23.6814 66.1342 23.6814 66.1296 23.6814C66.1296 23.6814 66.1251 23.6814 66.1251 23.677C66.1158 23.677 66.1067 23.6726 66.0928 23.6681C66.0421 23.6506 65.9868 23.633 65.9131 23.6111C65.8763 23.6022 65.8486 23.5935 65.821 23.5847C65.6367 23.5231 65.4479 23.4661 65.2589 23.4045C65.1253 23.3606 64.9825 23.3166 64.8121 23.264C64.766 23.2507 64.6555 23.2156 64.5633 23.1892C64.5587 23.1892 64.5587 23.1848 64.5542 23.1848C64.4988 23.1672 64.4436 23.1497 64.3836 23.1321C63.923 22.9915 63.5452 22.8685 63.2228 22.7542C62.6976 22.5697 62.2184 22.3719 61.8268 22.1347C61.8176 22.1302 61.8084 22.1258 61.8039 22.1214C61.2694 21.7963 60.9009 21.3964 60.8133 20.8735L60.8087 20.8692C60.8041 20.834 60.7994 20.7944 60.7994 20.7593C60.7949 20.7505 60.7949 20.7461 60.7949 20.7417C60.7903 20.6978 60.7903 20.6583 60.7903 20.6143C60.7903 20.5528 60.7949 20.4913 60.7994 20.4341C60.7994 20.4165 60.7994 20.4034 60.8041 20.3901C60.8087 20.3419 60.8133 20.2979 60.818 20.254C60.8225 20.2408 60.8225 20.2276 60.8271 20.2144C60.8364 20.1661 60.8455 20.1221 60.8548 20.0738C60.8594 20.0694 60.8594 20.0606 60.8641 20.0519C60.8778 19.9991 60.8916 19.9508 60.91 19.9024C60.91 19.898 60.91 19.898 60.91 19.898C61.1496 19.217 61.7162 18.7116 62.3843 18.3557C62.4304 18.3337 62.4764 18.3117 62.5179 18.2898C62.564 18.2678 62.6054 18.2458 62.6469 18.2283C62.716 18.1976 62.7851 18.1667 62.8541 18.1404C62.8957 18.1228 62.9325 18.1052 62.974 18.0921C63.0477 18.0657 63.1213 18.0393 63.1951 18.013C63.2319 17.9998 63.2734 17.9866 63.3148 17.9734C63.3886 17.9515 63.4577 17.9295 63.5313 17.9119C63.5774 17.8987 63.6189 17.8856 63.6649 17.8767C63.7341 17.8592 63.8032 17.8461 63.8677 17.8284C63.9138 17.8197 63.9598 17.8108 64.0059 17.8021C64.0796 17.7888 64.1487 17.7757 64.2132 17.7669C64.2546 17.7626 64.2916 17.7581 64.333 17.7493C64.4113 17.7406 64.4942 17.7317 64.5772 17.7273C64.5956 17.7229 64.614 17.7229 64.6371 17.7186C64.7384 17.7142 64.8398 17.7098 64.9365 17.7098C65.0517 17.7098 65.1669 17.7142 65.2773 17.7186C65.2959 17.7186 65.3143 17.7186 65.328 17.7186C66.1435 17.7669 66.8023 17.9558 67.3459 18.2063C67.3873 18.2238 67.4288 18.2458 67.4702 18.2635C67.4933 18.2766 67.5163 18.2898 67.5394 18.2986C67.5901 18.325 67.6407 18.3513 67.696 18.3821C67.7052 18.3865 67.7144 18.3908 67.7237 18.3952C67.7789 18.4261 67.8341 18.4612 67.8895 18.492C67.8941 18.4963 67.8986 18.4963 67.8986 18.4963C67.9586 18.5315 68.0185 18.5711 68.0783 18.6062C68.0783 18.6106 68.083 18.6106 68.083 18.615C68.1428 18.6501 68.1982 18.6852 68.2534 18.7248C68.2764 18.7424 68.2948 18.7556 68.3179 18.7687C68.4469 18.8611 68.6496 19.0105 68.8339 19.1555C68.857 19.1686 68.8754 19.1817 68.8892 19.195C69.0274 19.3049 69.1564 19.4015 69.2807 19.4894C69.3038 19.507 69.3222 19.5201 69.3361 19.529C69.3406 19.5334 69.3452 19.5377 69.3498 19.5377C69.3636 19.5465 69.3775 19.5554 69.3913 19.5641C69.4236 19.5861 69.4604 19.608 69.4927 19.63C69.5065 19.6388 69.5203 19.6431 69.5342 19.652C69.5664 19.6695 69.5987 19.6871 69.6309 19.7047C69.6448 19.7091 69.6539 19.7135 69.6678 19.7179C69.7046 19.7355 69.7368 19.7486 69.7737 19.7619C69.7829 19.7662 69.7875 19.7662 69.7968 19.7706C69.8382 19.7838 69.8797 19.797 69.9211 19.8014C69.9211 19.8014 69.9211 19.8014 69.9258 19.8058C70.0178 19.819 70.1053 19.8234 70.1975 19.8014C70.2068 19.8014 70.2159 19.797 70.2252 19.797C70.2482 19.7926 70.2759 19.7838 70.2989 19.7794C70.3081 19.775 70.3127 19.7706 70.322 19.7662C70.3311 19.7662 70.3404 19.7619 70.3495 19.7574C70.3865 19.7399 70.4233 19.7223 70.4601 19.7004C70.4694 19.7004 70.474 19.6959 70.4785 19.6915C70.5201 19.6651 70.5569 19.6388 70.5937 19.608C70.5983 19.6036 70.5983 19.6036 70.5983 19.6036C70.6305 19.5772 70.6582 19.5465 70.6859 19.5157C70.7043 19.4938 70.7227 19.4674 70.7366 19.4411C70.7411 19.4366 70.7457 19.4322 70.7457 19.4279C70.9392 19.1202 70.8286 18.7161 70.4878 18.2766C70.4831 18.2678 70.4785 18.2591 70.4694 18.2502C70.4555 18.2327 70.4463 18.2195 70.4325 18.202C69.6493 17.2352 67.8664 16.1763 66.2126 15.8379C66.2034 15.8379 66.1942 15.8379 66.1849 15.8335C66.1158 15.8204 66.0421 15.8071 65.9731 15.794C65.9545 15.794 65.9316 15.7895 65.9131 15.7851C65.8532 15.7764 65.7934 15.7676 65.7335 15.7633C65.7105 15.7588 65.6874 15.7544 65.6644 15.7544C65.609 15.75 65.5492 15.7456 65.494 15.7413C65.4709 15.7369 65.4479 15.7369 65.4295 15.7324C65.3511 15.7324 65.2773 15.728 65.2037 15.728C65.0839 15.728 64.9641 15.728 64.8489 15.7324C64.7844 15.7324 64.7199 15.7369 64.6508 15.7413C64.6047 15.7456 64.5495 15.7456 64.5034 15.7456C64.4113 15.7544 64.3237 15.7588 64.2362 15.7676C64.2132 15.7676 64.1855 15.7676 64.1626 15.772C64.0612 15.7808 63.9598 15.7895 63.863 15.8028C63.8493 15.8028 63.84 15.8028 63.8309 15.8028C63.7249 15.8159 63.6235 15.8291 63.5222 15.8467C63.5175 15.8467 63.5083 15.8467 63.5038 15.8467C63.4023 15.8599 63.301 15.8774 63.2042 15.895C63.1997 15.895 63.1951 15.8994 63.1858 15.8994C62.9786 15.9345 62.7759 15.9785 62.5824 16.0269C62.5777 16.0269 62.5777 16.0313 62.5777 16.0313C62.4811 16.0533 62.3843 16.0795 62.2875 16.1059C62.1954 16.1323 62.1079 16.163 62.0249 16.1894C62.0157 16.1894 62.0111 16.1938 62.0018 16.1938C61.9189 16.2245 61.836 16.2509 61.7531 16.2817C61.7439 16.2861 61.7347 16.2905 61.7301 16.2905C61.6472 16.3213 61.5735 16.352 61.4952 16.3872C61.4859 16.3915 61.4721 16.3915 61.4629 16.4004C61.3938 16.4267 61.3201 16.4619 61.2556 16.4927C61.2371 16.5014 61.2233 16.5058 61.2095 16.5145C61.1404 16.5454 61.0759 16.5762 61.0114 16.6113C60.993 16.62 60.9791 16.6288 60.9607 16.6377C60.9009 16.6684 60.841 16.7035 60.781 16.7387C60.7626 16.7474 60.7442 16.7563 60.7258 16.7694C60.6474 16.8134 60.5738 16.8617 60.5 16.9057C60.4125 16.9672 60.325 17.0243 60.2467 17.0858C60.2374 17.0858 60.2328 17.0902 60.2328 17.0947C59.8412 17.3714 59.505 17.6658 59.2285 18.0086C59.2194 18.0217 59.2055 18.035 59.1963 18.0481C59.164 18.0965 59.1272 18.1404 59.095 18.1843C59.072 18.2195 59.0489 18.2547 59.0259 18.2898C59.0074 18.3162 58.989 18.3426 58.9752 18.369C58.9384 18.4261 58.9061 18.4831 58.8739 18.5447C58.8692 18.5535 58.8646 18.5578 58.86 18.5666C58.6113 19.0367 58.4684 19.5772 58.4132 20.232C58.4132 20.2408 58.4132 20.2495 58.4085 20.2584C58.4039 20.3726 58.3948 20.4869 58.3901 20.6099C58.3901 20.7022 58.3901 20.7944 58.3948 20.8867C58.3948 20.8999 58.3948 20.913 58.3948 20.9263C58.4454 22.1829 59.0443 23.1277 60.1269 23.8615C60.1361 23.8659 60.1453 23.8747 60.1545 23.8791C60.2006 23.9099 60.2467 23.9406 60.2928 23.9714C60.325 23.9934 60.3618 24.0109 60.3941 24.0329C60.4034 24.0416 60.4171 24.0461 60.4264 24.0505C61.4952 24.6964 62.8035 25.0655 63.8954 25.3599C64.4297 25.5093 64.9088 25.6368 65.0517 25.6763C65.0839 25.685 65.1162 25.6938 65.1438 25.707C65.798 25.9135 66.3001 26.0805 66.7148 26.2387C66.7469 26.2474 66.7746 26.2607 66.8068 26.2694C66.8161 26.2738 66.8298 26.2783 66.8437 26.287C67.0787 26.3793 67.309 26.4759 67.5301 26.5814C67.7144 26.6693 67.8849 26.7616 68.0553 26.8583C68.4929 27.1176 68.8293 27.3987 69.0551 27.7063C69.0642 27.7151 69.0688 27.724 69.0735 27.7327C69.0965 27.7591 69.1149 27.7855 69.1287 27.8162C69.1426 27.8337 69.1517 27.847 69.161 27.8645C69.1748 27.8865 69.1886 27.9085 69.1978 27.9305C69.2116 27.9524 69.2209 27.9787 69.2346 28.0007C69.2439 28.0183 69.2531 28.0359 69.2623 28.0535C69.2716 28.0798 69.2854 28.1062 69.2946 28.137C69.2991 28.1501 69.3084 28.1677 69.313 28.1852C69.3222 28.2161 69.3314 28.2468 69.3407 28.2776C69.3452 28.2907 69.3499 28.304 69.3545 28.3215C69.3636 28.3522 69.3729 28.3874 69.3775 28.4181C69.3822 28.4314 69.3867 28.449 69.3867 28.4621C69.3913 28.4972 69.3959 28.5324 69.4006 28.5676C69.4052 28.5807 69.4052 28.594 69.4052 28.6071C69.4097 28.6599 69.4143 28.7081 69.4143 28.7609C69.4143 28.84 69.4097 28.9147 69.4052 28.9894C69.4052 29.0114 69.4006 29.0334 69.4006 29.0554C69.3959 29.1124 69.3867 29.1695 69.3729 29.2266C69.3729 29.2443 69.3683 29.2619 69.3636 29.2794C69.3361 29.4333 69.29 29.5783 69.2301 29.7233C69.2255 29.7276 69.2255 29.732 69.2255 29.7364C69.1932 29.8023 69.161 29.8726 69.1241 29.9341C69.1196 29.9429 69.1196 29.9473 69.1149 29.9517C69.0365 30.0923 68.9445 30.2285 68.8293 30.3559C68.7739 30.4219 68.7141 30.4834 68.6542 30.5449C68.6496 30.5449 68.6496 30.5449 68.6496 30.5493C68.5253 30.6679 68.387 30.7778 68.2442 30.8788C68.2396 30.8833 68.235 30.8833 68.235 30.8877C68.1659 30.9316 68.0967 30.9799 68.0277 31.0194C68.0185 31.0283 68.0092 31.0327 68.0001 31.0371C67.8802 31.1073 67.7512 31.1777 67.6223 31.2392C67.5762 31.2612 67.5301 31.2831 67.4795 31.3051C67.4288 31.3271 67.3736 31.3534 67.3182 31.3754C67.2721 31.3929 67.2307 31.4106 67.1846 31.4281C67.0603 31.4721 66.9404 31.5161 66.8161 31.5556C66.7977 31.5599 66.7793 31.5643 66.7608 31.5731C66.6871 31.5951 66.6133 31.6127 66.5397 31.6347C66.5213 31.6391 66.4983 31.6478 66.4797 31.6522C66.2357 31.7137 65.9961 31.7621 65.7703 31.7972C65.7657 31.7972 65.7611 31.7972 65.7566 31.7972C65.6413 31.8148 65.5308 31.828 65.4248 31.8412C65.3834 31.8456 65.3464 31.85 65.305 31.85C65.2682 31.8543 65.2314 31.8543 65.1899 31.8587C65.1024 31.8631 65.0102 31.8676 64.9273 31.8676C64.7568 31.8676 64.591 31.8631 64.4297 31.8543C64.3652 31.8543 64.3007 31.85 64.2362 31.8456C64.1487 31.8368 64.0565 31.8323 63.9736 31.8236C63.8953 31.8192 63.8125 31.8104 63.7387 31.8016C63.6696 31.7928 63.6051 31.7841 63.5406 31.7752C63.3978 31.7533 63.2642 31.7357 63.1306 31.7093C63.0708 31.6962 63.0061 31.6873 62.9463 31.6742C62.8772 31.6566 62.8082 31.6434 62.739 31.6258C62.6606 31.6083 62.587 31.5907 62.5133 31.5687C62.4625 31.5556 62.4073 31.5423 62.3612 31.5292C62.2369 31.4941 62.1124 31.4544 61.9927 31.4106C61.965 31.4018 61.9374 31.3929 61.9098 31.3842C61.6426 31.2876 61.38 31.1821 61.122 31.059C61.1128 31.0547 61.099 31.0458 61.0851 31.0414C60.9193 30.9623 60.6383 30.8129 60.3711 30.6679C60.348 30.6548 60.3203 30.6416 60.2973 30.6284C60.1085 30.5229 59.9472 30.435 59.7952 30.3648C59.7814 30.3559 59.7721 30.3515 59.763 30.3472C59.7537 30.3428 59.7446 30.3384 59.7399 30.3384C59.6985 30.3208 59.6662 30.3033 59.6294 30.29C59.6156 30.2857 59.6063 30.2813 59.597 30.2769C59.5004 30.2417 59.4128 30.2154 59.3253 30.2065C59.2976 30.2022 59.27 30.2022 59.2424 30.2022C59.2331 30.1978 59.224 30.1978 59.2147 30.1978C59.0397 30.1978 58.8877 30.2549 58.7449 30.3823C58.7126 30.4087 58.6849 30.435 58.6574 30.4658C58.6527 30.4747 58.6435 30.4834 58.6343 30.4922C58.6158 30.5142 58.602 30.5318 58.5882 30.5493C58.579 30.5624 58.5698 30.5757 58.5652 30.5844C58.5513 30.602 58.5375 30.6197 58.5283 30.6372C58.5191 30.6504 58.5145 30.6635 58.5098 30.6768C58.5007 30.6943 58.4914 30.7119 58.4823 30.7294C58.4777 30.7427 58.473 30.7514 58.4684 30.7647C58.4593 30.7866 58.4546 30.8042 58.45 30.8218C58.4454 30.8349 58.4407 30.8437 58.4407 30.8569C58.4362 30.8788 58.4316 30.9008 58.427 30.9228C58.427 30.9316 58.4223 30.9404 58.4223 30.9492C58.4177 30.9799 58.4177 31.0063 58.4177 31.0327C58.4177 31.0371 58.4177 31.0414 58.4177 31.0458C58.4177 31.0809 58.4223 31.1118 58.4316 31.1469C58.4316 31.1513 58.4316 31.1601 58.4316 31.1644C58.4407 31.1908 58.4454 31.2216 58.4546 31.2479C58.4593 31.2612 58.4638 31.2743 58.4684 31.2876C58.4777 31.3094 58.4823 31.3358 58.4961 31.3578C58.5007 31.3711 58.5052 31.3798 58.5098 31.3886C58.5698 31.5204 58.6665 31.6566 58.7909 31.7884C58.9245 31.9291 59.095 32.0697 59.293 32.2147C59.2976 32.2147 59.2976 32.2147 59.2976 32.2191C59.353 32.2542 59.4082 32.2937 59.4681 32.3333C59.482 32.3421 59.4911 32.3508 59.505 32.3552C59.6662 32.4607 59.8367 32.5618 60.0302 32.6672C60.0763 32.6936 60.1222 32.72 60.1683 32.742C60.2144 32.7683 60.2605 32.7902 60.3066 32.8122C60.3618 32.843 60.4264 32.8737 60.4863 32.9045C60.5277 32.9221 60.5645 32.9441 60.606 32.9616C60.6981 33.0056 60.7949 33.0495 60.8916 33.0935C60.9055 33.1022 60.9146 33.1066 60.9285 33.1111C61.0345 33.1594 61.1404 33.2034 61.2464 33.2429C61.2924 33.2605 61.3339 33.278 61.38 33.2956C61.3891 33.3 61.3984 33.3044 61.4077 33.3044C62.3934 33.6735 63.6097 33.9195 64.6831 33.9635C64.7614 33.9679 64.8443 33.9723 64.9227 33.9723H64.9273C64.9641 33.9723 64.9963 33.9723 65.0333 33.9679C65.1162 33.9679 65.1991 33.9679 65.282 33.9679C65.2912 33.9679 65.3004 33.9679 65.3096 33.9635C67.0556 33.9108 68.4884 33.4801 69.7092 32.6277C69.7092 32.6233 69.7092 32.6233 69.7092 32.6233C71.0637 31.6478 71.8099 30.2724 71.8099 28.7565C71.8099 28.6599 71.8054 28.5631 71.8007 28.4709C71.8007 28.4357 71.7961 28.4006 71.7961 28.3699Z" fill="#02ADE3"/>
<path d="M83.0599 15.7632C83.0553 15.7632 83.0508 15.7632 83.0461 15.7632C80.8993 15.7632 78.8723 16.5981 77.4073 18.0745V16.8177C77.4073 16.2377 76.9373 15.7632 76.3431 15.7632C76.3016 15.7632 76.2647 15.7676 76.2279 15.7676C75.9653 15.7939 75.7349 15.9038 75.5645 16.0663C75.5599 16.0663 75.5599 16.0663 75.5554 16.0707C75.5415 16.0883 75.523 16.106 75.5093 16.1235C75.5 16.1278 75.4909 16.1367 75.4862 16.1455C75.4723 16.1586 75.4632 16.1718 75.4539 16.185C75.4448 16.1982 75.4355 16.2113 75.4217 16.2246C75.4171 16.2333 75.4125 16.2421 75.4078 16.251C75.3941 16.273 75.3803 16.2948 75.3664 16.3125C75.3664 16.3168 75.3664 16.3212 75.3619 16.3256C75.348 16.352 75.3342 16.3783 75.3203 16.4047C75.2973 16.4706 75.2742 16.5366 75.2605 16.6025C75.2605 16.6068 75.2605 16.6112 75.2558 16.6112C75.2513 16.6464 75.2467 16.6771 75.242 16.708C75.242 16.7431 75.2374 16.7782 75.2374 16.8177V33.1374L75.2236 33.2077L75.2789 33.2517C75.2789 33.2737 75.2835 33.3043 75.2973 33.3352C75.2973 33.3395 75.3019 33.3483 75.3019 33.3527C75.3112 33.3747 75.3249 33.4011 75.348 33.423C75.4909 33.6823 75.7535 33.88 76.062 33.9678L76.0851 33.9723H76.3431C76.3846 33.9723 76.426 33.9723 76.4675 33.9678C76.4952 33.9635 76.5227 33.9547 76.5504 33.9503C76.5642 33.9503 76.5734 33.9503 76.5872 33.9459C76.6241 33.9371 76.661 33.9283 76.6978 33.9152C76.6978 33.9152 76.6978 33.9152 76.7024 33.9152C76.8959 33.8492 77.0618 33.7349 77.1724 33.5812C77.1769 33.5768 77.1815 33.5724 77.1861 33.568C77.2599 33.4933 77.3013 33.4142 77.3428 33.3043C77.3474 33.2912 77.3519 33.2824 77.3519 33.2737C77.3566 33.2692 77.3566 33.2692 77.3566 33.2648C77.375 33.2121 77.3889 33.1593 77.4027 33.1067L77.4073 33.089V23.2112C77.481 20.2671 80.0056 17.8724 83.0369 17.868C83.0415 17.868 83.0415 17.868 83.0461 17.868C86.1326 17.868 88.6435 20.2627 88.6435 23.2068V32.9177C88.6435 32.9573 88.648 32.9924 88.6526 33.0275C88.6757 33.2824 88.7909 33.5021 88.9613 33.6647C88.9613 33.6647 88.966 33.6647 88.966 33.6691C88.9844 33.6867 89.0028 33.6998 89.0212 33.7174C89.0304 33.7262 89.0351 33.7306 89.0442 33.7349C89.0581 33.7482 89.0719 33.7569 89.0857 33.7657C89.0996 33.7789 89.1134 33.7877 89.1271 33.7966C89.141 33.8009 89.1502 33.8053 89.1594 33.8141C89.1778 33.8273 89.2009 33.8361 89.2193 33.8492C89.2239 33.8492 89.2286 33.8537 89.2377 33.8537C89.2607 33.8668 89.2884 33.88 89.3161 33.8932H89.3207C89.3852 33.9196 89.4542 33.9371 89.5233 33.9503C89.5326 33.9503 89.5372 33.9547 89.5417 33.9547C89.574 33.9591 89.6017 33.9635 89.6339 33.9678C89.6708 33.9723 89.7077 33.9723 89.7491 33.9723C89.7859 33.9723 89.8229 33.9723 89.8597 33.9678C89.8919 33.9635 89.9242 33.9591 89.9518 33.9547C89.9564 33.9547 89.9656 33.9503 89.9703 33.9503C90.0439 33.9371 90.1084 33.9196 90.1775 33.8932C90.2052 33.88 90.2328 33.8668 90.2605 33.8537C90.265 33.8537 90.2697 33.8492 90.2743 33.8492C90.2973 33.8361 90.3157 33.8273 90.3388 33.8141C90.3481 33.8053 90.3572 33.8009 90.3665 33.7966C90.3802 33.7877 90.394 33.7789 90.4079 33.7657C90.4217 33.7569 90.4401 33.7482 90.454 33.7349C90.4585 33.7306 90.4678 33.7262 90.4724 33.7174C90.4908 33.6998 90.5139 33.6867 90.5323 33.6691C90.5323 33.6647 90.5323 33.6647 90.5323 33.6647C90.7073 33.5021 90.8225 33.2824 90.8456 33.0275C90.8502 32.9924 90.8502 32.9573 90.8502 32.9177V23.2068C90.8502 19.107 87.3581 15.772 83.0599 15.7632Z" fill="#02ADE3"/>
<path d="M102.934 15.728C107.937 15.728 112.005 19.819 112.005 24.8501C112.005 29.8814 107.937 33.9723 102.934 33.9723C102.777 33.9723 102.625 33.9679 102.473 33.9591C102.45 33.9591 102.432 33.9591 102.409 33.9548C102.275 33.9504 102.141 33.9371 102.012 33.924C102.008 33.924 102.003 33.924 101.999 33.924C100.022 33.7174 98.1749 32.8562 96.7052 31.4457C96.6454 31.3886 96.5809 31.3314 96.5255 31.2699C96.5209 31.2699 96.5209 31.2656 96.5164 31.2656C96.4841 31.2348 96.4564 31.1997 96.4242 31.1644C96.3551 31.0942 96.286 31.0194 96.2169 30.9448C96.1616 30.8877 96.1109 30.8218 96.0557 30.7602C96.0188 30.7119 95.9773 30.6635 95.9359 30.6152C95.853 30.5185 95.7747 30.4174 95.7009 30.3164C95.6917 30.3033 95.6825 30.29 95.6733 30.2769C94.7749 29.0773 94.1899 27.6931 93.9687 26.2255C93.9457 26.0893 93.9319 25.9531 93.9181 25.8169C93.9135 25.8037 93.9135 25.7862 93.9089 25.7685C93.8951 25.6411 93.8858 25.518 93.8812 25.3907C93.8766 25.3643 93.8766 25.3379 93.8766 25.3072C93.8674 25.1578 93.8628 25.004 93.8628 24.8501C93.8628 24.6964 93.8674 24.5426 93.8766 24.3931C93.8766 24.3624 93.8766 24.3361 93.8812 24.3097C93.8858 24.1822 93.8951 24.0549 93.9089 23.9319C93.9135 23.9142 93.9135 23.8966 93.9181 23.8835C93.9319 23.7472 93.9457 23.6111 93.9687 23.4748C94.1899 22.0072 94.7749 20.623 95.6733 19.4235C95.6779 19.4104 95.6872 19.3971 95.6963 19.3884C95.7747 19.2829 95.853 19.1817 95.9359 19.0807C95.9728 19.0367 96.0143 18.9929 96.0511 18.9445C96.1063 18.8786 96.1616 18.8171 96.2169 18.7512C96.2814 18.6809 96.3459 18.615 96.415 18.5447C96.4473 18.5095 96.4841 18.47 96.5164 18.4348C96.5209 18.4348 96.5209 18.4305 96.5255 18.4305C96.5763 18.3733 96.6361 18.3206 96.6915 18.2678C98.161 16.8529 100.013 15.9829 101.999 15.7764C102.003 15.7764 102.008 15.7764 102.012 15.7764C102.141 15.7633 102.275 15.7544 102.409 15.7456C102.432 15.7456 102.45 15.7413 102.473 15.7413C102.625 15.7324 102.777 15.728 102.934 15.728ZM109.761 24.134C109.761 24.1295 109.761 24.1295 109.761 24.1251C109.6 22.5433 108.918 21.1152 107.9 20.0123C107.854 19.964 107.812 19.9156 107.766 19.8673C107.739 19.8409 107.711 19.8145 107.683 19.7881C107.628 19.7355 107.577 19.6827 107.522 19.63C107.471 19.5816 107.416 19.5377 107.366 19.4938C107.333 19.4674 107.306 19.4366 107.273 19.4104C107.19 19.34 107.108 19.2741 107.025 19.2081C107.025 19.2081 107.02 19.2081 107.02 19.2037C106.057 18.4612 104.901 17.9734 103.657 17.8372C103.643 17.8372 103.634 17.8328 103.625 17.8328C103.528 17.8197 103.436 17.8152 103.339 17.8108C103.316 17.8064 103.298 17.8064 103.279 17.8064C103.164 17.7977 103.049 17.7977 102.934 17.7977C102.819 17.7977 102.703 17.7977 102.588 17.8064C102.57 17.8064 102.551 17.8064 102.528 17.8108C102.432 17.8152 102.339 17.8197 102.243 17.8328C102.234 17.8328 102.224 17.8372 102.21 17.8372C100.967 17.9734 99.8103 18.4612 98.8474 19.2037C98.8474 19.2081 98.8428 19.2081 98.8428 19.2081C98.7599 19.2741 98.677 19.34 98.5941 19.4104C98.5618 19.4366 98.5341 19.463 98.502 19.4894C98.4512 19.5377 98.396 19.5816 98.3453 19.63C98.2946 19.6784 98.244 19.7311 98.1886 19.7838C98.161 19.8101 98.1334 19.8365 98.1011 19.8673C98.0597 19.9112 98.0182 19.9595 97.9721 20.0079C96.9541 21.1108 96.2676 22.5433 96.1063 24.1251C96.1063 24.1295 96.1063 24.1295 96.1063 24.134C96.0972 24.235 96.0879 24.3361 96.0833 24.4415C96.0833 24.4591 96.0787 24.4766 96.0787 24.4943C96.0741 24.6129 96.0695 24.7315 96.0695 24.8501C96.0695 28.7126 99.1838 31.8676 102.934 31.8676C106.684 31.8676 109.798 28.7126 109.798 24.8501C109.798 24.7315 109.793 24.6129 109.789 24.4943C109.789 24.4766 109.784 24.4591 109.784 24.4415C109.779 24.3361 109.77 24.235 109.761 24.134Z" fill="#02ADE3"/>
<path d="M138.664 16.1803C138.656 16.1715 138.651 16.1628 138.642 16.1539C138.531 16.0222 138.384 15.9167 138.218 15.8508C138.218 15.8508 138.218 15.8508 138.213 15.8508C138.195 15.8376 138.172 15.8332 138.153 15.8244C138.144 15.8244 138.135 15.82 138.121 15.8157C137.974 15.7673 137.812 15.7585 137.656 15.7804H137.651C137.333 15.8288 137.029 16.0133 136.859 16.2858C136.859 16.2858 136.859 16.2858 136.854 16.2858C136.831 16.3297 136.804 16.3737 136.786 16.4176L136.781 16.4219V16.4264L131.501 30.2107L127.355 20.7985C127.313 20.7107 127.258 20.6315 127.194 20.5568C126.968 20.3064 126.622 20.1482 126.267 20.1482C126.212 20.1482 126.161 20.1482 126.106 20.1614C126.101 20.1614 126.098 20.1614 126.088 20.1614C125.72 20.2229 125.374 20.4689 125.218 20.7985C125.218 20.8029 125.218 20.8029 125.218 20.8029L121.071 30.2151L119.062 25.008L115.755 16.4264C115.736 16.3781 115.718 16.3385 115.695 16.2946C115.69 16.2902 115.69 16.2902 115.686 16.2858C115.584 16.1057 115.423 15.965 115.23 15.8772C115.23 15.8772 115.225 15.8772 115.225 15.8728C115.128 15.8332 115.027 15.8024 114.921 15.7848C114.912 15.7848 114.907 15.7848 114.898 15.7804C114.847 15.776 114.792 15.7717 114.741 15.7717H114.737C114.723 15.7717 114.714 15.7717 114.704 15.7717C114.681 15.7717 114.658 15.7717 114.635 15.776C114.622 15.776 114.603 15.7804 114.589 15.7804C114.566 15.7848 114.548 15.7848 114.529 15.7893C114.515 15.7937 114.502 15.7937 114.488 15.798C114.465 15.8024 114.442 15.8068 114.419 15.8157C114.41 15.82 114.4 15.82 114.391 15.8244C114.368 15.8332 114.345 15.8376 114.322 15.8508C114.322 15.8508 114.322 15.8508 114.318 15.8508C114.129 15.9298 113.977 16.0661 113.866 16.2243C113.861 16.2331 113.857 16.2374 113.852 16.2462C113.848 16.255 113.843 16.2638 113.838 16.2726C113.755 16.4044 113.705 16.5582 113.686 16.7121C113.668 16.8746 113.691 17.046 113.76 17.2042L117.588 27.0161L120.044 33.3085C120.044 33.3085 120.044 33.3085 120.044 33.3129C120.145 33.5501 120.293 33.7128 120.495 33.8006C120.5 33.805 120.509 33.8094 120.514 33.8138C120.518 33.8182 120.523 33.8225 120.532 33.8269C120.532 33.8314 120.537 33.8314 120.541 33.8358C120.551 33.8402 120.555 33.8445 120.564 33.8533C120.569 33.8533 120.569 33.8533 120.574 33.8533C120.61 33.8753 120.656 33.8929 120.716 33.8973C120.721 33.8973 120.726 33.9017 120.73 33.9017C120.749 33.906 120.767 33.9149 120.785 33.9193C120.795 33.9193 120.804 33.9237 120.813 33.9237C120.928 33.9588 121.002 33.9719 121.094 33.9719C121.145 33.9719 121.191 33.9675 121.242 33.9588C121.278 33.9544 121.32 33.9456 121.357 33.9324C121.366 33.928 121.375 33.928 121.384 33.9237C121.421 33.9149 121.458 33.9017 121.495 33.884C121.509 33.8797 121.523 33.8753 121.536 33.8665C121.559 33.8533 121.587 33.8402 121.615 33.8269C121.633 33.8138 121.656 33.8006 121.679 33.7874C121.693 33.7786 121.707 33.7654 121.721 33.7567C121.753 33.7347 121.781 33.7128 121.813 33.6864C121.817 33.6819 121.822 33.6775 121.827 33.6688C121.859 33.638 121.891 33.6073 121.924 33.5721C121.924 33.5678 121.928 33.5633 121.932 33.5589C121.96 33.5238 121.988 33.4843 122.011 33.4447C122.035 33.4008 122.056 33.3524 122.076 33.304L122.08 33.2909L122.094 33.2733L122.108 33.2425L126.267 23.7689L130.465 33.2778C130.496 33.3744 130.548 33.4623 130.617 33.5458C130.626 33.5589 130.635 33.5678 130.644 33.5809C130.667 33.6073 130.69 33.6336 130.718 33.66C130.732 33.6688 130.745 33.6819 130.76 33.6908C130.783 33.7128 130.81 33.7347 130.838 33.7567C130.851 33.7654 130.861 33.7743 130.874 33.7787C130.907 33.8006 130.939 33.8225 130.972 33.8402C130.98 33.8445 130.99 33.8489 130.999 33.8533C131.036 33.8709 131.068 33.8885 131.11 33.9017C131.119 33.906 131.128 33.9104 131.141 33.9104C131.174 33.9237 131.206 33.9368 131.244 33.9456C131.289 33.9544 131.335 33.9632 131.377 33.9719H131.515C131.57 33.9719 131.62 33.9675 131.672 33.9588C131.685 33.9588 131.695 33.9588 131.708 33.9544C131.754 33.9456 131.796 33.9368 131.837 33.9237C131.851 33.9193 131.86 33.9149 131.87 33.9104C131.915 33.8973 131.962 33.8753 132.003 33.8533C132.008 33.8533 132.013 33.8489 132.017 33.8489C132.068 33.8182 132.119 33.7874 132.16 33.7567C132.344 33.6249 132.477 33.4535 132.57 33.2425V33.2381L135.163 26.5767L138.812 17.2042C138.954 16.8746 138.9 16.5143 138.702 16.2331C138.692 16.2154 138.679 16.1979 138.664 16.1803Z" fill="#02ADE3"/>
<path d="M197.251 16.4752C197.251 16.4577 197.246 16.4357 197.241 16.4181C197.241 16.4049 197.236 16.3917 197.232 16.3786C197.227 16.3566 197.223 16.3346 197.218 16.3171C197.214 16.3038 197.209 16.2907 197.204 16.2818C197.199 16.2556 197.191 16.2336 197.176 16.2116C197.176 16.2028 197.173 16.1984 197.168 16.1896C197.153 16.1588 197.14 16.1324 197.121 16.1062C197.121 16.1017 197.121 16.1017 197.121 16.1017C197.067 16.0094 196.997 15.9303 196.919 15.8601C196.914 15.8557 196.914 15.8557 196.914 15.8557C196.909 15.8513 196.909 15.8513 196.909 15.8513C196.518 15.4778 195.966 15.4294 195.532 15.7194C195.518 15.7282 195.509 15.737 195.495 15.7414C195.477 15.7546 195.459 15.7678 195.44 15.7809C195.412 15.8073 195.384 15.8293 195.357 15.8557C195.357 15.8557 195.352 15.8557 195.352 15.8601L184.559 25.8962V9.11074C184.559 9.07558 184.559 9.04043 184.554 9.00528C184.512 8.6186 184.24 8.29784 183.872 8.14843C183.867 8.14843 183.867 8.14404 183.862 8.14404C183.839 8.13526 183.817 8.12647 183.794 8.12207C183.784 8.11767 183.771 8.11328 183.756 8.10888C183.738 8.10449 183.72 8.10009 183.697 8.09571C183.683 8.09131 183.665 8.08692 183.647 8.08252C183.628 8.07813 183.605 8.07373 183.587 8.07373C183.567 8.06934 183.554 8.06934 183.536 8.06494C183.494 8.06055 183.458 8.06055 183.421 8.06055C182.816 8.06055 182.315 8.53951 182.315 9.11074V32.9179C182.315 33.4935 182.816 33.9724 183.421 33.9724C183.458 33.9724 183.499 33.9724 183.536 33.9681C183.541 33.9681 183.546 33.9637 183.554 33.9637C183.587 33.9593 183.619 33.9593 183.647 33.9505C183.655 33.9505 183.665 33.9461 183.674 33.9461C183.702 33.9373 183.73 33.9329 183.756 33.9242C183.761 33.9242 183.766 33.9198 183.771 33.9198C184.194 33.7923 184.507 33.4452 184.554 33.0278C184.559 32.9925 184.559 32.9574 184.559 32.9179V28.9017L188.193 25.4392L195.256 33.5682C195.301 33.6385 195.353 33.7 195.417 33.7484C195.431 33.7615 195.44 33.7703 195.454 33.7792C195.472 33.7923 195.49 33.8055 195.509 33.8143C195.532 33.8318 195.555 33.8407 195.578 33.8538C195.588 33.8582 195.601 33.867 195.611 33.8714C195.643 33.8846 195.671 33.8934 195.702 33.9065C195.712 33.9109 195.721 33.9109 195.726 33.9153C195.762 33.9242 195.795 33.9329 195.832 33.9417C195.836 33.9417 195.845 33.9461 195.855 33.9461C195.891 33.9549 195.923 33.9593 195.966 33.9637C195.974 33.9637 195.984 33.9637 195.993 33.9681C196.039 33.9681 196.085 33.9724 196.135 33.9724C196.21 33.9724 196.278 33.9681 196.342 33.9593C196.347 33.9593 196.347 33.9593 196.347 33.9593C196.477 33.9417 196.596 33.9022 196.707 33.8494C196.712 33.8494 196.712 33.845 196.712 33.845C196.762 33.8187 196.813 33.7879 196.863 33.7528L196.878 33.7395C197.297 33.3398 197.362 32.7949 197.057 32.3423C197.029 32.3027 197.002 32.2631 196.969 32.2236L189.797 23.9144L196.919 17.3496C197.108 17.1651 197.223 16.941 197.251 16.6993C197.251 16.6949 197.251 16.6906 197.256 16.6862C197.256 16.6642 197.256 16.6378 197.256 16.6158C197.256 16.6027 197.259 16.5895 197.259 16.5807C197.259 16.5718 197.259 16.5675 197.259 16.5631C197.259 16.5456 197.256 16.5323 197.256 16.5148C197.256 16.5016 197.251 16.4884 197.251 16.4752Z" fill="#02ADE3"/>
</svg>
