<svg width="169" height="50" viewBox="0 0 169 50" fill="none" xmlns="http://www.w3.org/2000/svg">
<path d="M0 9.27637H5.89286V22.5693H18.3213V9.27637H24.2217V41.9065H18.3213V28.3343H5.89286V41.9065H0V9.27637ZM42.8903 31.2783C42.8903 34.0099 40.6984 36.2326 38.0089 36.2326C35.3182 36.2326 33.1277 34.0099 33.1277 31.2783V17.2299H27.5392V31.2783C27.5392 37.1392 32.2361 41.9065 38.0089 41.9065C43.7803 41.9065 48.4768 37.1392 48.4768 31.2783V17.2299H42.8903V31.2783ZM64.0779 17.3946C61.3057 17.3946 59.3706 18.2113 57.502 20.0738V9.27637H51.8953V29.2868C51.8953 36.7769 57.229 41.9065 63.2212 41.9065C69.8828 41.9065 75.7196 36.6855 75.7196 29.6508C75.7196 22.7054 70.3375 17.3946 64.0779 17.3946ZM64.2171 36.6401C60.4181 36.6401 57.5128 33.4187 57.5128 29.6508C57.5128 25.8823 60.4181 22.6598 64.2171 22.6598C67.4361 22.6598 70.3431 25.8823 70.3431 29.6508C70.3431 33.4187 67.4361 36.6401 64.2171 36.6401ZM85.1363 18.8287C85.1363 15.9671 87.0142 15.0598 89.0701 15.0598C90.7251 15.0598 92.9153 16.3307 94.3446 17.8744L98.0096 13.5171C96.1779 11.0209 92.468 9.29547 89.4279 9.29547C83.3471 9.29547 78.9658 12.8816 78.9658 18.8287C78.9658 29.8587 92.3337 26.3623 92.3337 32.5372C92.3337 34.4416 90.5013 36.1227 88.4012 36.1227C85.0917 36.1227 84.0182 34.4885 82.4987 32.7631L78.4297 37.0293C81.0242 40.2525 84.242 41.8874 88.0873 41.8874C93.8541 41.8874 98.5038 38.2559 98.5038 32.5812C98.5038 20.3258 85.1363 24.1392 85.1363 18.8287ZM113.264 17.0748C107.272 17.0748 101.938 22.2014 101.938 29.6931V49.7551H107.544V38.9065C109.413 40.7676 111.347 41.5857 114.12 41.5857C120.379 41.5857 125.763 36.2756 125.763 29.3301C125.763 22.2944 119.924 17.0748 113.264 17.0748ZM114.26 36.3212C110.461 36.3212 107.556 33.0952 107.556 29.3301C107.556 25.5616 110.461 22.3391 114.26 22.3391C117.479 22.3391 120.385 25.5616 120.385 29.3301C120.385 33.0952 117.479 36.3212 114.26 36.3212ZM167.031 36.6401C163.724 36.6401 162.785 35.1883 162.785 32.9632V23.1137H167.926V18.1212H162.785V11.5387L157.11 14.1254V34.1889C157.11 39.3188 160.596 41.9065 165.377 41.9065C166.092 41.9065 167.077 41.8596 167.614 41.7251L169 36.551C168.374 36.5949 167.659 36.6401 167.031 36.6401Z" fill="#45535E"/>
<path d="M152.246 23.4036C151.171 21.526 149.659 20.0209 147.77 18.8877C146.356 18.0528 144.893 17.523 143.242 17.2955V11.3296C144.893 10.6181 145.917 9.04318 145.917 7.20585C145.917 4.70157 143.939 2.6722 141.474 2.6722C139.008 2.6722 136.995 4.70157 136.995 7.20585C136.995 9.04318 137.96 10.6181 139.611 11.3296V17.2981C138.29 17.4918 136.922 17.9098 135.67 18.5519C133.117 16.5825 124.742 10.1217 119.844 6.34819C119.96 5.92287 120.05 5.4845 120.05 5.02198C120.05 2.24823 117.837 0 115.104 0C112.371 0 110.16 2.24823 110.16 5.02198C110.16 7.7954 112.373 10.0443 115.106 10.0443C116.038 10.0443 116.9 9.76746 117.644 9.31232L118.679 10.1086L132.885 20.5011C132.134 21.2014 131.434 21.9976 130.874 22.8911C129.741 24.7127 129.048 26.7169 129.048 28.9032V29.3593C129.048 30.894 129.334 32.343 129.825 33.704C130.254 34.8924 130.885 35.9729 131.665 36.95L126.951 41.7487C126.267 41.4906 125.525 41.4375 124.813 41.5961C124.1 41.7547 123.449 42.1181 122.934 42.643C122.578 43.0026 122.296 43.4305 122.104 43.9016C121.912 44.3727 121.815 44.878 121.816 45.3878C121.816 46.4245 122.214 47.3988 122.936 48.1318C123.29 48.4935 123.712 48.7803 124.175 48.9756C124.639 49.1708 125.136 49.2707 125.639 49.2693C126.141 49.2706 126.639 49.1707 127.103 48.9755C127.567 48.7802 127.988 48.4934 128.343 48.1318C128.699 47.7722 128.981 47.3444 129.172 46.8735C129.365 46.4025 129.463 45.8976 129.462 45.3878C129.462 44.9867 129.4 44.5952 129.285 44.2232L134.159 39.2747C134.828 39.7432 135.548 40.1376 136.324 40.4778C137.854 41.1494 139.543 41.5588 141.392 41.5588H141.73C143.773 41.5588 145.701 41.0714 147.513 40.0747C149.422 39.0213 150.916 37.5807 152.045 35.7417C153.18 33.8977 153.805 31.8602 153.805 29.6188V29.5068C153.805 27.3018 153.302 25.2674 152.246 23.4036ZM146.292 33.7844C144.97 35.2768 143.449 36.1962 141.73 36.1962H141.446C140.465 36.1962 139.505 35.9207 138.565 35.4197C137.505 34.868 136.7 34.081 136.041 33.0847C135.359 32.1066 134.99 31.0389 134.99 29.9067V29.5628C134.99 28.4498 135.2 27.3943 135.73 26.3976C136.297 25.308 137.063 24.4607 138.08 23.787C139.079 23.1181 140.147 22.79 141.336 22.79H141.446C142.525 22.79 143.545 23.0058 144.509 23.5061C145.49 24.0398 146.292 24.7687 146.914 25.7276C147.517 26.6868 147.876 27.7215 147.992 28.8485C148.011 29.0828 148.02 29.3228 148.02 29.552C148.02 31.0817 147.443 32.4984 146.292 33.7844Z" fill="#F8761F"/>
</svg>
