<svg width="162" height="50" viewBox="0 0 162 50" fill="none" xmlns="http://www.w3.org/2000/svg">
<g clip-path="url(#clip0_24_7653)">
<path fill-rule="evenodd" clip-rule="evenodd" d="M15.5945 32.9745L15.5028 33.0423L15.4056 33.1012C13.6951 34.2767 11.1422 35.0623 9.04742 35.0623H9.04407C5.97389 34.9967 4.85553 33.9167 4.79408 30.9767C4.86 27.5912 5.99959 26.5478 9.83396 26.3067L15.1274 26.06L15.3643 26.05L15.5945 26.0434V32.9745ZM25.234 34.6423C25.0642 34.0711 24.5838 33.7223 24.0084 33.7223C23.8531 33.73 23.7101 33.7389 23.5246 33.7823C22.7035 33.9778 22.2476 34.0389 21.6186 34.0812C20.4209 34.14 20.2087 33.6745 20.1305 32.3356V14.0123C20.0947 13.5889 19.8724 13.1656 19.5439 12.91L19.4244 12.8334C19.3864 12.8034 19.3473 12.7645 19.297 12.7389C18.2971 12.1545 16.6335 11.6834 15.2202 11.3278L15.1152 11.2978C13.4382 10.8945 11.5824 10.6812 9.74793 10.6812C8.66979 10.6812 7.69667 10.7634 7.30676 10.8112C6.50123 10.8889 4.32484 11.25 3.59416 11.4978C3.38189 11.5667 2.69479 11.8912 2.67132 12.5345C2.68361 12.8689 3.06348 13.9412 3.06348 13.9412C3.31039 14.6912 3.57294 14.8734 4.04888 14.97C4.4321 15.0134 5.25774 14.8412 5.80854 14.7467C7.22743 14.4856 8.15474 14.3867 8.82062 14.3789C9.67978 14.3667 10.759 14.3545 12.026 14.5367C14.4325 14.9045 15.3598 15.6389 15.3598 15.6389V22.7545L15.1476 22.7623L10.0082 22.89C3.13498 23.1056 -0.0458076 25.8167 -7.18515e-07 31.2812C-0.0100559 33.7623 0.772013 35.7523 2.2613 37.0389C3.64444 38.2478 5.67335 38.8845 8.11452 38.8845H8.12458C10.9277 38.8845 13.3387 38.0256 15.6883 36.1756L15.9118 36.0045L16.0268 36.2612C16.5922 37.5 17.5563 38.3012 18.8791 38.6367C19.4724 38.8 20.1506 38.8845 21.0164 38.8845C21.2388 38.8845 21.4622 38.8712 21.6622 38.8489C22.4465 38.7423 23.4889 38.6 24.6508 38.0556C25.2876 37.7545 25.739 37.3812 25.7055 36.7123C25.6798 36.1223 25.234 34.6423 25.234 34.6423Z" fill="#02ADE3"/>
<path fill-rule="evenodd" clip-rule="evenodd" d="M101.199 38.7632H98.6982C98.3139 38.7632 97.9921 38.6365 97.7933 38.4176C97.5922 38.1843 97.5028 37.8676 97.5028 37.4365V13.8921C97.4849 13.4499 97.6 13.1276 97.8268 12.9121C98.0256 12.7121 98.3206 12.6254 98.7183 12.6254H100.979C101.4 12.6254 101.685 12.7065 101.906 12.8921C102.133 13.0821 102.253 13.3932 102.245 13.7687L102.271 14.3921L102.295 14.9221L102.648 14.5365C103.708 13.401 105.526 12.0454 108.142 12.0454C108.512 12.0454 109.154 12.101 109.718 12.2043C110.187 12.291 110.364 12.7643 110.331 13.011C110.331 13.1376 110.326 13.2343 110.311 13.3221L109.939 15.6976C109.913 16.1099 109.532 16.4154 109.213 16.4154C108.922 16.4043 108.759 16.381 108.576 16.3487C108.303 16.3076 107.997 16.2499 107.457 16.2499C105.711 16.2499 103.759 17.4021 102.457 19.1899L102.413 19.2421V37.4365C102.413 37.8432 102.315 38.1621 102.111 38.3921C101.911 38.6254 101.585 38.7632 101.199 38.7632Z" fill="#02ADE3"/>
<path fill-rule="evenodd" clip-rule="evenodd" d="M85.7755 22.8284H74.2958C74.4533 17.0673 76.6632 14.7128 80.2943 14.7128C83.8292 14.7128 85.8291 16.6428 85.8291 21.1584C85.8291 21.5128 85.8291 22.4106 85.7755 22.8284ZM80.4015 11.0439C73.9763 11.0439 69.1353 15.4906 69.1353 25.6039C69.1353 34.8751 73.5037 39.4284 81.7187 39.4284C83.0192 39.4284 84.5655 39.2773 86.0436 38.9773C86.2749 38.9339 86.5128 38.8706 86.7441 38.8206C87.677 38.5639 88.62 38.1784 88.9663 38.0173C89.4813 37.8217 89.8791 37.4273 89.9093 36.9317C89.7696 36.1939 89.5808 35.4428 89.364 34.7173C89.1674 34.2306 88.7239 33.9239 88.268 33.9517C88.1127 33.9517 85.9039 34.4284 85.7755 34.4673C84.5096 34.7917 83.1198 34.9806 81.8238 34.9806C75.9795 34.9806 74.2399 32.2028 74.2399 26.4906V26.0706H89.5473C90.0009 26.0295 90.3528 25.6873 90.4165 25.2362C90.4165 25.1751 90.4221 25.1073 90.4321 25.0384C90.4824 24.0395 90.5159 22.9906 90.5159 22.1439C90.5159 15.1262 87.0882 11.0439 80.4015 11.0439Z" fill="#02ADE3"/>
<path fill-rule="evenodd" clip-rule="evenodd" d="M116.633 49.3643H116.468C115.565 49.3643 114.817 49.2998 114.088 49.1554C113.639 49.0776 113.474 48.4976 113.562 47.7042C113.562 47.7042 113.617 46.8576 113.744 46.2598C113.864 45.6509 114.154 45.3743 114.477 45.3743H114.569L114.817 45.3854C114.964 45.3954 115.173 45.4231 115.367 45.4387C115.813 45.4865 116.267 45.5342 116.621 45.5342C119.605 45.5009 121.215 44.4165 122.357 41.6665L123.733 38.3243L123.863 37.9698L123.912 37.822L123.863 37.6631L114.671 13.4898C114.631 13.3831 114.618 13.2743 114.618 13.1754C114.618 13.082 114.631 12.9098 114.757 12.7643C114.852 12.6631 115.015 12.5898 115.193 12.5898H118.678C119.184 12.5898 119.562 12.8554 119.673 13.2443L125.725 30.5609L126.129 31.7198L126.544 30.5609L132.801 13.3731C132.933 12.892 133.325 12.582 133.782 12.582H133.807L133.901 12.5898H136.792C137.025 12.5898 137.198 12.6354 137.319 12.732C137.439 12.8331 137.487 12.9876 137.479 13.102C137.479 13.2676 137.439 13.4065 137.389 13.5409L127.107 40.9798C124.867 47.0931 122.028 49.3643 116.633 49.3643Z" fill="#02ADE3"/>
<path fill-rule="evenodd" clip-rule="evenodd" d="M158.075 38.6964C157.476 38.6964 156.981 38.4175 156.701 37.9052L151.207 29.4708L151.013 29.1886L150.827 29.4708L145.341 37.8975C145.05 38.4175 144.555 38.6964 143.95 38.6964L143.86 38.6852H140.924C140.684 38.6852 140.512 38.6286 140.366 38.5219C140.221 38.403 140.12 38.1941 140.137 37.9963C140.137 37.7541 140.221 37.4975 140.366 37.2875L148.315 25.2919L148.406 25.1697L148.315 25.0463L140.99 13.8197C140.861 13.6108 140.797 13.4341 140.801 13.2675C140.801 12.7952 141.237 12.5108 141.654 12.5063H144.41C145.004 12.5063 145.47 12.7619 145.675 13.1652L150.832 20.9463L151.013 21.2141L151.189 20.9463L156.319 13.213C156.548 12.7641 157.019 12.5063 157.557 12.5063H160.381C160.789 12.5063 161.235 12.7952 161.235 13.2641C161.235 13.4341 161.171 13.6108 161.041 13.7997L153.717 25.0463L153.631 25.1697L153.717 25.2919L161.642 37.2619C161.813 37.4975 161.897 37.7441 161.897 37.9852C161.913 38.1941 161.816 38.403 161.675 38.5219C161.525 38.6286 161.35 38.6852 161.102 38.6852H158.185L158.075 38.6964Z" fill="#02ADE3"/>
<path fill-rule="evenodd" clip-rule="evenodd" d="M39.0613 38.7654C37.7642 38.7654 36.514 38.5577 35.428 38.1643C34.4337 37.8199 33.646 37.3254 33.0863 36.7121C31.5244 35.0043 31.387 32.8777 31.3657 30.0688V3.23877C31.3657 3.08099 31.435 2.92099 31.5367 2.8021C32.4617 1.77321 33.6572 1.00544 35.0917 0.520992C35.1811 0.48877 35.2414 0.48877 35.3129 0.48877C35.428 0.48877 35.7308 0.50877 35.9788 0.74877C36.2 0.977658 36.305 1.28877 36.3017 1.69766V30.2399C36.3117 31.7254 36.6693 32.9054 37.3262 33.6421C37.8871 34.2565 38.7943 34.5677 39.9484 34.5677C40.2288 34.5677 40.545 34.5454 40.9226 34.4999C41.7628 34.3799 42.5717 34.1454 43.1035 33.9777C43.2487 33.9165 43.3794 33.8888 43.5336 33.8888C43.9905 33.8888 44.3872 34.211 44.5413 34.6877C44.5413 34.6877 44.948 36.0577 44.9994 36.7043C45.0329 37.2621 44.5302 37.6377 44.0665 37.7999C43.4766 38.0354 41.3907 38.7654 39.0613 38.7654Z" fill="#02ADE3"/>
<path fill-rule="evenodd" clip-rule="evenodd" d="M64.2693 34.6721C64.1174 34.1933 63.7197 33.8733 63.2504 33.8733C63.1052 33.8733 62.9677 33.9022 62.8247 33.9577C62.0505 34.2055 60.883 34.5244 59.7847 34.5455L59.6674 34.5633C58.4831 34.5633 57.5927 34.241 57.0251 33.6199C56.49 33.0355 56.1057 32.0844 56.0744 30.3033C56.0744 30.2644 56.0744 30.2366 56.0744 30.2044L56.223 16.0755H62.0349C62.3454 16.0755 62.6035 16.0399 62.8437 15.8577C63.1331 15.631 63.1789 15.2588 63.1722 15.0533V13.2744C63.1789 12.8922 63.0649 12.6155 62.8482 12.4399C62.5901 12.2555 62.3052 12.2399 62.0862 12.2399H56.223V3.44326C56.223 3.02771 56.1202 2.72326 55.9034 2.49771C55.6621 2.26215 55.3482 2.23438 55.2387 2.23438C55.1649 2.23438 55.1013 2.23437 54.9918 2.26771C54.6521 2.39104 53.7382 2.70882 52.7383 3.40771C52.3919 3.65882 52.04 3.97104 51.687 4.32549C51.5886 4.44771 51.5328 4.59882 51.5328 4.74882L51.3931 12.1488H48.3911C48.0984 12.1488 47.78 12.2233 47.5521 12.461C47.3264 12.7066 47.2705 13.011 47.2705 13.3222V14.9466C47.275 15.2966 47.2593 15.601 47.5319 15.8977C47.8403 16.1799 48.142 16.1555 48.4905 16.1688H51.3116L51.0434 29.4588L51.049 30.0288C51.0591 32.8455 51.1965 34.981 52.764 36.7066C53.9695 38.0077 56.1615 38.7555 58.768 38.7655C61.1254 38.7655 62.9577 38.1433 63.7956 37.7999C64.2436 37.6121 64.7498 37.251 64.7285 36.6944C64.7285 36.1644 64.2693 34.6721 64.2693 34.6721Z" fill="#02ADE3"/>
</g>
<defs>
<clipPath id="clip0_24_7653">
<rect width="162" height="50" fill="white"/>
</clipPath>
</defs>
</svg>
