<svg width="175" height="50" viewBox="0 0 175 50" fill="none" xmlns="http://www.w3.org/2000/svg">
<g clip-path="url(#clip0_24_7666)">
<path d="M72.1283 29.061L79.6779 49.1232H75.8351L74.0668 44.1077H66.1771L64.4768 49.0886H60.668L68.2175 29.0264L72.1283 29.061ZM70.0539 32.7621L67.0953 41.2021H73.1145L70.1559 32.7621H70.0539Z" fill="black"/>
<path d="M81.3449 34.7334H92.8052V36.0824L85.2897 46.4249H92.8732V49.1229H80.8008V47.4971L88.2143 37.3969H81.3449V34.7334Z" fill="black"/>
<path d="M107.224 34.7338V49.1232H103.823V47.2207H103.755C103.313 47.878 102.667 48.3968 101.953 48.7427C101.171 49.1232 100.32 49.2961 99.4364 49.2961C98.7226 49.3307 98.0422 49.2616 97.3961 48.9848C96.75 48.7427 96.1378 48.3622 95.6618 47.8434C94.7776 46.9094 94.3354 45.4221 94.3354 43.4159V34.6992H97.8042V43.07C97.7361 44.0385 97.9743 45.007 98.5181 45.8026C98.7905 46.1139 99.1306 46.356 99.5042 46.5289C99.8788 46.7019 100.287 46.7365 100.695 46.7365C101.137 46.7711 101.545 46.6673 101.953 46.4944C102.361 46.3214 102.701 46.0447 102.973 45.7334C103.585 44.9724 103.891 44.0385 103.858 43.1045V34.7684H107.224V34.7338Z" fill="black"/>
<path d="M117.426 34.4917C117.664 34.4917 117.902 34.4916 118.141 34.5608C118.311 34.5954 118.514 34.63 118.684 34.6992V38.1236C118.447 37.9507 118.174 37.8469 117.902 37.7431C117.494 37.6048 117.086 37.5702 116.678 37.5702C116.27 37.5702 115.862 37.6739 115.522 37.8469C115.148 38.0198 114.841 38.2966 114.603 38.6079C113.958 39.5418 113.652 40.6833 113.753 41.8593V49.1232H110.387V34.7338H113.787V36.9821H113.855C114.128 36.2557 114.603 35.5985 115.249 35.1489C115.827 34.6992 116.61 34.4917 117.426 34.4917Z" fill="black"/>
<path d="M130.859 45.4911V48.2929C130.178 48.708 129.43 48.9847 128.649 49.1577C127.696 49.3652 126.744 49.5036 125.758 49.5036C124.805 49.5727 123.887 49.3998 123.003 49.0885C122.119 48.7426 121.337 48.2237 120.657 47.5665C119.433 46.2867 118.82 44.4534 118.82 42.1359C118.752 40.1297 119.433 38.158 120.759 36.6361C121.371 35.9443 122.119 35.3909 122.969 35.0104C123.819 34.6299 124.738 34.4569 125.69 34.4915C126.54 34.4569 127.39 34.5953 128.206 34.9066C128.989 35.2179 129.737 35.7022 130.315 36.3248C131.403 37.5354 131.981 39.2303 131.981 41.3749V43.0352H122.153C122.29 44.488 122.765 45.4911 123.547 46.0446C124.432 46.6326 125.486 46.9439 126.574 46.9093C127.356 46.9093 128.138 46.8055 128.886 46.5288C129.6 46.2521 130.247 45.9062 130.859 45.4911ZM128.682 40.4756C128.751 39.5416 128.478 38.6423 127.9 37.9159C127.628 37.6046 127.288 37.3971 126.914 37.2241C126.54 37.0858 126.132 37.0166 125.724 37.0166C124.908 37.0166 124.125 37.3279 123.547 37.8813C122.868 38.5731 122.391 39.4725 122.255 40.441H128.682V40.4756Z" fill="black"/>
<path d="M83.5212 1.45804V21.5202H80.0525V5.78178H79.9845L73.7612 21.5202H71.4487L65.0894 5.78178H65.0554V21.5202H61.8247V1.45804H66.8238L72.571 16.2971H72.6729L78.7263 1.42345L83.5212 1.45804ZM86.4458 2.98C86.4458 2.70328 86.4798 2.46115 86.5818 2.21902C86.6839 1.97689 86.8539 1.76935 87.0239 1.5964C87.432 1.21591 87.9421 1.00837 88.4862 1.00837C89.0303 1.00837 89.5405 1.21591 89.9485 1.5964C90.1186 1.76935 90.2887 1.97689 90.3906 2.21902C90.4927 2.46115 90.5267 2.70328 90.5267 2.98C90.5267 3.22213 90.4927 3.49885 90.3906 3.74098C90.2887 3.98311 90.1186 4.19065 89.9485 4.3636C89.5405 4.74409 89.0303 4.91704 88.4862 4.91704C88.2142 4.91704 87.9421 4.88245 87.7041 4.77868C87.466 4.67491 87.2279 4.53655 87.0239 4.3636C86.8199 4.19065 86.6839 3.98311 86.5818 3.74098C86.4798 3.49885 86.4458 3.25672 86.4458 2.98ZM90.1526 7.1308V21.5202H86.7859V7.1308H90.1526ZM100.422 19.0643C101.001 19.0643 101.545 18.926 102.089 18.7184C102.701 18.4763 103.245 18.165 103.755 17.7845V20.9668C103.177 21.2781 102.565 21.5202 101.919 21.6586C101.171 21.8315 100.422 21.9007 99.6743 21.9007C98.7226 21.9353 97.7701 21.7969 96.886 21.451C96.0018 21.1051 95.1856 20.5863 94.5055 19.8945C93.8253 19.2373 93.3153 18.4071 92.9752 17.5424C92.6351 16.643 92.465 15.7091 92.4991 14.7406C92.431 12.6652 93.1452 10.5898 94.5395 9.03325C95.8998 7.54588 97.8041 6.7849 100.287 6.7849C100.933 6.7849 101.579 6.85408 102.191 7.02703C102.735 7.16539 103.245 7.33833 103.721 7.58046V10.8319C103.245 10.4514 102.701 10.1747 102.123 9.93259C101.579 9.72505 101.035 9.62127 100.457 9.62127C99.8443 9.58668 99.2663 9.69046 98.6882 9.93259C98.1442 10.1747 97.6341 10.5206 97.226 10.9357C96.3759 11.9042 95.9338 13.1494 96.0018 14.4639C95.9678 15.0865 96.0358 15.7091 96.2398 16.2971C96.4438 16.8852 96.7499 17.404 97.158 17.8883C97.6001 18.3034 98.0763 18.6147 98.6547 18.8222C99.2663 19.0297 99.8443 19.0989 100.422 19.0643ZM113.379 6.88866C113.617 6.88866 113.855 6.88867 114.093 6.95785C114.263 6.99244 114.468 7.02702 114.638 7.0962V10.5206C114.4 10.3477 114.127 10.2439 113.855 10.1401C113.447 10.0018 113.039 9.96717 112.631 9.96717C112.223 9.96717 111.815 10.0709 111.475 10.2439C111.101 10.4168 110.795 10.6936 110.557 11.0049C109.911 11.9734 109.605 13.1149 109.706 14.2563V21.5202H106.306V7.1308H109.673V9.41373H109.741C110.013 8.68734 110.489 8.03013 111.135 7.58046C111.781 7.13079 112.563 6.88866 113.379 6.88866ZM114.808 14.533C114.74 13.4954 114.91 12.4922 115.249 11.4891C115.589 10.5206 116.134 9.62128 116.814 8.8603C118.141 7.4767 120.011 6.7849 122.391 6.7849C123.377 6.71572 124.33 6.85408 125.248 7.19998C126.166 7.54588 126.982 8.06473 127.662 8.75652C128.989 10.2439 129.669 12.1809 129.567 14.1871C129.6 15.1903 129.465 16.228 129.124 17.1619C128.784 18.1304 128.241 18.9952 127.56 19.7561C126.846 20.4479 125.996 21.0014 125.043 21.3819C124.092 21.7278 123.106 21.9007 122.085 21.8315C121.099 21.8661 120.146 21.7278 119.229 21.3819C118.311 21.036 117.494 20.5171 116.78 19.8599C116.1 19.1681 115.589 18.3379 115.249 17.404C114.944 16.5047 114.773 15.5362 114.808 14.533ZM118.344 14.4293C118.242 15.6745 118.617 16.8852 119.365 17.8883C119.738 18.3034 120.181 18.6147 120.691 18.8222C121.201 19.0297 121.745 19.1335 122.29 19.0989C122.833 19.1335 123.344 19.0297 123.819 18.8222C124.295 18.6147 124.738 18.3034 125.078 17.8883C125.792 16.8506 126.132 15.6053 126.03 14.3601C126.132 13.1149 125.758 11.8696 125.043 10.8665C124.704 10.486 124.262 10.1747 123.752 9.96717C123.276 9.75963 122.731 9.69045 122.221 9.72504C121.677 9.69045 121.133 9.79422 120.623 10.0018C120.113 10.2093 119.67 10.5552 119.33 10.9703C118.617 11.9388 118.276 13.184 118.344 14.4293ZM134.6 10.9011C134.6 11.1086 134.634 11.3162 134.702 11.5237C134.77 11.7313 134.905 11.9042 135.075 12.0426C135.688 12.4922 136.368 12.8381 137.116 13.0803C138.205 13.4608 139.191 14.0834 139.972 14.9135C140.517 15.6053 140.823 16.4701 140.789 17.3694C140.823 17.9921 140.687 18.6147 140.415 19.2027C140.143 19.7561 139.735 20.275 139.259 20.6555C138.035 21.5202 136.538 21.9699 135.042 21.9007C134.362 21.9007 133.716 21.8315 133.07 21.6932C132.423 21.5894 131.811 21.3819 131.233 21.1397V17.8191C131.845 18.2342 132.525 18.5801 133.205 18.8568C133.818 19.0989 134.464 19.2373 135.144 19.2373C135.722 19.2719 136.3 19.1681 136.844 18.926C137.014 18.8222 137.184 18.6493 137.286 18.4763C137.389 18.3034 137.422 18.0612 137.389 17.8537C137.389 17.6116 137.354 17.404 137.252 17.1965C137.15 16.9889 137.014 16.816 136.844 16.6776C136.198 16.1934 135.45 15.8475 134.702 15.5707C133.681 15.1903 132.797 14.6022 132.049 13.8067C131.506 13.0803 131.233 12.2155 131.267 11.3162C131.267 10.6936 131.403 10.1055 131.675 9.5175C131.947 8.96406 132.355 8.4798 132.832 8.09931C133.988 7.23456 135.382 6.7849 136.844 6.85408C137.422 6.85408 137.967 6.92326 138.545 7.02703C139.089 7.1308 139.599 7.26915 140.109 7.4421V10.659C139.633 10.3477 139.089 10.0709 138.545 9.89799C137.967 9.69045 137.389 9.58669 136.776 9.58669C136.232 9.5521 135.722 9.69045 135.28 9.96717C135.11 10.0709 134.974 10.2439 134.872 10.4168C134.634 10.5206 134.6 10.7282 134.6 10.9011ZM142.217 14.533C142.149 13.4954 142.319 12.4922 142.659 11.4891C143 10.5206 143.543 9.62128 144.224 8.8603C145.55 7.4767 147.421 6.7849 149.801 6.7849C150.787 6.71572 151.74 6.85408 152.657 7.19998C153.575 7.54588 154.392 8.06473 155.072 8.75652C156.398 10.2439 157.078 12.1809 156.976 14.1871C157.045 15.1903 156.875 16.228 156.535 17.1619C156.194 18.1304 155.65 18.9952 154.97 19.7561C154.256 20.4479 153.405 21.0014 152.453 21.3819C151.501 21.7278 150.515 21.9007 149.495 21.8315C148.508 21.8661 147.556 21.7278 146.638 21.3819C145.72 21.036 144.904 20.5171 144.19 19.8599C143.51 19.1681 143 18.3379 142.659 17.404C142.319 16.5047 142.184 15.5362 142.217 14.533ZM145.72 14.4293C145.652 15.6745 145.992 16.8852 146.74 17.8883C147.114 18.3034 147.556 18.6147 148.067 18.8222C148.577 19.0297 149.121 19.1335 149.665 19.0989C150.209 19.1335 150.719 19.0297 151.195 18.8222C151.671 18.6147 152.113 18.3034 152.453 17.8883C153.167 16.8506 153.507 15.6053 153.405 14.3601C153.507 13.1149 153.134 11.8696 152.419 10.8665C152.079 10.486 151.637 10.1747 151.162 9.96717C150.685 9.75963 150.141 9.69045 149.631 9.72504C149.087 9.69045 148.543 9.79422 148.032 10.0018C147.522 10.2093 147.081 10.5552 146.74 10.9703C146.026 11.9388 145.652 13.184 145.72 14.4293ZM168.199 9.89799H163.166V21.5202H159.731V9.89799H157.351V7.1308H159.731V5.15916C159.697 4.46736 159.833 3.77557 160.071 3.15295C160.309 2.49574 160.717 1.9423 161.194 1.45804C161.703 0.973778 162.281 0.593289 162.928 0.35116C163.574 0.10903 164.254 -0.0293301 164.968 0.00525982C165.343 0.00525982 165.682 0.0398488 166.056 0.0744387C166.329 0.109029 166.634 0.178209 166.907 0.247389V3.18754C166.702 3.08377 166.532 3.01459 166.329 2.94541C166.022 2.84164 165.682 2.80705 165.376 2.80705C165.07 2.77246 164.763 2.84164 164.492 2.94541C164.22 3.04918 163.947 3.22213 163.744 3.46426C163.302 4.0177 163.098 4.74409 163.166 5.43589V7.16538H168.199V3.91393L171.599 2.87623V7.1308H175V9.89799H171.566V16.643C171.497 17.3002 171.667 17.9575 172.042 18.5109C172.245 18.7184 172.483 18.8568 172.722 18.9606C172.993 19.0643 173.266 19.0989 173.538 19.0643C173.776 19.0643 174.014 18.9952 174.252 18.926C174.49 18.8568 174.762 18.753 174.966 18.5801V21.3819C174.626 21.5548 174.252 21.6586 173.878 21.7278C173.401 21.8315 172.892 21.9007 172.415 21.9007C171.837 21.9353 171.259 21.8661 170.681 21.6586C170.137 21.451 169.627 21.1397 169.185 20.7592C168.403 19.7907 168.028 18.5801 168.131 17.3348L168.199 9.89799Z" fill="black"/>
<path d="M22.6146 1.45801H0V24.1144H22.6146V1.45801Z" fill="#F25022"/>
<path d="M47.5757 1.45801H24.9609V24.1144H47.5757V1.45801Z" fill="#7FBA00"/>
<path d="M22.6146 26.4668H0V49.1232H22.6146V26.4668Z" fill="#02ADE3"/>
<path d="M47.5757 26.4668H24.9609V49.1232H47.5757V26.4668Z" fill="#FFB900"/>
</g>
<defs>
<clipPath id="clip0_24_7666">
<rect width="175" height="50" fill="white"/>
</clipPath>
</defs>
</svg>
