<svg width="18" height="15" viewBox="0 0 18 15" fill="none" xmlns="http://www.w3.org/2000/svg">
<path d="M18 1.77927C17.3381 2.07995 16.627 2.28311 15.8794 2.37493C16.6508 1.90181 17.2278 1.15718 17.503 0.279967C16.7783 0.721218 15.9851 1.03181 15.158 1.19824C14.6018 0.58947 13.8651 0.185967 13.0623 0.050377C12.2594 -0.0852125 11.4354 0.0546982 10.7181 0.448387C10.0007 0.842076 9.43028 1.46752 9.09525 2.22761C8.76022 2.9877 8.67936 3.83991 8.86523 4.65193C7.39683 4.57635 5.96033 4.18511 4.64898 3.5036C3.33762 2.82209 2.18071 1.86554 1.25332 0.696035C0.936228 1.25675 0.753898 1.90686 0.753898 2.59922C0.753544 3.22251 0.903276 3.83624 1.18981 4.38598C1.47634 4.93572 1.89082 5.40446 2.39646 5.75061C1.81005 5.73148 1.23658 5.56905 0.723773 5.27684V5.3256C0.723714 6.19978 1.0187 7.04707 1.55868 7.72368C2.09865 8.40029 2.85036 8.86456 3.68625 9.03771C3.14226 9.18863 2.57192 9.21086 2.01832 9.10272C2.25416 9.8549 2.71355 10.5127 3.33219 10.9839C3.95082 11.4551 4.69772 11.7163 5.46833 11.7308C4.16018 12.7835 2.54461 13.3545 0.881529 13.352C0.586931 13.3521 0.292582 13.3344 0 13.2992C1.68813 14.4118 3.65322 15.0023 5.66018 15C12.454 15 16.168 9.23193 16.168 4.22936C16.168 4.06683 16.164 3.90268 16.1569 3.74016C16.8793 3.20461 17.5029 2.54144 17.9984 1.78171L18 1.77927Z" fill="#9C9EAD"/>
</svg>
