<svg width="20" height="14" viewBox="0 0 20 14" fill="none" xmlns="http://www.w3.org/2000/svg">
<path d="M15.8461 0.00100229H4.15393C1.859 0.00100229 0 1.84021 0 4.10939V9.89061C0 12.1598 1.86 14 4.15393 14H15.8461C18.141 14 20 12.1598 20 9.89061V4.10939C20 1.84021 18.14 0 15.8461 0V0.00100229ZM13.037 7.28064L7.56827 9.86154C7.53492 9.8776 7.49804 9.88497 7.46107 9.88294C7.42411 9.88092 7.38825 9.86958 7.35685 9.84997C7.32544 9.83037 7.29951 9.80313 7.28146 9.77081C7.2634 9.73848 7.25382 9.70212 7.25359 9.66509V4.34393C7.25426 4.30672 7.26434 4.27028 7.28288 4.23801C7.30142 4.20574 7.32783 4.17869 7.35964 4.15938C7.39146 4.14007 7.42764 4.12913 7.46482 4.12758C7.502 4.12602 7.53897 4.1339 7.57228 4.15049L13.042 6.89175C13.0785 6.90992 13.109 6.938 13.1302 6.97276C13.1514 7.00752 13.1624 7.04756 13.1619 7.08827C13.1614 7.12898 13.1494 7.16872 13.1273 7.20293C13.1052 7.23713 13.0739 7.26441 13.037 7.28164V7.28064Z" fill="#9C9EAD"/>
</svg>
