<svg width="47" height="50" viewBox="0 0 47 50" fill="none" xmlns="http://www.w3.org/2000/svg">
<path d="M45.8807 40.449H39.0635L38.4528 39.8365C41.9955 35.9067 44.1558 30.7017 44.1558 24.9999C44.1558 18.5503 41.3801 12.4887 36.5334 8.27417L36.533 1.12351C36.533 0.503156 36.031 0 35.413 0H8.74283C8.1244 0 7.6228 0.503567 7.6228 1.12351V8.27457C2.77533 12.4904 0 18.5516 0 25.0003C0 37.2115 9.90427 47.1464 22.0776 47.1464C27.7623 47.1464 32.9509 44.9789 36.8684 41.426L37.479 42.0385V48.8765C37.479 49.4968 37.981 50 38.599 50H43.2422C43.8606 50 44.3622 49.4964 44.3622 48.8765V47.354H45.88C46.4984 47.354 47 46.8504 47 46.2305V41.5729C47 40.953 46.4984 40.4494 45.88 40.4494L45.8807 40.449ZM9.86241 2.24636H34.2923V6.55279C34.2497 6.52418 34.2044 6.50067 34.1614 6.47206C33.7598 6.20872 33.3531 5.95596 32.9359 5.71965C32.9046 5.7024 32.873 5.68594 32.8417 5.66909C32.4346 5.44102 32.0201 5.22823 31.6002 5.0268C31.5381 4.99702 31.4763 4.96567 31.4138 4.93588C30.988 4.7372 30.5559 4.55341 30.1184 4.38137C30.0332 4.34806 29.9476 4.31554 29.8625 4.28301C29.4218 4.11686 28.9768 3.96167 28.526 3.82333C28.4651 3.80413 28.4022 3.78807 28.3412 3.77004C27.8982 3.63876 27.4513 3.52002 27.0005 3.41617C26.9575 3.40598 26.9153 3.39423 26.8723 3.38482C26.407 3.28097 25.9371 3.19554 25.4648 3.12187C25.3761 3.10776 25.2874 3.09365 25.1975 3.08072C24.7338 3.01371 24.2677 2.96159 23.799 2.92436C23.7165 2.91809 23.6337 2.91378 23.5521 2.9079C23.0618 2.87498 22.5703 2.85303 22.0773 2.85303C21.5843 2.85303 21.0928 2.87498 20.6033 2.9079C20.5209 2.91338 20.4381 2.91809 20.3556 2.92436C19.8876 2.96159 19.4219 3.0141 18.9582 3.08072C18.8679 3.09365 18.7777 3.10776 18.6882 3.12226C18.2179 3.19593 17.749 3.28058 17.2854 3.38443C17.2393 3.39501 17.1947 3.40755 17.1494 3.41774C16.7025 3.52041 16.2591 3.63837 15.8191 3.76887C15.7547 3.78807 15.6902 3.80492 15.6258 3.82452C15.1777 3.96207 14.7346 4.11607 14.2963 4.28145C14.2084 4.31515 14.1205 4.34886 14.0326 4.38295C13.5974 4.55381 13.1673 4.73642 12.7433 4.93394C12.6777 4.9649 12.614 4.99742 12.5484 5.02877C12.1323 5.22824 11.7214 5.43947 11.3174 5.6652C11.2838 5.68361 11.2498 5.70047 11.2166 5.71967C10.8009 5.9544 10.3954 6.20717 9.99492 6.46974C9.95078 6.49834 9.90468 6.52264 9.86092 6.55164V2.24642L9.86241 2.24636ZM22.0778 44.8983C11.1386 44.8983 2.2405 35.972 2.2405 24.9994C2.2405 19.0377 4.87442 13.4393 9.46716 9.64111C13.0039 6.71291 17.4822 5.09993 22.0776 5.09993C22.9395 5.09993 23.797 5.15675 24.6452 5.26805C24.9835 5.31233 25.3198 5.36876 25.6551 5.43029C27.6377 5.79591 29.5535 6.4629 31.3334 7.40463C32.5191 8.03164 33.6458 8.77784 34.6889 9.64111C34.6889 9.64111 34.6893 9.6415 34.6901 9.6415C39.2813 13.4392 41.9152 19.0373 41.9152 24.9988C41.9152 30.0815 40.0032 34.723 36.8658 38.2443L33.0622 34.4286C35.2309 31.8899 36.5458 28.5966 36.5458 24.9987C36.5458 16.9957 30.0553 10.4861 22.0781 10.4861C14.0999 10.4861 7.61041 16.9968 7.61041 24.9987C7.61041 33.0006 14.1003 39.5123 22.0781 39.5123C25.664 39.5123 28.9484 38.1933 31.4788 36.0175L35.2824 39.8332C31.7722 42.9804 27.1451 44.8983 22.0778 44.8983L22.0778 44.8983ZM27.4832 28.8327C28.2493 27.748 28.7052 26.427 28.7052 24.9997C28.7052 21.3341 25.7319 18.3518 22.0778 18.3518C18.4235 18.3518 15.4505 21.3344 15.4505 24.9997C15.4505 28.6651 18.4235 31.6477 22.0778 31.6477C23.501 31.6477 24.8184 31.1907 25.899 30.4218L29.8913 34.4265C27.7707 36.1978 25.0466 37.2657 22.0778 37.2657C15.3353 37.2657 9.8494 31.7632 9.8494 24.9993C9.8494 18.2354 15.3349 12.7329 22.0778 12.7329C28.8208 12.7329 34.3063 18.2354 34.3063 24.9993C34.3063 27.9777 33.2421 30.7103 31.4759 32.837L27.4832 28.8327ZM22.8697 24.2054C22.4322 23.7665 21.7227 23.7665 21.286 24.2054C20.8484 24.6443 20.8484 25.3556 21.286 25.7941L24.2816 28.799C23.6331 29.1788 22.8814 29.4006 22.0778 29.4006C19.6588 29.4006 17.691 27.4262 17.691 25.0001C17.691 22.5735 19.6593 20.5997 22.0778 20.5997C24.4969 20.5997 26.4647 22.574 26.4647 25.0001C26.4647 25.8062 26.2435 26.5598 25.8654 27.2103L22.8697 24.2054ZM44.7603 45.1065H43.2425C42.6241 45.1065 42.1225 45.6101 42.1225 46.23V47.7525H39.7195V42.6964H44.7599L44.7603 45.1065Z" fill="#050A24"/>
</svg>
