<svg width="80" height="80" viewBox="0 0 80 80" fill="none" xmlns="http://www.w3.org/2000/svg">
<g opacity="0.2">
<path d="M16.1228 63H49.1179C49.7383 63 50.2414 62.4934 50.2414 61.8697L50.2418 18.1303C50.2418 17.5062 49.7382 17 49.1183 17H27.0744C27.0007 17 26.9282 17.0079 26.8577 17.0213C26.8565 17.0213 26.8553 17.0213 26.8541 17.0217C26.7593 17.0402 26.6692 17.0765 26.5829 17.1191C26.5606 17.1305 26.5391 17.1415 26.5179 17.1545C26.4325 17.2038 26.3509 17.2602 26.2804 17.3316L15.3292 28.3482C15.2583 28.4195 15.2018 28.5015 15.1532 28.5879C15.1415 28.6092 15.1297 28.6305 15.1183 28.6521C15.076 28.7397 15.0404 28.8303 15.0216 28.9261C15.0212 28.9265 15.0216 28.9277 15.0212 28.9289C15.0078 29.0007 15 29.0736 15 29.1473V61.8701C15 62.4942 15.5032 63 16.1235 63L16.1228 63ZM47.9943 60.7393H17.2464V30.2784H27.0737C27.694 30.2784 28.1972 29.7718 28.1972 29.1481V19.2613H47.9939L47.9943 60.7393ZM25.9504 20.8596V28.0174H18.8353L25.9504 20.8596Z" fill="#050A24"/>
<path d="M24.1113 34.0488C23.491 34.0488 22.9878 34.5555 22.9878 35.1792C22.9878 35.8033 23.4914 36.3095 24.1113 36.3095H41.129C41.7494 36.3095 42.2526 35.8029 42.2526 35.1792C42.2526 34.555 41.749 34.0488 41.129 34.0488H24.1113Z" fill="#050A24"/>
<path d="M41.129 42.7212H24.1113C23.491 42.7212 22.9878 43.2278 22.9878 43.8515C22.9878 44.4756 23.4914 44.9818 24.1113 44.9818H41.129C41.7494 44.9818 42.2526 44.4752 42.2526 43.8515C42.2526 43.2278 41.7494 42.7212 41.129 42.7212Z" fill="#050A24"/>
<path d="M41.129 51.394H24.1113C23.491 51.394 22.9878 51.9007 22.9878 52.5244C22.9878 53.1485 23.4914 53.6547 24.1113 53.6547H41.129C41.7494 53.6547 42.2526 53.1481 42.2526 52.5244C42.2526 51.9002 41.7494 51.394 41.129 51.394Z" fill="#050A24"/>
<path d="M63.8764 20.6292H55.9172C55.2969 20.6292 54.7937 21.1358 54.7937 21.7595V55.7934C54.7937 55.8951 54.8109 55.9913 54.836 56.0843C54.8423 56.108 54.8493 56.1301 54.8572 56.1533C54.8866 56.2405 54.9234 56.3241 54.9716 56.4009C54.9751 56.4053 54.9759 56.4116 54.9791 56.4155L54.9857 56.4258L58.9587 62.4915C59.1664 62.8093 59.5187 62.9997 59.8969 62.9997C60.2751 62.9997 60.6274 62.8085 60.8351 62.4915L64.8076 56.4258L64.8143 56.4155C64.8178 56.4112 64.8182 56.4049 64.8217 56.4009C64.8699 56.3241 64.9072 56.2409 64.9362 56.1533C64.944 56.1301 64.9515 56.108 64.9573 56.0843C64.982 55.9909 64.9997 55.8951 64.9997 55.7934L65.0001 27.989V21.7592C65.0001 21.1347 64.4969 20.6289 63.8765 20.6289L63.8764 20.6292ZM57.0407 54.6631V29.1195H62.7529V54.6631H57.0407ZM57.0407 22.8901H62.7529V26.8591H57.0407V22.8901ZM59.8972 59.8166L58.0032 56.9254H61.7904L59.8972 59.8166Z" fill="#050A24"/>
</g>
</svg>
